<svg width="208" height="40" viewBox="0 0 208 40" fill="none" xmlns="http://www.w3.org/2000/svg">
<path d="M165.992 40.4393H126.806C126.817 40.2374 126.837 40.0354 126.837 39.8334C126.837 26.5986 126.837 13.3636 126.837 0.128195C126.837 -0.43309 126.837 -0.43309 127.372 -0.43309C140.069 -0.43309 152.767 -0.43309 165.464 -0.43309C166.067 -0.43309 165.995 -0.512649 165.995 0.12295C165.995 13.4166 165.995 26.71 165.995 40.003C166.001 40.149 165.995 40.2907 165.992 40.4393ZM146.525 27.132C146.543 26.9029 146.742 26.8478 146.88 26.7429C151.116 23.5483 155.355 20.3554 159.599 17.1643C159.726 17.069 159.85 16.9641 160.063 16.7875H159.49C156.345 16.7875 153.2 16.7823 150.054 16.7954C149.736 16.7954 149.606 16.6975 149.508 16.3749C148.553 13.2595 147.584 10.1491 146.6 7.04372C146.556 6.90121 146.561 6.72111 146.394 6.61969C146.351 6.74646 146.31 6.86537 146.272 6.98514C145.295 10.1089 144.314 13.231 143.351 16.3583C143.247 16.6931 143.109 16.7954 142.766 16.7954C139.62 16.7797 136.475 16.7858 133.329 16.7858H132.782C132.991 16.9545 133.094 17.0437 133.2 17.1259C135.749 19.0452 138.299 20.9613 140.851 22.8742C141.12 23.0753 141.193 23.2388 141.084 23.5737C140.275 26.0994 139.486 28.6322 138.692 31.1632C138.474 31.8627 138.262 32.5568 138.035 33.2938C138.244 33.2676 138.336 33.1513 138.443 33.0709C140.994 31.1557 143.544 29.2395 146.095 27.3225C146.217 27.2351 146.314 27.0393 146.518 27.1477C146.56 27.1862 146.602 27.2281 146.644 27.2622C149.263 29.2556 151.882 31.2475 154.501 33.2379C154.581 33.2982 154.643 33.4128 154.791 33.3813C154.784 33.3241 154.773 33.2675 154.759 33.2117C153.996 30.7637 153.224 28.3157 152.477 25.8581C152.385 25.5556 152.254 25.5635 152.03 25.6238C150.874 25.9351 149.717 26.2358 148.561 26.5514C147.884 26.7394 147.183 26.8504 146.525 27.132Z" fill="#4BAD4B"/>
<path d="M81.1925 40.4393H42.009C42.009 40.2942 41.9998 40.1491 41.9998 40.0022C41.9998 26.7085 41.9998 13.4152 41.9998 0.122091C41.9998 -0.513507 41.9287 -0.433948 42.5306 -0.433948C55.2148 -0.433948 67.8986 -0.433948 80.5823 -0.433948C81.2176 -0.433948 81.1582 -0.53449 81.1582 0.170177C81.1582 13.391 81.1582 26.6115 81.1582 39.8317C81.1649 40.0354 81.1816 40.2374 81.1925 40.4393ZM61.6471 27.0288C66.1416 23.6483 70.646 20.2616 75.1605 16.8688C74.9549 16.7456 74.8011 16.7902 74.6548 16.7902C71.5092 16.7902 68.3637 16.7823 65.2181 16.7954C64.9047 16.7954 64.7542 16.708 64.6564 16.3889C64.1097 14.5809 63.5413 12.7799 62.9787 10.9771C62.5257 9.5258 62.0701 8.07625 61.6103 6.60572C61.4432 6.73511 61.4432 6.90822 61.3972 7.05248C60.425 10.1465 59.4512 13.2406 58.4999 16.3425C58.3887 16.7027 58.2299 16.7937 57.888 16.7919C54.7567 16.7788 51.6253 16.7832 48.4932 16.7867C48.3485 16.7867 48.1947 16.743 48.0167 16.8505C48.1387 16.9484 48.2407 17.0358 48.3511 17.1128C50.9223 19.0484 53.495 20.9817 56.0691 22.9127C56.3031 23.0876 56.3432 23.2353 56.2538 23.5168C55.5433 25.7419 54.8495 27.9756 54.1515 30.2007C53.8305 31.228 53.5128 32.2561 53.1542 33.4075L61.6655 27.0096C61.6471 27.2133 61.8176 27.2649 61.9313 27.3514C64.4692 29.2871 67.0081 31.2195 69.5482 33.1487C69.6569 33.2309 69.7455 33.3577 69.8976 33.3629C69.9477 33.2755 69.9135 33.1881 69.8876 33.1094C69.1353 30.6868 68.3712 28.2677 67.6306 25.8389C67.5328 25.5163 67.3798 25.5679 67.1742 25.6212C66.151 25.8914 65.132 26.1764 64.1064 26.4299C63.288 26.6389 62.4922 26.9449 61.6471 27.0288Z" fill="#4BAD4B"/>
<path d="M208.434 -0.450562C208.434 13.0471 208.437 26.5453 208.442 40.0441C208.442 40.3711 208.371 40.4446 208.058 40.4446C195.122 40.4347 182.186 40.432 169.25 40.4367C169.255 40.2479 169.264 40.059 169.264 39.8702C169.264 26.6214 169.264 13.3723 169.264 0.122963C169.264 -0.505641 169.196 -0.434825 169.798 -0.434825C182.495 -0.434825 195.193 -0.434825 207.89 -0.434825C208.073 -0.433951 208.253 -0.442693 208.434 -0.450562ZM189.013 26.9239C189.084 26.8802 189.159 26.8435 189.226 26.7927C193.016 23.9426 196.807 21.091 200.6 18.238C201.201 17.7851 201.801 17.3287 202.426 16.8557C202.234 16.7456 202.08 16.7875 201.934 16.7875C198.816 16.7875 195.697 16.777 192.578 16.7945C192.199 16.7945 192.025 16.6957 191.909 16.3049C191.139 13.7695 190.342 11.2341 189.551 8.69873C189.331 7.99057 189.104 7.2859 188.859 6.51305C188.796 6.6879 188.759 6.77533 188.729 6.87412C187.749 10.0128 186.762 13.1488 185.803 16.2927C185.684 16.6835 185.519 16.791 185.134 16.7893C182.001 16.7709 178.865 16.7779 175.737 16.7814C175.599 16.7814 175.443 16.7307 175.302 16.861C175.447 16.9711 175.57 17.0656 175.694 17.1591C178.243 19.0778 180.794 20.9948 183.346 22.9101C183.579 23.0849 183.632 23.224 183.54 23.509C182.902 25.4997 182.28 27.4965 181.656 29.4916C181.256 30.7681 180.858 32.0445 180.429 33.4171L188.922 27.0096C188.937 27.1958 189.089 27.2587 189.208 27.3488C191.766 29.2996 194.326 31.2489 196.887 33.1968C196.99 33.2755 197.1 33.3437 197.258 33.4512C197.226 33.3262 197.213 33.272 197.197 33.2195C196.439 30.7838 195.67 28.3525 194.933 25.9097C194.827 25.56 194.682 25.56 194.411 25.6291C192.745 26.075 191.078 26.5153 189.409 26.9501C189.28 26.9912 189.127 27.1276 189.013 26.9265V26.9239Z" fill="#4BAD4B"/>
<path d="M38.7506 40.439H-0.432904C-0.432904 26.985 -0.435978 13.5308 -0.442108 0.0762852C-0.442108 -0.347739 -0.341798 -0.443909 0.0594407 -0.443909C12.772 -0.431669 25.4849 -0.42788 38.198 -0.432543C38.7991 -0.432543 38.7372 -0.508605 38.7372 0.119999C38.7372 13.3717 38.7372 26.6225 38.7372 39.8725C38.7372 40.0613 38.7464 40.2501 38.7506 40.439ZM19.1567 27.15C19.3055 27.1666 19.3983 27.2846 19.5087 27.3686C22.0582 29.3077 24.6072 31.2474 27.1556 33.1877C27.2685 33.2752 27.388 33.3504 27.5652 33.4728C26.7544 30.8622 25.9636 28.3338 25.1879 25.8001C25.1043 25.5308 24.9689 25.571 24.7883 25.6191C23.8613 25.8666 22.9309 26.1009 22.0072 26.3588C21.0568 26.6211 20.0846 26.8055 19.1567 27.1526C19.2253 27.0005 19.3607 26.9218 19.4844 26.8291C22.9713 24.2063 26.4573 21.5835 29.9426 18.9606C30.8621 18.2691 31.7765 17.5705 32.6935 16.8746L32.6735 16.7872H32.2371C29.0908 16.7872 25.9452 16.7802 22.7997 16.7977C22.4536 16.7977 22.3199 16.6805 22.2212 16.3553C21.6988 14.6304 21.1571 12.9115 20.6204 11.191C20.1415 9.65835 19.66 8.12574 19.1567 6.52057C19.0932 6.7033 19.0539 6.80908 19.0197 6.91749C18.0375 10.0544 17.0502 13.1878 16.0806 16.3352C15.9761 16.6735 15.8415 16.8038 15.4796 16.8021C12.334 16.7837 9.18847 16.7907 6.04209 16.7933C5.89998 16.7933 5.74867 16.7601 5.57146 16.8563C5.76205 17.0023 5.91502 17.1185 6.07301 17.2383C8.58855 19.1314 11.1055 21.0222 13.6238 22.9106C13.8596 23.0855 13.9281 23.2359 13.8303 23.541C12.8562 26.5875 11.8954 29.6391 10.9481 32.6955C10.8854 32.8975 10.7759 33.0968 10.7926 33.36C10.9155 33.2725 11.0074 33.2061 11.0977 33.1388C13.6355 31.2288 16.1742 29.3199 18.7137 27.4123C18.8475 27.3091 18.9578 27.1439 19.1567 27.1491V27.15Z" fill="#4BAD4B"/>
<path d="M123.124 40.8724H84.0242C84.0159 40.7133 84 40.5541 84 40.395C84 27.1183 84 13.8412 84 0.563908C84 -2.50132e-07 84 0 84.5308 0H122.618C123.148 0 123.148 -2.50132e-07 123.148 0.563908C123.148 13.8418 123.148 27.1189 123.148 40.395C123.148 40.5541 123.133 40.7133 123.124 40.8724ZM111.976 33.7645L111.965 33.7776H111.983C111.937 33.6587 111.883 33.5416 111.845 33.4201C111.106 31.0543 110.369 28.6879 109.634 26.3209C109.568 26.1067 109.525 25.9669 109.247 26.0429C107.408 26.5456 105.569 27.0309 103.73 27.5213C103.717 27.3106 103.897 27.2757 104.014 27.19C108.287 23.9674 112.562 20.7469 116.837 17.5284C116.932 17.4575 117.048 17.4051 117.1 17.2713C116.938 17.1839 116.785 17.2241 116.638 17.2241C113.505 17.2241 110.373 17.2171 107.24 17.2302C106.913 17.2302 106.762 17.1524 106.655 16.8018C105.861 14.1939 105.04 11.5946 104.226 8.99367C104.026 8.35458 103.821 7.71723 103.61 7.05278C103.453 7.18305 103.448 7.33517 103.408 7.46369C102.432 10.5726 101.452 13.6815 100.495 16.7975C100.389 17.1419 100.244 17.2346 99.9141 17.2302C96.7677 17.2171 93.6205 17.2215 90.4742 17.225C90.3346 17.225 90.1766 17.1699 90.032 17.3028C90.149 17.3963 90.2451 17.4776 90.3454 17.5528C92.9061 19.4815 95.4696 21.4072 98.0358 23.33C98.3025 23.5285 98.3451 23.6894 98.2415 24.0059C97.7725 25.4449 97.337 26.8953 96.8815 28.3396C96.3172 30.1258 95.7438 31.9093 95.1753 33.6937H95.1996L95.182 33.678C95.3885 33.8082 95.4846 33.5958 95.6 33.5084C98.1529 31.5955 100.703 29.679 103.25 27.7591C103.399 27.6472 103.526 27.4619 103.752 27.5047C103.599 27.6796 103.803 27.6874 103.865 27.7346C106.461 29.7163 109.06 31.696 111.661 33.6736C111.751 33.7435 111.834 33.8895 111.976 33.7645Z" fill="#4BAD4B"/>
<path d="M95.6042 33.2457L95.6232 33.2618H95.5969L95.6042 33.2457Z" fill="#4BAD4B"/>
<path d="M112.411 33.3432H112.391L112.403 33.3306C112.406 33.3345 112.409 33.3388 112.411 33.3432Z" fill="#4BAD4B"/>
</svg>
