<svg width="123" height="30" viewBox="0 0 123 30" fill="none" xmlns="http://www.w3.org/2000/svg">
<path d="M20.9711 19.4686C21.5571 21.2682 22.1433 23.0676 22.7297 24.8668C22.999 25.6933 23.2668 26.521 23.5331 27.3498C23.5684 27.4602 23.6368 27.5661 23.6103 27.6969C23.4884 27.6908 23.4161 27.6009 23.3344 27.5396C20.5097 25.4914 17.6875 23.4408 14.8679 21.3878C14.6841 21.2537 14.566 21.2459 14.3757 21.385C11.5593 23.4413 8.73862 25.4923 5.91348 27.538C5.81802 27.6069 5.72036 27.6737 5.61497 27.7476C5.58297 27.6373 5.63814 27.5589 5.66462 27.4784C6.75495 24.1368 7.84785 20.7961 8.94333 17.4563C9.01616 17.2356 8.9803 17.1252 8.79104 16.9862C5.94971 14.9324 3.11224 12.8733 0.278641 10.8089C0.208012 10.7571 0.140153 10.6986 0 10.5882H0.393417C3.88548 10.593 7.37755 10.5996 10.8696 10.6081C11.1041 10.6081 11.1974 10.538 11.2686 10.3173C12.3585 6.95655 13.4542 3.59764 14.5555 0.240578C14.5754 0.180985 14.5986 0.123048 14.6444 0C14.7779 0.402803 14.8943 0.747674 15.0064 1.09419C16.0029 4.16764 16.9972 7.24182 17.9893 10.3167C18.0605 10.5375 18.1548 10.6097 18.3888 10.6092C21.8897 10.6004 25.391 10.5983 28.8926 10.6031H29.2739C29.1271 10.7135 29.0377 10.7802 28.9467 10.8459C26.1234 12.893 23.3001 14.9403 20.4767 16.9878C20.3907 17.0507 20.2765 17.0888 20.2456 17.2085C20.16 17.2598 20.0706 17.3051 19.9901 17.3636C18.8471 18.1891 17.7051 19.0156 16.564 19.8433C15.9725 20.2715 15.3805 20.6991 14.7382 21.1632C16.7892 20.6318 18.7756 20.1181 20.7615 19.6C20.8393 19.5834 20.9579 19.6005 20.9711 19.4686Z" fill="#4BAD4B"/>
<path d="M84.629 24.4617C84.629 26.2556 84.623 27.9794 84.6356 29.7037C84.6356 29.9537 84.5683 30.0061 84.3316 29.9994C83.7063 29.9818 83.0809 29.9818 82.4555 29.9994C82.2304 30.0055 82.1675 29.9531 82.1681 29.7191C82.1769 26.6917 82.1789 23.664 82.1741 20.6362C82.1741 18.7828 82.1785 16.9293 82.1692 15.0764C82.1692 14.8557 82.2326 14.8033 82.4451 14.8082C83.0421 14.8226 83.6397 14.8198 84.2367 14.8082C84.4149 14.8049 84.4773 14.8507 84.4712 15.035C84.4585 15.4351 84.4674 15.8357 84.4674 16.2385C84.5104 16.2352 84.5358 16.2385 84.5407 16.2324C85.2338 15.0659 86.3219 14.5975 87.6164 14.5169C88.923 14.4352 90.1347 14.7249 91.1655 15.5653C92.1278 16.3499 92.6597 17.4011 92.9113 18.5963C93.2612 20.2566 93.1933 21.8899 92.4969 23.4608C91.8762 24.8618 90.8477 25.8335 89.3159 26.0983C87.7472 26.3742 86.2618 26.1364 85.0561 24.9633C84.916 24.8243 84.799 24.6615 84.629 24.4617ZM84.5424 20.4011C84.5218 21.0184 84.619 21.634 84.8288 22.2149C85.2603 23.4288 86.2998 24.2173 87.5452 24.2653C88.7503 24.3122 89.8208 23.628 90.313 22.472C90.6849 21.6007 90.7511 20.6776 90.6584 19.7495C90.5828 18.9346 90.2765 18.158 89.7755 17.5109C88.5395 15.9013 85.689 16.1866 84.9314 18.1857C84.6574 18.8915 84.5252 19.6443 84.5424 20.4011Z" fill="#282828"/>
<path d="M103.968 20.3702C103.941 19.2148 104.185 18.1691 104.701 17.2029C105.521 15.6706 106.853 14.8446 108.544 14.5858C109.599 14.4247 110.645 14.4755 111.66 14.8518C113.291 15.461 114.351 16.5987 114.841 18.2651C115.3 19.8344 115.282 21.3849 114.675 22.9145C114.002 24.6085 112.769 25.6524 110.987 26.0321C109.256 26.4007 107.621 26.202 106.141 25.1564C105.024 24.3673 104.441 23.2456 104.14 21.9511C104.014 21.4147 103.943 20.8701 103.968 20.3702ZM106.429 20.3509C106.422 21.0456 106.527 21.7226 106.816 22.3544C107.333 23.4861 108.163 24.2183 109.464 24.247C110.78 24.2763 111.682 23.6279 112.245 22.4675C112.477 21.98 112.617 21.4541 112.659 20.9159C112.748 19.8962 112.636 18.9035 112.124 17.9964C111.08 16.1474 108.593 15.9548 107.308 17.5329C106.637 18.3578 106.455 19.329 106.429 20.3509Z" fill="#282828"/>
<path d="M71.635 17.901C71.2675 17.901 70.9 17.901 70.5315 17.901C70.4454 17.901 70.3532 17.9264 70.324 17.7868C70.1535 16.9718 69.5813 16.6281 68.8148 16.4912C68.1527 16.3743 67.4983 16.3969 66.8643 16.6209C66.4593 16.7638 66.1232 17.0072 66.0852 17.4844C66.0493 17.9386 66.291 18.2437 66.6673 18.4633C66.8789 18.5903 67.1037 18.6939 67.3377 18.7723C68.1654 19.041 69.0317 19.1492 69.8704 19.3727C70.4697 19.5321 71.0755 19.6695 71.6361 19.957C73.7682 21.0539 73.6187 23.6992 72.226 24.9065C71.4943 25.5411 70.6462 25.8821 69.7176 26.0581C68.3287 26.3207 66.9619 26.2523 65.6459 25.7005C64.2538 25.1173 63.5276 24.0452 63.3836 22.5603C63.3643 22.3611 63.4079 22.2905 63.6275 22.2955C64.3068 22.3109 64.9871 22.3037 65.6691 22.2988C65.8065 22.2988 65.8898 22.3208 65.9135 22.4809C66.0636 23.601 66.6976 24.0005 67.6859 24.2052C68.4082 24.3553 69.131 24.2692 69.8312 24.0501C70.4934 23.8427 70.8498 23.3919 70.8244 22.8318C70.8057 22.3804 70.5684 22.0665 70.1982 21.8281C69.6784 21.4932 69.088 21.3674 68.4981 21.2443C67.5601 21.049 66.622 20.8376 65.7138 20.527C64.5164 20.117 63.6832 19.0923 63.6391 17.783C63.5933 16.4101 64.4629 15.4611 65.6426 14.96C66.6165 14.5462 67.6451 14.4678 68.6879 14.507C69.5675 14.5396 70.4117 14.7139 71.1804 15.1658C72.1708 15.748 72.7154 16.6253 72.9025 17.7443C72.9301 17.9099 72.8473 17.9038 72.7369 17.9033C72.3706 17.901 72.0025 17.901 71.635 17.901Z" fill="#282828"/>
<path d="M39.6622 19.407C39.6622 21.4806 39.6578 23.5542 39.6689 25.6278C39.6689 25.8607 39.5883 25.891 39.3891 25.8883C38.6817 25.8778 37.9738 25.8734 37.2664 25.8883C37.0286 25.8938 36.9613 25.8397 36.9618 25.5903C36.9714 21.4894 36.9736 17.3878 36.9684 13.2855C36.9684 12.9213 36.9684 12.9213 36.6136 12.9213C35.1983 12.9213 33.7835 12.9169 32.3682 12.9263C32.1635 12.9263 32.1022 12.881 32.1094 12.6708C32.1309 12.0567 32.1326 11.4414 32.1315 10.8267C32.1315 10.6612 32.1635 10.5895 32.3577 10.5895C36.3464 10.5957 40.3349 10.5957 44.3232 10.5895C44.4887 10.5895 44.5439 10.6242 44.5439 10.7997C44.5321 11.4328 44.5321 12.0659 44.5439 12.699C44.5472 12.8855 44.4887 12.9252 44.311 12.9241C42.8499 12.9175 41.3866 12.9241 39.9271 12.9153C39.7119 12.9153 39.6584 12.9677 39.6595 13.1829C39.6661 15.2598 39.6622 17.3334 39.6622 19.407Z" fill="#282828"/>
<path d="M59.2982 24.348C58.3127 25.775 57.0132 26.3428 55.354 26.1579C54.6692 26.0818 54.0154 25.9322 53.4421 25.5509C52.6204 24.9992 52.253 24.1687 52.0725 23.2334C51.9754 22.7269 51.9572 22.2154 51.9578 21.7017C51.96 19.5001 51.9585 17.2984 51.9533 15.0968C51.9533 14.8706 52.0047 14.8038 52.2375 14.8104C52.871 14.8281 53.5048 14.8281 54.139 14.8104C54.3762 14.8044 54.4226 14.8838 54.422 15.104C54.4139 17.196 54.4128 19.2876 54.4187 21.3789C54.4187 21.8452 54.4187 22.312 54.5385 22.771C54.7652 23.6539 55.3661 24.1902 56.2777 24.2669C56.8295 24.3133 57.373 24.2498 57.8839 24.0043C58.8071 23.5629 59.1812 22.7578 59.2358 21.8076C59.3462 19.9205 59.2606 18.0296 59.2794 16.1402C59.2833 15.7733 59.2915 15.4058 59.2755 15.0367C59.2673 14.8469 59.3357 14.8077 59.5112 14.8099C60.1733 14.8193 60.8354 14.8215 61.4976 14.8099C61.694 14.8066 61.7409 14.8651 61.7398 15.0554C61.731 16.1932 61.7354 17.3304 61.7354 18.4682C61.7354 20.8536 61.7354 23.2384 61.7404 25.6238C61.7404 25.8395 61.6852 25.8997 61.4711 25.8925C60.8283 25.8776 60.1843 25.8798 59.5398 25.8925C59.3528 25.8958 59.286 25.8544 59.2937 25.6552C59.3092 25.2337 59.2982 24.8154 59.2982 24.348Z" fill="#282828"/>
<path d="M75.7866 20.3791C75.7866 19.0499 75.7806 17.9673 75.7922 16.8847C75.7922 16.6767 75.7408 16.6215 75.5339 16.6287C75.066 16.6452 74.5959 16.6287 74.1285 16.638C73.9558 16.6419 73.9117 16.5829 73.9155 16.4173C73.926 15.9593 73.9271 15.5003 73.9155 15.0417C73.9106 14.8635 73.958 14.8011 74.144 14.8061C74.6119 14.8188 75.082 14.8006 75.5494 14.8149C75.7403 14.821 75.7944 14.773 75.7922 14.5777C75.7811 13.6236 75.7922 12.6696 75.7828 11.7156C75.7828 11.5274 75.822 11.4678 76.0201 11.4717C76.6822 11.4849 77.3443 11.4866 78.0065 11.4717C78.2228 11.4667 78.2625 11.539 78.2603 11.7376C78.2498 12.6757 78.2603 13.6093 78.2509 14.5446C78.2509 14.7405 78.2818 14.8116 78.4998 14.805C79.078 14.7863 79.6585 14.805 80.2362 14.794C80.4238 14.7896 80.4663 14.8492 80.4619 15.0252C80.4503 15.4743 80.4487 15.924 80.4619 16.3732C80.4674 16.5597 80.425 16.6259 80.2241 16.6209C79.6365 16.6066 79.0482 16.6209 78.4584 16.6132C78.3182 16.6132 78.2487 16.6276 78.2498 16.7992C78.2603 18.8634 78.2609 20.9271 78.2697 22.9913C78.2697 23.2578 78.3149 23.5232 78.4948 23.7379C78.7083 23.9944 79.0157 24.0237 79.3175 24.0463C79.6388 24.0696 79.9618 24.0464 80.2765 23.9773C80.4536 23.9387 80.4581 24.0016 80.457 24.1335C80.4542 24.6472 80.457 25.1609 80.457 25.6746C80.457 25.7695 80.457 25.8495 80.3234 25.8661C79.355 25.9831 78.385 26.0681 77.4271 25.8159C76.4135 25.5494 75.9373 24.9385 75.8413 23.8995C75.7271 22.6464 75.8286 21.3878 75.7866 20.3791Z" fill="#282828"/>
<path d="M122.391 23.948C122.391 24.5516 122.391 25.1288 122.391 25.706C122.391 25.7772 122.405 25.8505 122.292 25.8643C121.278 25.9879 120.26 26.079 119.262 25.7904C118.379 25.5355 117.907 24.9235 117.804 24.0026C117.736 23.389 117.735 22.7771 117.734 22.1635C117.734 20.4116 117.73 18.6591 117.738 16.9072C117.738 16.6992 117.698 16.6186 117.469 16.628C117.002 16.6479 116.531 16.628 116.064 16.6368C115.923 16.6368 115.874 16.6048 115.877 16.4564C115.886 15.9703 115.888 15.4836 115.877 14.998C115.873 14.8264 115.945 14.8066 116.088 14.8088C116.556 14.8159 117.026 14.8021 117.494 14.8159C117.685 14.8215 117.741 14.7668 117.739 14.5732C117.729 13.6285 117.743 12.6833 117.728 11.7386C117.725 11.5141 117.796 11.4688 118.004 11.4732C118.638 11.4859 119.273 11.4876 119.906 11.4732C120.126 11.4677 120.2 11.5113 120.195 11.7491C120.179 12.6662 120.195 13.5838 120.183 14.5009C120.18 14.7282 120.215 14.817 120.474 14.806C121.043 14.7817 121.613 14.806 122.184 14.7944C122.35 14.7911 122.405 14.8303 122.398 15.0041C122.384 15.4715 122.385 15.9421 122.398 16.4073C122.402 16.5728 122.36 16.6236 122.187 16.6203C121.6 16.6081 121.011 16.6203 120.422 16.6126C120.256 16.6126 120.182 16.6286 120.183 16.8283C120.192 18.7358 120.187 20.6439 120.191 22.552C120.194 22.7812 120.21 23.0101 120.24 23.2373C120.305 23.7598 120.631 24.0219 121.24 24.0473C121.626 24.0623 122.013 24.0289 122.391 23.948Z" fill="#282828"/>
<path d="M101.006 18.651C101.006 16.1926 101.005 13.7344 101.002 11.2764C101.002 11.0694 101.041 10.9933 101.268 11.0005C101.93 11.017 102.592 11.0132 103.255 11.0005C103.439 10.9971 103.478 11.0556 103.478 11.23C103.474 16.1733 103.474 21.1171 103.478 26.0614C103.478 26.2617 103.417 26.2998 103.233 26.2965C102.58 26.2855 101.928 26.2833 101.276 26.2965C101.06 26.3015 101 26.2413 101 26.025C101.009 23.5674 101.007 21.1092 101.006 18.651Z" fill="#282828"/>
<path d="M46.2865 16.8941C46.7406 15.7806 47.5738 15.0782 48.6735 14.6616C49.222 14.4536 49.7881 14.4878 50.3564 14.5612C50.4811 14.5777 50.4988 14.634 50.4983 14.7399C50.4949 15.391 50.4883 16.0427 50.5016 16.6933C50.5054 16.893 50.4376 16.914 50.2654 16.888C49.7202 16.7998 49.1707 16.7451 48.6316 16.9167C47.4452 17.2941 46.8482 18.182 46.5535 19.3286C46.4338 19.7948 46.4195 20.271 46.4178 20.7472C46.4139 22.3518 46.4123 23.9564 46.4211 25.561C46.4211 25.7756 46.3659 25.8369 46.1491 25.8341C45.4974 25.8192 44.8447 25.8248 44.193 25.8341C44.0313 25.8341 43.9546 25.8192 43.9557 25.6195C43.9723 22.0984 43.9822 18.5772 43.9855 15.0561C43.9855 14.8668 44.0352 14.805 44.2311 14.8089C44.8458 14.8216 45.4615 14.8205 46.0768 14.8089C46.2501 14.8056 46.2925 14.8586 46.2903 15.0252C46.281 15.6471 46.2865 16.2706 46.2865 16.8941Z" fill="#282828"/>
<path d="M97.4602 20.3326C97.4602 22.0939 97.4569 23.8552 97.4651 25.6171C97.4651 25.8251 97.4227 25.893 97.2003 25.8897C96.5481 25.8731 95.8953 25.8775 95.2431 25.8897C95.0599 25.8897 94.9904 25.8571 94.9909 25.6535C94.9976 22.1221 94.9976 18.5897 94.9909 15.0565C94.9909 14.8666 95.0401 14.8048 95.2359 14.8087C95.8981 14.8205 96.5602 14.8205 97.2224 14.8087C97.4149 14.8054 97.4668 14.8562 97.4657 15.0504C97.4569 16.8095 97.4602 18.5708 97.4602 20.3326Z" fill="#282828"/>
<path d="M96.2358 12.924C95.8959 12.924 95.5554 12.9168 95.2161 12.9273C95.056 12.9323 94.9882 12.8997 94.9909 12.7193C95.002 12.0776 95.0003 11.4358 94.9909 10.7941C94.9909 10.6346 95.0406 10.5921 95.194 10.5938C95.8929 10.6004 96.5918 10.6004 97.2908 10.5938C97.4177 10.5938 97.4662 10.6197 97.4651 10.7593C97.4578 11.4288 97.4578 12.0982 97.4651 12.7673C97.4651 12.9141 97.4028 12.9273 97.2841 12.9256C96.9338 12.9207 96.5845 12.924 96.2358 12.924Z" fill="#282828"/>
</svg>
