<svg width="436" height="229" viewBox="0 0 436 229" fill="none" xmlns="http://www.w3.org/2000/svg">
<g clip-path="url(#clip0_230_1379)">
<mask id="mask0_230_1379" style="mask-type:alpha" maskUnits="userSpaceOnUse" x="-15" y="5" width="520" height="218">
<path d="M222.964 210.895C222.205 208.405 221.281 205.956 220.726 203.416C220.014 200.172 219.601 196.853 219.007 193.262C215.943 198.565 211.196 197.548 206.716 197.372C205.028 197.309 203.353 196.974 201.602 196.753C200.859 201.377 200.265 205.91 199.36 210.376C198.747 213.364 197.899 216.291 196.823 219.128C195.553 222.476 193.995 223.401 190.648 222.853C187.367 222.313 183.961 221.907 180.921 220.605C175.198 218.157 169.25 217.788 163.26 217.257C160.722 216.98 158.2 216.561 155.704 216.001C151.928 215.231 149.599 212.473 147.629 208.731C147.416 209.811 147.235 210.506 147.153 211.213C146.732 214.745 145.871 216.273 142.594 216.754C138.196 217.41 133.754 217.672 129.315 217.537C125.618 217.416 121.897 216.667 118.27 215.796C116.099 215.277 114.089 213.992 111.749 212.933C108.862 215.993 104.814 217.227 100.574 218.044C100.296 218.122 100.038 218.268 99.8203 218.468C99.6028 218.669 99.4314 218.921 99.3192 219.203C98.9652 220.601 98.1746 221.174 96.9041 221.137C95.3307 221.095 93.7574 221.086 92.2077 220.89C91.7435 220.831 91.3463 220.195 90.9176 219.822C91.3109 219.404 91.6098 218.743 92.07 218.592C93.9383 217.989 95.8461 217.537 98.0881 216.939C96.9474 208.907 93.9896 201.348 92.0308 193.053C91.0871 193.914 90.3183 194.971 89.7712 196.159C89.2241 197.347 88.9101 198.641 88.8486 199.963C88.5182 204.265 88.1209 208.564 87.5781 212.841C87.4562 213.783 86.6105 214.62 86.0952 215.503C85.7019 214.494 84.8876 213.44 84.9899 212.49C85.3832 208.836 85.6115 205.061 86.7129 201.608C88.4121 196.288 87.7945 191.002 87.4995 185.678C87.4051 184.004 86.8308 182.33 86.3706 180.174C85.6272 181.175 85.1906 181.848 84.6832 182.409C84.4472 182.677 83.9161 182.999 83.7352 182.891C83.5618 182.772 83.4146 182.614 83.3033 182.429C83.192 182.245 83.1193 182.036 83.0903 181.819C83.0249 180.842 83.0511 179.861 83.1688 178.889C83.7697 173.96 83.192 168.949 81.4893 164.32C81.1982 163.508 80.4548 162.809 79.7861 162.227C78.2127 160.88 76.5018 159.716 74.9796 158.31C74.5666 157.929 74.4052 156.891 74.5665 156.288C74.653 155.958 75.6798 155.706 76.2501 155.765C78.4646 155.995 79.79 157.741 80.5964 159.599C82.0793 163.014 84.8562 162.947 87.7984 163.366C87.5781 157.778 86.0009 152.463 86.7718 147.076L87.468 146.892C87.8063 147.486 88.3018 148.039 88.4552 148.683C89.2694 152.195 90.1625 155.698 90.6777 159.264C90.8705 160.624 90.1269 162.135 89.8162 163.579C89.706 164.094 89.47 164.646 89.5527 165.128C91.067 173.863 94.8549 181.212 101.4 186.85C101.869 187.23 102.371 187.563 102.899 187.842C106.045 189.625 108.138 188.26 108.57 184.494C109.259 178.483 110.144 172.502 111.005 166.496C111.122 165.598 111.36 164.723 111.713 163.897C111.922 163.433 112.5 163.161 112.893 162.801C113.149 163.219 113.617 163.675 113.621 164.119C113.652 167.049 113.798 169.979 113.495 172.875C113.011 177.521 111.658 181.903 109.955 186.268C108.48 190.064 108.889 194.367 110.057 198.356C110.282 199.117 111.489 199.808 112.362 200.055C118.262 201.729 123.934 200.704 129.276 197.757C130.48 197.045 131.424 195.923 131.958 194.572C133.72 189.717 135.254 184.766 136.745 179.81C136.922 179.212 136.32 178.345 136.061 177.609C136.018 177.496 135.856 177.433 135.789 177.32C135.105 176.186 135.998 171.192 137.068 170.138C138.145 171.159 138.146 171.159 138.566 176.767L148.522 178.299C148.716 178.328 148.912 178.341 149.108 178.337C151.397 178.308 152.522 179.375 153.371 181.823C155.043 186.624 157.238 191.232 159.393 195.832C160.052 197.118 160.997 198.212 162.147 199.017C164.043 200.394 165.294 199.586 165.608 197.205C166.627 189.558 167.657 181.907 168.798 174.277C169.101 172.23 169.809 170.251 170.328 168.238L171.209 168.279C171.386 169.142 171.736 170.008 171.717 170.866C171.536 177.563 171.363 184.259 171.028 190.931C170.875 193.94 169.494 196.476 167.693 198.799C166.976 199.712 166.51 200.817 166.344 201.993C166.064 204.617 166.084 207.275 165.95 209.92C165.883 211.464 166.56 212.485 167.716 213.398C174.061 218.42 180.838 217.119 187.572 214.817C188.65 214.448 189.755 212.657 189.999 211.343C190.64 207.873 190.805 204.307 191.179 200.783C191.296 199.051 191.509 197.328 191.816 195.622C192.245 193.651 193.165 193.258 194.994 193.798C196.733 194.308 198.499 194.727 200.521 195.254C202.385 169.748 203.923 144.611 198.723 119.804C195.903 120.834 192.91 121.374 190.518 122.952C187.678 124.831 185.354 127.597 182.813 129.991C182.325 130.448 181.881 130.958 181.416 131.444L180.866 130.921C181.409 129.945 182.008 129.006 182.659 128.108C183.426 127.166 183.422 126.321 182.592 125.597C179.705 123.031 176.775 120.52 173.668 117.816C172.507 120.085 171.61 121.838 170.824 123.383C174.167 127.568 177.408 131.653 180.657 135.725C181.542 136.83 181.837 137.969 181.165 139.354C176.008 150.173 169.64 160.047 161.671 168.777C156.164 174.834 149.871 173.8 143.475 171.414C138.677 169.673 135.136 165.906 132.729 161.223C131.809 159.444 132.029 156.937 131.942 154.752C131.891 153.53 132.253 152.291 132.478 150.717C129.862 151.492 127.4 152.249 124.925 152.94C117.763 154.949 110.533 156.627 103.111 156.929C96.4243 157.196 94.9611 155.832 94.1037 148.708C93.4665 143.393 93.1045 138.04 92.5931 132.465C92.4948 133.235 92.4045 133.796 92.3494 134.361C92.1645 136.203 91.366 137.651 89.6156 138.006C84.872 138.965 80.1048 139.773 75.3493 140.631C74.956 140.702 74.5626 140.702 74.0238 140.748C73.8625 143.678 73.7249 146.57 73.5361 149.47C72.9068 159.063 72.1043 168.631 69.9567 178.015C67.463 188.897 61.146 192.73 50.64 192.329C49.0667 192.27 47.5248 192.006 45.8374 191.822C44.8659 200.653 43.8903 209.451 42.8834 218.609C45.0192 218.609 47.0566 218.433 49.0469 218.676C50.1443 218.81 51.1671 219.642 52.2213 220.161C51.293 220.902 50.4551 221.999 49.4128 222.313C46.6594 223.15 43.9809 223.15 42.0103 220.258C41.7074 219.81 40.7318 219.747 40.067 219.743C21.7114 219.628 3.35568 219.538 -15 219.471C26.1983 219.636 16.8919 219.665 7.58168 219.665C6.84614 219.665 6.10681 219.569 5.37127 219.519L5.31999 218.916C5.99883 218.722 6.6925 218.591 7.39288 218.527C32.0419 218.544 6.18246 218.384 30.8315 218.437C33.9782 218.437 37.1249 218.533 40.2716 218.479C40.7554 218.479 41.609 217.939 41.6523 217.566C42.6553 208.999 43.5718 200.406 44.4961 191.843C44.4961 191.78 44.4606 191.713 44.4095 191.542C42.8951 190.947 41.3219 190.32 39.7407 189.709C37.8291 188.976 37.0502 187.474 36.944 185.381C36.6883 180.358 37.7699 175.533 39.2725 170.887C42.1438 162.01 45.334 153.25 48.402 144.444C48.6562 143.896 48.9397 143.365 49.2515 142.853C49.4835 143.837 49.7393 144.347 49.6999 144.829C48.7874 155.937 47.8552 167.042 46.9034 178.144C46.5651 182.162 46.2503 186.184 45.9239 190.19C54.2272 192.638 66.1532 191.445 68.9144 177.726C70.7828 168.417 71.7857 159.038 72.3914 149.579C72.596 146.402 72.6904 143.217 72.8399 139.915C65.4098 141.468 58.1959 142.179 50.8995 141.522C49.5286 141.42 48.165 141.228 46.8167 140.945C41.2825 139.689 39.4417 137.333 38.6197 130.155C38.0808 125.455 38.0965 120.654 37.2272 116.033C36.7749 113.643 35.9803 111.53 36.9912 109.123C37.1249 108.805 36.3344 108.01 35.9253 107.474C35.5162 106.938 35.0087 106.398 34.5446 105.867C35.0638 105.448 35.6814 105.126 36.0747 104.611C36.5381 104.068 36.8394 103.391 36.9401 102.665C37.1289 96.1861 37.1681 89.6904 37.3963 83.2156C37.5025 80.1603 37.8842 77.1091 38.2421 74.0705C38.3444 73.2042 38.5763 72.1411 39.1231 71.5844C42.14 68.5165 45.1686 65.4444 48.4254 62.6779C49.4127 61.8408 51.1316 61.9999 52.5044 61.6525C53.157 61.5116 53.7893 61.2794 54.3846 60.9619C57.4644 59.1622 60.4105 57.0611 63.6044 55.5502C67.1719 53.8761 67.8641 52.6204 66.5819 48.7071C65.689 45.974 64.9889 43.174 64.2219 40.4954L62.5385 41.0981L62.3497 40.6795C62.5227 38.4362 63.4351 35.858 62.6996 34.0289C61.4921 31.028 62.0113 28.6298 62.8688 25.8298C63.7853 22.8498 64.8629 19.7651 63.7891 16.4754C63.6869 16.1657 64.2926 15.5044 64.6741 15.1236C65.2484 14.546 66.0942 14.1986 66.5072 13.5289C67.9625 11.1684 69.9175 9.93787 72.5843 10.0509C79.09 10.3229 84.8721 12.5872 89.6786 17.3251C92.4674 20.0707 93.0416 27.5207 90.5754 30.9987C90.2922 29.9482 89.8674 29.1446 89.9106 28.3661C90.064 25.3443 88.7306 23.5529 86.2998 22.1174C83.5897 20.5269 81.1865 18.4216 82.8385 14.4916C82.5317 14.366 82.4098 14.2697 82.2957 14.2823C77.3121 14.9436 72.3246 15.5798 67.3489 16.3415C66.8533 16.4169 66.1925 17.2037 66.0627 17.7729C65.4177 20.5939 64.7017 23.4316 64.446 26.3027C64.1521 29.2121 64.1812 32.1481 64.5326 35.0502C65.0203 38.658 66.0154 42.1905 66.8454 45.7397C66.924 46.0619 67.3999 46.2796 67.691 46.5433L68.0843 47.0329C68.1905 51.0886 70.8102 53.3822 73.418 55.7009C75.6757 57.7099 78.138 58.0823 80.7026 56.6049C83.2671 55.1275 85.6941 53.2901 88.2547 51.7582C89.242 51.1681 90.4377 50.9714 91.543 50.6198C91.779 50.5445 92.1958 50.691 92.2745 50.5612C93.7613 48.1128 94.6345 50.3017 95.256 51.1974C96.7507 53.3487 98.686 54.7592 100.889 55.8934C101.586 56.2725 102.264 56.6916 102.918 57.149C106.065 59.2417 109.334 61.2256 108.425 66.4782C110.293 63.8038 111.454 63.6196 113.416 65.6914C114.553 66.8926 115.383 68.437 116.693 70.3413C117.318 67.692 117.873 65.3566 118.423 63.0211L117.696 63.1969C117 61.7529 116.005 60.3885 115.666 58.8566C114.911 55.433 114.817 51.9717 116.288 48.6276C116.622 47.8658 116.5 46.8697 116.575 45.9824C116.85 42.6592 116.779 39.2523 117.456 36.0254C119.352 27.0059 127.38 21.77 136.045 23.6994C141.131 24.8337 145.906 26.6292 148.903 31.6516C151.055 35.2636 151.495 39.3402 151.81 43.4461C151.936 45.0407 151.767 46.6646 151.916 48.2551C152.007 49.2177 152.518 50.1259 152.703 51.0844C152.873 51.9534 152.962 52.8379 152.97 53.7254C153.006 55.5125 152.707 57.3499 153.014 59.0743C154.272 66.1141 155.523 73.2125 158.992 79.4906C159.94 81.215 161.722 82.4204 162.792 83.5253C169.565 78.1889 175.949 73.1037 182.396 68.1189C184.465 66.5201 187.367 66.1267 188.532 63.2555C188.772 62.6695 189.086 61.9539 188.968 61.3846C187.898 56.1906 186.742 51.0132 185.613 45.8275C181.46 46.9492 180.197 46.1373 179.501 41.7803C178.934 38.2143 178.423 34.5982 180.85 31.3922C181.176 30.9736 180.968 30.0445 180.948 29.3539C180.787 23.0005 182.746 17.2916 185.869 12.0306C188.5 7.58986 192.839 6.00779 197.394 5.33394C204.108 4.32108 210.401 5.43021 215.145 11.1935C218.126 14.8264 219.255 19.3592 219.841 24.051C220.023 25.2196 220.132 26.3997 220.168 27.5835C220.168 29.4376 220.117 31.0238 221.599 32.652C223.236 34.4517 222.642 37.1429 222.138 39.4616C221.584 42.0356 221.072 44.6682 220.117 47.0832C219.385 48.9247 217.969 50.4566 216.895 52.16C216.404 52.857 216.007 53.6233 215.715 54.4369C213.379 62.2133 206.075 67.3069 199.03 65.7374C197.162 65.3189 195.47 64.0089 193.405 63.2555C196.277 66.5075 199.065 69.8517 202.059 72.9823C203.892 74.9118 206.141 75.6526 208.745 74.4263C209.71 73.9845 210.741 73.7281 211.79 73.6687C214.311 73.5055 215.676 71.9946 216.333 69.588C217.041 66.9847 217.706 64.3688 218.406 61.7655C218.654 60.8405 218.945 59.9281 219.381 58.4423L223.047 65.0343L223.519 64.7874C223.161 64.0636 222.848 63.3156 222.583 62.5482C222.512 62.0417 222.512 61.5269 222.583 61.0205C223.114 61.0875 223.857 60.9326 224.156 61.2507C226.445 63.8205 228.77 66.3736 230.823 69.1527C231.779 70.446 232.664 70.9734 234.194 71.3291C238.324 72.2876 242.368 73.698 246.423 75.0039C248.736 75.7447 251.178 76.339 252.374 79.6496C255.399 75.7028 258.585 72.3754 260.78 68.4286C262.589 65.1682 263.27 61.1837 264.343 57.4839C264.501 56.9439 264.213 56.1194 263.891 55.5879C262.023 52.5242 261.708 49.2052 262.503 45.7648C262.683 44.9779 263.537 44.3669 264.076 43.6721L264.469 43.9943C264.819 40.6837 265.059 37.3521 265.551 34.0666C265.914 31.8759 266.44 29.7192 267.124 27.617C267.487 26.3828 268.112 25.2541 268.952 24.3186C269.791 23.383 270.821 22.6656 271.962 22.222C276.969 20.0123 282.528 19.6513 287.751 21.1966C295.224 23.3353 299.889 29.8268 300.495 38.8296C300.688 41.7342 300.42 44.6891 300.574 47.5854C300.714 48.9332 301.066 50.2462 301.616 51.4695C302.202 52.9302 302.741 54.3029 301.864 55.8264C301.723 56.0197 301.655 56.261 301.671 56.5045C303.263 61.4767 304.87 66.4461 306.493 71.4128C306.67 71.3668 306.843 71.3668 306.863 71.3082C308.782 65.5449 313.381 63.854 318.293 63.9419C323.206 64.0298 326.451 62.2677 328.729 57.781C329.633 55.9938 331.399 54.6838 331.305 52.3693C331.262 51.3188 331.336 50.1887 331.006 49.2303C329.987 46.2377 328.803 43.3079 327.694 40.3949C327.855 40.2945 327.718 40.3363 327.651 40.4326C327.143 41.1776 326.652 41.931 326.156 42.6843C325.476 41.9059 324.473 41.2446 324.189 40.328C323.356 37.8502 322.725 35.3001 322.305 32.7064C322.05 31.0322 322.325 29.245 324.244 28.408C324.555 28.2699 324.638 27.3533 324.685 26.784C324.931 23.3102 325.153 19.8349 325.35 16.3583C325.601 12.0348 327.674 9.2431 331.34 7.35968C338.849 3.54261 348.144 5.21676 353.108 11.5451C355.44 14.5167 356.616 18.0785 357.131 21.8369C357.78 26.5706 358.138 31.3503 358.775 36.0672C359.228 39.4156 357.568 41.8096 355.833 44.2204C354.409 46.1959 352.997 48.1756 351.762 50.2976C354.822 48.8745 357.985 50.6575 358.665 54.9601C359.255 58.6725 359.09 62.5649 358.905 66.3569C358.756 69.3913 358.071 72.3922 357.564 75.7949C359.877 74.7569 362.009 73.8654 364.085 72.8651C365.769 72.0281 366.328 70.6092 365.627 68.7216C364.4 65.4277 363.157 62.138 361.93 58.8441C361.769 58.4256 361.663 57.9359 361.466 57.2578C364.337 59.1747 366.858 60.9535 369.47 62.5691C371.082 63.6285 372.796 64.4999 374.584 65.1682C379.127 66.7084 381.27 70.4502 382.269 74.8992C383.195 79.1729 383.852 83.5074 384.236 87.8739C385.392 99.6642 386.333 111.484 385.92 123.362C385.841 125.647 385.471 127.924 385.227 130.205C384.889 133.331 383.052 134.809 380.287 135.202C377.77 135.566 375.248 135.897 372.593 136.257C372.381 141.798 373.565 147.059 375.174 152.216C377.703 160.331 380.358 168.405 382.918 176.516C383.255 177.645 383.465 178.813 383.544 179.994C383.792 183.112 383.265 183.799 380.488 184.828C380.201 184.972 379.95 185.183 379.752 185.445C379.554 185.708 379.416 186.015 379.347 186.343C378.647 193.969 377.774 201.595 377.526 209.246C377.435 211.929 378.682 214.741 379.685 217.336C379.961 218.044 381.557 218.466 382.568 218.508C388.134 218.743 393.704 218.927 399.273 218.927C419.526 218.868 471.792 218.579 492.041 218.466C514.956 218.466 493.965 218.466 494.928 218.466L495.054 219.19C518.078 219.19 493.993 219.576 493.437 219.659C482.951 219.797 472.465 219.96 429.965 220.132C417.445 220.174 404.922 220.132 392.402 220.061C389.255 220.061 386.108 219.739 382.962 219.831C379.504 219.931 377.896 217.876 377.168 214.578C376.952 214.779 376.861 214.821 376.857 214.867C376.704 218.458 374.556 219.437 371.622 219.471C366.847 219.508 362.068 219.688 357.297 219.617C353.564 219.563 349.823 219.178 346.106 219.04C345.44 219.034 344.798 219.308 344.32 219.801C342.33 222.191 336.43 222.233 334.487 219.772C333.551 218.579 334.208 217.88 335.274 217.772C337.276 217.571 339.301 217.583 341.315 217.537C342.027 217.537 342.739 217.6 343.782 217.654C343.782 214.892 344.021 212.251 343.73 209.673C343.191 204.91 342.417 200.176 341.575 195.443C341.358 194.233 340.485 193.166 339.966 192.006C338.995 189.855 337.999 187.712 337.165 185.498C336.961 184.958 337.386 184.155 337.559 183.284C340.19 184.577 340.93 186.98 341.229 189.198C341.716 192.848 343.895 194.153 346.755 195.057C348.175 195.476 348.985 195.376 348.576 193.509C347.845 190.194 346.971 186.904 346.405 183.56C345.803 180.011 345.402 176.416 345.111 172.825C345.044 171.988 345.764 171.042 346.122 170.15C346.661 170.862 347.396 171.49 347.695 172.302C349.064 175.989 350.264 179.747 351.628 183.435C351.982 184.385 352.726 185.176 353.292 186.038L354.052 185.891C354.185 184.594 354.555 183.263 354.405 182.003C353.729 176.206 352.675 170.452 352.203 164.642C351.676 158.188 351.617 151.693 351.416 145.214C351.385 144.305 351.636 143.385 351.758 142.468L352.352 142.368C352.628 143.054 353.056 143.715 353.139 144.427C354.74 156.652 356.258 168.89 355.892 181.258C355.829 183.485 357.151 184.435 358.646 184.657C361.993 185.142 365.387 185.276 368.766 185.419C370.064 185.473 371.374 185.184 372.676 185.025C374.418 184.812 376.169 184.728 376.405 182.12C376.464 181.459 377.447 180.89 378.01 180.279C378.403 181.003 378.816 181.706 379.162 182.451C379.251 182.772 379.292 183.105 379.284 183.439C382.037 183.552 382.856 183.02 382.305 180.363C381.333 175.704 379.917 171.155 378.608 166.576C376.413 158.933 374.061 151.337 371.98 143.657C371.358 141.355 371.417 138.844 371.13 136.123H350.441C351.227 146.494 349.607 156.472 346.397 166.17L345.422 166.337C343.19 161.072 340.961 155.807 338.735 150.542H338.314C338.314 152.89 338.424 155.246 338.294 157.59C337.968 163.491 337.653 169.401 337.095 175.277C336.78 178.571 335.187 181.401 333.315 184.067C332.777 184.805 332.469 185.703 332.434 186.636C332.658 196.681 331.077 206.484 329.212 216.265C328.709 218.889 327.383 220.417 324.842 220.413C320.982 220.413 317.125 220.325 313.27 220.149C312.554 220.12 311.858 219.525 311.304 219.705C310.08 220.124 308.841 220.961 307.63 220.961C302.587 220.806 297.557 220.429 292.522 220.061C288.474 219.764 284.431 219.333 280.38 219.044C279.849 219.006 279.266 219.395 278.747 219.668C277.634 220.249 276.517 221.45 275.447 221.396C271.997 221.159 268.562 220.706 265.161 220.04C264.426 219.91 263.824 218.948 263.159 218.366C263.946 217.989 264.697 217.299 265.476 217.278C268.749 217.202 272.021 217.324 275.31 217.37C275.959 217.37 276.604 217.37 277.591 217.37C277.119 216.114 276.678 215.047 276.34 213.959C275.692 212.074 275.151 210.149 274.72 208.195C274.602 207.584 275.278 206.797 275.593 206.103C276.12 206.521 276.847 206.86 277.142 207.429C278.185 209.434 279.074 211.523 280.289 213.536V187.658C275.05 190.11 270.153 187.9 265.177 187.114C264.241 186.982 263.289 187.07 262.388 187.373C260.957 187.85 259.663 187.896 258.581 186.699C258.41 186.506 258.281 186.275 258.205 186.022C258.129 185.769 258.107 185.502 258.141 185.239C258.247 184.908 258.927 184.686 259.407 184.627C259.929 184.55 260.462 184.616 260.953 184.82C263.018 185.778 264.076 184.506 265.083 182.899C269.504 175.826 271.73 167.832 273.791 159.741C274.476 157.058 275.03 154.338 275.738 151.659C275.892 151.086 276.439 150.215 276.832 150.198C279.743 150.073 282.657 150.132 285.485 150.132C286.272 156.318 286.933 162.478 287.932 168.572C288.629 172.607 289.573 176.588 290.756 180.492C291.861 184.259 293.694 185.49 297.344 185.515C304.031 185.598 310.222 183.422 316.315 180.794C317.456 180.304 317.786 179.538 317.18 178.328C315.874 175.759 314.6 173.168 313.302 170.59C309.788 163.614 308.063 155.777 308.299 147.867C308.318 147.03 308.299 146.235 308.299 145.251C303.972 145.532 299.87 145.879 295.763 146.042C292.223 146.181 288.683 146.164 285.143 146.101C283.786 146.076 282.154 146.298 282.252 143.795C282.276 143.213 281.021 142.573 280.391 141.999C275.671 144.837 274.916 144.615 272.525 140.56C272.411 140.886 272.257 141.099 272.273 141.3C272.8 147.352 268.654 151.898 263.572 153.693C260.725 154.702 257.786 155.455 254.856 156.171C248.696 157.669 247.686 158.908 249.436 165.379C251.796 174.126 254.687 182.715 257.322 191.383C258.833 196.347 260.314 201.322 261.767 206.308C262.66 209.363 261.739 211.749 259.293 213.557C251.927 219.019 243.092 221.787 234.119 221.442C233.443 221.442 232.778 221.024 232.105 220.777L231.575 220.224C231.794 220.113 232.029 220.044 232.271 220.019C241.672 221.158 250.152 218.345 257.983 213.046C261.189 210.878 261.566 209.74 260.406 205.831C257.857 197.205 255.013 188.671 252.461 180.061C250.714 174.165 249.134 168.215 247.721 162.211C247.005 159.151 248.185 157.33 250.978 156.213C252.315 155.677 253.692 155.271 255.576 154.627C254.447 154.417 253.83 154.263 253.216 154.208C248.103 153.681 243.449 151.848 239.662 148.223C237.357 146.013 235.197 146.44 232.829 147.432C230.827 148.269 230.517 149.311 231.893 151.057C233.703 153.35 235.752 155.422 237.6 157.674C239.174 159.607 240.826 161.537 242.104 163.692C243.284 165.714 242.497 167.785 240.365 168.556C239.202 168.986 237.956 169.103 236.739 168.899C231.433 167.861 227.637 164.253 224.18 160.156C220.286 155.552 218.185 150.299 218.716 143.954C219.188 138.262 219.46 132.549 219.77 126.844C219.826 125.907 219.916 124.776 219.507 124.04C216.938 119.377 212.84 116.686 208.226 114.916C205.772 113.978 203.14 113.572 200.753 112.961C200.623 114.154 200.426 115.778 200.269 117.41C200.123 118.339 200.07 119.282 200.112 120.223C201.174 130.109 202.955 139.965 203.203 149.872C203.518 162.529 202.621 175.223 202.212 187.9C202.129 190.441 201.882 192.977 201.677 195.982C205.583 196.074 209.225 196.434 212.828 196.167C216.824 195.874 218.846 192.961 218.76 188.675C218.598 180.605 218.437 172.532 218.425 164.462C218.425 163.403 219.283 162.34 219.739 161.277C220.294 162.261 221.206 163.19 221.344 164.236C222.242 170.796 222.192 177.464 221.194 184.008C220.821 186.398 220.046 188.83 220.223 191.178C220.557 195.602 221.403 199.967 222.123 204.37C222.516 206.777 223.094 209.154 223.59 211.548L222.964 210.895ZM121.547 33.9578C118.703 37.8921 117.44 45.4216 119.391 47.4473C119.619 45.1035 119.745 42.8183 120.095 40.5749C120.445 38.3315 121.027 36.1384 121.511 33.9243L125.838 29.4125L125.417 28.9939C123.584 30.1198 121.881 31.367 121.547 33.9578ZM337.992 61.4683L333.33 53.2608L332.654 53.7337L337.787 61.686C339.295 64.6828 341.408 67.2871 343.974 69.3118L354.724 50.7328C354.276 50.8709 353.623 50.8709 353.269 51.2183C352.38 52.14 351.544 53.1184 350.767 54.1481C348.903 56.4668 347.18 58.9362 345.174 61.1C342.425 64.0382 340.674 64.0256 337.992 61.4683ZM346.81 68.1147C346.411 68.2588 346.038 68.4724 345.705 68.7467C344.017 70.7222 343.4 70.8394 341.638 68.8723C339.959 66.9216 338.383 64.8732 336.918 62.7365C335.691 60.9996 334.617 59.1413 333.476 57.3332L333.035 57.509C333.319 62.6528 333.602 67.7966 333.905 73.2795C335.179 72.5554 336.076 71.9988 337.008 71.53C339.616 70.2032 341.146 71.0277 341.571 73.9743C341.71 74.8031 341.78 75.6435 341.779 76.4855C341.476 89.0416 341.138 101.56 340.871 114.1C340.871 114.644 341.386 115.657 341.709 115.682C343.841 115.824 345.984 115.753 348.179 115.753C348.179 114.786 348.179 114.233 348.179 113.685C347.561 99.6223 346.924 85.5594 346.338 71.4965C346.295 70.379 346.621 69.2406 346.763 68.1022C347.9 66.8089 348.639 68.1608 349.383 68.6588C351.125 69.8224 352.761 71.1701 354.496 72.4508C355.979 69.4666 355.79 57.7308 354.24 53.5245C351.617 58.2833 349.127 62.8244 346.637 67.3781C346.535 67.5204 346.751 67.8594 346.81 68.1147ZM79.1882 105.398C79.3027 104.935 79.383 104.464 79.4283 103.988C79.5581 99.2121 79.5894 94.4366 79.794 89.6653C80.0142 84.601 80.502 79.5492 80.6358 74.4891C80.6908 72.2625 79.4558 71.7183 77.6819 72.9154C76.877 73.5101 76.1168 74.1706 75.4083 74.8909C73.8822 76.3097 73.3158 76.2051 72.5487 74.3007C72.1554 73.3674 71.8329 72.4173 71.4749 71.4714C71.2458 71.8414 71.1611 72.2918 71.2389 72.727C72.4189 77.4272 73.6579 82.1065 74.8026 86.8109C76.3051 92.9927 77.7329 99.1954 79.1961 105.39C80.026 108.897 81.2927 112.338 80.7381 116.113C80.0648 115.762 79.4917 115.226 79.0782 114.56C74.5194 106.758 69.8386 99.0322 65.5198 91.0799C63.4744 87.3131 62.0939 83.1277 60.493 79.1055C59.8598 77.5109 60.3907 76.1423 61.6258 75.0248C62.8609 73.9073 64.1197 72.6601 65.7756 71.0738C63.8325 70.7599 62.3731 70.5506 60.9217 70.2786C57.2873 69.6047 56.595 67.9306 58.5617 64.6785C60.0918 62.1673 61.6652 59.6896 63.2189 57.1992L62.8256 56.6803C60.2414 58.3921 57.6216 60.0495 55.1121 61.8743C54.7188 62.1673 54.5458 63.2848 54.6913 63.9126C55.2538 66.3401 56.1585 68.6839 56.6227 71.124C58.5493 80.948 59.6171 90.9407 59.8126 100.974C59.8598 104.322 61.85 106.938 64.6505 108.227C67.5769 109.571 70.3422 111.329 73.1034 113.041C73.6108 113.359 73.7681 114.321 74.0867 114.987C73.3669 115.083 72.482 115.518 71.9628 115.221C69.3235 113.723 66.7786 112.04 64.2023 110.416C63.5926 110.031 62.9947 109.63 62.1372 109.069C62.1372 110.563 62.3851 111.693 62.0704 112.605C61.6771 113.71 60.6701 115.535 60.2138 115.46C58.4752 115.108 58.9393 113.212 59.4624 112.279C60.7683 109.964 59.5607 108.742 58.1447 107.432C57.8969 107.206 57.7319 106.884 57.4841 106.658C54.2312 103.67 51.0569 100.568 47.6506 97.7724C46.5572 96.8683 44.8736 96.7721 43.4576 96.3075L43.1273 97.0902C45.0743 98.7015 47.0606 100.279 48.9486 101.949C49.3419 102.293 49.4875 102.962 49.8808 103.745L42.0141 100.397C41.369 102.657 41.9079 103.711 43.5049 104.306C44.4893 104.687 45.4269 105.193 46.2976 105.812C46.6909 106.097 46.9112 106.721 47.2062 107.189L46.864 107.579L42.2069 106.151C41.6012 108.031 42.2068 108.772 43.6386 109.123C45.0335 109.49 46.4095 109.934 47.7607 110.454C48.1879 110.685 48.5846 110.975 48.9407 111.316L48.7283 111.735L42.3249 110.789C41.8922 114.526 41.9551 114.556 44.8933 115.418C47.2533 116.113 49.8534 116.205 51.5329 118.59C51.7414 118.888 52.4965 118.867 52.9803 118.812C65.0282 117.431 77.0486 118.318 89.0729 119.231C89.6632 119.229 90.2371 119.438 90.7027 119.824C91.1683 120.21 91.4988 120.752 91.6413 121.361C91.8104 121.897 92.0151 122.42 92.259 123.094C92.6523 106.771 93.0456 90.7158 93.4664 74.6397L87.3067 71.4672C87.3067 72.3294 87.2595 72.8861 87.3067 73.4344C88.1406 81.7423 89.0493 90.0461 89.7927 98.3667C90.0484 101.188 90.4299 104.197 89.7927 106.85C89.1083 109.663 87.3461 112.208 85.9026 114.773C84.9664 116.427 83.983 116.372 83.1846 114.61C82.0832 112.17 81.218 109.609 80.215 107.123C79.9062 106.526 79.5632 105.95 79.1882 105.398ZM284.577 151.216C282.551 151.216 280.722 151.324 278.909 151.186C277.335 151.065 276.785 151.718 276.431 153.279C273.921 164.521 271.317 175.742 264.693 185.544C266.094 185.887 267.333 186.327 268.603 186.477C271.51 186.825 274.44 187.314 277.347 187.214C279.617 187.147 280.305 185.883 280.348 183.476C280.399 180.689 280.407 177.893 280.655 175.106C280.722 174.336 281.563 173.641 282.051 172.913C282.598 173.578 283.44 174.168 283.625 174.926C284.443 178.086 283.833 181.082 282.48 184.012C281.863 185.286 281.519 186.69 281.473 188.122C281.442 196.351 281.568 204.579 281.595 212.816C281.595 213.925 281.324 215.03 281.103 216.725C278.122 214.08 277.921 210.405 275.837 207.622C275.805 208.271 275.711 208.572 275.793 208.806C276.753 211.54 277.705 214.277 278.775 216.96C278.928 217.345 279.695 217.587 280.207 217.646C282.742 217.925 285.286 218.161 287.837 218.353C294.371 218.839 300.908 219.278 307.441 219.76C309.742 219.931 310.395 218.609 309.907 216.478C308.452 210.083 308.873 203.709 310.092 197.405C310.718 194.17 311.988 191.069 313.086 187.955C313.263 187.453 314.045 187.189 314.549 186.812C314.84 187.386 315.335 187.942 315.379 188.532C315.487 189.928 315.446 191.332 315.257 192.718C314.077 200.411 312.838 208.095 311.603 215.779C311.323 217.512 311.996 218.809 313.609 218.885C317.393 219.056 321.184 219.031 324.976 219.077C326.919 219.103 327.761 217.88 328.036 216.005C329.071 208.995 330.227 202.001 331.096 194.97C331.439 192.199 331.151 189.344 331.151 186.243C326.852 189.068 322.463 189.374 317.951 187.892C317.212 187.649 316.61 186.946 315.945 186.456C316.598 185.875 317.168 184.979 317.912 184.782C321.255 183.836 324.669 183.158 328.017 182.233C329.68 181.773 331.163 181.43 332.225 183.543C334.554 180.446 336.021 177.157 336.277 173.499C336.741 166.831 337.008 160.143 337.177 153.459C337.319 147.892 337.205 142.322 337.205 136.747L336.237 136.475C332.835 135.537 332.619 135.181 332.721 131.498C332.835 127.535 332.894 123.567 332.949 119.595C332.977 117.649 331.883 116.937 330.196 116.862C328.854 116.795 327.513 116.636 325.999 116.506C326.081 117.925 326.207 119.373 326.239 120.821C326.349 125.898 326.703 130.992 326.435 136.044C326.199 140.467 324.288 142.322 320.225 143.159C316.712 143.895 313.18 144.519 309.51 145.218C309.058 152.283 309.738 159.231 312.476 165.785C314.171 169.849 316.338 173.687 318.12 177.717C319.151 180.044 318.718 180.89 316.492 181.94C311.498 184.224 306.238 185.779 300.853 186.565C294.115 187.641 290.402 185.36 288.821 178.333C287.456 172.251 286.543 166.053 285.544 159.888C285.092 156.945 284.883 153.97 284.577 151.216ZM170.336 124.609C169.644 125.601 169.329 126.133 168.94 126.589C166.096 129.937 163.433 133.461 160.341 136.546C156.282 140.618 151.425 143.816 148.958 149.52C148.502 150.575 147.18 151.274 146.146 151.944C145.772 152.187 145.068 151.86 144.518 151.793C144.624 151.22 144.553 150.487 144.864 150.119C146.044 148.646 147.428 147.34 148.616 145.862C149.698 144.515 150.929 143.163 151.57 141.572C154.457 134.415 158.052 127.815 162.996 121.972C168.039 116.016 168.79 108.905 166.536 101.426C165.75 98.7936 164.361 96.3619 163.535 93.7335C162.847 91.5361 162.575 89.1839 162.131 86.8987C161.954 86.0031 161.801 85.099 161.639 84.195L160.982 84.1238C160.349 84.8856 159.567 85.5552 159.11 86.4174C156.133 92.0509 153.257 97.7473 150.28 103.385C148.687 106.39 148.341 109.621 148.227 112.99C148.093 116.808 147.704 120.616 147.393 124.425C147.299 124.972 147.154 125.507 146.96 126.024L146.421 125.944V113.074C143.9 118.745 141.74 124.525 139.613 130.322C139.56 130.655 139.632 130.996 139.813 131.272C142.122 135.332 142.122 139.907 142.291 144.41C142.319 145.172 141.634 146.289 140.981 146.687C139.117 147.825 137.099 148.667 135.148 149.638C134.688 149.868 133.937 150.098 133.87 150.445C133.181 154.028 131.88 157.699 133.937 161.194C136.198 165.036 139.117 168.309 143.157 169.983C149.112 172.427 155.071 174.059 160.487 168.371C168.543 159.913 174.769 150.09 179.867 139.421C180.24 138.638 180.126 137.094 179.623 136.42C176.696 132.473 173.597 128.711 170.336 124.609ZM260.54 153.17C264.41 152.752 268.501 149.96 270.125 146.612C270.589 145.769 270.867 144.826 270.939 143.853C270.939 140.924 271.168 137.919 270.546 135.131C268.973 128.016 267.399 120.901 265.039 114.066C261.499 103.824 257.303 93.8381 253.306 83.7764C253.066 83.1737 252.181 82.638 251.517 82.4915C250.411 82.2488 250.175 81.8261 250.337 80.6416C250.39 79.8061 250.131 78.9819 249.617 78.348C247.823 76.3097 245.648 76.1842 243.323 77.2933C239.563 79.0888 237.341 83.4165 237.75 88.5394C238.537 98.3081 240.668 107.767 243.748 117C244.133 117.991 244.798 118.829 245.652 119.398C248.685 121.457 251.851 123.291 254.88 125.358C255.666 125.894 256.131 126.97 256.74 127.798C255.828 128.192 254.927 128.882 253.987 128.933C247.981 129.23 246.875 128.447 244.452 122.567C244.165 121.863 243.933 121.135 243.63 120.445C243.441 120.026 243.261 119.457 242.918 119.231C240.11 117.364 237.262 115.564 234.147 113.564C233.864 120.574 229.309 124.584 225.667 129.519C228.353 133.185 231.173 136.86 233.801 140.66C236.019 143.858 238.619 145.218 242.572 145.08C248.193 144.883 253.806 145.917 258.793 149.135C260.194 150.035 261.291 151.144 260.54 153.17ZM99.6025 216.759C103.274 216.602 106.825 215.322 109.829 213.071C110.342 212.718 110.762 212.233 111.051 211.661C111.341 211.089 111.49 210.448 111.485 209.798C111.544 208.124 112.229 206.45 112.74 204.805C112.829 204.602 112.965 204.426 113.135 204.293C113.304 204.16 113.502 204.074 113.711 204.043C113.915 204.11 114.1 204.231 114.248 204.395C114.395 204.559 114.5 204.761 114.553 204.981C114.571 206.148 114.492 207.315 114.317 208.467C114.132 209.723 113.255 211.334 113.703 212.171C114.246 213.18 115.843 213.582 117.016 214.164C117.621 214.432 118.251 214.632 118.896 214.762C125.155 216.327 131.6 216.884 138.016 216.415C140.03 216.22 142.008 215.723 143.892 214.938C144.714 214.616 145.729 213.448 145.796 212.59C146.036 209.505 145.957 206.383 145.906 203.282C145.851 200.03 145.619 196.778 145.627 193.526C145.627 192.634 146.217 191.743 146.535 190.851L147.322 190.947C147.499 191.91 147.821 192.868 147.833 193.835C147.873 197.251 147.766 200.67 147.814 204.085C147.807 205.19 147.991 206.287 148.356 207.321C150.067 211.77 153.025 214.624 157.679 215.21C161.647 215.712 165.612 216.286 169.577 216.826L169.718 216.177C169.326 215.87 168.914 215.59 168.487 215.34C165.864 214 164.487 211.992 164.77 208.706C164.987 206.17 164.814 203.596 164.814 200.93C161.219 201.298 159.307 198.602 157.895 195.66C155.724 191.056 153.961 186.268 151.955 181.585C151.676 180.932 151.086 180.061 150.532 179.961C146.488 179.245 142.417 178.705 138.732 178.153C137.028 183.493 135.439 188.553 133.791 193.593C132.706 196.907 130.456 198.988 127.388 200.172C123.002 201.846 118.538 202.566 113.877 201.846C110.05 201.243 108.346 199.394 108.197 195.242C108.118 193.199 108.197 191.148 108.197 188.997C105.05 190.278 103.579 190.073 101.034 188.047C100.02 187.282 99.0656 186.432 98.1786 185.506C93.2885 180.206 89.9292 173.524 88.4986 166.254C88.3767 165.672 88.0147 164.797 87.6175 164.692C86.0638 164.274 84.4511 164.111 82.6103 163.814C84.4118 169.317 85.0294 174.842 84.1247 180.593C86.6814 178.571 87.1218 178.722 87.9399 181.873C88.202 182.807 88.385 183.764 88.4867 184.732C88.7542 187.825 88.9548 190.926 89.1908 194.141C89.3779 194.049 89.5546 193.935 89.7178 193.802C91.8576 191.475 92.7386 191.709 93.6512 194.823C93.7692 195.242 93.8715 195.622 93.9777 196.02L99.6025 216.759ZM93.9581 52.9343L93.4979 53.2399C93.8519 56.6775 94.2058 60.1151 94.5598 63.5527C94.8784 66.5913 95.4174 69.6215 95.4725 72.6601C95.5157 75.1043 94.8116 77.557 94.729 80.0138C94.316 92.4151 93.6986 104.821 93.734 117.226C93.7654 127.384 94.2452 137.58 95.2128 147.683C95.9365 155.217 95.8224 156.297 104.901 155.614C113.979 154.932 122.715 152.572 131.349 149.7C131.74 149.528 132.094 149.271 132.389 148.946C132.683 148.621 132.912 148.236 133.06 147.813C134.067 144.586 134.853 141.275 135.789 138.019C136.36 136.039 137.056 134.102 137.85 131.674C126.522 133.486 115.43 134.185 104.68 137.567C104.891 137.022 105.246 136.553 105.703 136.219C108.275 134.507 108.358 133.453 105.703 131.875C103.142 130.343 100.413 129.125 97.7891 127.69C97.1832 127.287 96.6157 126.823 96.094 126.304C96.2159 126.066 96.3378 125.827 96.4558 125.588L100.72 126.04C99.9879 125.174 99.1463 124.291 98.454 123.303C98.1747 122.91 97.919 122.048 98.1039 121.834C98.3016 121.627 98.5384 121.466 98.7987 121.363C99.0591 121.26 99.337 121.216 99.6142 121.236C100.924 121.428 102.206 121.83 103.725 122.207C102.997 121.068 102.344 120.193 101.856 119.227C101.648 118.808 101.585 118.025 101.817 117.749C102.015 117.596 102.245 117.495 102.487 117.456C102.73 117.416 102.977 117.439 103.209 117.523C104.155 117.973 105.075 118.483 105.963 119.051L105.652 116.121L108.496 116.72C108.394 115.142 108.358 113.405 108.15 111.697C107.422 105.838 106.722 99.9781 105.813 94.152C105.573 92.6202 104.633 91.2222 103.748 89.1798C102.47 91.0967 101.656 92.5071 100.661 93.7544C99.5268 95.1714 98.2989 96.5002 96.9867 97.7305C96.6838 98.0151 95.9247 97.7556 95.378 97.7305C95.378 97.2073 95.2404 96.5921 95.4488 96.1777C96.0035 95.0812 96.5422 93.8758 97.3879 93.0764C99.2521 91.2698 101.245 89.6187 103.347 88.1376C108.287 84.76 113.322 81.5373 118.349 78.3061C118.86 77.9755 119.568 77.9922 120.186 77.8499C120.276 78.0299 120.363 78.2141 120.453 78.3982C118.962 80.0054 117.397 81.5498 115.993 83.2407C113.92 85.7519 111.902 88.3092 109.975 90.946C109.247 91.9421 108.704 93.3149 110.266 94.106C113.641 95.822 117.07 97.4208 120.846 99.2456C120.846 94.8007 120.728 90.6823 120.882 86.5806C121.035 82.479 121.46 78.3606 121.814 73.652C119.985 75.0164 118.667 76.1339 117.24 77.0338C114.381 78.8335 111.483 80.5607 108.543 82.2153C108.024 82.5124 107.04 82.6673 106.683 82.3534C105.18 81.0476 104.181 82.0186 103.143 82.9854C102.01 84.0276 100.904 85.1158 99.7558 86.1412C99.4254 86.4342 98.9691 86.5597 98.1156 87.0327L102.383 71.0487L97.4509 68.8932L97.506 68.031C98.6309 67.692 99.7401 67.307 100.877 67.0307C102.423 66.6498 103.072 65.909 102.1 64.2725C100.287 61.2088 98.5837 58.0698 96.6563 55.094C96.0348 54.1565 94.8667 53.6459 93.9581 52.9343ZM214.681 53.3989C211.05 54.2737 207.553 55.1065 204.061 55.9562C202.417 56.3747 200.521 55.8808 199.238 57.6554C199.101 57.848 198.058 57.6345 198.058 57.5676C197.968 56.1194 197.665 54.575 198.031 53.2399C198.365 51.9842 199.569 51.6787 200.784 52.4028C201.223 52.6789 201.732 52.8019 202.24 52.7544C205.78 52.1433 209.343 51.5699 212.86 50.7537C214.7 50.3352 216.109 49.3391 216.046 46.7734C215.955 42.9522 216.179 39.1184 216.368 35.2971C216.455 33.5769 216.604 31.8191 218.354 30.8146C218.716 30.6095 218.913 29.785 218.937 29.2325C219.181 24.2009 218.181 19.1891 216.038 14.6966C214.461 11.3572 211.722 8.8043 208.403 7.58149C204.501 6.05455 200.267 5.75667 196.21 6.72349C191.596 7.74054 187.556 9.89603 185.633 14.772C184.202 18.4138 183.047 22.1717 182.179 26.0098C181.707 28.0648 182.093 30.3416 182.093 32.3506C184.06 32.6394 184.197 31.7102 184.276 30.4295C184.516 26.4827 184.732 22.515 185.271 18.6058C185.743 15.2031 187.478 12.3486 190.475 10.934C201.26 5.85293 210.425 7.3555 216.384 18.3296C218.213 21.6988 218.398 25.3485 217.139 29.0149C216.962 29.5338 216.455 30.1742 216.018 30.2705C215.688 30.3291 215.149 29.6469 214.838 29.1865C214.158 28.1736 213.658 27.0017 212.919 26.0642C210.952 23.6073 208.918 21.2259 209.465 17.2749C202.963 20.6525 196.579 22.4522 189.845 20.2465C188.764 24.7918 187.71 29.2241 186.66 33.6397C186.576 33.972 186.527 34.3131 186.514 34.6567C186.459 37.2656 186.416 39.8759 186.384 42.4876C186.384 43.0359 186.313 44.0195 186.475 44.0697C188.669 44.7477 188.048 46.9995 188.689 48.4811C190.357 52.3902 191.678 56.4919 193.606 60.2462C195.234 63.4229 198.129 65.1054 201.661 64.8041C208.297 64.2684 212.761 60.2881 214.681 53.3989ZM346.617 172.578L346.248 172.653C346.17 173.022 346.138 173.401 346.153 173.779C346.787 177.818 347.408 181.857 348.12 185.879C348.588 188.541 349.355 191.157 349.658 193.831C349.922 196.162 348.895 196.924 346.806 196.28C345.461 195.861 344.163 195.279 343.066 194.857C343.852 202.42 344.659 209.974 345.504 218.023C353.764 218.169 362.312 218.353 370.874 218.441C371.956 218.441 373.065 218.056 374.12 217.705C374.548 217.562 375.142 217.081 375.193 216.688C375.532 214.143 375.98 211.577 375.941 209.028C375.834 202.566 375.476 196.112 375.26 189.65C375.217 188.428 375.355 187.201 375.414 185.841C368.648 186.486 362.005 188.135 355.696 184.615C354.028 187.867 352.655 187.963 350.976 184.72C349.941 182.727 349.269 180.509 348.509 178.366C347.817 176.466 347.239 174.511 346.617 172.578ZM42.1754 115.87C42.9346 120.687 43.5364 124.998 44.3152 129.263C45.2552 134.411 48.457 137.006 53.2163 137.45C55.5635 137.626 57.9185 137.655 60.2689 137.538C64.6546 137.4 69.0324 137.119 73.4142 136.973C74.8262 136.931 75.9196 137.446 74.893 139.388C76.5136 139.254 78.0398 139.262 79.5109 138.969C82.7244 138.366 85.9458 137.751 89.0846 136.843C89.9263 136.6 91.0513 135.299 91.0828 134.449C91.2008 130.498 91.0317 126.53 90.8508 122.575C90.7918 121.286 90.0915 120.482 88.6755 120.436C79.6288 120.101 70.6137 119.624 61.5787 119.365C58.9159 119.289 56.2371 119.783 53.5624 119.976C52.5083 120.047 52.1975 120.625 51.6941 121.6C50.5141 123.877 48.9408 125.927 47.4225 127.987C47.1786 128.313 46.3998 128.192 45.8491 128.28C45.8491 127.756 45.6997 127.12 45.92 126.731C47.1236 124.592 48.3429 122.449 49.7157 120.453C50.5023 119.298 50.4787 118.515 49.2357 118.076C47.0999 117.331 44.9052 116.72 42.1676 115.87H42.1754ZM362.512 113.48C362.61 113.731 362.705 113.987 362.803 114.238C363.421 114.149 364.045 114.122 364.668 114.158C366.984 114.497 369.305 114.832 371.586 115.364C372.098 115.485 372.448 116.397 372.873 116.941C372.275 117.268 371.618 117.958 371.083 117.862C368.526 117.406 365.997 116.745 363.464 116.134C362.902 116 362.343 115.569 361.816 115.623C357.796 116.042 353.788 116.535 349.544 117.034C349.815 122.893 350.091 128.753 350.374 134.788H371.138C371.21 134.342 371.26 133.892 371.287 133.44C371.296 128.979 372.696 124.646 375.268 121.123C377.951 117.356 379.795 113.074 380.015 108.286C380.26 104.126 380.223 99.9517 379.905 95.7969C379.28 88.9161 377.966 82.1483 374.399 76.18C373.647 74.9243 372.373 74.0077 371.338 72.9321C370.438 74.1584 369.108 75.2424 368.703 76.6362C366.929 82.7343 365.411 88.9203 363.826 95.0853C363.639 96.0341 363.497 96.9924 363.401 97.9565C366.697 94.4952 370.387 93.0345 374.415 92.5155C375.201 92.4151 376.082 92.842 376.92 93.0261C376.696 93.8632 376.649 94.7924 376.208 95.4411C375.323 96.7553 374.222 97.9063 373.042 99.3293C373.559 99.199 374.085 99.1136 374.615 99.074C375.795 99.1075 376.955 99.2121 378.124 99.2875C377.372 100.317 376.774 101.564 375.834 102.33C374.43 103.477 372.79 104.289 371 105.398C372.904 105.599 374.481 105.637 376.004 105.98C376.708 106.139 377.298 106.88 377.939 107.361C377.345 107.817 376.802 108.428 376.137 108.692C375.296 109.031 374.34 109.027 373.455 109.27C370.619 110.056 367.767 110.814 364.974 111.752C364.082 112.07 363.326 112.894 362.504 113.48H362.512ZM352.525 46.4177C350.85 46.9367 349.697 47.351 348.517 47.6482C347.243 47.9705 345.949 48.2048 344.663 48.4476C343.549 48.6569 342.251 48.3513 341.685 49.9292C341.618 50.1218 340.603 50.2264 340.316 49.9836C339.034 48.9038 338.141 47.5519 338.55 45.6559C338.943 43.8311 339.797 43.5632 341.217 44.6514C341.835 45.1202 342.79 45.7271 343.357 45.5346C346.57 44.438 349.729 43.1573 352.867 41.8347C353.398 41.6087 354.126 40.8218 354.087 40.3573C353.878 37.7665 353.721 35.1171 353.045 32.6436C352.23 29.6803 350.818 26.9054 349.858 23.9799C349.465 22.8038 349.595 21.4351 349.465 19.9158C346.846 21.0919 344.619 20.3009 342.432 19.3048C339.907 18.1538 337.425 16.8856 334.872 15.8142C332.445 14.7971 331.439 15.4835 330.754 18.158C329.155 24.4963 328.545 31.0712 328.949 37.62C329.087 40.0894 329.763 42.5253 330.196 44.9779L330.624 44.8649C330.794 44.2162 330.963 43.5633 331.293 42.316C331.734 43.2912 331.993 43.626 332.025 43.9902C332.383 47.8198 334.353 50.7663 336.745 53.3947C338.475 55.2949 340.505 57.1825 343.235 56.3496C347.805 54.9559 350.22 51.1095 352.518 46.4177H352.525ZM127.812 34.6149C126.105 39.0096 124.402 43.2201 122.833 47.485C120.937 52.6288 120.327 57.8647 122.369 63.1509C123.989 67.3362 126.243 71.0612 129.976 73.5013C132.934 75.4391 137.304 75.8117 139.809 71.5342C138.952 71.5342 138.157 71.6639 137.422 71.5007C136.493 71.2914 135.353 71.0822 134.778 70.4251C134.204 69.768 134.133 68.4789 133.846 67.4702C134.688 67.3111 135.549 66.9554 136.364 67.0516C137.13 67.2158 137.846 67.5829 138.444 68.1189C140.596 69.8517 141.835 69.5754 142.901 66.9386C143.601 65.2017 144.207 63.4229 144.868 61.6651H145.3L145.78 65.7332L146.24 65.8797L148.065 62.95C145.576 61.8827 145.025 60.9117 145.359 58.346C145.552 56.8979 145.776 55.4539 146.099 54.0351C147.31 48.7197 146.771 47.1794 142.472 44.0781C141.772 43.5716 141.029 43.128 140.301 42.6676C136.092 40.0392 131.203 38.6705 127.805 34.6149H127.812ZM131.384 106.214L122.074 109.709C122.884 116.025 123.757 122.855 124.63 129.69L124.017 130.071C118.624 123.718 114.215 116.523 109.31 109.014C109.282 113.991 109.452 118.222 111.792 122.043C112.907 123.931 113.857 125.923 114.632 127.995C114.962 128.832 114.746 129.916 114.777 130.891C114.065 130.318 113.043 129.908 112.697 129.15C111.587 126.723 110.789 124.128 109.758 121.667C109.18 120.435 108.54 119.236 107.843 118.076L107.339 118.423C107.874 119.453 108.48 120.449 108.913 121.52C109.161 122.127 109.125 122.86 109.216 123.533C108.662 123.296 108.134 122.994 107.642 122.634C106.25 121.378 104.916 120.06 103.563 118.762C103.933 121.332 106.474 122.408 106.686 125.187L99.9445 122.303L99.5906 123.04C101.372 124.63 103.205 126.162 104.913 127.844C105.388 128.309 105.487 129.209 105.758 129.912C107.052 131.398 109.153 132.289 108.775 135.073C113.908 134.185 118.864 133.256 123.84 132.494C128.166 131.829 132.54 131.419 136.871 130.741C137.276 130.627 137.654 130.423 137.979 130.141C138.304 129.86 138.568 129.507 138.755 129.108C140.722 124.257 142.138 119.118 144.494 114.51C147.46 108.713 146.52 102.715 146.492 96.6674C146.027 97.4706 145.678 98.3441 145.458 99.2582C144.482 102.937 143.558 106.629 142.547 110.299C142.366 110.965 141.874 111.555 141.528 112.145C140.911 111.701 140.136 111.383 139.707 110.785C138.621 109.274 137.685 107.633 136.426 105.624C136.069 106.817 135.817 107.503 135.64 108.219C135.164 110.312 134.775 112.434 134.232 114.497C134.086 115.045 133.516 115.472 133.138 115.954C132.801 115.488 132.514 114.984 132.281 114.451C132.168 113.901 132.113 113.34 132.116 112.777C131.891 110.68 131.644 108.566 131.376 106.214H131.384ZM274.629 68.2277C273.252 71.6221 270.039 73.6687 269.937 77.6239C269.893 79.365 269.571 81.102 269.598 82.8347C269.657 86.476 270.11 90.0378 271.864 93.2982C274.185 97.5924 281.265 101.091 285.76 99.8274C287.116 99.3862 288.314 98.5196 289.198 97.3413C291.952 93.6414 292.907 89.1128 293.792 84.6051C294.142 82.8054 294.748 80.9722 292.935 79.499C292.498 79.1432 292.384 78.2434 292.243 77.5862C291.456 73.9617 290.716 70.3288 289.883 66.3945C287.829 68.6672 285.867 70.8227 282.866 71.1742C279.864 71.5258 277.205 70.4795 274.621 68.2277H274.629ZM288.789 65.298C286.823 65.5658 284.954 65.796 283.098 66.0974C282.723 66.1893 282.385 66.4063 282.134 66.7168C281.269 67.759 280.218 68.0771 279.2 67.2274C277.89 66.1392 278.228 64.5697 278.736 63.2136C279.243 61.8576 280.179 61.4307 281.599 61.958C287.825 64.2809 291.716 59.9993 294.355 55.5125C294.486 55.2077 294.537 54.8704 294.5 54.5373C294.414 51.8503 294.131 49.1508 294.26 46.4763C294.371 44.2204 293.643 43.0819 291.668 42.2909C285.698 39.8257 279.058 39.2021 274.047 34.9707C272.647 39.5243 271.317 44.0027 269.893 48.4476C267.341 56.3998 272.108 65.2561 276.788 68.4579C281.111 71.3919 286.335 70.1153 288.793 65.298H288.789ZM145.001 70.2367C143.538 70.9943 142 71.3124 141.162 72.3001C136.643 77.6197 131.569 77.0296 126.9 72.5094C123.557 69.2741 121.578 65.164 120.41 60.5727C120.214 60.0003 119.985 59.4412 119.725 58.8985C119.699 59.7932 119.63 60.6859 119.517 61.573C118.962 64.4232 118.695 67.4074 117.672 70.0526C116.984 71.823 116.835 73.2083 117.499 74.9829L122.526 72.2499C122.998 76.498 123.313 80.3988 123.895 84.2536C124.682 89.4141 125.696 94.558 128.477 98.9987C131.258 103.439 134.696 103.833 137.685 99.6223C140.675 95.4118 142.964 90.5526 145.579 85.9947C146.622 84.2025 147.011 82.0656 146.673 79.9887C146.217 76.9208 145.634 73.8696 145.005 70.2367H145.001ZM181.936 79.2437C183.485 83.5755 182.797 87.7526 181.625 91.8333C179.339 99.8065 176.932 107.738 174.486 115.652C174.151 116.736 174.281 117.193 175.119 117.854C178.399 120.445 181.601 123.14 185.011 125.944C185.216 125.773 185.798 125.229 186.431 124.764C188.709 123.09 190.727 121.294 191.254 118.092C191.466 116.791 192.308 115.556 193.055 114.43C193.448 113.861 194.235 113.593 194.837 113.208C195.002 113.966 195.482 114.845 195.277 115.468C194.676 117.314 193.802 119.059 192.98 120.972C194.227 120.369 195.431 119.716 196.693 119.21C198.267 118.603 198.522 117.506 198.168 115.929C197.158 111.396 196.249 106.838 195.226 102.309C194.046 97.132 191.482 95.5332 186.86 97.0022C186.774 97.0274 186.64 96.8893 186.148 96.6214C188.842 93.8046 188.256 90.268 187.8 86.9197C187.312 83.3077 185.358 80.6039 181.943 79.2437H181.936ZM308.507 143.899C308.173 139.203 310.95 136.851 314.136 134.759C316.134 133.444 318.136 132.109 320.036 130.619C322.789 128.443 322.888 126.547 320.689 123.793C319.662 122.508 318.773 121.098 317.754 119.654C315.697 122.935 312.46 124.023 308.574 124.81C301.152 126.317 293.899 128.778 286.594 130.9C283.668 131.737 283.216 132.791 284.105 135.951C284.911 138.814 286.386 141.736 283.4 144.494C291.775 145.189 299.944 144.619 308.511 143.899H308.507ZM299.803 47.1208C299.464 43.2033 299.366 39.2272 298.709 35.3557C298.123 31.9237 296.742 28.7051 294.166 26.2944C288.659 21.1631 282.272 20.7571 275.494 22.176C271.148 23.0884 268.269 25.5996 267.372 30.3542C266.979 32.4008 266.511 34.4349 266.29 36.5025C265.897 40.2024 265.649 43.9232 265.303 48.1128C264.607 47.1543 264.162 46.5349 263.73 45.9154L263.179 46.0494C263.355 48.5132 263.533 50.9784 263.714 53.4449H264.273C264.882 51.8587 265.394 50.2138 266.133 48.7029C266.66 47.6273 267.423 46.4428 268.623 47.9998C271.86 41.2738 272.95 34.188 273.095 26.8008C273.622 27.6194 273.861 28.6091 273.772 29.5966C273.378 32.6771 274.838 34.5061 277.237 35.6822C278.907 36.4859 280.613 37.1997 282.35 37.8209C285.812 39.0765 289.308 40.2484 292.774 41.4999C294.674 42.1821 295.673 43.5465 295.417 45.7857C295.269 46.9615 295.18 48.1448 295.149 49.3307C295.149 50.5068 295.26 51.6871 295.338 53.1562C297.191 51.189 296.526 47.9035 299.806 47.1208H299.803ZM295.271 97.3204C293.147 103.28 288.482 104.331 283.389 104.394C281.446 104.419 279.499 103.862 277.548 103.804C273.972 103.699 271.254 101.874 269.842 98.6304C268.452 95.3535 267.426 91.9149 266.786 88.3846C266.117 84.8856 266.062 81.2694 265.736 77.6741L265.102 77.4607C264.886 77.9839 264.438 78.5321 264.485 79.026C264.623 81.1802 264.903 83.3214 265.323 85.4338C267.997 97.2534 270.723 109.059 273.5 120.851C274.68 125.911 274.783 125.873 279.684 126.58C283.121 127.062 283.121 127.062 283.817 130.477C285.587 130.017 287.357 129.443 289.135 129.133C290.575 128.878 290.783 128.095 290.795 126.718C290.813 124.635 290.99 122.556 291.326 120.503C292.597 112.752 293.954 105.047 295.275 97.3204H295.271ZM186.978 81.1187C185.873 79.2562 184.992 77.5653 183.926 76.0251C182.293 73.6687 181.593 71.4463 184.099 69.249C184.245 69.0565 184.358 68.8384 184.433 68.6044C176.999 72.9656 170.568 78.62 164.302 84.3205C166.737 89.05 168.944 93.3777 171.186 97.6887C172.263 99.7562 173.546 101.728 174.458 103.866C174.895 104.862 175.15 106.951 174.789 107.156C173.294 107.993 172.562 106.319 172.067 105.302C170.804 102.715 169.919 99.9279 168.719 97.3036C167.201 93.9846 165.526 90.7493 163.921 87.4805L163.063 87.8363C163.236 89.0148 163.477 90.1806 163.787 91.3269C164.235 92.6997 165.006 93.9553 165.427 95.3365C166.584 99.1494 168.11 102.933 168.613 106.855C169.545 114.133 166.599 120.11 161.926 125.27C157.824 129.795 155.362 135.382 153.395 141.317L163.173 132.444C160.357 132.185 159.838 131.444 160.927 129.226C161.883 127.275 163.205 125.521 164.436 123.738C165.475 122.236 166.768 121.265 168.668 122.341C169.416 120.587 170.053 118.992 170.777 117.439C171.024 116.912 171.587 116.042 171.827 116.104C173.4 116.523 173.526 115.188 173.793 114.271C176.323 105.716 178.871 97.1697 181.231 88.5645C182.01 85.7909 181.871 82.8172 180.838 80.1393C180.634 79.6078 180.708 78.6117 181.047 78.2768C181.306 78.0937 181.604 77.9815 181.914 77.9501C182.224 77.9188 182.537 77.9692 182.825 78.0969C184.166 78.9088 185.397 79.9468 186.978 81.1187ZM215.912 96.1066L215.294 96.3744C213.225 95.2067 211.597 93.4196 211.054 91.0255C210.621 89.1003 209.603 88.9328 208.254 89.0124C206.134 89.1379 204.415 89.8787 204.006 92.4737C203.926 93.0293 203.667 93.5383 203.274 93.9134C201.185 95.5876 200.914 97.9775 200.772 100.443C200.67 102.46 200.654 104.482 200.592 106.503C200.45 110.994 201.598 112.748 205.787 113.175C209.3 113.53 212.148 115.096 214.834 117.268C215.818 118.059 216.832 118.8 218.107 119.779C219.031 118.318 220.372 117.088 220.616 115.644C221.289 111.676 221.564 107.629 221.851 103.603C221.93 102.519 221.7 101.435 221.19 100.493C218.243 95.7152 217.147 89.9096 218.13 84.2912C218.296 83.0431 218.317 81.778 218.193 80.5244C218.099 79.2437 217.379 78.7749 216.305 79.5157C213.784 81.2527 213.273 84.2075 212.305 86.9364C211.613 88.8826 212.84 89.682 213.697 90.8497C214.41 91.8456 215.027 92.9155 215.538 94.0432C215.821 94.6668 215.798 95.4202 215.912 96.1066ZM372.46 135.119C375.567 134.583 378.446 134.101 381.322 133.591C381.981 133.496 382.591 133.167 383.054 132.657C383.516 132.148 383.804 131.487 383.87 130.783C384.281 128.386 384.556 125.965 384.692 123.533C385.086 111.731 384.264 99.9781 383.025 88.2632C382.528 83.4932 381.776 78.7573 380.771 74.0789C380.11 71.0403 378.765 68.2905 375.658 66.8842C372.18 65.3063 368.861 63.3476 365.466 61.5646C365.159 61.4014 364.821 61.2967 364.239 61.0624C364.691 62.3431 365.025 63.3015 365.372 64.2683C365.718 65.2352 366.032 66.2355 366.339 67.2274C367.586 71.2872 367.02 72.748 363.421 74.5393C361.981 75.255 360.49 75.8493 358.783 76.6027L364.719 83.6676C365.222 82.8615 365.619 81.9855 365.899 81.0643C366.914 78.5112 367.771 75.8493 369.073 73.4678C370.375 71.0864 371.956 71.0529 373.644 73.0953C374.689 74.3412 375.585 75.7204 376.31 77.2012C379.693 84.2912 380.901 91.9631 381.424 99.8023C381.978 108.119 380.574 115.883 375.661 122.671C373.168 126.145 372.286 130.171 372.46 135.119ZM309.778 143.791C312.68 143.322 315.532 142.979 318.333 142.384C324.359 141.129 325.66 139.333 325.712 132.716C325.712 132.507 325.712 132.298 325.712 132.088C325.444 126.94 325.031 121.792 324.925 116.64C324.76 107.679 323.942 98.8857 321.09 90.3433C319.418 85.3208 316.37 81.9725 311.736 80.5411C308.668 79.5952 305.4 79.3985 302.568 78.9256C303.846 80.3528 305.541 82.0855 307.064 83.9773C309.782 87.3591 309.951 89.9834 307.52 93.6037C306.038 95.7309 304.409 97.7372 302.646 99.6056C301.364 101.016 301.341 102.355 302.572 103.582C304.538 105.545 306.647 107.349 308.865 109.349C309.153 108.418 309.381 107.467 309.549 106.503C309.99 102.427 310.234 98.3165 310.828 94.265C311.194 92.0232 311.831 89.8412 312.724 87.7735C313.357 86.2542 314.667 86.2667 315.811 87.3968C316.297 87.8636 316.712 88.4088 317.039 89.0124C321.696 98.0151 323.198 107.428 320.114 117.373C319.465 119.465 319.599 120.976 321.125 122.613C324.453 126.187 324.091 129.154 320.146 132.051C317.935 133.67 315.634 135.144 313.4 136.73C311.166 138.316 309.353 140.145 309.778 143.791ZM242.328 117.318C242.258 116.749 242.246 116.481 242.191 116.23C240.456 108.462 238.478 100.744 237.046 92.9131C235.669 85.3794 236.401 79.1767 244.614 75.2634L233.679 72.0908C233.596 72.3043 233.51 72.5094 233.427 72.727C233.742 73.2418 234.064 73.7483 234.367 74.2672C236.448 77.8164 236.44 77.7955 232.794 79.1976C231.571 79.6664 230.406 80.2984 229.675 80.6416C231.696 84.7307 233.561 88.3594 235.268 92.0719C235.634 92.8671 235.768 94.1646 235.417 94.8886C234.266 97.4587 232.913 99.9214 231.374 102.251C229.895 104.41 228.129 103.988 227.441 101.363C226.871 99.0106 226.461 96.6174 226.213 94.2022C225.851 91.2306 225.651 88.238 225.383 85.2497C224.597 89.343 224.459 93.4823 223.676 97.4794C222.803 101.92 224.974 105.227 226.556 108.813C226.992 109.801 227.68 110.216 228.786 109.613C229.179 109.399 229.864 109.784 230.414 109.897C230.096 110.513 229.757 111.668 229.462 111.655C226.619 111.521 225.356 114.037 223.46 115.477C222.197 116.439 221.824 117.745 221.462 119.306C220.542 123.299 223.488 125.203 225.1 128.355C228.967 123.173 233.663 119.03 232.908 111.379L242.328 117.318ZM53.8221 64.2014L52.9292 64.2265C52.4769 65.796 51.9497 67.353 51.5957 68.9476C51.285 70.333 51.5958 72.5261 50.8642 72.9907C49.8887 73.606 48.1658 72.953 46.7774 72.7396C43.9375 72.3211 42.7379 73.0409 42.5215 76.0544C42.0613 82.5041 41.8056 88.9747 41.4595 95.6002C45.086 94.7087 47.9692 95.9685 50.3646 98.0653C53.5349 100.844 56.3905 104.034 59.4114 107.035C60.0092 107.637 60.6385 108.202 61.2561 108.784L61.7714 108.273C61.3458 107.758 60.9716 107.197 60.6544 106.599C59.9464 104.85 58.9471 103.1 58.7426 101.267C57.7829 92.5616 57.1694 83.8099 56.1704 75.1085C55.7259 71.417 54.6205 67.8259 53.8221 64.2014ZM235.83 145.092C233.042 141.397 230.347 137.822 227.641 134.256C225.584 131.553 223.507 128.866 221.438 126.174L220.848 126.417C220.51 132.519 220.129 138.622 219.865 144.728C219.79 146.515 219.751 148.424 220.235 150.098C222.595 158.322 227.869 163.851 235.181 167.233C236.274 167.694 237.455 167.863 238.623 167.727C241.522 167.409 242.328 165.417 240.491 162.976C238.737 160.649 236.727 158.54 234.859 156.305C233.384 154.543 231.814 152.844 230.532 150.927C229.25 149.01 229.809 147.503 231.779 146.574C233.077 145.963 234.469 145.582 235.83 145.092ZM291.546 126.781L292.129 127.112C293.663 125.961 295.307 124.94 296.707 123.625C300.503 120.08 305.093 117.377 307.272 112.095C307.799 110.806 307.941 110.002 306.851 109.094C305.143 107.69 303.504 106.193 301.942 104.607C299.976 102.56 300.058 100.983 301.84 98.8187C303.559 96.726 305.309 94.6333 306.891 92.4486C308.11 90.7744 308.578 88.7277 307.473 86.7732C305.467 83.2114 302.576 80.5202 299.126 77.6239C298.996 78.7665 298.874 79.4781 298.839 80.1938C298.792 81.1648 298.933 82.1609 298.776 83.1026C296.955 93.9846 295.079 104.867 293.25 115.749C292.632 119.411 292.109 123.098 291.546 126.781ZM90.9451 53.8091C90.8113 53.9807 90.6068 54.1188 90.5832 54.2862C89.7966 59.9825 87.354 64.7497 83.7392 69.0062C82.5907 70.3706 82.0517 72.6224 81.859 74.5393C81.3162 79.9259 81.2061 85.3627 80.7183 90.7535C80.2188 96.3117 79.5029 101.861 81.4224 107.273C82.2956 109.738 83.3458 112.132 84.5376 115.112C85.816 112.672 86.7049 110.894 87.6843 109.169C88.8358 107.136 89.3032 104.746 89.0099 102.393C88.0226 93.0554 87.1415 83.7095 86.2565 74.351C86.1267 72.953 86.2565 71.5258 86.2565 69.5964L93.3091 73.3004C93.9267 68.6253 93.2186 59.6351 90.9608 53.8091H90.9451ZM222.209 99.1326C222.65 90.3684 225.564 81.8344 224.215 72.727C221.568 73.1163 219.216 73.3339 216.931 73.8571C215.875 74.0834 214.917 74.6714 214.205 75.5312C212.156 78.3982 210.327 81.441 208.395 84.4084C208.061 84.9191 207.648 85.3753 207.172 85.9863C206.857 85.459 206.602 85.233 206.602 85.007C206.625 81.5666 204.741 79.1892 202.711 76.8496C198.857 72.4089 195.049 67.9264 191.218 63.4564C191.155 63.381 191.006 63.3936 190.719 63.3225C193.295 70.9566 195.934 78.3564 203.671 82.0479C201.748 84.4168 199.99 86.4635 198.365 88.6273C197.13 90.3014 195.934 91.645 193.622 89.749C194.802 96.1568 196.261 102.016 199.482 107.746C199.482 106.26 199.443 105.235 199.482 104.18C199.667 100.116 199.191 95.8471 202.59 92.7666C202.757 92.5545 202.876 92.3037 202.936 92.0342C204.116 88.7738 205.461 87.7316 208.604 87.6982C209.368 87.7379 210.13 87.8245 210.885 87.9576C210.962 87.6399 211.055 87.3269 211.164 87.0201C212.293 84.4587 213.225 81.7675 214.665 79.4236C215.196 78.5573 216.986 78.0801 218.067 78.2727C218.649 78.3815 219.275 80.2691 219.306 81.3699C219.381 83.8811 219.094 86.3923 218.956 88.9035C218.771 92.7374 220.058 96.0522 222.225 99.1326H222.209ZM79.0743 112.614L79.861 112.283C75.2511 93.6414 70.6397 74.9983 66.0272 56.3538H65.4412C64.1275 58.2456 62.7823 60.1206 61.5079 62.0376C60.6071 63.3978 59.7654 64.8125 58.9591 66.2439C58.2707 67.466 58.5657 68.4161 59.9188 68.7551C61.1893 69.069 62.5108 69.1736 63.7576 69.5629C64.7056 69.8558 65.571 70.446 66.4757 70.9022C65.9604 71.7811 65.6025 72.8442 64.9023 73.5139C60.7802 77.4942 60.4733 76.3139 62.9631 83.1403C63.0142 83.2685 63.0734 83.393 63.1402 83.5128C66.4167 89.8494 69.6145 96.2322 72.9972 102.506C74.8734 105.972 77.0524 109.249 79.0899 112.614H79.0743ZM354.075 113.204L353.324 113.036C353.19 111.982 352.93 110.944 352.93 109.876C353.131 97.0943 354.795 84.4921 356.864 71.9151C357.65 67.0851 357.741 62.1003 357.89 57.1783C357.954 56.2018 357.777 55.2245 357.376 54.3435C356.975 53.4624 356.364 52.7083 355.605 52.1558C355.668 52.8548 355.731 53.3278 355.751 53.7965C355.995 59.2836 356.455 64.7748 356.38 70.2576C356.337 73.6059 354.964 74.1291 352.337 72.3503C351.125 71.5132 349.977 70.5799 348.797 69.7219C348.288 69.4111 347.762 69.1316 347.223 68.8848C347.935 84.6512 348.631 100.016 349.335 115.59C352.191 115.405 354.791 115.276 357.383 115.02C357.616 114.947 357.83 114.816 358.006 114.638C358.183 114.459 358.317 114.239 358.398 113.995C359.767 108.315 361.073 102.623 362.394 96.9311C359.401 102.288 357.088 107.947 354.091 113.204H354.075ZM321.538 70.8143C323.336 71.8523 324.897 72.6559 326.357 73.6311C327.143 74.1501 327.749 74.962 328.437 75.6401L326.011 77.0129C325.955 77.0422 325.881 77.0128 325.814 77.038C322.577 77.7286 322.238 78.4945 323.635 81.7005C326.439 88.1502 329.252 94.5915 331.981 101.075C333.342 104.306 334.518 107.625 335.777 110.902C335.018 94.2943 330.801 78.0927 331.608 61.7613L326.188 64.4274C325.794 64.6241 325.236 64.7036 325.008 65.0343C323.859 66.8549 322.777 68.7383 321.538 70.8143ZM189.075 17.2414C189.967 19.2252 191.517 19.5601 193.193 19.7986C198.609 20.5687 203.542 18.9113 208.344 16.5173C209.029 16.1783 209.733 15.8895 211.098 15.2617C209.076 21.6151 213.658 24.3649 216.211 28.6884C216.443 27.3072 216.71 26.3822 216.738 25.4489C216.95 18.7021 213.198 14.3828 208.34 11.1516C204.116 8.34324 199.337 9.29752 194.774 10.3732C189.908 11.5241 186.695 14.592 186.121 20.1C185.727 24.1096 185.515 28.1443 185.224 32.1665L186.101 32.2836L189.075 17.2414ZM178.042 218.056L177.959 218.772C181.987 219.709 185.991 220.785 190.046 221.551C193.744 222.25 194.931 221.773 196.005 217.968C197.61 212.28 198.617 206.4 199.817 200.591C200.026 199.273 200.164 197.944 200.23 196.61C198.416 196.07 196.804 195.727 195.293 195.112C193.393 194.333 192.807 195.279 192.678 197.037C192.414 200.503 192.143 203.968 191.918 207.434C191.47 214.365 189.763 216.374 183.367 217.357C181.597 217.625 179.819 217.826 178.042 218.056ZM339.569 115.732C339.644 114.87 339.75 114.058 339.781 113.221C340.049 107.035 340.387 100.849 340.529 94.6543C340.67 88.3762 340.706 82.1232 340.599 75.8619C340.532 71.7435 339.931 71.3793 336.273 73.2586C335.305 73.7566 334.306 74.2003 332.984 74.8406C334.558 88.2339 336.178 101.908 337.807 115.711L339.569 115.732ZM349.166 136.24C346.157 136.424 343.353 136.563 340.556 136.801C340.182 136.835 339.549 137.383 339.545 137.697C339.506 142.087 338.176 146.486 340.186 150.843C342.004 154.765 343.49 158.858 345.146 162.868C345.415 163.367 345.721 163.841 346.063 164.287C348.203 154.836 350.382 145.816 349.166 136.219V136.24ZM48.2249 149.215L47.4697 148.985C45.0232 156.581 42.3563 164.107 40.2205 171.795C39.0405 176.01 38.6471 180.488 38.1555 184.883C38.0375 185.912 38.6472 187.541 39.4221 188.068C40.9404 189.11 42.8087 189.57 44.7596 190.366C45.9396 176.311 47.0842 162.75 48.2092 149.186L48.2249 149.215ZM323.497 65.0385L323.273 64.3604C319.713 65.0008 316.114 65.457 312.614 66.3569C310.521 66.8926 309.073 68.6295 308.287 70.8729C307.665 72.6475 307.933 73.3255 309.719 73.6059C310.956 73.754 312.202 73.8141 313.447 73.7859C316.968 73.811 319.442 75.4224 320.696 79.0177C322.065 82.9268 323.485 86.8192 324.882 90.7367C327.116 96.9772 329.291 103.238 331.635 109.429C332.209 110.952 333.338 112.233 334.212 113.614L334.998 113.196C334.212 110.684 333.59 108.073 332.583 105.662C329.252 97.6426 325.778 89.6904 322.356 81.7047C320.968 78.4568 321.656 76.9543 324.882 76.1046C325.48 75.9498 326.062 75.7531 327.049 75.4517C325.165 74.3426 323.655 73.4344 322.124 72.5554C320.689 71.7184 320.378 70.626 321.239 69.1234C322.026 67.7673 322.758 66.3945 323.497 65.0385ZM133.296 112.417L133.563 112.3C134.011 110.416 134.373 108.5 134.944 106.658C135.184 105.884 135.856 105.264 136.328 104.565C136.926 105.067 137.642 105.465 138.086 106.089C139.133 107.545 140.053 109.111 141.335 111.153C141.792 109.508 142.079 108.479 142.366 107.449C143.546 103.121 144.836 98.8187 145.906 94.4743C146.48 92.143 146.693 89.7155 147.086 87.3298L146.421 87.1708C145.123 89.7113 144.034 92.4025 142.488 94.7505C140.69 97.5446 138.622 100.13 136.316 102.464C134.413 104.343 132.08 104.138 130.023 102.41C128.843 101.401 127.62 100.104 127.03 98.6429C125.378 94.5998 124.052 90.4103 122.703 86.543C122.632 87.9367 122.487 89.7155 122.459 91.4985C122.384 95.9601 122.302 100.426 122.333 104.892C122.357 107.717 123.203 108.269 125.641 107.269C126.798 106.792 127.919 106.214 129.063 105.699C131.537 104.586 132.21 104.942 132.678 107.717C132.918 109.274 133.087 110.848 133.296 112.413V112.417ZM127.486 31.4968C128.3 32.7901 128.745 34.0666 129.606 34.7363C131.644 36.3267 133.866 37.6661 136.045 39.043C139.015 40.9223 142.118 42.5881 144.966 44.6556C147.507 46.5056 148.396 49.2596 147.601 52.5535C147.077 54.7067 146.699 56.8971 146.468 59.1078C146.402 59.7984 147.078 60.5727 147.416 61.3051C147.845 60.6731 148.506 60.0955 148.655 59.3924C149.08 57.4336 148.84 55.1526 149.702 53.4952C150.815 51.3481 150.728 49.2554 150.72 47.0706C150.72 42.6718 150.37 38.3483 148.876 34.1545C145.941 25.9177 131.809 21.5481 124.398 27.0143C120.949 29.5632 118.793 33.0705 118.498 37.6493C119.143 36.3142 119.604 34.8786 120.17 33.4932C121.684 29.7682 124.292 27.4035 128.096 26.851C130.353 26.5246 132.686 26.2316 134.932 26.4785C144.274 27.5165 147.102 30.6095 148.514 38.139C149.104 41.299 149.796 44.4589 149.096 47.8449C148.475 47.4316 147.946 46.8788 147.546 46.2252C145.973 43.5926 144.399 40.9348 142.85 38.2729C139.337 32.3548 133.775 31.6349 127.486 31.4926V31.4968ZM352.962 30.8606C354.929 28.3787 355.507 26.0642 354.779 23.5069C354.075 21.0459 353.281 18.6142 352.419 16.2076C351.601 13.8931 350.036 12.2566 347.994 11.0972C341.996 7.69869 336.312 9.02964 330.9 12.583C329.767 13.4099 328.955 14.6479 328.618 16.0653C328.095 18.6435 328.084 21.343 327.859 23.9924C328.854 21.703 329.326 19.3382 330.003 17.0363C330.845 14.1609 332.107 13.4954 334.77 14.546C337.099 15.4668 339.348 16.6094 341.642 17.6348C344.568 18.9448 347.51 20.7697 350.594 17.0949C350.728 19.7275 350.637 21.9457 351.007 24.0761C351.4 26.2693 352.23 28.3745 352.962 30.8564V30.8606ZM110.561 65.3608C109.774 67.4534 109.109 69.4164 108.275 71.2747C108.024 71.8272 107.273 72.1118 106.749 72.5303C106.631 71.8983 106.356 71.2412 106.423 70.6385C106.631 68.9853 107.166 67.3614 107.233 65.7123C107.284 64.3939 107.233 62.7407 106.537 61.7822C104.704 59.2333 102.037 57.7475 98.9495 56.2994C100.322 58.7562 101.534 60.8112 102.643 62.929C104.48 66.428 104.216 67.0767 100.609 68.4328C100.543 68.4579 100.531 68.6546 100.495 68.7718C103.733 70.2535 103.732 70.2535 102.761 74.1543C102.592 74.8281 102.423 75.4978 102.242 76.1674C101.577 78.6494 100.904 81.1271 100.126 84.015C100.783 83.4918 101.081 83.2449 101.392 83.0105C103.178 81.6796 104.613 78.9716 107.351 81.2819C107.497 81.4033 107.886 81.2819 108.11 81.194C109.684 80.4197 111.226 79.6162 112.681 78.8712L110.411 77.1635C110.835 76.4231 111.318 75.7229 111.855 75.0708C112.697 74.2045 113.743 73.5557 114.557 72.6684C114.95 72.2499 115.316 71.3668 115.159 70.8938C114.368 68.5123 113.302 66.2941 110.561 65.3566V65.3608ZM357.218 77.1761C355.495 87.7149 354.256 98.6848 354.319 109.822C355.156 108.649 355.876 107.387 356.467 106.055C359.338 99.8274 362.461 93.7209 364.019 86.8945C364.463 84.9567 364.019 83.5462 362.63 82.2906C360.789 80.6039 359.019 78.8502 357.218 77.1761ZM273.225 66.7963C270.078 62.9709 268.206 58.3711 267.6 53.0222C266.55 55.1149 265.602 57.2076 265.189 59.4091C264.245 64.4316 262.459 68.9602 259.348 72.8693C257.975 74.5937 256.536 76.2595 255.128 77.9504C256.878 78.0075 258.626 77.7803 260.312 77.2765C262.016 76.8391 263.695 76.2941 265.338 75.6442C266.841 75.0248 268.635 74.5058 269.61 73.3046C271.105 71.4505 272.017 69.0648 273.225 66.7838V66.7963ZM120.52 100.614C117.373 101.966 114.321 103.125 111.379 104.595C109.212 105.666 109.113 106.34 110.435 108.466C112.708 112.12 115.021 115.749 117.409 119.315C119.124 121.88 120.992 124.337 122.774 126.815C122.019 118.03 121.279 109.404 120.52 100.614ZM310.596 107.311C312.732 107.202 314.6 106.943 316.445 107.068C317.585 107.143 318.301 107.993 317.821 109.458C316.991 111.994 316.224 114.552 315.426 117.105L319.505 115.28C322.231 107.198 319.017 90.201 313.939 87.8237C310.352 93.9176 312.346 101.033 310.596 107.311ZM349.182 134.993C348.942 129.443 348.639 124.312 348.545 119.176C348.509 117.218 347.904 116.602 346.118 116.862C344.811 117.01 343.495 117.034 342.185 116.933C341.028 116.879 340.611 117.293 340.556 118.607C340.415 122.428 340.092 126.246 339.907 130.067C339.821 131.841 339.907 133.624 339.907 135.638L349.182 134.993ZM271.75 120.976L272.257 120.696C268.536 106.884 264.784 93.0722 263.037 78.6787C260.579 82.0856 257.794 85.4966 259.222 90.0796C261.13 96.2029 263.38 102.217 265.767 108.161C267.525 112.53 269.74 116.703 271.75 120.964V120.976ZM89.5094 52.3986C86.5869 54.2485 83.9319 56.1655 81.0802 57.668C78.0908 59.2417 75.1133 58.9446 72.5251 56.4124C71.1563 55.0814 69.7719 53.7756 68.0373 52.114C68.171 53.0515 68.1317 53.5496 68.3165 53.9179C69.3077 55.8767 70.2832 57.8647 71.4081 59.7314C72.9539 62.2426 74.7435 64.4065 77.7368 65.3022C78.8814 65.6454 79.7036 67.3362 80.5768 68.4914C80.8752 68.9936 81.1068 69.5372 81.2651 70.107C85.7492 65.0971 89.3521 59.7105 89.5094 52.3986ZM226.579 72.6852C226.461 75.7489 226.143 78.7875 226.272 81.8051C226.461 86.1747 226.921 90.5316 227.366 94.8844C227.584 96.8144 227.915 98.728 228.357 100.614C228.491 101.217 229.03 101.715 229.38 102.263C229.883 101.874 230.56 101.598 230.859 101.079C232.031 99.156 233.104 97.1664 234.072 95.1188C234.25 94.7189 234.351 94.2852 234.369 93.8432C234.387 93.4012 234.323 92.9598 234.178 92.5448C232.727 89.4644 231.398 86.2249 229.427 83.5421C227.688 81.1731 227.885 80.1017 230.607 78.754C231.826 78.1513 233.136 77.7495 234.399 77.2598C232.9 72.5303 231.928 71.9276 226.591 72.6852H226.579ZM308.078 74.6565L307.705 75.075C308.688 76.18 309.549 77.4649 310.69 78.348C312.04 79.3337 313.492 80.1524 315.017 80.7881C316.46 81.3904 317.761 82.3237 318.827 83.5216C319.893 84.7195 320.698 86.1526 321.184 87.7191C322.797 92.8534 324.128 98.0827 325.173 103.381C325.9 107.148 325.881 111.09 326.199 115.033C329.102 115.309 331.954 115.564 334.805 115.849C336.005 115.97 336.603 115.606 336.123 114.217C334.259 115.125 333.173 114.799 331.914 112.379C330.468 109.655 329.204 106.826 328.131 103.912C325.318 96.0522 322.675 88.1251 319.965 80.2231C319.045 77.536 317.664 75.3513 314.698 75.075C312.499 74.8741 310.293 74.7904 308.09 74.6649L308.078 74.6565ZM282.315 128.024L275.695 127.15C275.585 127.987 275.506 128.568 275.365 129.661C274.755 128.849 274.519 128.334 274.13 128.062C273.65 127.719 273.005 127.334 272.513 127.43C272.265 127.549 272.05 127.734 271.888 127.966C271.725 128.198 271.621 128.47 271.585 128.757C271.648 133.239 272.289 137.609 274.491 141.543C275.321 143.025 276.482 143.217 277.803 142.192C278.59 141.585 279.377 140.999 280.144 140.438L282.315 141.945V128.024ZM375.807 93.8507C375.669 93.5828 375.532 93.3149 375.39 93.0471C372.554 94.1729 369.576 95.0226 366.933 96.5335C365.363 97.5082 364.144 99.0139 363.472 100.811C361.898 105.285 360.817 109.939 359.538 114.518L359.932 114.97C360.481 114.527 361.006 114.052 361.505 113.547C362.111 112.865 362.504 111.831 363.228 111.454C364.842 110.555 366.538 109.833 368.29 109.299C370.725 108.566 373.23 108.085 375.705 107.495L375.669 106.725H366.229L366.127 105.888C369.667 104.281 373.506 103.331 376.232 100.053L368.813 101.857L368.581 101.125C371.221 98.894 374.285 97.1864 375.819 93.8507H375.807ZM300.601 57.2537L300.345 56.7012C299.484 57.1197 298.123 57.2788 297.848 57.9568C296.707 60.7526 294.839 62.5607 292.341 63.921C291.79 64.2181 291.204 65.3189 291.291 65.9509C291.775 69.5252 292.424 73.066 293.104 76.6152C293.285 77.5695 293.777 78.4526 294.127 79.3692L294.496 79.2562C294.839 77.2598 295.185 75.2675 295.582 72.9781C297.942 74.3677 299.909 75.7028 302.001 76.745C304.094 77.7871 306.238 78.4317 308.362 79.2688L308.657 78.574L306.867 77.0589C303.6 74.3656 300.934 70.9349 299.063 67.014C297.226 63.0923 297.01 60.3508 300.322 57.8061C300.459 57.668 300.511 57.4294 300.601 57.2537ZM72.706 138.731C72.6785 138.475 72.655 138.216 72.6275 137.956C70.0551 138.094 67.4866 138.287 64.9142 138.375C60.737 138.496 56.5282 138.919 52.3903 138.53C47.5719 138.073 44.2837 135.056 43.2846 129.845C42.4781 125.837 41.8755 121.785 41.4792 117.707C41.2826 115.447 40.2323 115.217 38.0808 115.196C38.8674 121.37 39.603 127.334 40.3739 133.336C40.8381 136.927 42.9699 138.701 46.152 139.522C52.1779 141.079 58.2354 140.832 64.3085 140.103C67.1169 139.731 69.9055 139.187 72.706 138.731ZM189.696 63.9335C188.418 65.1347 187.769 66.089 188.221 67.851C189.83 74.0538 191.163 80.3444 192.815 86.5346C193.102 87.6061 194.389 88.4138 195.317 89.23C195.509 89.3157 195.719 89.3469 195.925 89.3204C196.132 89.294 196.329 89.211 196.497 89.0793C198.302 86.9322 200.037 84.7223 201.858 82.458C194.849 78.4317 192.288 71.3165 189.696 63.9335ZM269.063 75.8409C266.995 76.8287 266.943 76.8329 267.069 78.7707C267.462 84.94 267.545 91.1804 270.149 96.9269C271.537 99.9906 273.654 102.104 276.93 102.598C278.476 102.837 280.034 102.983 281.587 103.172C289.415 104.109 293.061 101.497 294.701 93.9302C294.744 93.7251 294.854 93.5409 294.894 93.34C295.759 89.0961 296.619 84.8521 297.474 80.6081L296.687 80.2523C296.223 81.148 295.586 81.9893 295.322 82.9477C294.445 86.1412 293.962 89.4769 292.86 92.5741C289.828 101.116 287.054 102.456 278.724 100.108C274.232 98.8522 271.364 95.9015 269.803 91.2976C268.084 86.317 268.155 81.2401 269.063 75.8409ZM293.45 127.388L293.604 127.756C295.452 127.179 297.277 126.501 299.154 126.04C303.268 125.019 307.414 124.027 311.548 123.182C313.463 122.788 316.661 119.93 317.322 117.423L311.736 121.407L311.308 121.089C312.789 118.578 314.275 116.054 315.764 113.518L315.237 113.124C314.23 113.761 313.27 114.531 312.204 114.983C311.315 115.359 310.674 117.105 309.191 115.77C311.894 113.455 315.186 112.049 316.881 108.692C313.817 107.081 310.399 108.596 309.349 111.789C308.444 114.535 307.429 117.23 306.363 119.926C305.959 120.871 305.419 121.743 304.763 122.512C304.499 122.839 303.866 122.822 303.398 122.964C303.22 122.502 303.109 122.014 303.067 121.516C303.184 120.753 303.359 120.001 303.59 119.269L293.45 127.388ZM52.1031 62.3598C50.5298 63.0881 48.9564 63.4522 47.8197 64.4274C45.3075 66.6381 42.9174 69.0012 40.6611 71.5049C39.9214 72.3753 39.4601 73.4728 39.3433 74.6397C38.8556 80.3863 38.478 86.1412 38.1633 91.9003C38.0257 94.4324 38.1397 96.9813 38.1397 99.6516L40.5234 99.1703C40.5234 97.9565 40.484 96.8474 40.5234 95.7424C40.7751 89.2802 40.9718 82.8138 41.3415 76.3557C41.5775 72.2248 43.4694 70.7892 47.2022 71.5635C48.1462 71.756 49.0824 71.982 49.8219 72.1369C50.5692 68.956 51.2653 65.9676 52.1031 62.3598ZM119.234 99.819L116.205 98.329C113.951 97.2241 111.698 96.1275 109.452 95.0142C108.032 94.3069 107.878 93.0764 108.37 91.691C108.646 90.9088 109.03 90.1752 109.511 89.5146C111.587 86.7774 113.719 84.0736 115.828 81.3782L115.658 81.0518L104.291 88.3887C107.918 93.4572 107.851 99.187 108.909 104.343L119.234 99.819ZM126.876 28.2866L126.566 29.0023C127.199 29.4209 127.793 30.0528 128.469 30.1742C130.656 30.5593 132.887 30.6681 135.077 31.0364C139.207 31.7312 141.823 34.7656 144.156 38.0888C145.564 40.0978 146.763 42.2742 148.054 44.3668L148.604 44.1576C147.763 40.6837 147.031 37.1722 146.008 33.7653C145.557 32.5341 144.759 31.4815 143.723 30.7518C138.468 26.9515 132.71 27.0854 126.876 28.2866ZM149.186 102.288C152.896 95.6462 155.48 88.4766 160.53 82.6882L154.524 79.3985C154.524 79.7986 154.546 80.1983 154.591 80.5955C154.921 82.2697 154.894 83.496 153.017 84.4545C152.368 84.857 151.805 85.4003 151.365 86.0492C150.925 86.6981 150.618 87.4382 150.465 88.2213C149.804 92.8671 149.58 97.5966 149.186 102.288ZM259.643 152.011C258.636 148.039 244.826 145.285 239.606 146.356C243.697 151.55 255.261 154.853 259.643 152.019V152.011ZM150.296 67.0474C149.253 67.9766 148.148 68.8723 147.149 69.8893C146.756 70.3079 146.323 71.011 146.398 71.5007C146.83 74.351 147.408 77.1803 147.971 80.131C148.211 79.9091 148.364 79.7752 148.486 79.6538C149.013 79.2353 149.54 78.7917 150.06 78.3606C150.26 79.0386 150.598 79.7041 150.642 80.3946C150.732 81.8009 150.669 83.2156 150.669 84.7767C151.81 83.8643 153.242 83.2909 153.497 82.3576C153.792 81.2694 153.167 79.8129 152.711 78.5907C152.443 77.8625 151.66 77.3686 151.295 76.6571C150.991 75.9175 150.756 75.1479 150.594 74.3593L151.275 73.9784C153.088 75.8744 154.213 78.7163 157.407 79.1893C154.917 74.9285 152.518 70.8436 150.292 67.0433L150.296 67.0474ZM80.0262 70.3958C79.7154 68.9853 79.2041 66.834 77.2728 66.3192C73.9491 65.4403 72.1122 62.9709 70.3816 60.2253C69.9567 59.5472 69.5083 58.8818 69.0717 58.2121L68.5526 58.4381C70.2793 63.8038 72.0021 69.1736 73.6659 74.3426L80.0262 70.3958ZM326.196 30.9569L326.518 31.0531C326.687 30.2904 326.803 29.5154 326.864 28.7344C326.915 25.7377 326.805 22.7326 326.931 19.7401C327.104 15.7179 328.194 12.1645 332.044 10.4066C333.418 9.7591 334.821 9.18636 336.249 8.69063C343.077 6.44308 352.376 9.23054 354.508 18.5472C354.875 19.837 355.306 21.1055 355.798 22.3475C355.515 11.8841 346.004 4.39641 336.229 6.95368C328.056 9.0966 326.522 11.4153 326.231 18.3128C326.05 22.5066 326.191 26.7213 326.191 30.9318L326.196 30.9569ZM139.2 132.465H138.676C137.142 137.736 135.607 143.005 134.07 148.273L134.597 148.642C136.419 147.754 138.271 146.926 140.045 145.938C140.545 145.662 141.158 144.908 141.143 144.398C141.001 140.338 140.891 136.24 139.2 132.465ZM337.114 135.194C336.871 129.096 336.635 123.157 336.395 117.172H333.822C333.822 122.06 333.865 126.831 333.822 131.603C333.771 134.654 333.869 134.855 337.114 135.194ZM120.488 50.5152C122.341 45.6392 124.268 40.7883 125.995 35.8663C126.428 34.64 126.231 33.1668 126.33 31.7144C124.363 31.6684 123.604 32.9073 122.99 34.2257C120.583 39.3569 121.004 45.0198 120.488 50.5152ZM314.675 189.206L313.967 189.089C310.954 193.182 309.176 209.426 311.158 213.498L314.675 189.206ZM186.88 67.5246C185.672 69.1485 184.657 70.4125 183.764 71.7644C183.644 71.9859 183.573 72.2339 183.557 72.4893C183.54 72.7447 183.579 73.0007 183.67 73.2377C185.849 76.9166 188.099 80.5453 190.325 84.1866L190.825 83.9313L186.88 67.5246ZM219.739 61.8994L216.592 72.5596C217.741 72.4047 218.952 72.2499 220.172 72.0699C221.391 71.8899 222.587 71.6849 223.779 71.4965C223.696 68.4203 222.937 66.6373 219.739 61.8994ZM306.572 75.255L301.183 58.7353C298.744 60.828 298.32 61.9832 299.323 64.6827C300.829 68.7425 303.26 72.1285 306.572 75.255ZM166.501 197.506L167.374 197.799C168.141 195.953 169.4 194.162 169.585 192.249C170.202 185.912 170.434 179.534 170.812 173.172L169.998 173.072C168.833 181.216 167.668 189.361 166.501 197.506ZM335.148 54.0309C336.524 56.358 337.874 58.7018 339.286 61.0038C340.072 62.2594 341.181 62.3975 342.385 61.7278C345.107 60.2127 346.743 57.6094 348.439 55.0647C342.688 59.1789 340.198 58.3419 335.148 54.0309ZM181.117 33.6481C179.788 35.9542 179.996 42.4583 181.53 44.4422C181.752 44.6736 182.019 44.85 182.312 44.9585C182.605 45.0671 182.917 45.1051 183.226 45.07C183.831 44.9528 184.846 44.3124 184.838 43.9232C184.764 41.1274 185.306 38.1264 183.198 35.6319L182.05 37.8C181.672 36.1216 181.412 34.9707 181.117 33.6481ZM193.846 96.3828C192.941 91.4483 191.962 86.3379 187.698 82.6966C189.621 86.6267 189.236 90.7451 188.913 94.445L193.846 96.3828ZM81.0331 13.5122C75.3927 9.85417 68.7099 10.6912 67.3726 15.3035L81.0331 13.5122ZM317.672 185.996C317.703 186.189 317.735 186.377 317.77 186.569C322.026 188.043 326.199 188.101 330.141 185.372C330.534 185.1 330.593 184.276 330.805 183.698C330.318 183.552 329.802 183.221 329.346 183.28C327.611 183.573 325.896 183.979 324.178 184.381C322.006 184.916 319.839 185.46 317.672 185.996ZM258.195 90.7158C256.724 85.8942 259.265 82.5292 260.788 78.4903L253.708 81.7591C255.01 84.647 256.217 87.3382 257.44 90.021C257.515 90.1843 257.716 90.2847 258.195 90.7158ZM84.1877 14.8808C83.1257 16.8814 83.1767 18.0157 84.7815 19.4052C86.7128 21.0794 88.7974 22.5694 90.8152 24.1389C91.8694 20.7194 88.0345 16.0695 84.1877 14.8808ZM204.116 76.4311C205.19 78.168 206.531 80.3319 207.845 82.4622L213.08 74.6649L204.116 76.4311ZM255.379 127.045L244.999 120.516C247.914 128.292 248.417 128.066 255.379 127.045ZM219.354 185.318H219.853C221.001 178.087 221.089 170.709 220.113 163.449H219.354V185.318ZM270.287 127.48L272.859 125.66L265.846 111.283L265.551 111.433C267.124 116.777 268.703 122.126 270.287 127.48ZM378.257 185.264C376.126 186.268 375.414 198.238 376.963 203.349C377.384 197.439 377.825 191.533 378.257 185.264ZM222.988 103.879C222.638 107.771 222.327 111.212 221.965 115.217L226.398 111.149C225.261 108.726 224.235 106.532 222.988 103.879ZM118.042 49.0503C117.999 50.0422 117.96 51.0384 117.908 52.1893L116.402 51.7708C116.382 54.9894 115.957 58.1368 117.889 61.5018C119.01 56.9774 119.187 53.0348 118.042 49.0545V49.0503ZM338.31 134.432H338.566C338.896 128.707 339.223 122.981 339.557 117.172H337.524C337.775 123.01 338.035 128.727 338.294 134.445L338.31 134.432ZM161.643 131.021C164.342 130.502 167.362 126.693 167.819 123.425C165.773 123.006 162.52 126.932 161.628 131.034L161.643 131.021ZM224.719 62.9458L224.376 63.2597C224.998 65.0552 225.852 66.8047 226.182 68.6588C226.556 70.7515 227.334 71.7267 229.38 71.1993C229.726 71.1115 230.096 71.1156 230.953 71.0236L224.719 62.9458ZM277.524 219.626C277.524 219.282 277.489 218.939 277.473 218.6H265.673C269.61 219.831 273.532 221.111 277.524 219.626ZM112.748 166.325L112.059 166.212L109.652 182.694L110.136 182.773C112.095 177.454 112.677 171.925 112.748 166.325ZM323.82 29.5883C322.699 34.1922 324.213 37.6284 326.156 41.1022L326.943 37.4107L326.247 37.62C325.853 36.7829 324.968 35.7575 325.165 35.1088C325.755 33.1082 324.905 31.6935 323.82 29.5715V29.5883ZM198.464 56.0483L215.243 51.934C211.176 52.2312 207.239 53.0515 203.278 53.7337C202.07 53.9388 200.808 53.7672 199.042 53.7672L198.464 56.0483ZM354.15 43.693L353.701 43.0778C351.361 44.0823 349.084 45.3128 346.669 46.0075C344.458 46.6521 341.949 48.2593 339.982 45.1328L339.589 45.4676C339.793 46.4888 339.982 47.5143 340.19 48.5104C341.125 48.0771 342.084 47.704 343.062 47.3929C345.788 46.7358 348.568 46.267 351.263 45.5011C352.297 45.2165 353.19 44.3208 354.15 43.693ZM353.269 153.492L352.521 153.555C353.111 161.072 353.7 168.589 354.288 176.106L355.019 176.043C354.434 168.529 353.851 161.014 353.269 153.497V153.492ZM151.688 58.999C149.887 62.0292 151.255 68.2068 154.402 71.1366C153.493 67.0726 152.593 63.0337 151.688 58.999ZM291.031 62.3933L290.705 62.1882C289.112 62.703 287.538 63.4983 285.914 63.6615C284.341 63.8163 282.732 63.2429 281.127 63.1467C280.683 63.1132 279.888 63.4857 279.809 63.8205C279.632 64.5572 279.809 65.39 279.841 66.1811C280.344 66.0388 280.856 65.9132 281.351 65.7625C282.378 65.411 283.381 64.9506 284.431 64.6995C286.004 64.3186 287.649 64.1721 289.214 63.7284C289.883 63.5234 290.429 62.8495 291.031 62.3933ZM335.435 218.839C338.405 221.007 341.685 221.003 343.207 218.839H335.435ZM43.4459 220.019C45.2671 221.944 48.3704 222.062 50.99 220.019H43.4459ZM147.841 89.5941C148.64 88.3872 149.176 87.0056 149.41 85.5502C149.643 84.0947 149.568 82.6022 149.19 81.1815C147.184 83.5379 148.057 86.3839 147.841 89.5941ZM292.785 62.1422C294.886 61.0331 296.086 59.6017 296.589 57.5885C296.684 57.2202 296.274 56.7095 296.097 56.2659C295.736 56.4417 295.181 56.517 295.043 56.81C294.28 58.4423 293.623 60.1248 292.785 62.1422ZM326.491 62.7993C329.37 62.5147 331.057 59.9993 330.565 57.0527L326.491 62.7993ZM217.395 41.7217L218.496 41.8138L219.027 34.234L218.122 34.1503C217.865 36.6755 217.623 39.1993 217.395 41.7217ZM282.378 174.608H281.745C281.624 177.244 281.503 179.881 281.383 182.518L281.914 182.543C282.862 179.948 283.259 177.32 282.378 174.608ZM296.314 74.7821C296.105 76.5567 295.92 78.009 295.767 79.4613L296.294 79.8087L299.067 76.5608L296.314 74.7821ZM88.9037 162.043L89.4228 161.968C90.0836 158.553 88.8131 155.418 87.7433 152.254L88.9037 162.043ZM115.922 73.1121L111.792 76.7282L112.083 77.2975L116.327 75.8828C116.178 74.8699 116.079 74.1961 115.922 73.1121ZM298.611 55.5334L299.004 56.0734C299.653 55.6758 300.806 55.3325 300.849 54.8763C300.959 53.65 300.593 52.3651 300.416 51.1095L299.771 51.1807L298.611 55.5334ZM145.882 68.5081C148.36 68.4161 150.001 65.3524 149.674 62.3222C148.529 64.2014 147.235 66.2941 145.882 68.5165V68.5081ZM220.392 33.1249C220.392 34.7991 220.522 36.4732 220.357 38.1474C220.184 39.8801 219.727 41.5794 219.393 43.2912C220.659 40.0057 222.339 36.7076 220.392 33.1333V33.1249ZM148.183 100.815L148.97 91.465C147.255 94.4701 148.116 97.7096 148.183 100.815ZM40.901 111.325L40.362 110.768L38.3521 112.53L40.6492 114.623L41.1291 114.137C41.0544 113.17 40.9796 112.258 40.901 111.325ZM355.747 31.2331C355.562 32.4511 355.353 33.3886 355.29 34.3387C355.228 35.2888 355.29 36.2263 355.29 37.1722H355.782C355.963 35.2804 357.812 33.4597 355.747 31.2331ZM98.2454 218.32L92.6561 219.479C95.9051 220.526 97.4587 220.262 98.2454 218.311V218.32ZM299.091 49.3851C296.707 52.5451 296.18 54.6587 297.332 55.4539L299.091 49.3851ZM138.283 70.312L138.621 69.6257L135.203 67.7674C135.361 70.2702 136.71 70.5213 138.283 70.3079V70.312ZM87.468 204.956L86.8308 204.876L85.9694 212.481L86.583 212.557L87.468 204.956ZM79.3849 160.712C78.7083 158.762 77.7919 157.15 75.8174 156.945L75.4555 157.439L79.3849 160.712ZM40.5155 108.395C40.8852 106.892 41.1448 105.884 39.7288 105.817C39.2135 105.787 38.6747 106.185 38.1555 106.386L40.5155 108.395ZM96.684 95.8764L97.2463 96.4247L100.393 92.21L99.925 91.7914L96.684 95.8764Z" fill="#171717"/>
</mask>
<g mask="url(#mask0_230_1379)">
<rect x="15" y="-31.1612" width="410" height="294.455" fill="#4BAD4B"/>
</g>
</g>
<defs>
<clipPath id="clip0_230_1379">
<rect width="436" height="229" fill="white"/>
</clipPath>
</defs>
</svg>
