<svg width="265" height="152" viewBox="0 0 265 152" fill="none" xmlns="http://www.w3.org/2000/svg">
<path d="M218.141 95.6898L222.736 96.1234C222.736 93.833 222.37 91.6571 222.86 89.6939C223.205 88.3115 224.504 86.4566 225.731 86.1233C234.021 83.8738 242.357 84.6816 250.502 86.9413C253.969 87.9025 254.879 90.5794 254.454 95.1213C254.326 96.4833 252.866 98.3258 255.46 99.0334C255.219 99.7246 254.98 100.416 254.673 101.305L258.266 101.9L254.985 103.982L258.272 105.312L254.467 106.657C254.467 106.986 254.467 107.316 254.467 107.645L264.11 108.105L264.135 108.964H253.969L253.938 109.678L258.017 110.207C258.017 110.434 258.017 110.661 258.017 110.888H249.293L249.234 111.487L253.569 112.305L253.52 113.197L232.163 111.935C232.116 112.5 232.067 113.066 232.02 113.633L238.25 114.185C238.281 114.434 238.311 114.682 238.344 114.931C237.196 115.111 236.005 115.16 234.916 115.516C234.072 115.79 233.354 116.451 232.579 116.948C233.415 117.381 234.21 117.898 235.098 118.218C235.667 118.422 236.342 118.336 237.176 118.395C236.132 121.113 231.439 117.686 231.67 122.213L238.844 122.688L238.864 123.604L234.298 123.956L229.952 124.301C229.991 124.743 230.028 125.187 230.067 125.629H239.17V126.256L219.389 128.872C219.389 128.995 219.389 129.115 219.403 129.238H237.418L237.437 130.293C227.222 131.095 216.968 131.15 206.715 131.001C196.404 130.849 186.084 130.148 175.804 131.162V132.023L227.652 133.046C209.707 135.762 191.569 132.33 173.597 134.136V135.074H200.923L200.981 136.16C191.887 137.13 182.544 135.375 173.556 137.504L173.589 138.381H194.363L194.375 139.686H163.939C163.939 140.246 163.939 140.807 163.939 141.369H186.804C186.791 141.778 186.78 142.192 186.771 142.61H154.632C154.616 142.868 154.597 143.124 154.579 143.381L178.512 144.792C178.491 145.226 178.471 145.661 178.449 146.095L144.456 144.254L144.399 145.516L170.602 147.34C170.589 147.708 170.579 148.077 170.567 148.445C158.615 148.811 146.707 146.136 134.704 147.422L165.809 150.068C165.787 150.477 165.764 150.886 165.738 151.295C149.662 150.843 133.644 147.281 117.503 150.13L117.356 148.999L124.522 147.674L124.467 146.774L110.953 147.974C110.894 147.666 110.832 147.361 110.773 147.05L117.299 145.755C111.589 143.4 106.25 145.688 100.956 145.982L100.797 144.987L107.602 143.594C107.553 143.203 107.504 142.812 107.453 142.422L92.5442 143.717L92.3403 142.978L98.866 141.295C93.4517 139.185 88.5738 142.201 83.6591 141.704L83.4695 140.886L90.4519 139.434C90.4295 139.216 90.4091 138.995 90.3867 138.776L71.9924 140.185L71.8415 139.555L77.0621 138.158L77.1661 137.545C75.0962 137.4 73.0182 137.07 70.9606 137.162C68.7745 137.261 66.6047 137.757 64.4349 138.079L64.1637 137.328L68.0383 135.674C63.4968 133.336 59.196 136.166 54.9319 135.845C54.8748 135.569 54.8157 135.291 54.7565 135.015L60.1626 133.498C60.1443 133.181 60.128 132.862 60.1117 132.545L49.9499 133.128C49.8949 132.923 49.8378 132.698 49.7827 132.483L53.8817 131.121C49.6991 128.817 45.747 131.477 41.9172 131.036L41.7704 130.156C43.5181 129.792 45.2657 129.426 47.2765 129.009C43.4589 125.606 39.3906 128.6 35.569 128.416C35.4976 128.138 35.4242 127.86 35.3528 127.582L40.8344 125.923C36.2991 122.682 31.6577 126.318 27.0958 124.696L33.8091 123.209C27.6525 121.138 22.328 123.968 16.8546 124.494C16.775 124.238 16.6976 123.984 16.6201 123.729L24.0308 121.594C23.9716 121.248 23.9146 120.903 23.8554 120.557L6.62764 122.845L6.43797 121.991L12.7801 120.512C12.7536 120.24 12.7271 119.968 12.6986 119.694L0.114186 120.308L0 119.375L5.61208 118.545L1.9577 117.263C1.34592 115.481 0.832006 114.4 0.644392 113.254C0.456779 112.109 0.632165 110.923 0.601576 109.755C0.418041 102.894 0.116227 96.0334 0.0897161 89.1704C0.0897161 86.9434 0.713728 84.7 1.20519 82.4975C1.29492 82.0885 2.0719 81.6795 2.60007 81.5507C17.7111 77.8697 32.7691 73.9351 47.9861 70.7654C52.4419 69.8369 57.3545 71.1069 62.0571 71.3687L70.7505 71.8492C70.7505 70.6059 70.828 69.5854 70.7363 68.5772C70.2632 63.3482 69.1314 58.0864 69.4332 52.9084C69.682 48.6467 67.9873 44.4176 68.9131 40.4994C70.0042 35.8879 69.1946 31.5198 69.1395 27.0515C69.113 24.7918 70.0919 23.5402 72.2147 23.3255C78.251 22.712 84.2995 22.2007 91.1066 21.5791C91.49 17.8981 92.271 13.3807 92.3505 8.84282C92.4382 3.76508 93.0928 2.12908 98.1502 1.35607C108.481 -0.220622 118.877 -0.733915 129.202 1.5299C133.205 2.40516 135.567 9.48495 133.444 13.9103C133.079 14.669 132.547 15.3418 132.793 16.0228C133.022 18.7058 133.252 21.3889 133.499 24.2826C142.268 21.2151 151.494 20.9472 161.029 21.7099C161.029 21.076 161.054 20.4584 161.029 19.8408C160.733 13.2191 161.878 11.4297 168.146 9.47267C176.522 6.85712 185.109 7.14342 193.676 8.06367C196.975 8.4195 198.499 10.7488 198.558 14.1537C198.635 18.6977 199.427 23.3194 198.813 27.7529C198.301 31.4585 199.029 34.8797 199.168 38.4339C199.288 41.4319 197.601 44.2397 199.157 47.5485C199.973 49.2888 198.444 52.0332 198.342 54.342C198.25 56.387 198.66 58.4606 198.86 60.6447C202.031 60.9023 205.318 60.9964 208.546 61.4831C211.919 61.9923 215.394 62.4852 218.5 63.7735C219.948 64.3748 221.439 66.8022 221.502 68.4545C221.665 72.702 221.761 77.1989 220.545 81.1887C219.112 85.9168 220.921 90.9781 218.141 95.6898ZM193.637 26.1599C193.711 27.9533 193.841 29.7468 193.841 31.5403C193.841 32.4319 193.592 33.3255 193.456 34.2172L194.322 34.3317L196.629 23.3132C195.511 24.4298 194.614 25.3296 193.696 26.211L190.621 26.8245L184.261 29.1824C184.036 31.5423 183.787 34.166 183.537 36.7918L185.048 37.0638C185.664 34.4258 186.281 31.7877 186.899 29.1497L187.668 29.2805C187.501 31.71 187.335 34.1394 187.171 36.5689L188.064 36.7632C190.021 33.7877 189.811 30.1128 190.619 26.7918L191.145 35.4585L191.492 35.5485L193.637 26.1599ZM194.975 35.2233C192.159 38.4503 193.59 42.4258 193.019 46.0495C194.749 42.6221 195.53 39.029 194.977 35.211C198.268 37.3726 195.589 40.4871 196.531 43.1415C197.249 41.0918 197.694 38.9562 197.856 36.7898C197.997 34.53 196.663 34.393 194.975 35.2151V35.2233ZM86.3041 42.1272L86.561 51.2254L87.7071 51.1907C87.7071 48.3788 87.7377 45.5669 87.6439 42.7571C87.6439 42.5526 86.7201 42.3931 86.2164 42.2111C85.4537 42.1088 84.4198 41.6426 83.9732 41.9738C82.6905 42.9289 83.0861 49.9227 84.7604 51.9248C84.9215 49.0966 84.9806 46.7182 85.2375 44.3583C85.3354 43.5792 85.9472 42.8655 86.3041 42.119V42.1272ZM127.118 146.608L143.292 144.007L143.059 142.852L127.112 146.614C126.488 146.081 125.941 145.248 125.226 145.06C117.884 143.138 110.508 141.344 103.153 139.467C97.6465 138.058 92.1405 136.58 86.6344 135.134C87.3508 136.115 88.394 136.807 89.5751 137.085C95.4713 138.647 101.376 140.175 107.288 141.668C113.885 143.33 120.507 144.956 127.118 146.6V146.608ZM167.345 68.7429C167.783 69.6693 168.523 70.5731 168.599 71.5282C168.785 73.8635 168.66 76.2214 168.66 78.5711L169.798 78.5998L170.879 69.9147L171.617 70.0149V79.2787L172.215 79.3789L173.175 72.747L173.991 72.8513V79.7879L181.332 80.43C181.711 77.0251 182.062 73.886 182.401 70.8513C177.166 70.1232 172.251 69.4382 167.337 68.7633C166.843 69.9085 166.419 71.0905 165.842 72.1887C164.924 73.9331 165.342 76.1539 167.349 78.0865L167.345 68.7429ZM174.915 9.68944C171.57 10.6731 168.185 11.5504 164.908 12.7181C164.123 12.9982 163.684 14.2477 163.072 15.0514C163.847 15.5565 164.563 16.3418 165.405 16.5218C174.99 18.5668 184.534 18.485 193.91 15.5136C195.162 15.1169 195.997 13.4032 197.026 12.2989C195.882 11.2968 194.759 9.45836 193.592 9.43586C187.34 9.28658 181.075 9.58924 174.817 9.73648L174.915 9.68944ZM111.438 43.9738V51.4299C114.819 51.2909 115.458 49.5383 114.389 44.0802H111.33C112.337 43.618 113.641 42.5321 114.279 42.8389C115.213 43.2867 116.141 44.6978 116.22 45.7632C116.353 47.526 115.812 49.3399 115.529 51.2847H118.123C118.38 48.98 118.61 46.8941 118.841 44.8103C120.511 51.0066 120.511 51.0066 121.785 50.6426C122.022 48.5321 122.246 46.5137 122.473 44.4953L123.504 44.5567C123.423 45.845 123.203 47.1456 123.315 48.4156C123.384 49.1968 123.961 49.9309 124.312 50.6855C124.806 50.0107 125.517 49.4013 125.74 48.6405C126.125 47.3706 126.204 46.0086 126.412 44.6835L127.448 44.7898V49.8818C131.058 43.025 127.448 36.0638 129.062 29.2069L127.687 29.0576C127.365 31.4339 127.042 33.8109 126.718 36.1885L125.886 36.0883V29.9165C121.388 30.9002 124.797 35.3808 121.84 37.2253V30.8225L120.792 30.6486L119.514 36.2376L118.722 36.1231V31.2437L117.856 30.7754L115.517 33.5341C114.823 32.667 114.311 31.4421 113.532 31.2376C112.882 31.0658 111.919 32.0863 111.86 32.1231L93.6067 28.6016C91.6755 33.3521 93.1989 37.074 98.2134 38.8654C99.7225 39.4053 101.499 39.6834 100.263 42.1129L94.4102 40.9595C93.4252 46.98 93.7454 48.8225 96.6942 49.5853C100.942 50.6835 105.339 51.2029 109.843 52.0005C110.088 49.9002 110.143 48.7285 110.382 47.5812C110.639 46.3604 111.069 45.1763 111.438 43.9738ZM190.637 113.913C191.225 113.154 192.018 112.481 192.348 111.616C192.815 110.406 192.942 109.062 193.211 107.774L194.139 107.978C193.966 109.478 193.793 110.982 193.621 112.489L194.328 112.62C194.831 110.215 195.337 107.811 195.844 105.406L196.376 105.336L197.161 109.514C197.62 108.835 198.04 108.207 198.589 107.406L199.69 109.731L200.493 109.684C200.765 107.836 201.032 105.991 201.293 104.148L200.628 103.925C200.177 104.506 199.724 105.089 199.79 105.007L196.651 102.667C200.799 102.136 200.966 99.1908 200.285 95.8248L198.982 99.5467L198.23 99.3688V96.0538L195.475 101.78L195.142 101.449C195.589 97.7553 196.035 94.062 196.515 90.1049C193.001 90.655 191.737 92.0599 191.7 94.8902C191.677 96.5773 190.935 98.2542 190.517 99.9332L189.62 99.79L190.611 92.6325L189.387 92.428L187.791 99.2011L186.891 98.9966C187.107 97.1765 187.324 95.3565 187.568 93.3135H173.991C174.246 94.0518 174.456 94.6571 174.664 95.2624C175.29 94.9434 175.916 94.6223 176.544 94.3074C177.502 98.878 173.446 103.653 168.238 103.06L173.177 100.414L168.487 98.3872L172.186 96.6407C168.699 93.8166 166.203 97.1315 163.187 97.7839L163.831 95.0313L163.715 95.1479L171.348 92.107L171.024 91.5221L134.965 85.2849L134.849 85.88L154.291 90.2051C150.715 94.2951 156.206 94.3524 156.494 96.6162L155.652 97.2849L149.717 90.5487L125.134 85.4362C127.436 89.3217 126.606 92.0763 123.688 93.6305C120.45 95.3585 116.944 97.0518 113.38 97.5917C107.484 98.4812 101.448 98.4342 95.4706 98.7819C100.522 99.6633 105.667 100.365 110.777 100.072C116.797 99.7266 122.736 98.6776 128.452 101.62C129.188 101.999 130.328 101.851 131.209 101.643C137.363 100.181 143.495 98.6223 149.646 97.1438C150.606 96.9127 151.622 96.9168 152.613 96.8125C152.666 97.1684 152.719 97.5242 152.77 97.88C147.439 99.3115 142.129 100.808 136.772 102.127C132.626 103.15 128.568 104.072 124.308 101.778C122.397 100.755 119.695 100.986 117.358 101.021C112.9 101.089 108.432 101.745 103.995 101.553C99.6797 101.365 95.3768 100.53 91.1188 99.7123C90.4091 99.5774 89.9482 98.1295 89.0347 96.7921C90.4622 96.7921 90.7844 96.7921 91.1004 96.7921C99.9998 96.9966 108.983 97.9639 117.627 95.0354C120.074 94.2174 122.281 92.5037 124.334 90.8698C124.946 90.3871 125.071 88.5446 124.644 87.7348C124.261 87.0088 122.789 86.4485 121.845 86.5078C120.009 86.6346 118.204 87.2522 116.387 87.6673L116.44 88.1335L119.703 88.747L119.62 89.698H112.749C112.766 89.9025 112.78 90.0947 112.796 90.291L117.768 90.9638L117.64 92.0006L105.702 91.1233L105.677 91.5998L111.053 92.0845C111.03 92.426 111.006 92.7675 110.983 93.107H96.4658L96.4923 93.9454H103.509C103.509 94.3238 103.509 94.7 103.509 95.0763H87.9885C87.7683 96.97 87.6378 98.0866 87.5297 99.015H81.3181C83.0637 97.0109 84.9378 95.2154 87.1545 94.5364C97.0755 91.4894 107.039 88.5425 117.099 86.0047C122.624 84.6121 128.111 82.3585 134.2 83.0906C133.114 82.2031 131.945 81.2501 130.632 80.9679C125.613 79.8656 120.584 78.6713 115.492 78.066C105.271 76.8533 95.024 75.4464 84.7563 75.1478C71.5397 74.7654 58.7535 77.9515 46.4363 82.5834C42.6473 84.0149 39.3294 86.7573 35.9218 89.0906C35.1938 89.5875 34.5922 90.9311 34.6636 91.8411C35.4018 101.136 36.3296 110.416 37.1107 119.708C37.2759 121.682 38.1303 122.798 39.9371 123.502C45.5227 125.682 50.9594 128.31 56.6592 130.107C66.2315 133.124 75.9629 135.629 86.2286 138.53C84.4687 135.909 82.4193 134.207 82.2092 132.303C81.3119 124.222 80.9632 116.078 80.4146 107.98C86.1042 107.148 112.739 112.739 115.441 115.514L82.3051 108.33C82.2092 108.751 82.1154 109.172 82.0196 109.594L97.2448 113.148L97.0408 113.915L82.3458 111.256C82.2337 111.635 82.1236 112.011 82.0114 112.387C82.8271 112.796 83.6143 113.375 84.481 113.575C94.5101 115.888 104.551 118.136 114.585 120.426C115.276 120.584 115.922 120.941 116.591 121.205L116.292 122.14L82.6436 114.573L82.2704 115.821L94.7732 119.107L94.5121 120.101L82.8679 117.964C82.7958 118.352 82.7279 118.741 82.664 119.13L117.536 127.342L117.272 128.488L82.8883 120.788L82.509 122.334L104.9 127.463C104.817 127.872 104.735 128.281 104.651 128.69L83.2187 124.395C83.1316 124.791 83.0426 125.186 82.9515 125.582L89.7076 127.831L89.4812 128.629L83.7713 127.858C83.7427 128.04 83.7122 128.224 83.6836 128.406L108.977 134.007L108.732 135.234L84.3545 130.095C84.2893 130.395 84.224 130.696 84.1506 130.997L125.574 141.342V114.641L89.7096 107.074L89.7729 106.434L98.9333 107.492C98.9333 107.35 98.9516 107.209 98.9618 107.07L93.1744 105.099C93.2661 104.798 93.3559 104.496 93.4476 104.195C98.7498 105.367 104.091 106.35 109.327 107.751C120.401 110.712 131.313 110.788 142.205 106.888C145.58 105.68 149.122 104.941 152.589 103.988L153.054 105.111L148.875 107.191L148.926 107.6L156.814 106.837C151.848 108.827 146.86 110.297 141.817 111.541C136.935 112.751 131.998 113.733 127.083 114.813L127.438 116.201L167.127 106.316C154.55 112.86 140.12 113.217 126.761 118.076C127.198 118.352 127.304 118.485 127.373 118.459C142.333 114.966 157.53 112.391 172.015 107.031C174.372 106.158 175.431 106.941 175.225 109.522C175.135 110.655 175.08 111.792 175.008 112.927H175.573C175.997 111.265 176.421 109.603 176.844 107.939L177.851 108.123V114.189L178.74 114.209C178.96 111.984 179.18 109.758 179.399 107.53L180.16 107.596V114.41L182.853 114.596C183.363 112.052 183.847 109.635 184.33 107.217L185.268 107.369C184.982 109.69 184.699 112.009 184.332 115.003C188.543 113.87 186.39 109.438 189.261 107.395C188.751 110.085 188.368 112.099 187.927 114.428L190.374 113.896L190.637 113.913ZM151.816 33.9738H142.333L142.382 32.9718C143.145 32.9718 143.918 33.0515 144.67 32.9595C151.339 32.1251 158.025 31.3889 164.655 30.2887C165.862 30.0842 166.819 28.3644 167.891 27.3439C166.629 26.1987 165.54 24.4196 164.072 24.0126C157.46 22.1721 150.698 22.5055 143.958 23.3991C143.805 23.4196 143.679 23.6302 143.551 23.7529L144.709 24.7181C142.025 26.5341 137.518 25.4543 137.078 30.9145C136.297 29.6875 135.361 28.4114 135.461 28.3235C137.19 26.7938 139.048 25.4093 141.136 23.7938C139.162 24.3357 137.198 24.5504 135.579 25.4175C134.239 26.1353 132.534 27.5177 132.367 28.7877C132.074 31.0045 134.245 31.4891 136.121 31.8409C137.484 32.0965 138.811 32.5484 140.155 32.9145L139.906 33.8266L136.903 33.6016L136.291 36.1333L135.783 36.0536C135.516 35.0617 135.251 34.0679 134.835 32.5178C133.232 35.344 131.368 37.481 130.809 39.9186C130.161 42.7407 130.658 45.8266 130.658 49.7939L132.693 44.2315C137.225 45.7878 133.001 50.3236 135.826 52.8021C136.254 49.8164 136.621 47.2499 136.99 44.6835L137.938 44.8143C137.735 47.4728 137.518 50.117 137.28 53.1457C139.811 53.1457 141.825 53.1682 143.84 53.1457C150.747 53.0557 150.749 53.0496 151.712 46.3297C151.781 45.845 151.812 45.3563 151.846 45.0127L148.049 43.9902M7.62076 103.332C7.6697 102.999 7.7166 102.667 7.76554 102.334C9.88027 102.596 12.0052 102.798 14.1097 103.132C19.834 104.035 25.5439 105.031 31.2743 105.888C31.9472 105.988 32.7161 105.444 33.442 105.199C32.8139 104.686 32.2592 103.917 31.5435 103.71C30.0058 103.269 28.3826 103.13 26.8001 102.839C22.795 102.104 18.7899 101.361 14.7847 100.61L14.954 99.4956L33.1933 102.359L33.334 101.287L25.0953 99.7859L25.2849 98.8412L33.2768 99.6857C33.3156 99.4322 33.3564 99.1786 33.3972 98.923L7.73495 94.2297L7.93888 93.1172L33.2259 97.2563C33.2993 96.79 33.3747 96.3217 33.4482 95.8555L2.31661 89.6141V110.357C4.95339 111.003 7.32303 111.618 9.70898 112.158C12.0093 112.678 15.0927 114.289 16.4875 113.369C20.0685 111.013 22.9418 113.496 26.0721 113.635C28.7925 113.755 31.4823 114.571 34.1843 115.078C34.2577 114.735 34.3305 114.391 34.4025 114.046L22.3831 111.183C22.4708 110.856 22.5605 110.528 22.6482 110.201L33.905 112.26C34.0151 111.851 34.1272 111.442 34.2374 111.033L26.9612 108.896L27.1264 108.121L33.6704 108.99C33.7296 108.596 33.7887 108.203 33.8458 107.808L7.62076 103.332ZM94.6202 4.13114C94.5978 4.48288 94.5774 4.83666 94.555 5.1884C96.217 5.81826 97.8321 6.64649 99.5471 7.04731C109.077 9.28454 118.716 8.80805 128.376 8.13934C128.8 8.10866 129.32 8.09025 129.616 7.8469C130.469 7.14546 131.619 6.44199 131.88 5.51969C132.029 4.99413 130.746 3.94913 129.969 3.30905C129.506 2.93072 128.782 2.84074 128.158 2.69555C118.133 0.399017 108.106 1.48491 98.0931 2.7753C96.8961 2.93481 95.7765 3.66692 94.6202 4.13318V4.13114ZM223.376 110.267C218.367 110.267 212.16 110.023 205.983 110.408C204.027 110.528 200.695 112.17 200.575 113.377C200.295 116.177 203.485 116.854 205.687 117.142C212.048 118.003 218.453 118.618 224.856 118.982C226.365 119.066 228.17 118.036 229.426 117.009C230.22 116.361 230.65 114.708 230.493 113.62C230.356 112.706 229.12 111.958 228.372 111.136C229.857 114.853 229.145 117.021 225.497 117.586C222.642 118.025 219.664 117.674 216.74 117.674L216.712 116.316C217.768 116.258 218.824 116.166 219.881 116.152C221.581 116.13 223.323 116.387 224.964 116.08C225.945 115.896 226.767 114.853 227.658 114.207C226.83 113.481 225.992 112.761 225.172 112.023C224.756 111.637 224.363 111.226 223.376 110.262V110.267ZM93.0663 18.7774C91.7143 24.0167 92.9929 26.6629 98.5601 28.1844C101.637 29.0249 104.908 29.1374 108.084 29.6323C110.007 29.9329 110.849 29.2355 110.865 27.2355C110.885 25.1169 111.144 23.0003 111.299 20.8838L112.158 20.9369V29.3951C114.144 29.301 114.214 29.3092 114.907 23.3521C115.025 22.3459 114.295 21.2253 113.865 20.1926C113.808 20.0576 113.253 20.123 112.937 20.1005L93.0663 18.7774ZM116.944 68.1212C109.719 66.5016 102.889 64.9453 96.0396 63.4852C95.489 63.3686 94.4979 63.7306 94.2287 64.1805C92.9399 66.342 94.6121 72.4402 96.9878 73.2725C100.54 74.518 104.28 75.2214 108.155 76.2092C108.583 72.7143 108.913 70.0189 109.242 67.3236L110.033 67.4586C110.033 69.156 110.058 70.8554 110.033 72.5527C109.98 75.5711 109.968 75.5711 112.317 75.7777C112.589 73.1996 112.861 70.6188 113.133 68.0353L114.356 68.158V76.3584L115.676 76.4832C116.128 73.5629 116.569 70.6447 116.944 68.1212ZM22.9928 81.2644C23.5393 81.6734 24.7853 82.1315 24.9668 82.8534C26.2617 87.9659 30.8358 86.1826 34.0008 87.2706C34.5167 87.4485 35.3447 86.8902 35.9646 86.5528C39.411 84.6816 42.6738 82.3196 46.3139 80.9761C52.391 78.7266 58.7045 77.1294 64.9202 75.2501C50.8044 76.4893 36.4377 76.0374 23.0009 81.2644H22.9928ZM94.1757 50.2254C92.0344 53.5772 92.3036 59.2827 94.922 61.0148C98.7783 63.567 103.102 65.0353 107.986 64.9146C108.271 63.0189 108.426 61.3216 108.801 59.6713C109.476 56.6549 108.614 55.3768 105.296 54.8982C101.397 54.3461 97.1285 54.0475 94.1838 50.2254H94.1757ZM3.52793 82.929C13.8303 86.5548 23.5128 88.0988 33.1504 89.835C33.2177 89.5057 33.283 89.1785 33.3543 88.8493L23.1865 86.516C23.5087 85.3483 23.7392 84.518 23.8982 83.9393L19.3792 86.2706L22.5931 83.2583L18.1454 80.6775C19.9808 80.1376 21.0616 79.7777 22.1587 79.5077C29.1208 77.7899 36.0808 76.064 43.0613 74.4239C43.9035 74.2194 44.8966 74.3952 45.7613 74.6468C48.0432 75.3237 49.9622 75.3278 50.888 71.5977C51.6181 73.1805 51.9831 73.976 52.187 74.4177L58.8126 73.6406L58.7249 72.704C54.5526 72.704 50.262 72.0762 46.2303 72.8329C37.1902 74.5282 28.2725 76.8922 19.3119 79.0251C14.3381 80.2092 9.38676 81.4771 3.52793 82.929ZM150.235 65.614C150.747 62.2193 151.167 59.4095 151.642 56.2541L133.481 53.6855L134.056 56.5199L135.143 54.7735L135.795 54.9289C135.591 57.6842 135.387 60.4395 135.183 63.1948L135.748 63.2602C136.174 60.798 136.601 58.3359 137.031 55.8737L138.051 56.0271C137.955 57.5649 137.983 59.1212 137.737 60.6324C137.306 63.2582 138.165 64.7572 140.932 64.9412C143.897 65.1375 146.862 65.3686 150.235 65.614ZM94.2042 7.51357C93.3763 13.1271 94.6427 15.1373 100.526 16.1026C103.968 16.669 107.484 16.7774 111.155 17.1087L111.766 10.4134L112.723 10.4931V16.7917H113.62C113.785 16.1005 113.977 15.4154 114.108 14.7181C114.954 10.1782 114.858 10.2314 110.247 9.73648C104.996 9.16593 99.7633 8.2968 94.2042 7.51357ZM182.709 19.5791L162.52 17.8244C161.054 20.8919 164.667 20.9983 166.044 22.8061L167.22 20.5423L167.861 21.1271V25.0597L169.971 22.6057V27.667L170.595 27.7182C171.078 26.577 171.56 25.4366 172.041 24.2969L172.584 24.4646V27.7672C180.482 29.121 181.461 28.4441 182.552 21.0658C182.631 20.5463 182.668 20.029 182.717 19.577L182.709 19.5791ZM224.165 88.5814C225.032 89.381 225.407 89.9577 225.931 90.1745C234.292 93.6203 242.949 92.7552 251.589 91.8104C251.869 91.7798 252.391 90.0456 252.085 89.5426C251.642 88.8145 250.602 88.2235 249.717 88.0272C242.478 86.4239 235.187 85.2951 227.791 86.9168C226.657 87.1601 225.611 87.9004 224.173 88.5794L224.165 88.5814ZM169.058 66.931L169.949 67.0435L171.146 59.0046L172.009 59.0987C171.85 61.8635 171.692 64.6283 171.535 67.3932L171.864 67.3666L173.444 62.5404C173.96 64.6222 173.852 67.4872 175.076 68.2787C176.677 69.3155 179.332 68.7163 181.559 68.8206L182.782 60.3584L183.743 60.5179C183.614 63.2132 183.488 65.9105 183.351 68.8104C185.578 67.4361 186.712 63.1518 185.982 60.0169L169.694 58.3809C169.48 61.2745 169.268 64.1048 169.058 66.931ZM150.146 75.4198C150.423 72.4423 150.676 69.7327 150.894 67.4034L133.485 65.066L133.281 65.5874L136.152 66.6836V73.475H136.723C136.985 71.5868 137.248 69.6986 137.51 67.8103C138.259 68.25 138.495 68.6897 138.53 69.1478C139.019 74.7163 139.007 74.7715 144.568 75.3932C146.357 75.5916 148.174 75.4239 150.146 75.4239V75.4198ZM169.111 47.8532V56.297L169.994 56.2643C170.38 54.0066 170.764 51.7489 171.146 49.4912L171.982 49.5812C171.879 51.9821 171.773 54.3829 171.666 56.7837L172.388 56.8696C172.805 55.0877 173.224 53.3059 173.644 51.524L174.215 51.6467V57.2991L180.788 58.2561C181.255 55.162 181.648 52.5506 182.042 49.9391L183.045 50.0639V58.1845L184.269 58.34C184.677 56.0516 185.158 53.7714 185.492 51.4729C185.729 49.8716 184.974 49.2643 183.294 49.1518C178.418 48.8246 173.561 48.2786 169.111 47.8573V47.8532ZM198.297 62.4565C198.266 62.7674 198.234 63.0803 198.201 63.3932H204.892C204.656 63.7062 204.352 63.961 204.002 64.1383C203.653 64.3155 203.268 64.4103 202.877 64.4157C196.635 64.7163 196.635 64.7081 198.953 70.4995C200.395 70.4995 201.906 70.6488 203.379 70.4709C208.028 69.9085 212.676 69.295 217.293 68.5159C218.031 68.3911 218.61 67.3155 219.263 66.6754C218.614 66.0435 218.066 65.2009 217.293 64.8349C216.043 64.2148 214.708 63.784 213.332 63.5568C208.346 62.8042 203.371 61.4811 198.297 62.4606V62.4565ZM71.1502 25.1864C71.4235 26.0167 71.4296 26.2867 71.5581 26.4134C71.9558 26.7617 72.3822 27.0757 72.8326 27.3521C78.4875 30.8122 84.5523 30.4891 90.6518 29.076C91.3676 28.9104 92.3138 27.4748 92.2404 26.7161C92.1445 25.7284 91.2636 24.1496 90.4988 24.0044C84.0303 22.759 77.6392 23.4093 71.1502 25.1864ZM201.37 117.461C203.33 120.717 200.191 124.927 204.566 126.128C207.574 126.946 210.698 127.355 214.012 127.999C214.146 125.475 214.419 123.647 214.256 121.864C214.191 121.134 213.3 120.058 212.592 119.87C208.155 118.696 203.662 117.729 199.047 116.661C199.314 118.487 199.637 120.698 199.959 122.911L200.687 122.882C200.879 121.355 201.07 119.833 201.37 117.461ZM71.4908 41.1231L72.5104 41.0863C72.6185 43.5403 72.7266 45.98 72.8673 49.1007L81.6362 51.708C81.8727 47.89 82.0644 44.8205 82.2479 41.9207L70.777 38.2519V45.8675H71.5132L71.4908 41.1231ZM139.766 84.6816L149.509 85.563C149.852 82.5241 150.154 79.837 150.445 77.2582L136.829 75.6815V83.9965L137.945 84.201C138.37 81.657 138.795 79.1131 139.219 76.5691L140.198 76.6775C140.072 79.0558 139.943 81.4239 139.766 84.6877V84.6816ZM172.898 113.69C157.585 119.199 141.434 121.894 126.463 128.256C142.692 125.694 158.023 120.305 172.898 113.696V113.69ZM72.1801 30.4278C74.6578 32.7632 71.5683 36.5628 74.7149 37.9943C77.2314 39.1436 80.0741 39.573 82.9454 40.3726V32.0086L70.6526 28.44C70.8974 30.62 71.1421 32.7836 71.3868 34.9452L72.1739 34.8941L72.1801 30.4278ZM180.227 92.4444C180.737 88.3544 181.13 85.2215 181.544 81.9086L171.201 80.9208C171.034 83.8206 170.879 86.4894 170.724 89.156L171.187 89.2031C171.467 87.3898 171.746 85.5766 172.023 83.7634L172.981 83.8206C172.981 86.0702 172.098 89.1029 173.212 90.3646C174.517 91.8268 177.557 91.7512 180.227 92.4444ZM126.667 134.661L127.483 135.827C142.827 131.704 158.007 127.089 172.62 120.714C171.364 120.447 170.253 120.674 169.178 121.015C162.344 123.187 155.55 125.485 148.683 127.545C142.229 129.481 135.691 131.14 129.219 133.019C128.282 133.287 127.512 134.101 126.667 134.661ZM172.667 123.168C171.815 123.373 171.132 123.481 170.485 123.702C164.926 125.606 159.408 127.647 153.808 129.428C145.651 132.011 137.435 134.385 129.265 136.915C128.552 137.136 127.989 137.841 127.357 138.324L127.93 139.015C150.015 133.598 171.452 126.144 172.667 123.168ZM81.5485 72.3114C81.5485 69.9965 81.628 67.659 81.4893 65.3359C81.4567 64.7919 80.7817 64.0189 80.2352 63.8246C77.6392 62.9044 74.9861 62.1478 72.3636 61.3359C69.6024 67.6693 73.995 72.9699 81.5485 72.3114ZM70.6934 49.8573C70.8749 52.8205 71.0299 55.3563 71.1849 57.8942L72.0149 57.8614V53.207L72.9448 52.6528C72.1291 59.1968 74.9086 62.2234 81.0692 62.0598V53.2806L70.6934 49.8573ZM237.151 108.923L237.724 101.608L223.926 98.2072C223.857 99.6039 223.769 101.387 223.682 103.172L224.143 103.195L224.958 99.287L225.633 99.4219L225.994 105.86L226.965 105.886C227.196 104.099 227.426 102.312 227.654 100.524M173.675 37.0618H181.793C182.146 34.3767 182.472 31.894 182.788 29.4953H169.876C169.572 31.4503 169.254 33.4851 168.937 35.5219L169.619 35.6241C169.89 33.8818 170.162 32.1394 170.434 30.3971L171.272 30.5075V36.5832L172.005 36.6752C172.453 34.7489 172.9 32.8225 173.346 30.8961L174.083 31.0188C173.954 32.8491 173.84 34.6793 173.675 37.0618ZM173.112 116.991C172.934 116.886 172.757 116.786 172.582 116.676L126.751 131.195C127.283 131.69 127.799 131.88 128.221 131.753C142.578 127.472 156.925 123.156 171.262 118.802C172.005 118.582 172.5 117.612 173.112 116.991ZM173.248 126.682L128.115 140.755C128.597 141.492 128.931 141.668 129.172 141.592C143.234 137.404 157.286 133.184 171.327 128.933C171.992 128.721 172.412 127.696 173.248 126.682ZM126.325 124.042L126.863 125.575L173.55 111.964C173.414 111.473 173.272 110.983 173.124 110.494C158.052 116.866 141.464 117.962 126.325 124.042ZM181.034 47.5301C181.167 44.5853 181.291 41.843 181.43 38.7939H173.204C172.323 47.6487 172.686 48.0659 181.026 47.5301H181.034ZM173.391 108.25C173.103 108.276 172.816 108.319 172.533 108.379C163.811 110.772 155.105 113.228 146.363 115.547C140.567 117.087 134.712 118.41 128.907 119.903C128.003 120.136 127.22 120.831 126.38 121.314L126.831 122.222C142.027 116.42 158.688 115.849 173.391 108.25ZM130.821 66.6243H131.611L132.074 72.9637C132.585 70.9924 132.954 68.9249 132.432 67.1171C132.161 66.1743 130.259 65.0394 129.19 65.1314C126.8 65.3359 124.471 66.2643 122.544 66.7797C122.287 69.2603 121.918 71.4607 121.893 73.6652C121.881 74.7 122.532 75.7409 122.883 76.7777C123.405 75.8901 124.214 75.0578 124.394 74.1049C124.848 71.7224 125.018 69.2848 125.301 66.8697L126.078 66.9208V76.0026L127.287 76.0946C127.527 72.8349 127.766 69.5759 128.005 66.3175L128.778 66.3277V74.9331L129.959 74.9985L130.821 66.6243ZM210.3 129.201L210.373 128.269C204.474 127.939 198.576 127.387 192.675 127.344C186.722 127.301 180.767 127.753 174.813 128.005L174.87 129.201H210.3ZM238.793 94.0763L226.965 92.7143C227.044 94.0518 227.124 95.3381 227.202 96.6244L227.726 96.6571C228.042 95.7123 228.357 94.7689 228.67 93.8268C229.41 94.9393 229.282 95.9639 229.457 96.9311C229.567 97.5344 230.054 98.4567 230.511 98.5487C233.054 99.0579 235.64 99.3667 238.26 99.7389C238.473 97.516 238.63 95.8268 238.793 94.0804V94.0763ZM86.4958 62.9473L87.5929 62.9024V53.9044L88.5819 53.8532C88.8443 56.7421 89.1088 59.6324 89.3752 62.524L89.7831 62.4238L91.0066 52.5506L82.564 53.3195C82.564 55.8451 82.4906 58.3931 82.615 60.931C82.6477 61.5608 83.3226 62.158 83.702 62.7715C84.0242 62.2071 84.5666 61.6631 84.6298 61.07C84.8786 58.6815 84.9806 56.2766 85.1376 53.8778L86.0186 53.8042L86.4958 62.9473ZM131.288 51.5935L102.441 53.1436C108.132 53.9453 113.922 54.7019 119.73 54.8553C122.87 54.9391 126.052 54.1048 129.178 53.4442C129.995 53.2745 130.626 52.207 131.288 51.5935ZM203.114 72.0087C202.751 75.1233 202.435 77.8492 202.118 80.563C208.13 81.381 210.143 78.4566 208.428 72.0087H203.114ZM174.48 121.809L174.576 122.952H197.871C198.02 122.522 198.17 122.093 198.319 121.665C197.434 121.191 196.543 120.301 195.668 120.314C191.068 120.371 186.465 120.588 181.87 120.888C179.395 121.052 176.942 121.494 174.48 121.809ZM130.607 25.6834L131.188 25.7815C131.472 24.2723 131.815 22.7693 132.027 21.2498C132.275 19.4523 132.18 17.1598 129.987 17.3418C128.021 17.5116 125.148 18.7099 124.52 20.2253C123.488 22.712 123.951 25.8204 123.731 29.5975C127.03 26.121 125.385 22.1578 127.402 19.1292V27.7488L128.531 27.8572C129.002 24.6207 129.473 21.3827 129.947 18.1435L130.615 18.2662L130.607 25.6834ZM174.633 118.847C174.686 119.211 174.741 119.575 174.796 119.937L197.64 118.465V113.978L189.495 115.41L189.618 116.203H196.372C189.304 118.753 181.681 116.665 174.627 118.847H174.633ZM203.33 82.5977C203.061 85.5384 202.816 88.2337 202.569 90.9291C207.451 90.974 208.469 89.336 207.832 82.1806L203.33 82.5977ZM151.916 138.778L152.713 139.367L172.551 133.128C172.439 132.672 172.325 132.216 172.213 131.762C169.576 132.224 166.939 132.682 164.306 133.158C164.147 133.187 163.878 133.4 163.898 133.475C164.046 134.008 164.221 134.533 164.423 135.048L160.629 133.931C160.74 134.735 160.813 135.269 160.848 135.518C157.993 135.966 155.354 136.303 152.758 136.874C152.348 136.96 152.183 138.117 151.91 138.778H151.916ZM174.835 125.774H199.117L199.092 124.485C190.97 124.107 182.849 123.809 174.829 125.774H174.835ZM142.231 140.723C139.876 141.083 137.42 141.132 135.187 141.87C130.701 143.346 126.364 143.469 121.798 142.107C116.11 140.412 110.298 139.132 104.539 137.672L104.335 138.471C109.513 139.78 114.842 140.676 119.834 142.496C127.622 145.326 134.912 143.492 142.231 140.723ZM192.161 90.0927C192.772 89.7123 193.18 89.608 193.274 89.3749C194.543 86.338 193.223 82.3605 196.631 80.0619C196.747 79.9822 196.574 79.0742 196.321 78.9311C195.858 78.6672 195.13 78.4423 194.689 78.6304C193.237 79.2624 191.865 80.0844 190.486 80.8206C189.91 84.1499 189.332 87.4826 188.753 90.8186L189.95 91.062C190.766 87.7675 191.571 84.471 192.518 80.6325C192.856 81.246 193.164 81.5446 193.129 81.8043C192.86 84.426 192.53 87.0456 192.163 90.0927H192.161ZM202.047 101.614C207.859 101.04 206.101 102.483 207.767 93.5569C203.473 94.334 201.166 96.696 202.049 101.614H202.047ZM191.265 69.1805C190.917 72.428 190.582 75.565 190.246 78.7L191.17 78.8922C191.541 77.3155 191.973 75.7531 192.261 74.1621C192.548 72.5711 192.691 70.9494 192.897 69.34L193.89 69.4095L193.449 77.1989L193.97 77.2623C194.422 74.6406 194.876 72.0196 195.33 69.3993L196.074 69.4913V74.1948L196.794 74.1233C196.682 71.9085 196.572 69.6917 196.445 67.2132L191.265 69.1805ZM215.761 120.242C215.661 122.387 215.478 123.999 215.557 125.596C215.592 126.271 216.192 126.915 216.534 127.573C216.995 127.003 217.731 126.49 217.866 125.847C218.188 124.31 218.227 122.71 218.38 121.144L219.195 121.207C219.331 123.29 219.46 125.375 219.583 127.461L220.59 127.494C220.974 125.289 221.357 123.083 221.797 120.557L215.761 120.242ZM116.777 110.694C122.228 113.13 126.064 113.277 134.816 111.653C136.179 111.402 137.547 111.164 138.895 110.835C140.243 110.506 141.505 110.087 142.808 109.704C142.733 109.354 142.659 109.005 142.584 108.655C134.074 110.626 125.619 113.332 116.777 110.694ZM190.788 48.5751C190.419 51.5608 190.052 54.5424 189.565 58.4872C191.665 57.3093 193.949 56.7898 194.255 55.706C195.006 53.0618 194.84 50.1559 195.071 47.117L190.788 48.5751ZM4.02348 115.242C3.94871 115.771 3.87462 116.301 3.80121 116.833L28.7639 120.541C28.7925 120.336 28.821 120.132 28.8516 119.927L4.02348 115.242ZM3.69312 112.584C3.62582 112.921 3.56057 113.258 3.48919 113.596L30.0854 118.708C30.1534 118.363 30.2213 118.018 30.2893 117.674L3.69312 112.584ZM207.488 102.833C202.318 103.121 201.649 104.06 202.679 109.44L206.723 108.418C206.988 106.459 207.219 104.763 207.488 102.833ZM185.223 80.1335C185.772 76.9147 186.318 73.7204 186.855 70.522L185.631 70.0864C182.115 71.338 183.881 75.1212 183.066 77.6182C182.576 79.1151 182.784 80.79 185.219 80.1315L185.223 80.1335ZM121.351 66.522L118.317 67.2378C118.051 69.9801 117.742 72.52 117.607 75.068C117.576 75.6345 118.162 76.2357 118.461 76.8206C118.965 76.3871 119.811 76.0231 119.913 75.5118C120.466 72.7224 120.833 69.8983 121.351 66.522ZM110.543 55.7408C110.27 58.0987 110.017 60.1989 109.784 62.3032C109.737 62.7265 109.644 63.203 109.784 63.5772C110.007 64.1907 110.306 64.8472 110.771 65.2602C110.975 65.43 112.066 65.0557 112.087 64.8635C112.38 62.023 112.592 59.1723 112.678 56.3215C112.68 56.1641 111.412 55.9678 110.545 55.7408H110.543ZM115.869 29.2417L117.15 29.7509C120.221 28.0249 118.578 24.6138 118.955 21.9922C119.047 21.3787 117.901 20.5607 117.323 19.851L116.579 20.4441L115.869 29.2417ZM183.369 47.618C185.833 45.119 185.984 41.9595 185.884 38.6446C182.717 38.7836 182.099 40.7877 183.363 47.618H183.369ZM152.876 52.6262C155.78 52.2888 156.547 50.0107 155.707 44.7285C152.689 44.8102 152.46 45.4197 152.87 52.6262H152.876ZM153.384 44.0066C156.098 40.6323 155.721 37.2785 155.986 34.0065C153.231 34.2908 152.069 38.389 153.378 44.0066H153.384ZM159.695 33.0127C158.923 33.6098 157.626 34.0965 157.475 34.8225C156.965 37.2887 156.863 39.8409 156.598 42.389C158.953 42.3685 159.306 41.4728 159.689 33.0127H159.695ZM3.76449 87.1335C3.65709 87.5916 3.5497 88.0497 3.44229 88.5078L21.5633 91.8923L21.7407 91.0027L3.76449 87.1335ZM155.009 66.3175L152.285 66.9474C152.148 69.9024 152.032 72.4341 151.907 75.1028C154.481 74.3687 155.382 71.5732 155.009 66.3175ZM185.19 83.8636C184.897 83.4096 184.401 82.6366 183.904 81.8799C183.48 82.6223 182.825 83.3114 182.68 84.1151C182.314 86.1121 182.077 88.1306 181.97 90.1581C181.938 90.7246 182.48 91.3258 182.76 91.9107C183.2 91.424 183.9 90.9986 184.03 90.4383C184.485 88.4771 184.75 86.4607 185.188 83.8718L185.19 83.8636ZM114.224 65.387C116.353 64.7735 117.421 61.1886 116.575 57.5076C116.432 56.8941 115.447 56.4667 114.224 55.4115V65.387ZM127.561 55.7244C125.032 56.5629 124.298 59.6263 125.299 64.3523C127.493 63.475 128.317 60.4545 127.548 55.7326L127.561 55.7244ZM152.974 56.297C152.585 59.5424 152.27 62.1723 151.885 65.387C152.98 65.0332 153.835 64.9617 153.894 64.706M163.713 32.5996C161.802 32.9309 160.211 38.0065 160.819 41.8409C162.879 41.0945 164.282 36.6139 163.713 32.5996ZM189.204 82.021L188.427 81.3073C187.748 81.7163 186.551 82.064 186.477 82.5691C186.039 85.5691 185.865 88.608 185.596 91.6346L186.687 91.88C187.527 88.5971 188.364 85.3108 189.196 82.021H189.204ZM122.542 10.0494C122.458 10.941 122.256 11.6854 122.338 12.4113C122.524 13.9124 122.913 16.7058 123.131 16.6874C126.19 16.5668 124.432 14.0289 124.85 12.5708C125.268 11.1128 125.358 9.35611 122.542 10.0494ZM251.179 101.16L252.138 101.314C251.934 103.281 251.73 105.25 251.487 107.449C254.044 105.142 254.195 103.009 252.215 100.191C249.183 100.997 248.324 103.379 249.583 108.506L251.179 101.16ZM120.515 29.031L121.9 29.2355C122.263 26.577 122.675 23.9288 122.919 21.26C122.952 20.9042 122.187 20.1885 121.753 20.1578C121.365 20.1292 120.582 20.802 120.566 21.1803C120.464 23.802 120.515 26.4175 120.515 29.031ZM120.97 65.1109C121.726 65.0639 122.303 65.0946 122.318 65.0189C122.817 62.3093 123.278 59.5935 123.676 56.8676C123.69 56.7674 122.903 56.3481 122.683 56.4586C122.299 56.6631 121.857 57.1211 121.802 57.522C121.479 59.931 121.259 62.3522 120.97 65.1109ZM189.424 49.2254C186.916 49.5281 185.772 54.2684 186.977 58.8982C189.187 55.6692 188.596 52.4463 189.424 49.2254ZM165.658 53.1314L165.481 52.1477L152.462 54.6426C156.998 55.0455 161.547 55.569 165.658 53.1314ZM238.984 109.044L240.491 109.197C240.871 106.806 241.285 104.422 241.574 102.023C241.603 101.796 240.706 101.158 240.496 101.258C239.918 101.532 239.086 102.076 239.052 102.551C238.893 104.706 238.984 106.878 238.984 109.044ZM163.45 43.0209L209.77 79.9311L210.895 80.1621C211.432 77.5609 212.003 74.9638 212.454 72.3462C212.502 72.0599 211.781 71.3237 211.56 71.3727C211.065 71.4954 210.31 71.9494 210.271 72.3318C210.015 74.8554 209.919 77.3973 209.77 79.9311L163.45 43.0209ZM160.442 44.389C157.354 44.2438 156.392 47.5567 158.494 52.2172C159.118 49.7142 159.74 47.209 160.442 44.389ZM118.025 65.338L119.196 65.4136C119.603 62.8471 120.054 60.2848 120.352 57.704C120.399 57.295 119.775 56.5015 119.369 56.432C118.963 56.3624 118.1 57.0046 118.086 57.3604C117.964 60.0169 118.021 62.6774 118.021 65.338H118.025ZM155.729 74.8104C157.995 73.7225 159.165 69.3339 158.331 64.7899C155.8 68.201 156.465 71.5343 155.725 74.8104H155.729ZM199.516 82.6775V91.154L200.703 91.2767C201.191 88.5303 201.678 85.7838 202.206 82.8043L199.516 82.6775ZM189.728 69.6652C188.27 70.2664 187.209 74.0701 186.873 79.8902C188.765 79.1662 189.699 75.8165 189.724 69.6693L189.728 69.6652ZM186.261 26.6036C188.123 25.7161 190.136 19.8388 189.104 18.9042C188.798 18.6281 187.256 19.0208 187.209 19.2764C186.775 21.6322 186.555 24.0208 186.251 26.6077L186.261 26.6036ZM154.467 76.6366C151.532 77.5036 150.478 82.0333 152.248 86.2481C153.074 82.6305 153.729 79.7879 154.467 76.6366ZM158.474 56.6344L157.385 56.3543L155.69 64.4361C158.635 63.5424 159.339 61.0946 158.464 56.6344H158.474ZM83.2472 72.9474H85.0825C85.0825 70.4095 85.109 67.8737 85.0458 65.34C85.0458 65.0741 84.534 64.657 84.2159 64.6099C83.8977 64.5629 83.1962 64.8656 83.184 65.0189C83.1513 67.657 83.2044 70.3032 83.237 72.9474H83.2472ZM157.273 83.6509L158.219 84.0599C160.666 81.7041 160.268 78.473 160.905 75.5609L159.622 75.1519L157.273 83.6509ZM163.44 55.9944C160.199 56.6978 159.361 59.2909 161.294 63.3563C161.963 61.0762 162.624 58.7919 163.44 55.9944ZM115.688 16.8285C117.98 16.4502 118.219 15.6833 117.705 10.352C115.796 10.6404 115.162 12.6751 115.688 16.8285ZM216.954 99.7266L217.878 99.7819L217.554 104.107C218.333 101.669 219.617 99.154 216.408 96.3483C215.767 100.26 215.258 103.393 214.746 106.524L215.341 106.68C215.879 104.357 216.417 102.037 216.954 99.7205V99.7266ZM189.406 46.9657L190.629 47.1845L192.261 37.4523L190.752 37.1845C190.303 40.4346 189.854 43.6903 189.406 46.9514V46.9657ZM197.742 56.6508C194.104 58.0312 192.626 62.3441 193.684 66.0292C194.255 63.4784 194.825 60.9282 195.395 58.3788L196.464 58.5833C196.177 60.492 195.888 62.4006 195.599 64.3093L196.323 64.4259C196.759 62.0107 197.196 59.6222 197.742 56.6365V56.6508ZM242.272 109.003L243.764 109.248C244.172 107.038 244.617 104.831 244.935 102.606C244.982 102.283 244.458 101.635 244.119 101.569C243.817 101.51 243.124 102.013 243.075 102.338C242.733 104.536 242.523 106.766 242.272 108.99V109.003ZM164.284 49.845C167.512 47.2295 167.954 45.434 165.815 41.4196C165.324 44.1252 164.832 46.8307 164.284 49.845ZM222.642 107.708L222.521 108.383L235.993 111.068L236.178 110.091L222.642 107.708ZM247.916 101.095L246.681 101.007C246.305 103.326 245.902 105.641 245.588 107.96C245.553 108.226 245.983 108.745 246.273 108.813C246.601 108.888 247.331 108.608 247.347 108.442C247.592 106.005 247.743 103.549 247.916 101.095ZM87.703 40.6834C90.0686 38.0106 89.9625 33.8859 87.703 32.1865V40.6834ZM192.644 17.851L191.278 17.4727C190.817 19.9662 190.357 22.4577 189.897 24.9472L190.823 25.1762C192.654 23.0801 192.558 20.442 192.644 17.851ZM211.328 101.215C207.951 102.158 209.017 104.829 208.424 106.606C208.255 107.115 208.97 107.921 209.28 108.59L209.972 108.352C210.4 106.105 210.828 103.853 211.328 101.219V101.215ZM183.196 26.8817L184.403 27.1599C184.962 24.44 185.52 21.7195 186.078 18.9983L184.95 18.6977C183.11 21.076 183.82 24.166 183.196 26.8817ZM85.4007 31.9942L84.1975 32.1456C84.3335 34.7714 84.4694 37.3964 84.6054 40.0209L85.7616 39.9391C85.5189 37.3072 87.1707 34.5628 85.4007 32.0045V31.9942ZM189.122 38.4708L187.707 38.301C187.243 41.3508 186.782 44.4006 186.322 47.4503L187.58 47.6548L189.122 38.4708ZM195.87 55.0352C198.715 50.9821 198.77 47.0945 196.515 46.0822C196.317 48.8389 196.115 51.6344 195.864 55.0373L195.87 55.0352ZM211.165 91.5937L209.876 91.4464L208.267 99.6653L209.739 99.9434L211.165 91.5937ZM154.108 84.655L155.401 84.9802C156.094 82.1894 156.787 79.398 157.479 76.6059L156.131 76.2644C155.462 79.0633 154.79 81.8609 154.114 84.6571L154.108 84.655ZM167.922 89.154C170.188 85.7184 170.092 81.2378 168.33 80.5098C168.203 83.4464 168.065 86.3033 167.926 89.1601L167.922 89.154ZM211.336 81.882L209.972 81.5425L208.809 89.6305L209.976 89.835C210.431 87.186 210.887 84.5371 211.342 81.8881L211.336 81.882ZM248.598 93.516C245.239 94.9761 246.599 97.4322 246.252 100.156C249.111 98.2645 248.477 96.0477 248.598 93.516ZM159.173 74.1498C161.498 72.1498 162.255 67.3236 160.87 64.2807C160.289 67.659 159.789 70.5711 159.173 74.1519V74.1498ZM167.088 79.7715L165.989 79.7041C163.582 82.246 167.07 85.1499 165.503 87.743L166.58 87.8084L167.088 79.7715ZM214.454 90.4055L213.175 89.925L211.634 98.0559L212.763 98.3381C213.325 95.6973 213.888 93.0545 214.454 90.4096V90.4055ZM90.8741 40.0986C93.9738 39.2254 93.9738 39.2254 90.8741 32.9861V40.0986ZM72.7674 74.9638L72.9203 73.567L63.5519 73.066C63.5376 73.2705 63.5254 73.475 63.5111 73.6795L72.7674 74.9638ZM201.778 72.4873L200.554 72.3237C200.157 75.1076 199.76 77.8902 199.363 80.6713L200.434 80.8063C200.879 78.0333 201.327 75.2603 201.778 72.4873ZM120.437 10.0494L119.656 10.1353V16.9901H120.437V10.0494ZM214.04 70.9208C213.614 73.882 213.241 76.4791 212.768 79.7491C215.41 76.2603 215.8 73.0864 214.048 70.9208H214.04ZM211.77 107.105L212.88 107.324L214.642 99.7123L213.361 99.3913L211.77 107.105ZM21.2819 89.0906C21.2003 89.4076 21.1187 89.7266 21.0392 90.0436L31.9921 92.1029L32.143 91.2972L21.2819 89.0906ZM130.878 54.8471L129.641 54.6855C129.362 57.4708 129.082 60.2561 128.8 63.0414L129.855 63.1825C130.195 60.4054 130.535 57.6269 130.876 54.8471H130.878ZM241.884 93.9843L240.277 93.833C240.181 95.7307 240.084 97.6292 239.988 99.5283L241.385 99.6367C241.551 97.7512 241.716 95.8671 241.882 93.9843H241.884ZM87.4705 64.9126L86.8424 64.9494V72.8247L87.4705 72.7858V64.9126ZM91.9141 49.4238L92.7645 49.3604L92.2812 41.845L91.9141 41.9104V49.4238ZM245.078 94.1295L243.62 93.9557C243.402 95.8234 243.185 97.6905 242.967 99.5569M227.809 120.714L226.494 120.123C226.017 122.051 225.541 123.979 225.066 125.907L226.494 126.293C226.934 124.43 227.373 122.57 227.809 120.714ZM89.7504 64.7878L88.8022 64.886L89.1856 72.295L89.7525 72.205L89.7504 64.7878ZM164.755 61.567L166.609 55.4463L165.181 55.0189" fill="#4BAD4B"/>
</svg>
