<svg width="718" height="700" viewBox="0 0 718 700" fill="none" xmlns="http://www.w3.org/2000/svg">
<g opacity="0.8">
<path d="M272.772 469.053L368.842 364.629C388.96 342.761 399.511 313.746 398.175 283.965C396.838 254.185 383.723 226.08 361.714 205.832L180.111 38.7576C158.103 18.5097 129.003 7.7782 99.2153 8.92366C69.427 10.0691 41.39 22.9977 21.2717 44.8655L-74.7982 149.29C-84.7597 160.117 -92.4774 172.814 -97.5104 186.654C-102.543 200.495 -104.793 215.208 -104.131 229.953C-103.469 244.699 -99.9089 259.189 -93.653 272.595C-87.3971 286.001 -78.5682 298.061 -67.6706 308.087L113.932 475.161C135.941 495.409 165.04 506.14 194.828 504.995C224.616 503.849 252.654 490.921 272.772 469.053ZM12.5409 276.86L17.8195 242.367L151.141 97.4522L277.45 213.656L244.433 249.544L259.153 329.192L225.823 365.421L178.165 321.575L118.347 386.595L81.529 384.989L12.5409 276.86Z" fill="url(#paint0_linear_1_2411)"/>
<path d="M0.0733485 765.465L96.1433 661.041C116.262 639.173 126.813 610.158 125.476 580.377C124.14 550.597 111.024 522.492 89.0157 502.244L-92.5872 335.17C-114.596 314.922 -143.695 304.19 -173.483 305.336C-203.271 306.481 -231.309 319.41 -251.427 341.278L-347.497 445.702C-367.615 467.57 -378.166 496.585 -376.83 526.365C-375.493 556.146 -362.378 584.251 -340.369 604.499L-158.766 771.573C-136.758 791.821 -107.658 802.553 -77.8703 801.407C-48.0821 800.262 -20.0449 787.333 0.0733485 765.465ZM-289.076 588.219L-140.952 427.214L-121.863 444.776L-104.414 425.809L-85.5393 443.173L-68.286 424.419L35.8671 520.24L-112.277 681.266L-131.151 663.902L-148.404 682.656L-167.472 665.113L-185.118 684.293L-289.076 588.219Z" fill="url(#paint1_linear_1_2411)"/>
<path d="M545.471 172.64L641.54 68.2159C661.659 46.3482 672.21 17.3326 670.873 -12.4476C669.537 -42.2278 656.422 -70.3333 634.413 -90.5812L452.81 -257.655C430.801 -277.903 401.702 -288.635 371.914 -287.489C342.126 -286.344 314.089 -273.415 293.97 -251.547L197.9 -147.123C177.782 -125.255 167.231 -96.2398 168.567 -66.4596C169.904 -36.6794 183.019 -8.57386 205.028 11.674L386.631 178.748C408.64 198.996 437.739 209.728 467.527 208.582C497.315 207.437 525.352 194.508 545.471 172.64ZM274.882 40.6047L295.533 10.4961C290.82 3.56829 288.571 -4.72993 289.149 -13.0587C289.726 -21.3874 293.097 -29.2606 298.716 -35.407C304.27 -41.4011 311.664 -45.3783 319.745 -46.719C327.826 -48.0597 336.141 -46.6887 343.395 -42.8195L402.351 -106.902C397.897 -113.793 395.839 -121.948 396.496 -130.097C397.153 -138.246 400.488 -145.932 405.983 -151.959C411.639 -158.078 419.207 -162.099 427.463 -163.371C435.719 -164.644 444.182 -163.093 451.482 -158.971L470.671 -174.448L514.038 -135.495L517.043 -114.827C520.345 -92.1613 518.562 -69.0769 511.824 -47.249C505.086 -25.4212 493.561 -5.39717 478.086 11.3703L467.597 22.7717C464.425 26.2068 460.147 28.4213 455.499 29.034L400.918 36.1899C399.866 36.3368 398.892 36.8215 398.143 37.5711L385.745 50.4439C370.833 65.9213 342.29 78.6953 320.736 79.5241L316.631 79.6819L274.882 40.6047Z" fill="url(#paint2_linear_1_2411)"/>
</g>
<defs>
<linearGradient id="paint0_linear_1_2411" x1="320.807" y1="416.841" x2="38.3097" y2="-83.6539" gradientUnits="userSpaceOnUse">
<stop stop-color="#7ED57E"/>
<stop offset="1" stop-color="#7ED57E" stop-opacity="0"/>
</linearGradient>
<linearGradient id="paint1_linear_1_2411" x1="48.1083" y1="713.253" x2="-234.389" y2="212.758" gradientUnits="userSpaceOnUse">
<stop stop-color="#7ED57E"/>
<stop offset="1" stop-color="#7ED57E" stop-opacity="0"/>
</linearGradient>
<linearGradient id="paint2_linear_1_2411" x1="593.505" y1="120.428" x2="311.008" y2="-380.067" gradientUnits="userSpaceOnUse">
<stop stop-color="#7ED57E"/>
<stop offset="1" stop-color="#7ED57E" stop-opacity="0"/>
</linearGradient>
</defs>
</svg>
