<svg width="928" height="700" viewBox="0 0 928 700" fill="none" xmlns="http://www.w3.org/2000/svg">
<g opacity="0.8">
<path d="M606.694 358.41L475.659 489.445C448.219 516.885 432.874 554.172 432.999 593.103C433.124 632.035 448.709 669.422 476.326 697.039L704.206 924.919C731.823 952.536 769.21 968.121 808.141 968.246C847.073 968.371 884.36 953.026 911.8 925.585L1042.83 794.551C1056.42 780.964 1067.18 764.817 1074.5 747.031C1081.82 729.245 1085.56 710.169 1085.5 690.892C1085.43 671.615 1081.58 652.515 1074.14 634.682C1066.71 616.848 1055.84 600.632 1042.17 586.957L814.288 359.077C786.671 331.46 749.284 315.874 710.353 315.749C671.421 315.624 634.134 330.97 606.694 358.41ZM935.806 623.343L927.043 668.063L745.199 849.907L586.703 691.41L631.736 646.377L616.859 541.648L662.32 496.187L722.123 555.99L803.712 474.401L851.666 478.499L935.806 623.343Z" fill="url(#paint0_linear_1_2407)"/>
<path d="M978.641 -13.5362L847.606 117.498C820.166 144.938 804.82 182.226 804.945 221.157C805.07 260.088 820.656 297.475 848.273 325.092L1076.15 552.972C1103.77 580.589 1141.16 596.175 1180.09 596.3C1219.02 596.425 1256.31 581.079 1283.75 553.639L1414.78 422.604C1442.22 395.164 1457.57 357.877 1457.44 318.946C1457.32 280.014 1441.73 242.628 1414.11 215.011L1186.23 -12.8698C1158.62 -40.4868 1121.23 -56.0721 1082.3 -56.1971C1043.37 -56.3221 1006.08 -40.9765 978.641 -13.5362ZM1346.3 233.465L1144.27 435.499L1120.31 411.545L1096.51 435.345L1072.83 411.661L1049.3 435.194L918.602 304.5L1120.66 102.439L1144.35 126.123L1167.88 102.591L1191.81 126.517L1215.87 102.45L1346.3 233.465Z" fill="url(#paint1_linear_1_2407)"/>
<path d="M234.747 730.357L103.713 861.392C76.2723 888.832 60.9266 926.119 61.0516 965.051C61.1766 1003.98 76.7619 1041.37 104.379 1068.99L332.259 1296.87C359.876 1324.48 397.263 1340.07 436.194 1340.19C475.126 1340.32 512.413 1324.97 539.853 1297.53L670.888 1166.5C698.328 1139.06 713.673 1101.77 713.548 1062.84C713.423 1023.91 697.838 986.521 670.221 958.904L442.341 731.024C414.724 703.407 377.337 687.821 338.406 687.696C299.474 687.571 262.187 702.917 234.747 730.357ZM580.645 917.356L552.062 955.52C557.834 964.816 560.318 975.766 559.111 986.603C557.905 997.439 553.079 1007.53 545.412 1015.24C537.839 1022.76 527.975 1027.55 517.358 1028.86C506.74 1030.17 495.965 1027.93 486.71 1022.49L406.298 1102.9C411.734 1112.13 413.976 1122.89 412.676 1133.48C411.376 1144.08 406.606 1153.93 399.108 1161.49C391.395 1169.17 381.302 1174.01 370.459 1175.22C359.617 1176.43 348.66 1173.95 339.358 1168.17L313.477 1187.32L259.008 1134.14L256.211 1107C253.134 1077.25 256.716 1047.22 266.695 1019.11C276.674 990.993 292.8 965.492 313.905 944.454L328.212 930.147C332.537 925.837 338.24 923.18 344.338 922.634L415.947 916.264C417.328 916.129 418.625 915.55 419.644 914.612L436.52 898.489C456.82 879.105 494.759 863.988 522.929 864.079L528.294 864.096L580.645 917.356Z" fill="url(#paint2_linear_1_2407)"/>
</g>
<defs>
<linearGradient id="paint0_linear_1_2407" x1="541.177" y1="423.928" x2="977.317" y2="860.068" gradientUnits="userSpaceOnUse">
<stop stop-color="#7ED57E"/>
<stop offset="1" stop-color="#7ED57E" stop-opacity="0"/>
</linearGradient>
<linearGradient id="paint1_linear_1_2407" x1="913.123" y1="51.981" x2="1349.26" y2="488.122" gradientUnits="userSpaceOnUse">
<stop stop-color="#7ED57E"/>
<stop offset="1" stop-color="#7ED57E" stop-opacity="0"/>
</linearGradient>
<linearGradient id="paint2_linear_1_2407" x1="169.23" y1="795.875" x2="605.37" y2="1232.02" gradientUnits="userSpaceOnUse">
<stop stop-color="#7ED57E"/>
<stop offset="1" stop-color="#7ED57E" stop-opacity="0"/>
</linearGradient>
</defs>
</svg>
