<svg width="1530" height="617" viewBox="0 0 1530 617" fill="none" xmlns="http://www.w3.org/2000/svg">
<g opacity="0.8">
<path d="M857.643 -0.00012207L672.332 -0.00012207C633.526 -0.00012207 596.309 15.5149 568.869 43.1319C541.428 70.749 526.012 108.206 526.012 147.262V469.534C526.012 508.59 541.428 546.047 568.869 573.664C596.309 601.281 633.526 616.796 672.332 616.796H857.643C876.858 616.796 895.885 612.987 913.637 605.586C931.389 598.186 947.52 587.338 961.107 573.664C974.694 559.989 985.472 543.755 992.825 525.888C1000.18 508.022 1003.96 488.872 1003.96 469.534V147.262C1003.96 108.206 988.547 70.749 961.107 43.1319C933.666 15.5149 896.449 -0.00012207 857.643 -0.00012207V-0.00012207ZM903.025 420.053L865.207 445.478H608.041V221.331H671.727L735.262 136.757L799.554 136.757V221.331H914.938L945.949 258.137L903.025 420.053Z" fill="url(#paint0_linear_1_2407)"/>
<path d="M1383.65 0L1198.34 0C1159.54 0 1122.32 15.515 1094.88 43.1321C1067.44 70.7491 1052.02 108.206 1052.02 147.262V469.534C1052.02 508.59 1067.44 546.047 1094.88 573.664C1122.32 601.281 1159.54 616.796 1198.34 616.796H1383.65C1422.46 616.796 1459.68 601.281 1487.12 573.664C1514.56 546.047 1529.97 508.59 1529.97 469.534V147.262C1529.97 108.206 1514.56 70.7491 1487.12 43.1321C1459.68 15.515 1422.46 0 1383.65 0V0ZM1468.97 434.631H1183.25V400.756H1149.6V367.261H1116.32V182.432L1402.07 182.432V215.926H1435.35V249.763H1469.39L1468.97 434.631Z" fill="url(#paint1_linear_1_2407)"/>
<path d="M331.63 0L146.32 0C107.513 0 70.2963 15.515 42.856 43.1321C15.4158 70.7491 0 108.206 0 147.262L0 469.534C0 508.59 15.4158 546.047 42.856 573.664C70.2963 601.281 107.513 616.796 146.32 616.796H331.63C370.437 616.796 407.654 601.281 435.094 573.664C462.534 546.047 477.95 508.59 477.95 469.534V147.262C477.95 108.206 462.534 70.7491 435.094 43.1321C407.654 15.515 370.437 0 331.63 0V0ZM443.989 376.815L396.792 383.59C394.3 394.245 388.313 403.744 379.798 410.553C371.282 417.362 360.735 421.085 349.859 421.119C339.187 421.081 328.827 417.491 320.393 410.91C311.958 404.328 305.924 395.124 303.229 384.732H189.508C186.823 395.105 180.805 404.294 172.392 410.868C163.979 417.442 153.643 421.033 142.992 421.081C132.109 421.055 121.553 417.337 113.03 410.527C104.507 403.717 98.5141 394.213 96.0211 383.552L64.178 378.794L63.2704 302.67L80.4778 281.507C99.3427 258.292 123.106 239.593 150.043 226.769C176.98 213.944 206.415 207.315 236.214 207.362L256.447 207.362C262.553 207.373 268.465 209.527 273.163 213.452L328.302 259.583C329.374 260.465 330.701 260.973 332.084 261.03L355.418 261.562C383.48 262.21 420.996 278.348 440.85 298.331L444.632 302.137L443.989 376.815Z" fill="url(#paint2_linear_1_2407)"/>
</g>
<defs>
<linearGradient id="paint0_linear_1_2407" x1="764.988" y1="-0.00012207" x2="764.988" y2="616.796" gradientUnits="userSpaceOnUse">
<stop stop-color="#7ED57E"/>
<stop offset="1" stop-color="#7ED57E" stop-opacity="0"/>
</linearGradient>
<linearGradient id="paint1_linear_1_2407" x1="1291" y1="0" x2="1291" y2="616.796" gradientUnits="userSpaceOnUse">
<stop stop-color="#7ED57E"/>
<stop offset="1" stop-color="#7ED57E" stop-opacity="0"/>
</linearGradient>
<linearGradient id="paint2_linear_1_2407" x1="238.975" y1="0" x2="238.975" y2="616.796" gradientUnits="userSpaceOnUse">
<stop stop-color="#7ED57E"/>
<stop offset="1" stop-color="#7ED57E" stop-opacity="0"/>
</linearGradient>
</defs>
</svg>
