<svg width="1172" height="473" viewBox="0 0 1172 473" fill="none" xmlns="http://www.w3.org/2000/svg">
<g opacity="0.8">
<path d="M656.704 0L514.81 0C485.096 0 456.598 11.88 435.587 33.0266C414.576 54.1731 402.772 82.854 402.772 112.76L402.772 359.526C402.772 389.431 414.576 418.112 435.587 439.259C456.598 460.405 485.096 472.285 514.81 472.285L656.704 472.285C671.417 472.285 685.986 469.369 699.579 463.702C713.172 458.036 725.523 449.73 735.927 439.259C746.33 428.788 754.583 416.358 760.214 402.677C765.844 388.996 768.742 374.333 768.742 359.526V112.76C768.742 82.854 756.938 54.1731 735.927 33.0266C714.915 11.88 686.418 0 656.704 0V0ZM691.453 321.638L662.495 341.106L465.581 341.106V169.475L514.347 169.475L562.996 104.716H612.224V169.475L700.575 169.475L724.321 197.658L691.453 321.638Z" fill="url(#paint0_linear_1_2411)"/>
<path d="M1059.47 0.000244141L917.581 0.000244141C887.867 0.000244141 859.369 11.8802 838.358 33.0268C817.347 54.1734 805.543 82.8543 805.543 112.76V359.526C805.543 389.432 817.347 418.113 838.358 439.259C859.369 460.406 887.867 472.286 917.581 472.286L1059.47 472.286C1089.19 472.286 1117.69 460.406 1138.7 439.259C1159.71 418.113 1171.51 389.432 1171.51 359.526V112.76C1171.51 82.8543 1159.71 54.1734 1138.7 33.0268C1117.69 11.8802 1089.19 0.000244141 1059.47 0.000244141V0.000244141ZM1124.8 332.8L906.027 332.8V306.862H880.254V281.215H854.771V139.689L1073.58 139.689V165.337H1099.06V191.246H1125.12L1124.8 332.8Z" fill="url(#paint1_linear_1_2411)"/>
<path d="M253.932 0L112.038 0C82.3238 0 53.8264 11.88 32.8152 33.0266C11.804 54.1731 0 82.854 0 112.76L0 359.526C0 389.431 11.804 418.112 32.8152 439.259C53.8264 460.405 82.3238 472.285 112.038 472.285L253.932 472.285C283.646 472.285 312.144 460.405 333.155 439.259C354.166 418.112 365.97 389.431 365.97 359.526L365.97 112.76C365.97 82.854 354.166 54.1731 333.155 33.0266C312.144 11.88 283.646 0 253.932 0V0ZM339.966 288.53L303.826 293.717C301.919 301.876 297.334 309.15 290.814 314.364C284.294 319.578 276.218 322.428 267.89 322.454C259.718 322.425 251.785 319.676 245.327 314.637C238.869 309.597 234.248 302.55 232.185 294.592L145.108 294.592C143.052 302.535 138.444 309.571 132.002 314.605C125.56 319.639 117.645 322.388 109.49 322.425C101.157 322.405 93.0742 319.558 86.5478 314.344C80.0215 309.129 75.433 301.852 73.5241 293.688L49.1416 290.045L48.4466 231.757L61.6224 215.552C76.0675 197.776 94.2629 183.458 114.889 173.638C135.515 163.819 158.054 158.743 180.871 158.779H196.364C201.039 158.787 205.565 160.436 209.163 163.442L251.384 198.765C252.204 199.44 253.22 199.829 254.279 199.873L272.147 200.28C293.633 200.776 322.36 213.133 337.562 228.434L340.458 231.349L339.966 288.53Z" fill="url(#paint2_linear_1_2411)"/>
</g>
<defs>
<linearGradient id="paint0_linear_1_2411" x1="585.757" y1="4.47211e-06" x2="408.693" y2="546.761" gradientUnits="userSpaceOnUse">
<stop stop-color="#7ED57E"/>
<stop offset="1" stop-color="#7ED57E" stop-opacity="0"/>
</linearGradient>
<linearGradient id="paint1_linear_1_2411" x1="988.528" y1="0.000248613" x2="811.464" y2="546.762" gradientUnits="userSpaceOnUse">
<stop stop-color="#7ED57E"/>
<stop offset="1" stop-color="#7ED57E" stop-opacity="0"/>
</linearGradient>
<linearGradient id="paint2_linear_1_2411" x1="182.985" y1="4.47211e-06" x2="5.92099" y2="546.761" gradientUnits="userSpaceOnUse">
<stop stop-color="#7ED57E"/>
<stop offset="1" stop-color="#7ED57E" stop-opacity="0"/>
</linearGradient>
</defs>
</svg>
