<svg width="139" height="34" viewBox="0 0 139 34" fill="none" xmlns="http://www.w3.org/2000/svg">
<path d="M23.7673 22.0644C24.4314 24.1039 25.0957 26.1432 25.7603 28.1823C26.0654 29.1191 26.369 30.0571 26.6708 30.9964C26.7108 31.1215 26.7884 31.2415 26.7583 31.3897C26.6201 31.3829 26.5382 31.2809 26.4457 31.2115C23.2443 28.8902 20.0458 26.5662 16.8502 24.2394C16.642 24.0875 16.5081 24.0787 16.2924 24.2363C13.1006 26.5668 9.90375 28.8912 6.70193 31.2096C6.59375 31.2878 6.48306 31.3635 6.36362 31.4473C6.32735 31.3222 6.38988 31.2334 6.4199 31.1421C7.6556 27.3549 8.89422 23.5688 10.1358 19.7838C10.2183 19.5336 10.1777 19.4085 9.96316 19.251C6.74299 16.9234 3.5272 14.5898 0.315792 12.2501C0.235747 12.1913 0.15884 12.125 0 12H0.445871C4.40354 12.0054 8.36121 12.0129 12.3189 12.0225C12.5847 12.0225 12.6903 11.9431 12.771 11.6929C14.0063 7.88408 15.248 4.07732 16.4962 0.272654C16.5188 0.205116 16.545 0.139454 16.5969 0C16.7483 0.45651 16.8802 0.847362 17.0072 1.24009C18.1366 4.72332 19.2635 8.20738 20.3878 11.6923C20.4685 11.9424 20.5755 12.0243 20.8406 12.0237C24.8083 12.0137 28.7764 12.0114 32.7449 12.0168H33.177C33.0106 12.1419 32.9093 12.2176 32.8061 12.292C29.6064 14.6121 26.4067 16.9323 23.2069 19.2528C23.1094 19.3241 22.9799 19.3673 22.9449 19.503C22.848 19.5611 22.7467 19.6124 22.6554 19.6787C21.3601 20.6142 20.0658 21.551 18.7725 22.489C18.1022 22.9743 17.4312 23.459 16.7032 23.9849C19.0277 23.3827 21.279 22.8005 23.5296 22.2133C23.6178 22.1945 23.7522 22.2139 23.7673 22.0644Z" fill="white"/>
<path d="M95.9127 27.7233C95.9127 29.7563 95.9058 31.7099 95.9202 33.6642C95.9202 33.9475 95.8439 34.0069 95.5756 33.9994C94.8669 33.9794 94.1581 33.9794 93.4494 33.9994C93.1943 34.0062 93.123 33.9468 93.1236 33.6817C93.1336 30.2506 93.1359 26.8192 93.1305 23.3877C93.1305 21.2871 93.1355 19.1866 93.1249 17.0866C93.1249 16.8365 93.1968 16.7771 93.4375 16.7827C94.1142 16.799 94.7914 16.7958 95.4681 16.7827C95.67 16.7789 95.7407 16.8308 95.7338 17.0397C95.7195 17.4931 95.7295 17.9471 95.7295 18.4036C95.7782 18.3999 95.807 18.4036 95.8126 18.3967C96.5981 17.0747 97.8313 16.5438 99.2984 16.4525C100.779 16.36 102.152 16.6883 103.321 17.6407C104.411 18.5299 105.014 19.7212 105.299 21.0758C105.696 22.9575 105.619 24.8085 104.83 26.5889C104.126 28.1767 102.96 29.2779 101.224 29.5781C99.4466 29.8908 97.7631 29.6212 96.3967 28.2917C96.2379 28.1342 96.1053 27.9497 95.9127 27.7233ZM95.8145 23.1213C95.7911 23.8209 95.9013 24.5185 96.1391 25.1768C96.6281 26.5526 97.8063 27.4463 99.2177 27.5007C100.583 27.5538 101.797 26.7784 102.354 25.4683C102.776 24.4808 102.851 23.4346 102.746 22.3828C102.66 21.4592 102.313 20.5791 101.745 19.8457C100.345 18.0215 97.114 18.3448 96.2554 20.6105C95.9449 21.4103 95.7951 22.2635 95.8145 23.1213Z" fill="white"/>
<path d="M117.83 23.0862C117.8 21.7767 118.076 20.5916 118.661 19.4966C119.59 17.76 121.1 16.8239 123.017 16.5306C124.213 16.348 125.398 16.4055 126.548 16.832C128.396 17.5224 129.598 18.8119 130.153 20.7005C130.674 22.479 130.653 24.2362 129.965 25.9697C129.202 27.8895 127.805 29.0727 125.785 29.503C123.824 29.9207 121.971 29.6956 120.293 28.5105C119.027 27.6163 118.366 26.3449 118.025 24.8778C117.882 24.27 117.801 23.6528 117.83 23.0862ZM120.62 23.0643C120.611 23.8516 120.73 24.6189 121.058 25.335C121.644 26.6176 122.584 27.4474 124.059 27.4799C125.55 27.5131 126.573 26.7783 127.211 25.4632C127.473 24.9106 127.632 24.3146 127.68 23.7047C127.781 22.549 127.655 21.424 127.074 20.3959C125.89 18.3003 123.072 18.0821 121.616 19.8706C120.856 20.8055 120.649 21.9061 120.62 23.0643Z" fill="white"/>
<path d="M81.1862 20.2879C80.7697 20.2879 80.3532 20.2879 79.9355 20.2879C79.8379 20.2879 79.7335 20.3166 79.7003 20.1584C79.5071 19.2348 78.8586 18.8452 77.99 18.6901C77.2396 18.5575 76.4979 18.5832 75.7793 18.8371C75.3203 18.999 74.9395 19.2748 74.8963 19.8157C74.8557 20.3304 75.1296 20.6762 75.5561 20.9251C75.7959 21.0691 76.0507 21.1865 76.3159 21.2753C77.2539 21.5799 78.2358 21.7024 79.1863 21.9557C79.8654 22.1364 80.5521 22.2921 81.1874 22.618C83.6038 23.8612 83.4343 26.8591 81.8559 28.2274C81.0267 28.9466 80.0655 29.333 79.0131 29.5325C77.439 29.8302 75.89 29.7526 74.3986 29.1273C72.8208 28.4663 71.9978 27.2512 71.8346 25.5684C71.8127 25.3426 71.8621 25.2626 72.111 25.2682C72.8808 25.2857 73.6519 25.2776 74.4248 25.272C74.5805 25.272 74.675 25.297 74.7019 25.4783C74.872 26.7478 75.5905 27.2006 76.7105 27.4326C77.5291 27.6027 78.3483 27.5051 79.1419 27.2568C79.8923 27.0217 80.2963 26.5108 80.2675 25.8761C80.2463 25.3645 79.9774 25.0087 79.5578 24.7385C78.9687 24.3589 78.2995 24.2164 77.631 24.0769C76.5679 23.8555 75.5048 23.616 74.4755 23.2639C73.1185 22.7993 72.1742 21.638 72.1241 20.154C72.0722 18.5982 73.0578 17.5226 74.3948 16.9547C75.4986 16.4857 76.6642 16.3969 77.8461 16.4413C78.843 16.4782 79.7998 16.6758 80.6709 17.188C81.7934 17.8477 82.4106 18.8421 82.6226 20.1103C82.6539 20.2979 82.5601 20.291 82.435 20.2904C82.0198 20.2879 81.6027 20.2879 81.1862 20.2879Z" fill="white"/>
<path d="M44.9506 21.9946C44.9506 24.3447 44.9456 26.6948 44.9581 29.0449C44.9581 29.3088 44.8668 29.3432 44.641 29.3401C43.8393 29.3282 43.037 29.3232 42.2353 29.3401C41.9657 29.3463 41.8895 29.285 41.8901 29.0024C41.9009 24.3547 41.9034 19.7063 41.8976 15.057C41.8976 14.6442 41.8976 14.6442 41.4955 14.6442C39.8914 14.6442 38.288 14.6392 36.684 14.6498C36.452 14.6498 36.3826 14.5986 36.3907 14.3603C36.4151 13.6643 36.417 12.967 36.4157 12.2704C36.4157 12.0828 36.452 12.0015 36.6721 12.0015C41.1926 12.0086 45.7129 12.0086 50.233 12.0015C50.4206 12.0015 50.4831 12.0409 50.4831 12.2397C50.4698 12.9572 50.4698 13.6747 50.4831 14.3922C50.4869 14.6036 50.4206 14.6486 50.2192 14.6473C48.5632 14.6398 46.9048 14.6473 45.2507 14.6373C45.0069 14.6373 44.9462 14.6967 44.9475 14.9406C44.955 17.2945 44.9506 19.6446 44.9506 21.9946Z" fill="white"/>
<path d="M67.2045 27.5945C66.0876 29.2116 64.6149 29.8551 62.7344 29.6456C61.9584 29.5593 61.2173 29.3899 60.5676 28.9577C59.6364 28.3324 59.2199 27.3912 59.0155 26.3313C58.9054 25.7572 58.8848 25.1775 58.8854 24.5953C58.8879 22.1001 58.8862 19.6049 58.8804 17.1098C58.8804 16.8534 58.9385 16.7777 59.2024 16.7852C59.9203 16.8052 60.6387 16.8052 61.3574 16.7852C61.6263 16.7783 61.6788 16.8684 61.6782 17.1179C61.669 19.4888 61.6678 21.8593 61.6745 24.2294C61.6745 24.7579 61.6745 25.2869 61.8102 25.8072C62.0672 26.8078 62.7482 27.4156 63.7813 27.5025C64.4066 27.5551 65.0226 27.4832 65.6017 27.2049C66.6479 26.7046 67.0719 25.7922 67.1338 24.7153C67.2589 22.5766 67.162 20.4335 67.1832 18.2923C67.1876 17.8764 67.197 17.46 67.1789 17.0416C67.1695 16.8265 67.247 16.7821 67.4459 16.7846C68.1963 16.7952 68.9467 16.7977 69.6972 16.7846C69.9198 16.7808 69.9729 16.8471 69.9717 17.0629C69.9617 18.3523 69.9667 19.6412 69.9667 20.9307C69.9667 23.6341 69.9667 26.3369 69.9723 29.0403C69.9723 29.2848 69.9098 29.353 69.6671 29.3448C68.9386 29.328 68.2088 29.3305 67.4784 29.3448C67.2664 29.3486 67.1907 29.3017 67.1995 29.0759C67.217 28.5982 67.2045 28.1242 67.2045 27.5945Z" fill="white"/>
<path d="M85.8914 23.0964C85.8914 21.5899 85.8845 20.3629 85.8976 19.136C85.8976 18.9002 85.8395 18.8377 85.6049 18.8458C85.0746 18.8646 84.5418 18.8458 84.0122 18.8565C83.8164 18.8608 83.7664 18.7939 83.7708 18.6063C83.7827 18.0873 83.7839 17.567 83.7708 17.0473C83.7651 16.8453 83.8189 16.7746 84.0297 16.7803C84.56 16.7947 85.0928 16.774 85.6225 16.7903C85.8388 16.7972 85.9001 16.7428 85.8976 16.5214C85.8851 15.4401 85.8976 14.3589 85.887 13.2777C85.887 13.0644 85.9314 12.9969 86.1559 13.0012C86.9063 13.0163 87.6567 13.0181 88.4072 13.0012C88.6523 12.9956 88.6973 13.0775 88.6948 13.3027C88.6829 14.3658 88.6948 15.4239 88.6842 16.4839C88.6842 16.7059 88.7192 16.7865 88.9662 16.779C89.6216 16.7578 90.2795 16.779 90.9342 16.7665C91.1468 16.7615 91.195 16.8291 91.19 17.0285C91.1769 17.5376 91.175 18.0472 91.19 18.5563C91.1963 18.7677 91.1481 18.8427 90.9205 18.8371C90.2545 18.8208 89.5878 18.8371 88.9193 18.8283C88.7605 18.8283 88.6817 18.8446 88.6829 19.0391C88.6948 21.3785 88.6955 23.7173 88.7055 26.0568C88.7055 26.3588 88.7567 26.6596 88.9606 26.9029C89.2026 27.1937 89.5509 27.2268 89.893 27.2525C90.2572 27.2789 90.6232 27.2526 90.9799 27.1743C91.1806 27.1305 91.1856 27.2018 91.1844 27.3513C91.1812 27.9335 91.1844 28.5157 91.1844 29.0979C91.1844 29.2055 91.1844 29.2961 91.033 29.3149C89.9355 29.4475 88.8362 29.5438 87.7505 29.258C86.6018 28.9559 86.0621 28.2637 85.9533 27.0861C85.8238 25.666 85.9389 24.2395 85.8914 23.0964Z" fill="white"/>
<path d="M138.709 27.141C138.709 27.8251 138.709 28.4792 138.709 29.1334C138.709 29.214 138.725 29.2972 138.598 29.3128C137.448 29.4529 136.294 29.5561 135.163 29.229C134.163 28.9401 133.628 28.2466 133.512 27.2029C133.434 26.5075 133.433 25.814 133.432 25.1186C133.432 23.1331 133.428 21.1469 133.437 19.1614C133.437 18.9257 133.391 18.8344 133.132 18.845C132.602 18.8675 132.069 18.845 131.539 18.855C131.38 18.855 131.323 18.8188 131.327 18.6505C131.337 18.0996 131.339 17.548 131.327 16.9977C131.322 16.8032 131.405 16.7807 131.566 16.7832C132.097 16.7913 132.629 16.7757 133.159 16.7913C133.376 16.7976 133.44 16.7357 133.437 16.5162C133.426 15.4456 133.442 14.3743 133.425 13.3037C133.421 13.0492 133.502 12.9979 133.738 13.0029C134.456 13.0173 135.176 13.0192 135.893 13.0029C136.143 12.9967 136.226 13.0461 136.221 13.3156C136.202 14.355 136.221 15.3949 136.207 16.4343C136.204 16.6919 136.244 16.7926 136.537 16.7801C137.182 16.7526 137.828 16.7801 138.476 16.767C138.663 16.7632 138.726 16.8076 138.718 17.0046C138.702 17.5343 138.703 18.0677 138.718 18.5949C138.722 18.7825 138.675 18.84 138.479 18.8363C137.813 18.8225 137.146 18.8363 136.478 18.8275C136.29 18.8275 136.206 18.8456 136.207 19.072C136.217 21.2339 136.212 23.3964 136.217 25.5588C136.219 25.8186 136.238 26.078 136.272 26.3355C136.345 26.9277 136.715 27.2248 137.405 27.2535C137.843 27.2705 138.281 27.2327 138.709 27.141Z" fill="white"/>
<path d="M112.91 20.6755C112.91 17.8893 112.908 15.1033 112.905 12.3176C112.905 12.0831 112.95 11.9968 113.207 12.0049C113.957 12.0237 114.708 12.0193 115.458 12.0049C115.668 12.0012 115.711 12.0674 115.711 12.2651C115.706 17.8674 115.706 23.4704 115.711 29.074C115.711 29.301 115.643 29.3442 115.433 29.3404C114.694 29.3279 113.954 29.3254 113.216 29.3404C112.97 29.346 112.903 29.2779 112.903 29.0327C112.914 26.2474 112.91 23.4614 112.91 20.6755Z" fill="white"/>
<path d="M52.4579 19.1466C52.9726 17.8847 53.9169 17.0886 55.1632 16.6164C55.7848 16.3807 56.4264 16.4195 57.0705 16.5026C57.2119 16.5214 57.2319 16.5852 57.2313 16.7052C57.2275 17.4432 57.22 18.1817 57.235 18.919C57.2394 19.1454 57.1625 19.1691 56.9674 19.1398C56.3495 19.0397 55.7267 18.9778 55.1157 19.1723C53.7712 19.6 53.0945 20.6062 52.7606 21.9057C52.6249 22.4341 52.6086 22.9738 52.6068 23.5135C52.6024 25.332 52.6005 27.1506 52.6105 28.9691C52.6105 29.2124 52.548 29.2818 52.3022 29.2786C51.5637 29.2618 50.8239 29.268 50.0853 29.2786C49.9021 29.2786 49.8152 29.2618 49.8164 29.0354C49.8352 25.0448 49.8464 21.0542 49.8502 17.0636C49.8502 16.8491 49.9065 16.779 50.1285 16.7834C50.8251 16.7978 51.523 16.7965 52.2203 16.7834C52.4166 16.7797 52.4648 16.8397 52.4623 17.0286C52.4517 17.7333 52.4579 18.44 52.4579 19.1466Z" fill="white"/>
<path d="M110.455 23.0436C110.455 25.0397 110.451 27.0359 110.46 29.0326C110.46 29.2684 110.412 29.3453 110.16 29.3415C109.421 29.3228 108.681 29.3278 107.942 29.3415C107.734 29.3415 107.656 29.3046 107.656 29.0739C107.664 25.0716 107.664 21.0683 107.656 17.0639C107.656 16.8488 107.712 16.7788 107.934 16.7832C108.684 16.7965 109.435 16.7965 110.185 16.7832C110.403 16.7794 110.462 16.8369 110.461 17.0571C110.451 19.0507 110.455 21.0468 110.455 23.0436Z" fill="white"/>
<path d="M109.067 14.647C108.682 14.647 108.296 14.6389 107.911 14.6508C107.73 14.6564 107.653 14.6195 107.656 14.415C107.669 13.6877 107.667 12.9604 107.656 12.2332C107.656 12.0524 107.713 12.0043 107.886 12.0062C108.678 12.0137 109.471 12.0137 110.263 12.0062C110.407 12.0062 110.462 12.0355 110.46 12.1938C110.452 12.9525 110.452 13.7111 110.46 14.4694C110.46 14.6358 110.39 14.6508 110.255 14.6489C109.858 14.6433 109.462 14.647 109.067 14.647Z" fill="white"/>
</svg>
