<svg width="141" height="26" viewBox="0 0 141 26" fill="none" xmlns="http://www.w3.org/2000/svg">
<g clip-path="url(#clip0_1_2658)">
<path d="M112.345 25.9949H85.8943C85.9016 25.8665 85.9152 25.7381 85.9152 25.6097C85.9152 17.1954 85.9152 8.78089 85.9152 0.366202C85.9152 0.00935182 85.9152 0.00935193 86.2763 0.00935193C94.8473 0.00935193 103.418 0.00935193 111.989 0.00935193C112.396 0.00935193 112.348 -0.0412295 112.348 0.362867C112.348 8.81461 112.348 17.2662 112.348 25.7175C112.352 25.8104 112.348 25.9004 112.345 25.9949ZM99.2051 17.5345C99.2169 17.3888 99.3518 17.3538 99.4449 17.2871C102.304 15.2561 105.165 13.2261 108.03 11.1973C108.116 11.1367 108.199 11.07 108.343 10.9577H107.957C105.834 10.9577 103.711 10.9544 101.587 10.9627C101.372 10.9627 101.285 10.9005 101.218 10.6954C100.574 8.71474 99.9198 6.73725 99.2558 4.7629C99.2259 4.6723 99.2293 4.5578 99.1165 4.49332C99.0877 4.57392 99.0601 4.64951 99.0341 4.72566C98.375 6.71168 97.7126 8.69659 97.0626 10.6848C96.9926 10.8977 96.8995 10.9627 96.6676 10.9627C94.5443 10.9527 92.421 10.9566 90.2977 10.9566H89.9281C90.0692 11.0639 90.1392 11.1206 90.2103 11.1729C91.9309 12.3931 93.6524 13.6113 95.3749 14.8275C95.5566 14.9554 95.6057 15.0593 95.5323 15.2722C94.9861 16.878 94.4535 18.4883 93.9174 20.0974C93.7702 20.5421 93.6274 20.9834 93.4739 21.452C93.6156 21.4353 93.6776 21.3614 93.7498 21.3103C95.4712 20.0926 97.1927 18.8744 98.9145 17.6556C98.9969 17.6 99.0629 17.4755 99.2005 17.5445C99.2288 17.5689 99.257 17.5956 99.2852 17.6173C101.053 18.8846 102.821 20.151 104.589 21.4164C104.643 21.4548 104.685 21.5276 104.785 21.5076C104.78 21.4713 104.772 21.4352 104.763 21.3998C104.248 19.8434 103.727 18.2871 103.223 16.7246C103.16 16.5323 103.072 16.5373 102.921 16.5756C102.141 16.7735 101.359 16.9647 100.58 17.1654C100.123 17.2849 99.6491 17.3555 99.2051 17.5345Z" fill="white"/>
<path d="M55.1046 25.9949H28.6551C28.6551 25.9026 28.6489 25.8103 28.6489 25.7169C28.6489 17.2652 28.6489 8.81365 28.6489 0.36228C28.6489 -0.0418157 28.6009 0.00876575 29.0072 0.00876575C37.5692 0.00876575 46.131 0.00876575 54.6927 0.00876575C55.1215 0.00876575 55.0814 -0.0551557 55.0814 0.392852C55.0814 8.79827 55.0814 17.2035 55.0814 25.6086C55.0859 25.7381 55.0972 25.8665 55.1046 25.9949ZM41.9112 17.4688C44.945 15.3196 47.9855 13.1664 51.0329 11.0094C50.8941 10.931 50.7903 10.9594 50.6915 10.9594C48.5682 10.9594 46.4449 10.9544 44.3217 10.9627C44.1101 10.9627 44.0085 10.9071 43.9425 10.7043C43.5735 9.55477 43.1898 8.40974 42.81 7.2636C42.5042 6.3409 42.1967 5.41932 41.8863 4.48439C41.7735 4.56666 41.7735 4.67671 41.7424 4.76843C41.0862 6.73555 40.4289 8.70267 39.7867 10.6748C39.7117 10.9038 39.6045 10.9616 39.3737 10.9605C37.26 10.9522 35.1463 10.9549 33.032 10.9572C32.9344 10.9572 32.8306 10.9294 32.7104 10.9977C32.7928 11.06 32.8616 11.1156 32.9361 11.1645C34.6718 12.3951 36.4084 13.6243 38.1459 14.8519C38.3039 14.9631 38.331 15.057 38.2706 15.236C37.791 16.6506 37.3226 18.0708 36.8515 19.4854C36.6348 20.1385 36.4204 20.7922 36.1783 21.5242L41.9236 17.4566C41.9112 17.5861 42.0263 17.6189 42.103 17.6739C43.8161 18.9046 45.5299 20.1332 47.2445 21.3597C47.3178 21.412 47.3777 21.4926 47.4804 21.4959C47.5142 21.4403 47.4911 21.3847 47.4736 21.3347C46.9658 19.7945 46.45 18.2565 45.9501 16.7123C45.8841 16.5072 45.7808 16.54 45.642 16.5739C44.9514 16.7457 44.2635 16.9269 43.5712 17.0881C43.0188 17.2209 42.4816 17.4155 41.9112 17.4688Z" fill="white"/>
<path d="M140.994 -0.00170898C140.994 8.57973 140.996 17.1615 141 25.7437C141 25.9516 140.952 25.9983 140.74 25.9983C132.009 25.992 123.277 25.9903 114.545 25.9933C114.548 25.8732 114.554 25.7532 114.554 25.6331C114.554 17.2099 114.554 8.7865 114.554 0.362922C114.554 -0.0367271 114.508 0.00829574 114.915 0.00829574C123.486 0.00829574 132.057 0.00829574 140.628 0.00829574C140.751 0.00885158 140.872 0.00329358 140.994 -0.00170898ZM127.885 17.4022C127.933 17.3744 127.984 17.3511 128.029 17.3188C130.587 15.5068 133.146 13.6938 135.706 11.8799C136.112 11.592 136.517 11.3019 136.939 11.0012C136.809 10.9311 136.705 10.9578 136.607 10.9578C134.502 10.9578 132.397 10.9511 130.292 10.9622C130.035 10.9622 129.918 10.8994 129.84 10.651C129.32 9.03904 128.782 7.4271 128.248 5.81516C128.099 5.36493 127.947 4.91692 127.781 4.42556C127.739 4.53673 127.714 4.59231 127.693 4.65512C127.032 6.65059 126.366 8.64439 125.718 10.6432C125.638 10.8917 125.526 10.96 125.267 10.9589C123.152 10.9472 121.035 10.9517 118.924 10.9539C118.83 10.9539 118.725 10.9217 118.63 11.0045C118.728 11.0745 118.811 11.1346 118.895 11.194C120.615 12.4139 122.337 13.6327 124.06 14.8504C124.217 14.9615 124.253 15.0499 124.191 15.2311C123.76 16.4967 123.341 17.7663 122.919 19.0347C122.649 19.8462 122.38 20.6578 122.091 21.5304L127.824 17.4567C127.834 17.5751 127.936 17.6151 128.017 17.6724C129.744 18.9126 131.471 20.152 133.2 21.3904C133.27 21.4404 133.344 21.4838 133.451 21.5521C133.429 21.4726 133.42 21.4382 133.41 21.4048C132.898 19.8563 132.379 18.3105 131.881 16.7574C131.809 16.5351 131.712 16.5351 131.529 16.579C130.404 16.8625 129.279 17.1425 128.152 17.4189C128.065 17.445 127.962 17.5317 127.885 17.4039V17.4022Z" fill="white"/>
<path d="M26.4557 25.9947H0.00621287C0.00621287 17.441 0.00413787 8.88718 0 0.333166C0 0.0635837 0.0677106 0.00244141 0.338553 0.00244141C8.91974 0.0102232 17.5011 0.0126321 26.0827 0.00966761C26.4884 0.00966761 26.4466 -0.038691 26.4466 0.360958C26.4466 8.78602 26.4466 17.2105 26.4466 25.6345C26.4466 25.7545 26.4528 25.8746 26.4557 25.9947ZM13.2295 17.5459C13.33 17.5564 13.3926 17.6315 13.4671 17.6848C15.188 18.9177 16.9086 20.1509 18.6289 21.3845C18.705 21.4401 18.7857 21.4879 18.9054 21.5657C18.358 19.906 17.8243 18.2985 17.3006 16.6877C17.2442 16.5165 17.1528 16.542 17.0309 16.5726C16.4052 16.7299 15.7771 16.8789 15.1536 17.0428C14.5121 17.2096 13.8558 17.3269 13.2295 17.5476C13.2758 17.4508 13.3672 17.4008 13.4507 17.3419C15.8044 15.6744 18.1575 14.0068 20.5101 12.3393C21.1308 11.8997 21.7481 11.4555 22.3671 11.0131L22.3535 10.9575H22.059C19.9351 10.9575 17.8118 10.9531 15.6885 10.9642C15.4549 10.9642 15.3647 10.8897 15.2981 10.6829C14.9454 9.58624 14.5798 8.49346 14.2175 7.39957C13.8942 6.42518 13.5692 5.45079 13.2295 4.43027C13.1866 4.54644 13.1601 4.6137 13.137 4.68262C12.474 6.67698 11.8076 8.66911 11.1531 10.6701C11.0825 10.8852 10.9917 10.9681 10.7474 10.967C8.62407 10.9553 6.50079 10.9597 4.37693 10.9614C4.28101 10.9614 4.17887 10.9403 4.05925 11.0014C4.1879 11.0942 4.29116 11.1682 4.3978 11.2443C6.09583 12.4479 7.79481 13.65 9.49472 14.8506C9.65384 14.9618 9.70011 15.0574 9.63409 15.2514C8.97654 17.1883 8.32803 19.1284 7.68854 21.0716C7.64622 21.2 7.5723 21.3267 7.58358 21.494C7.66653 21.4384 7.7286 21.3962 7.78954 21.3534C9.50262 20.1391 11.2163 18.9255 12.9305 17.7126C13.0207 17.647 13.0952 17.542 13.2295 17.5453V17.5459Z" fill="white"/>
<path d="M83.6971 25.9951H57.3041C57.2984 25.8939 57.2877 25.7927 57.2877 25.6916C57.2877 17.2506 57.2877 8.8094 57.2877 0.368038C57.2877 0.00952133 57.2877 0.00952148 57.646 0.00952148H83.3552C83.7129 0.00952148 83.7129 0.00952133 83.7129 0.368038C83.7129 8.80977 83.7129 17.251 83.7129 25.6916C83.7129 25.7927 83.7028 25.8939 83.6971 25.9951ZM76.1716 21.4761L76.1643 21.4844H76.1767C76.1457 21.4088 76.109 21.3343 76.0836 21.2571C75.5848 19.753 75.0873 18.2485 74.5912 16.7437C74.5466 16.6075 74.5172 16.5185 74.3299 16.5669C73.0886 16.8865 71.8472 17.195 70.6058 17.5068C70.5968 17.3729 70.7187 17.3506 70.7977 17.2962C73.6821 15.2473 76.5674 13.1998 79.4534 11.1536C79.5171 11.1085 79.5955 11.0752 79.6305 10.9902C79.5216 10.9346 79.4184 10.9601 79.3191 10.9601C77.2042 10.9601 75.09 10.9557 72.9751 10.964C72.7545 10.964 72.6524 10.9146 72.5802 10.6917C72.0441 9.03359 71.49 7.38108 70.9404 5.72745C70.8056 5.32113 70.6673 4.91593 70.5246 4.49349C70.4191 4.57631 70.4157 4.67302 70.3886 4.75473C69.7295 6.7313 69.0682 8.70787 68.4222 10.6889C68.3505 10.9079 68.2529 10.9668 68.03 10.964C65.9061 10.9557 63.7817 10.9585 61.6579 10.9607C61.5636 10.9607 61.457 10.9257 61.3594 11.0102C61.4384 11.0696 61.5033 11.1213 61.571 11.1691C63.2995 12.3953 65.0299 13.6196 66.7621 14.8421C66.9421 14.9683 66.9709 15.0706 66.9009 15.2718C66.5844 16.1867 66.2904 17.1088 65.9829 18.0271C65.602 19.1627 65.2149 20.2966 64.8312 21.4311H64.8476L64.8358 21.4211C64.9751 21.5039 65.04 21.3688 65.1179 21.3132C66.8411 20.097 68.5625 18.8786 70.282 17.658C70.3824 17.5869 70.4682 17.469 70.6205 17.4963C70.5172 17.6074 70.6549 17.6124 70.6967 17.6425C72.4492 18.9024 74.2035 20.161 75.9595 21.4183C76.0199 21.4627 76.0763 21.5556 76.1716 21.4761Z" fill="white"/>
<path d="M64.8324 21.4216L64.8442 21.4316H64.8279L64.8324 21.4216Z" fill="white"/>
<path d="M76.1771 21.4834H76.1643L76.1719 21.4753C76.1738 21.4779 76.1756 21.4806 76.1771 21.4834Z" fill="#FEFEFE"/>
</g>
<defs>
<clipPath id="clip0_1_2658">
<rect width="141" height="26" fill="white"/>
</clipPath>
</defs>
</svg>
