<svg width="785" height="814" viewBox="0 0 785 814" fill="none" xmlns="http://www.w3.org/2000/svg">
<g opacity="0.8">
<path d="M478.852 552.407L544.937 480.575C558.776 465.533 566.034 445.573 565.115 425.088C564.195 404.603 555.174 385.269 540.034 371.341L415.113 256.414C399.973 242.486 379.956 235.104 359.466 235.892C338.975 236.68 319.689 245.573 305.85 260.615L239.765 332.447C232.912 339.895 227.603 348.629 224.141 358.149C220.679 367.67 219.132 377.791 219.587 387.934C220.042 398.077 222.491 408.045 226.795 417.266C231.098 426.488 237.171 434.784 244.668 441.681L369.589 556.608C384.729 570.536 404.745 577.919 425.236 577.131C445.727 576.343 465.013 567.449 478.852 552.407V552.407ZM299.844 420.2L303.475 396.474L395.184 296.789L482.07 376.724L459.359 401.41L469.484 456.199L446.557 481.12L413.774 450.959L372.626 495.686L347.3 494.581L299.844 420.2Z" fill="url(#paint0_linear_63_4703)"/>
<path d="M291.268 756.304L357.352 684.472C371.191 669.43 378.45 649.47 377.53 628.985C376.611 608.5 367.589 589.166 352.449 575.238L227.528 460.311C212.389 446.383 192.372 439.001 171.881 439.789C151.39 440.576 132.104 449.47 118.265 464.512L52.18 536.344C38.341 551.386 31.0828 571.346 32.0023 591.831C32.9218 612.316 41.9436 631.65 57.0829 645.578L182.004 760.505C197.144 774.433 217.161 781.816 237.651 781.028C258.142 780.24 277.429 771.346 291.268 756.304V756.304ZM92.3663 634.379L194.258 523.626L207.389 535.707L219.393 522.66L232.376 534.605L244.244 521.704L315.889 587.617L213.984 698.385L201 686.44L189.132 699.34L176.016 687.273L163.878 700.467L92.3663 634.379Z" fill="url(#paint1_linear_63_4703)"/>
<path d="M666.437 348.509L732.522 276.678C746.361 261.635 753.619 241.676 752.7 221.191C751.78 200.705 742.758 181.372 727.619 167.444L602.697 52.5164C587.558 38.5882 567.541 31.2061 547.05 31.9941C526.56 32.782 507.273 41.6755 493.434 56.7179L427.349 128.55C413.51 143.592 406.252 163.551 407.172 184.037C408.091 204.522 417.113 223.855 432.252 237.783L557.174 352.711C572.313 366.639 592.33 374.021 612.821 373.233C633.312 372.445 652.598 363.552 666.437 348.509V348.509ZM480.304 257.684L494.509 236.973C491.268 232.208 489.72 226.499 490.118 220.77C490.515 215.041 492.833 209.625 496.699 205.397C500.519 201.274 505.605 198.538 511.164 197.616C516.723 196.694 522.443 197.637 527.433 200.298L567.987 156.217C564.924 151.477 563.508 145.867 563.96 140.262C564.412 134.656 566.706 129.369 570.486 125.223C574.377 121.014 579.582 118.248 585.262 117.373C590.941 116.498 596.762 117.564 601.784 120.4L614.984 109.753L644.815 136.548L646.882 150.765C649.154 166.357 647.927 182.236 643.292 197.251C638.657 212.266 630.73 226.04 620.085 237.575L612.869 245.417C610.687 247.78 607.744 249.304 604.547 249.725L567.002 254.647C566.278 254.749 565.608 255.082 565.093 255.598L556.565 264.453C546.307 275.099 526.672 283.886 511.846 284.456L509.022 284.565L480.304 257.684Z" fill="url(#paint2_linear_63_4703)"/>
</g>
<defs>
<linearGradient id="paint0_linear_63_4703" x1="511.895" y1="516.491" x2="317.57" y2="172.209" gradientUnits="userSpaceOnUse">
<stop stop-color="#7ED57E"/>
<stop offset="1" stop-color="#7ED57E" stop-opacity="0"/>
</linearGradient>
<linearGradient id="paint1_linear_63_4703" x1="324.31" y1="720.388" x2="129.985" y2="376.106" gradientUnits="userSpaceOnUse">
<stop stop-color="#7ED57E"/>
<stop offset="1" stop-color="#7ED57E" stop-opacity="0"/>
</linearGradient>
<linearGradient id="paint2_linear_63_4703" x1="699.479" y1="312.593" x2="505.154" y2="-31.6883" gradientUnits="userSpaceOnUse">
<stop stop-color="#7ED57E"/>
<stop offset="1" stop-color="#7ED57E" stop-opacity="0"/>
</linearGradient>
</defs>
</svg>
