<svg width="847" height="847" viewBox="0 0 847 847" fill="none" xmlns="http://www.w3.org/2000/svg">
<g opacity="0.8">
<path d="M338.334 265.23L265.23 338.333C249.921 353.642 241.36 374.445 241.43 396.164C241.5 417.884 250.194 438.742 265.602 454.149L392.736 581.283C408.143 596.69 429.001 605.385 450.721 605.455C472.44 605.525 493.243 596.964 508.551 581.655L581.655 508.551C589.235 500.971 595.239 491.962 599.322 482.04C603.406 472.117 605.49 461.475 605.455 450.72C605.421 439.966 603.268 429.31 599.121 419.361C594.974 409.411 588.912 400.364 581.283 392.735L454.15 265.602C438.742 250.194 417.884 241.499 396.165 241.429C374.445 241.36 353.643 249.921 338.334 265.23V265.23ZM521.944 413.035L517.055 437.984L415.605 539.434L327.181 451.009L352.305 425.885L344.005 367.458L369.368 342.095L402.731 375.459L448.25 329.941L475.003 332.227L521.944 413.035Z" fill="url(#paint0_linear_63_4699)"/>
<path d="M545.842 57.7222L472.738 130.826C457.429 146.135 448.868 166.937 448.938 188.657C449.007 210.376 457.702 231.234 473.11 246.642L600.243 373.775C615.651 389.183 636.509 397.878 658.228 397.947C679.948 398.017 700.75 389.456 716.059 374.147L789.163 301.043C804.472 285.735 813.033 264.932 812.963 243.213C812.893 221.493 804.198 200.635 788.791 185.228L661.657 58.094C646.25 42.6865 625.392 33.9915 603.672 33.9218C581.953 33.8521 561.15 42.4134 545.842 57.7222V57.7222ZM750.958 195.523L638.244 308.237L624.88 294.874L611.602 308.152L598.389 294.938L585.26 308.067L512.346 235.153L625.075 122.424L638.288 135.638L651.417 122.509L664.766 135.858L678.193 122.43L750.958 195.523Z" fill="url(#paint1_linear_63_4699)"/>
<path d="M130.826 472.738L57.7223 545.842C42.4134 561.151 33.8522 581.953 33.9219 603.673C33.9916 625.392 42.6866 646.25 58.0941 661.658L185.228 788.791C200.635 804.199 221.493 812.894 243.213 812.963C264.932 813.033 285.735 804.472 301.044 789.163L374.147 716.059C389.456 700.751 398.017 679.948 397.948 658.228C397.878 636.509 389.183 615.651 373.775 600.244L246.642 473.11C231.234 457.702 210.377 449.007 188.657 448.938C166.937 448.868 146.135 457.429 130.826 472.738V472.738ZM323.801 577.064L307.855 598.356C311.075 603.542 312.461 609.651 311.788 615.696C311.115 621.742 308.422 627.371 304.145 631.675C299.92 635.87 294.417 638.541 288.493 639.272C282.57 640.003 276.558 638.753 271.395 635.716L226.534 680.578C229.566 685.729 230.817 691.728 230.092 697.641C229.366 703.553 226.705 709.047 222.523 713.268C218.219 717.551 212.588 720.248 206.539 720.924C200.49 721.6 194.377 720.215 189.188 716.992L174.749 727.677L144.361 698.005L142.801 682.868C141.084 666.268 143.082 649.517 148.649 633.832C154.217 618.146 163.214 603.919 174.988 592.182L182.969 584.2C185.383 581.796 188.564 580.313 191.966 580.008L231.917 576.455C232.687 576.38 233.411 576.056 233.979 575.533L243.394 566.538C254.72 555.724 275.886 547.29 291.601 547.341L294.595 547.35L323.801 577.064Z" fill="url(#paint2_linear_63_4699)"/>
</g>
<defs>
<linearGradient id="paint0_linear_63_4699" x1="301.782" y1="301.782" x2="545.103" y2="545.103" gradientUnits="userSpaceOnUse">
<stop stop-color="#7ED57E"/>
<stop offset="1" stop-color="#7ED57E" stop-opacity="0"/>
</linearGradient>
<linearGradient id="paint1_linear_63_4699" x1="509.29" y1="94.274" x2="752.611" y2="337.595" gradientUnits="userSpaceOnUse">
<stop stop-color="#7ED57E"/>
<stop offset="1" stop-color="#7ED57E" stop-opacity="0"/>
</linearGradient>
<linearGradient id="paint2_linear_63_4699" x1="94.2741" y1="509.29" x2="337.595" y2="752.611" gradientUnits="userSpaceOnUse">
<stop stop-color="#7ED57E"/>
<stop offset="1" stop-color="#7ED57E" stop-opacity="0"/>
</linearGradient>
</defs>
</svg>
