<svg width="34" height="33" viewBox="0 0 34 33" fill="none" xmlns="http://www.w3.org/2000/svg">
<path d="M23.7036 18.791L20.061 22.4336L30.3574 32.73L34 29.0874L23.7036 18.791Z" fill="#4BAD4B"/>
<path d="M26.4442 13.5529C29.7583 13.5529 32.4542 10.857 32.4542 7.54287C32.4542 6.54692 32.1795 5.61966 31.7502 4.79542L27.1139 9.43174L24.5553 6.87318L29.1916 2.23686C28.3674 1.80757 27.4401 1.53283 26.4442 1.53283C23.1301 1.53283 20.4341 4.22876 20.4341 7.54287C20.4341 8.2469 20.5715 8.91659 20.7947 9.53477L17.618 12.7115L14.5615 9.65497L15.7806 8.43579L13.3595 6.0146L16.9998 2.37423C14.9908 0.365164 11.7282 0.365164 9.71909 2.37423L3.64037 8.45296L6.06155 10.8741H1.21918L0 12.0933L6.07873 18.1721L7.29791 16.9529V12.0933L9.71909 14.5145L10.9383 13.2953L13.9948 16.3519L1.27069 29.076L4.91106 32.7164L24.4523 13.1923C25.0705 13.4155 25.7401 13.5529 26.4442 13.5529Z" fill="#4BAD4B"/>
</svg>
