<svg width="34" height="34" viewBox="0 0 34 34" fill="none" xmlns="http://www.w3.org/2000/svg">
<path d="M17 0C7.616 0 0 7.616 0 17C0 26.384 7.616 34 17 34C26.384 34 34 26.384 34 17C34 7.616 26.384 0 17 0ZM19.397 27.353V30.6H14.858V27.319C11.951 26.707 9.486 24.837 9.299 21.539H12.631C12.801 23.324 14.025 24.718 17.136 24.718C20.468 24.718 21.216 23.052 21.216 22.015C21.216 20.604 20.468 19.278 16.677 18.377C12.461 17.357 9.571 15.623 9.571 12.138C9.571 9.214 11.934 7.31 14.858 6.681V3.4H19.397V6.715C22.559 7.48 24.14 9.877 24.242 12.478H20.91C20.825 10.591 19.822 9.299 17.136 9.299C14.586 9.299 13.056 10.455 13.056 12.087C13.056 13.515 14.161 14.45 17.595 15.334C21.029 16.218 24.701 17.697 24.701 21.981C24.684 25.092 22.355 26.792 19.397 27.353Z" fill="#4BAD4B"/>
</svg>
