<svg width="38" height="28" viewBox="0 0 38 28" fill="none" xmlns="http://www.w3.org/2000/svg">
<path d="M31.0909 17.5V3.5C31.0909 1.575 29.5364 0 27.6364 0H3.45455C1.55455 0 0 1.575 0 3.5V17.5C0 19.425 1.55455 21 3.45455 21H27.6364C29.5364 21 31.0909 19.425 31.0909 17.5ZM15.5455 15.75C12.6782 15.75 10.3636 13.405 10.3636 10.5C10.3636 7.595 12.6782 5.25 15.5455 5.25C18.4127 5.25 20.7273 7.595 20.7273 10.5C20.7273 13.405 18.4127 15.75 15.5455 15.75ZM38 5.25V24.5C38 26.425 36.4455 28 34.5455 28H5.18182V24.5H34.5455V5.25H38Z" fill="#4BAD4B"/>
</svg>
