<svg width="282" height="186" viewBox="0 0 282 186" fill="none" xmlns="http://www.w3.org/2000/svg">
<g opacity="0.5">
<path d="M86.5199 215.456L128.741 160.374C137.582 148.839 141.45 134.242 139.493 119.793C137.536 105.345 129.915 92.2285 118.306 83.3299L22.5138 9.90394C10.9047 1.00539 -3.74131 -2.94646 -18.2022 -1.08233C-32.663 0.781794 -45.7541 8.30919 -54.5957 19.844L-96.8167 74.9258C-101.195 80.6373 -104.398 87.1606 -106.242 94.1235C-108.087 101.086 -108.538 108.352 -107.569 115.507C-106.6 122.661 -104.23 129.563 -100.595 135.82C-96.9597 142.076 -92.13 147.564 -86.3818 151.97L9.41032 225.396C21.0194 234.294 35.6654 238.246 50.1263 236.382C64.5871 234.518 77.6783 226.991 86.5199 215.456ZM-48.6766 133.241L-47.6176 116.207L10.9748 39.7668L77.6004 90.8363L63.0902 109.766L73.7532 147.921L59.1052 167.031L33.9663 147.762L7.67734 182.058L-10.3284 182.89L-48.6766 133.241Z" fill="url(#paint0_linear_8_374)"/>
<path d="M-33.3261 371.808L8.89486 316.726C17.7365 305.191 21.6043 290.594 19.6473 276.145C17.6904 261.697 10.069 248.581 -1.54008 239.682L-97.3322 166.256C-108.941 157.357 -123.587 153.406 -138.048 155.27C-152.509 157.134 -165.6 164.661 -174.442 176.196L-216.663 231.278C-225.504 242.813 -229.372 257.41 -227.415 271.859C-225.458 286.307 -217.837 299.423 -206.228 308.322L-110.436 381.748C-98.8265 390.647 -84.1806 394.598 -69.7197 392.734C-55.2589 390.87 -42.1677 383.343 -33.3261 371.808ZM-181.955 298.142L-116.857 213.215L-106.788 220.933L-99.1191 210.929L-89.1632 218.56L-81.5806 208.668L-26.6419 250.779L-91.7483 335.717L-101.704 328.086L-109.287 337.978L-119.345 330.269L-127.099 340.386L-181.955 298.142Z" fill="url(#paint1_linear_8_374)"/>
<path d="M206.366 59.1039L248.587 4.02215C257.428 -7.51268 261.296 -22.11 259.339 -36.5586C257.382 -51.0072 249.761 -64.1235 238.152 -73.022L142.36 -146.448C130.751 -155.347 116.105 -159.298 101.644 -157.434C87.183 -155.57 74.0918 -148.043 65.2502 -136.508L23.0293 -81.4261C14.1877 -69.8913 10.3199 -55.294 12.2768 -40.8454C14.2338 -26.3968 21.8551 -13.2805 33.4642 -4.38198L129.256 69.044C140.865 77.9426 155.511 81.8945 169.972 80.0303C184.433 78.1662 197.524 70.6387 206.366 59.1039ZM68.7617 6.64846L77.5014 -8.92413C74.9019 -12.0924 73.4424 -16.0361 73.3586 -20.1187C73.2747 -24.2013 74.5714 -28.1845 77.0392 -31.4251C79.4821 -34.5886 82.9094 -36.8502 86.7873 -37.8577C90.6652 -38.8651 94.7759 -38.5618 98.4792 -36.995L124.389 -70.7972C121.918 -73.959 120.557 -77.8412 120.52 -81.8397C120.483 -85.8382 121.771 -89.7287 124.183 -92.9056C126.67 -96.1345 130.18 -98.425 134.146 -99.4069C138.113 -100.389 142.303 -100.005 146.04 -98.3166L154.709 -106.698L177.543 -89.6234L179.913 -79.687C182.515 -68.7902 182.659 -57.4667 180.334 -46.5379C178.009 -35.6093 173.272 -25.3494 166.469 -16.5027L161.859 -10.4887C160.465 -8.67624 158.478 -7.40988 156.24 -6.90763L129.965 -1.02849C129.459 -0.91078 129.006 -0.631948 128.674 -0.233916L123.199 6.58054C116.613 14.7741 103.269 22.2483 92.8055 23.5972L90.8125 23.8541L68.7617 6.64846Z" fill="url(#paint2_linear_8_374)"/>
</g>
<defs>
<linearGradient id="paint0_linear_8_374" x1="107.63" y1="187.915" x2="-51.931" y2="-43.5102" gradientUnits="userSpaceOnUse">
<stop stop-color="#7ED57E"/>
<stop offset="1" stop-color="#7ED57E" stop-opacity="0"/>
</linearGradient>
<linearGradient id="paint1_linear_8_374" x1="-12.2156" y1="344.267" x2="-171.777" y2="112.842" gradientUnits="userSpaceOnUse">
<stop stop-color="#7ED57E"/>
<stop offset="1" stop-color="#7ED57E" stop-opacity="0"/>
</linearGradient>
<linearGradient id="paint2_linear_8_374" x1="227.476" y1="31.563" x2="67.915" y2="-199.862" gradientUnits="userSpaceOnUse">
<stop stop-color="#7ED57E"/>
<stop offset="1" stop-color="#7ED57E" stop-opacity="0"/>
</linearGradient>
</defs>
</svg>
