<svg width="1518" height="1518" viewBox="0 0 1518 1518" fill="none" xmlns="http://www.w3.org/2000/svg">
<g opacity="0.8">
<path d="M606.445 475.41L475.411 606.445C447.97 633.885 432.625 671.172 432.75 710.103C432.875 749.035 448.46 786.422 476.077 814.039L703.957 1041.92C731.574 1069.54 768.961 1085.12 807.892 1085.25C846.824 1085.37 884.111 1070.03 911.551 1042.59L1042.59 911.551C1056.17 897.964 1066.93 881.817 1074.25 864.031C1081.57 846.245 1085.31 827.169 1085.25 807.892C1085.18 788.615 1081.33 769.515 1073.89 751.682C1066.46 733.848 1055.59 717.632 1041.92 703.957L814.039 476.077C786.422 448.46 749.035 432.874 710.104 432.749C671.172 432.624 633.885 447.97 606.445 475.41V475.41ZM935.557 740.343L926.794 785.063L744.951 966.907L586.454 808.41L631.488 763.377L616.611 658.648L662.072 613.187L721.874 672.99L803.463 591.401L851.417 595.499L935.557 740.343Z" fill="url(#paint0_linear_1_2407)"/>
<path d="M978.392 103.464L847.357 234.498C819.917 261.938 804.571 299.226 804.696 338.157C804.821 377.088 820.407 414.475 848.024 442.092L1075.9 669.972C1103.52 697.589 1140.91 713.175 1179.84 713.3C1218.77 713.425 1256.06 698.079 1283.5 670.639L1414.53 539.604C1441.97 512.164 1457.32 474.877 1457.19 435.946C1457.07 397.014 1441.48 359.628 1413.87 332.011L1185.99 104.13C1158.37 76.5132 1120.98 60.9279 1082.05 60.8029C1043.12 60.6779 1005.83 76.0236 978.392 103.464V103.464ZM1346.05 350.465L1144.02 552.499L1120.06 528.545L1096.26 552.345L1072.58 528.661L1049.05 552.194L918.353 421.5L1120.41 219.439L1144.1 243.123L1167.63 219.591L1191.56 243.517L1215.62 219.45L1346.05 350.465Z" fill="url(#paint1_linear_1_2407)"/>
<path d="M234.498 847.357L103.464 978.392C76.0234 1005.83 60.6778 1043.12 60.8028 1082.05C60.9277 1120.98 76.5131 1158.37 104.13 1185.99L332.01 1413.87C359.628 1441.48 397.014 1457.07 435.945 1457.19C474.877 1457.32 512.164 1441.97 539.604 1414.53L670.639 1283.5C698.079 1256.06 713.425 1218.77 713.3 1179.84C713.175 1140.91 697.589 1103.52 669.972 1075.9L442.092 848.024C414.475 820.407 377.088 804.821 338.157 804.696C299.226 804.571 261.938 819.917 234.498 847.357V847.357ZM580.396 1034.36L551.813 1072.52C557.585 1081.82 560.069 1092.77 558.862 1103.6C557.656 1114.44 552.83 1124.53 545.164 1132.24C537.59 1139.76 527.727 1144.55 517.109 1145.86C506.491 1147.17 495.716 1144.93 486.461 1139.49L406.049 1219.9C411.485 1229.13 413.727 1239.89 412.427 1250.48C411.127 1261.08 406.357 1270.93 398.859 1278.49C391.146 1286.17 381.053 1291.01 370.21 1292.22C359.368 1293.43 348.411 1290.95 339.109 1285.17L313.228 1304.32L258.759 1251.14L255.962 1224C252.886 1194.25 256.467 1164.22 266.446 1136.11C276.425 1107.99 292.552 1082.49 313.656 1061.45L327.963 1047.15C332.288 1042.84 337.991 1040.18 344.089 1039.63L415.698 1033.26C417.079 1033.13 418.377 1032.55 419.395 1031.61L436.271 1015.49C456.571 996.105 494.511 980.988 522.68 981.079L528.045 981.096L580.396 1034.36Z" fill="url(#paint2_linear_1_2407)"/>
</g>
<defs>
<linearGradient id="paint0_linear_1_2407" x1="540.928" y1="540.928" x2="977.068" y2="977.068" gradientUnits="userSpaceOnUse">
<stop stop-color="#7ED47E" stop-opacity="0.67"/>
<stop offset="1" stop-color="#7ED57E" stop-opacity="0"/>
</linearGradient>
<linearGradient id="paint1_linear_1_2407" x1="912.875" y1="168.981" x2="1349.02" y2="605.122" gradientUnits="userSpaceOnUse">
<stop stop-color="#7ED47E" stop-opacity="0.67"/>
<stop offset="1" stop-color="#7ED57E" stop-opacity="0"/>
</linearGradient>
<linearGradient id="paint2_linear_1_2407" x1="168.981" y1="912.875" x2="605.121" y2="1349.02" gradientUnits="userSpaceOnUse">
<stop stop-color="#7ED47E" stop-opacity="0.67"/>
<stop offset="1" stop-color="#7ED57E" stop-opacity="0"/>
</linearGradient>
</defs>
</svg>
