<svg width="643" height="561" viewBox="0 0 643 561" fill="none" xmlns="http://www.w3.org/2000/svg">
<g filter="url(#filter0_f_39_846)">
<path d="M381.416 388.253L437.902 340.755C449.73 330.808 456.636 317.032 457.098 302.457C457.56 287.883 451.542 273.703 440.368 263.038L348.159 175.037C336.985 164.372 321.568 158.096 305.302 157.588C289.036 157.08 273.253 162.382 261.424 172.329L204.938 219.827C199.081 224.752 194.371 230.669 191.078 237.24C187.784 243.811 185.971 250.908 185.742 258.124C185.513 265.341 186.872 272.536 189.743 279.3C192.613 286.063 196.939 292.263 202.472 297.543L294.68 385.544C305.855 396.209 321.271 402.486 337.537 402.994C353.803 403.502 369.587 398.199 381.416 388.253ZM247.397 285.183L251.65 268.547L330.038 202.631L394.171 263.838L374.759 280.162L379.59 319.541L359.993 336.02L335.795 312.926L300.624 342.5L280.64 340.399L247.397 285.183Z" fill="url(#paint0_linear_39_846)"/>
<path d="M221.078 523.078L277.564 475.58C289.393 465.633 296.298 451.857 296.761 437.282C297.223 422.708 291.205 408.528 280.03 397.863L187.822 309.862C176.647 299.197 161.231 292.921 144.965 292.413C128.699 291.905 112.915 297.207 101.087 307.154L44.6008 354.652C32.7719 364.599 25.8667 378.375 25.4042 392.949C24.9417 407.524 30.9599 421.703 42.1347 432.368L134.343 520.37C145.518 531.034 160.934 537.311 177.2 537.819C193.466 538.327 209.249 533.024 221.078 523.078ZM70.7153 426.264L157.807 353.029L167.5 362.28L177.759 353.652L187.343 362.799L197.487 354.268L250.37 404.739L163.267 477.983L153.684 468.836L143.539 477.367L133.858 468.127L123.483 476.851L70.7153 426.264Z" fill="url(#paint1_linear_39_846)"/>
<path d="M541.753 253.428L598.239 205.93C610.068 195.983 616.973 182.207 617.435 167.632C617.898 153.058 611.88 138.878 600.705 128.213L508.497 40.2122C497.322 29.5472 481.906 23.2704 465.64 22.7625C449.374 22.2546 433.59 27.5573 421.761 37.504L365.276 85.002C353.447 94.9487 346.542 108.725 346.079 123.299C345.617 137.874 351.635 152.053 362.809 162.718L455.018 250.719C466.193 261.384 481.609 267.661 497.875 268.169C514.141 268.677 529.924 263.374 541.753 253.428ZM399.69 179.332L412.138 165.384C409.849 161.836 408.956 157.708 409.604 153.666C410.251 149.624 412.401 145.904 415.706 143.107C418.97 140.382 423.155 138.707 427.609 138.342C432.063 137.977 436.536 138.944 440.331 141.091L474.995 111.943C472.846 108.422 472.051 104.37 472.734 100.419C473.418 96.467 475.541 92.8372 478.774 90.094C482.098 87.3116 486.38 85.6213 490.926 85.2962C495.473 84.9712 500.019 86.0303 503.829 88.3026L514.897 81.4399L536.954 101.994L537.764 112.183C538.656 123.358 536.763 134.555 532.221 144.961C527.68 155.367 520.604 164.722 511.507 172.348L505.34 177.534C503.475 179.096 501.057 180.023 498.502 180.155L468.496 181.691C467.917 181.725 467.367 181.927 466.929 182.266L459.664 188.101C450.925 195.117 434.872 200.326 423.103 199.959L420.861 199.889L399.69 179.332Z" fill="url(#paint2_linear_39_846)"/>
</g>
<defs>
<filter id="filter0_f_39_846" x="14.3794" y="11.7291" width="614.081" height="537.123" filterUnits="userSpaceOnUse" color-interpolation-filters="sRGB">
<feFlood flood-opacity="0" result="BackgroundImageFix"/>
<feBlend mode="normal" in="SourceGraphic" in2="BackgroundImageFix" result="shape"/>
<feGaussianBlur stdDeviation="5.5" result="effect1_foregroundBlur_39_846"/>
</filter>
<linearGradient id="paint0_linear_39_846" x1="409.659" y1="364.504" x2="253.597" y2="178.911" gradientUnits="userSpaceOnUse">
<stop stop-color="#7ED57E"/>
<stop offset="1" stop-color="#7ED57E" stop-opacity="0"/>
</linearGradient>
<linearGradient id="paint1_linear_39_846" x1="249.321" y1="499.329" x2="93.2594" y2="313.736" gradientUnits="userSpaceOnUse">
<stop stop-color="#7ED57E"/>
<stop offset="1" stop-color="#7ED57E" stop-opacity="0"/>
</linearGradient>
<linearGradient id="paint2_linear_39_846" x1="569.996" y1="229.679" x2="413.934" y2="44.0858" gradientUnits="userSpaceOnUse">
<stop stop-color="#7ED57E"/>
<stop offset="1" stop-color="#7ED57E" stop-opacity="0"/>
</linearGradient>
</defs>
</svg>
