<svg width="635" height="569" viewBox="0 0 635 569" fill="none" xmlns="http://www.w3.org/2000/svg">
<g filter="url(#filter0_f_39_842)">
<path d="M253.533 178.049L198.752 227.123C187.28 237.4 180.865 251.365 180.917 265.945C180.97 280.526 187.485 294.527 199.031 304.87L294.3 390.215C305.845 400.558 321.475 406.395 337.751 406.442C354.027 406.489 369.615 400.742 381.087 390.465L435.868 341.39C441.548 336.302 446.047 330.254 449.107 323.593C452.167 316.932 453.729 309.788 453.703 302.569C453.677 295.349 452.064 288.196 448.956 281.517C445.848 274.838 441.306 268.765 435.589 263.643L340.321 178.298C328.775 167.955 313.145 162.118 296.869 162.072C280.593 162.025 265.005 167.772 253.533 178.049ZM391.123 277.27L387.46 294.019L311.437 362.122L245.176 302.763L264.002 285.897L257.783 246.674L276.789 229.648L301.79 252.046L335.9 221.489L355.947 223.024L391.123 277.27Z" fill="url(#paint0_linear_39_842)"/>
<path d="M409.031 38.7487L354.25 87.8232C342.778 98.1 336.363 112.065 336.415 126.645C336.467 141.226 342.983 155.227 354.529 165.57L449.797 250.915C461.343 261.258 476.973 267.095 493.249 267.142C509.525 267.189 525.113 261.442 536.585 251.165L591.366 202.09C602.838 191.814 609.253 177.849 609.201 163.268C609.149 148.688 602.633 134.686 591.087 124.343L495.818 38.9983C484.273 28.6553 468.643 22.8183 452.367 22.7715C436.091 22.7247 420.503 28.4719 409.031 38.7487ZM562.736 131.255L478.273 206.919L468.259 197.948L458.309 206.862L448.408 197.992L438.569 206.805L383.931 157.858L468.405 82.1834L478.307 91.0535L488.145 82.2401L498.148 91.201L508.209 82.1873L562.736 131.255Z" fill="url(#paint1_linear_39_842)"/>
<path d="M98.0353 317.349L43.2545 366.423C31.7827 376.7 25.3672 390.665 25.4195 405.245C25.4717 419.826 31.9874 433.827 43.5331 444.171L138.802 529.515C150.347 539.858 165.977 545.695 182.253 545.742C198.529 545.789 214.118 540.042 225.589 529.765L280.37 480.69C291.842 470.414 298.257 456.449 298.205 441.869C298.153 427.288 291.637 413.286 280.092 402.943L184.823 317.598C173.277 307.255 157.647 301.418 141.371 301.372C125.096 301.325 109.507 307.072 98.0353 317.349ZM242.643 387.383L230.693 401.676C233.107 405.157 234.145 409.258 233.64 413.317C233.136 417.375 231.119 421.154 227.914 424.043C224.747 426.86 220.624 428.653 216.185 429.143C211.746 429.634 207.241 428.794 203.372 426.756L169.755 456.872C172.027 460.33 172.965 464.357 172.421 468.326C171.878 472.295 169.883 475.983 166.749 478.816C163.524 481.692 159.305 483.502 154.772 483.956C150.239 484.41 145.658 483.48 141.769 481.317L130.95 488.49L108.178 468.571L107.009 458.409C105.722 447.265 107.22 436.021 111.391 425.491C115.563 414.961 122.305 405.41 131.128 397.531L137.11 392.173C138.918 390.559 141.302 389.564 143.851 389.359L173.789 386.974C174.366 386.923 174.908 386.706 175.334 386.355L182.389 380.317C190.876 373.057 206.737 367.396 218.514 367.43L220.757 367.436L242.643 387.383Z" fill="url(#paint2_linear_39_842)"/>
</g>
<defs>
<filter id="filter0_f_39_842" x="14.4191" y="11.7712" width="605.782" height="544.971" filterUnits="userSpaceOnUse" color-interpolation-filters="sRGB">
<feFlood flood-opacity="0" result="BackgroundImageFix"/>
<feBlend mode="normal" in="SourceGraphic" in2="BackgroundImageFix" result="shape"/>
<feGaussianBlur stdDeviation="5.5" result="effect1_foregroundBlur_39_842"/>
</filter>
<linearGradient id="paint0_linear_39_842" x1="226.143" y1="202.586" x2="388.501" y2="383.823" gradientUnits="userSpaceOnUse">
<stop stop-color="#7ED57E"/>
<stop offset="1" stop-color="#7ED57E" stop-opacity="0"/>
</linearGradient>
<linearGradient id="paint1_linear_39_842" x1="381.641" y1="63.286" x2="543.999" y2="244.523" gradientUnits="userSpaceOnUse">
<stop stop-color="#7ED57E"/>
<stop offset="1" stop-color="#7ED57E" stop-opacity="0"/>
</linearGradient>
<linearGradient id="paint2_linear_39_842" x1="70.6449" y1="341.886" x2="233.003" y2="523.123" gradientUnits="userSpaceOnUse">
<stop stop-color="#7ED57E"/>
<stop offset="1" stop-color="#7ED57E" stop-opacity="0"/>
</linearGradient>
</defs>
</svg>
