<svg width="196" height="88" viewBox="0 0 196 88" fill="none" xmlns="http://www.w3.org/2000/svg">
<path d="M5.66907 37.7836C5.66907 41.5261 0 41.5261 0 37.7836C0 34.0932 5.66907 34.0932 5.66907 37.7836ZM0.53202 44.0789V65.8782H5.09344V44.0858L0.53202 44.0789Z" fill="white"/>
<path d="M35.6925 61.9174C32.5038 65.039 28.3855 66.4958 24.0456 66.4958C12.7982 66.4958 7.75008 58.7906 7.70647 50.69C7.66287 42.5894 12.9761 34.5339 24.0456 34.5339C26.1525 34.5229 28.2405 34.9298 30.1874 35.7309C32.1342 36.5319 33.9008 37.7109 35.3837 39.199L32.0695 42.3692C29.8472 40.2118 26.9237 39.199 24.0404 39.199C16.1595 39.199 12.5714 44.967 12.6168 50.6449C12.6604 56.2794 16.0252 61.8723 24.0404 61.8723C26.9185 61.8723 30.1071 60.6827 32.2771 58.5253L35.6925 61.9174Z" fill="white"/>
<path d="M54.69 44.1744H59.1188V65.8783H54.7789L54.5661 62.3578C53.1044 65.1326 49.7396 66.4523 47.0376 66.4523C40.6621 66.4957 35.8355 62.4012 35.8355 55.0064C35.8355 47.7434 40.8382 43.6923 47.1265 43.6923C50.2262 43.6923 53.1933 45.1455 54.5661 47.6099L54.69 44.1744ZM40.3865 55.0047C40.3865 59.4963 43.5751 62.226 47.4719 62.226C56.9053 62.226 56.9053 47.8319 47.4719 47.8319C43.5768 47.8284 40.3865 50.5581 40.3865 55.0047Z" fill="white"/>
<path d="M77.054 49.5021C75.3271 47.917 73.4659 47.4765 71.2977 47.4765C68.5068 47.4331 66.649 48.3575 66.649 50.0778C66.6926 51.8832 68.5975 52.5873 71.3866 52.8526C75.416 53.1995 80.6857 54.0856 80.642 59.6768C80.5984 63.728 77.0104 66.5461 71.343 66.5461C67.8003 66.5461 64.2576 65.7536 61.3794 62.5383L63.7709 59.3248C65.8083 61.5793 68.8626 62.4949 71.432 62.5383C73.6019 62.5383 76.037 61.7475 76.0806 59.7219C76.126 57.7848 74.2648 57.0356 71.0325 56.7269C66.9142 56.3315 62.1766 55.01 62.1365 50.2114C62.1365 45.4127 67.1409 43.6074 71.2157 43.6074C74.5805 43.6074 77.1935 44.3566 79.6286 46.514L77.054 49.5021Z" fill="white"/>
<path d="M87.5478 35.0609V47.3895C89.4526 44.7465 92.022 43.8673 94.6333 43.8673C100.789 43.8673 103.624 47.9618 103.624 54.1686V65.8782H99.0621V54.2102C99.0621 50.1157 96.9358 48.0919 93.571 48.0919C90.0283 48.0919 87.5478 50.9967 87.5478 54.564V65.8782H82.9882V35.0609H87.5478Z" fill="white"/>
<path d="M133.781 61.9174C130.593 65.039 126.474 66.4958 122.134 66.4958C110.887 66.4958 105.839 58.7906 105.795 50.69C105.752 42.5894 111.065 34.5339 122.134 34.5339C124.241 34.5229 126.329 34.9298 128.276 35.7309C130.223 36.5319 131.99 37.7109 133.473 39.199L130.158 42.3692C127.945 40.2118 125.021 39.199 122.143 39.199C114.261 39.199 110.674 44.967 110.718 50.6449C110.763 56.2794 114.128 61.8723 122.143 61.8723C125.021 61.8723 128.21 60.6827 130.38 58.5253L133.781 61.9174Z" fill="white"/>
<path d="M152.772 44.1744H157.201V65.8783H152.868L152.646 62.3561C151.186 65.1309 147.82 66.4506 145.119 66.4506C138.742 66.494 133.916 62.3994 133.916 55.0047C133.916 47.7417 138.918 43.6906 145.208 43.6906C148.308 43.6906 151.273 45.1438 152.646 47.6082L152.772 44.1744ZM138.468 55.0047C138.468 59.4963 141.657 62.226 145.552 62.226C154.985 62.226 154.985 47.8319 145.552 47.8319C141.666 47.8284 138.477 50.5581 138.477 55.0047H138.468Z" fill="white"/>
<path d="M165.444 44.1744L165.755 47.0359C167.349 44.2611 169.828 43.6906 172.176 43.6906C174.302 43.6906 176.338 44.4397 177.583 45.5392L175.502 49.502C174.394 48.621 173.332 48.1805 171.649 48.1805C168.509 48.1805 165.76 50.1176 165.76 54.1254V65.8783H161.193V44.1744H165.444Z" fill="white"/>
<path d="M192.412 49.5021C190.685 47.917 188.825 47.4765 186.655 47.4765C183.864 47.4331 182.007 48.3575 182.007 50.0778C182.05 51.8832 183.955 52.5873 186.744 52.8526C190.774 53.1995 196.043 54.0856 196 59.6768C195.954 63.728 192.368 66.5461 186.701 66.5461C183.158 66.5461 179.615 65.7536 176.737 62.5383L179.127 59.3248C181.164 61.5793 184.22 62.4949 186.788 62.5383C188.958 62.5383 191.395 61.7475 191.438 59.7219C191.482 57.7848 189.622 57.0356 186.39 56.7269C182.272 56.3315 177.534 55.01 177.494 50.2114C177.494 45.4127 182.499 43.6074 186.565 43.6074C189.931 43.6074 192.542 44.3566 194.979 46.514L192.412 49.5021Z" fill="white"/>
<path d="M92.125 11.2084H90.6109V19.1737H92.125V11.2084Z" fill="white"/>
<path d="M97.1748 11.2083V7.3548H95.9014L93.2553 10.8337V19.1736H101.009L102.109 18.4417L103.812 12.0407L103.102 11.2083H97.1748Z" fill="white"/>
<path d="M100.993 0H92.4459C90.656 0 88.9394 0.706916 87.6738 1.96524C86.4081 3.22356 85.6971 4.93021 85.6971 6.70974V21.3935C85.6971 23.173 86.4081 24.8797 87.6738 26.138C88.9394 27.3963 90.656 28.1032 92.4459 28.1032H100.993C101.879 28.1032 102.757 27.9297 103.576 27.5925C104.395 27.2553 105.139 26.761 105.765 26.138C106.392 25.5149 106.889 24.7753 107.228 23.9612C107.567 23.1471 107.742 22.2746 107.742 21.3935V6.70974C107.742 4.93021 107.031 3.22356 105.765 1.96524C104.5 0.706916 102.783 0 100.993 0ZM103.086 19.139L101.342 20.2974H89.4805V10.0846H92.418L95.3485 6.23109H98.3138V10.0846H103.636L105.066 11.7616L103.086 19.139Z" fill="white"/>
<path d="M127.107 12.5037H117.165V18.6793H128.086L128.102 12.5037H127.099H127.107ZM124.665 18.2492H119.87L120.36 17.4844C120.509 17.2496 120.639 17.0038 120.749 16.7491C120.846 16.5279 120.931 16.3015 121.002 16.071H120.578V15.0756H121.245C121.245 15.0756 121.245 15.0635 121.245 15.0583C121.308 14.7048 121.351 14.3482 121.374 13.99C121.386 13.7819 121.39 13.6206 121.39 13.5217C121.39 13.4541 121.39 13.4159 121.39 13.4125L121.372 12.8922H124.641V14.4651H123.641V13.8876H122.386C122.373 14.1426 122.349 14.4773 122.295 14.8588C122.284 14.9282 122.274 14.9976 122.262 15.0704H123.382V16.0658H122.047C122.018 16.1699 121.988 16.274 121.955 16.3797C121.862 16.6753 121.75 16.9649 121.622 17.2469H124.664L124.665 18.2492Z" fill="white"/>
<path d="M125.572 11.38H126.138H126.542V10.9603H126.138H125.572H125.007H115.623V15.6115V16.1717V16.7336V17.1359H116.043V16.7336V16.1717V15.6115V11.38H125.007H125.572Z" fill="white"/>
<path d="M125.007 9.4361H114.088V15.6117H114.492V9.83844H125.007V9.4361Z" fill="white"/>
<path d="M125.288 0H116.741C114.951 0 113.234 0.706916 111.969 1.96524C110.703 3.22356 109.992 4.93021 109.992 6.70974V21.3935C109.992 23.173 110.703 24.8797 111.969 26.138C113.234 27.3963 114.951 28.1032 116.741 28.1032H125.288C127.078 28.1032 128.795 27.3963 130.06 26.138C131.326 24.8797 132.037 23.173 132.037 21.3935V6.70974C132.037 4.93021 131.326 3.22356 130.06 1.96524C128.795 0.706916 127.078 0 125.288 0ZM129.223 19.8032H116.045V18.2597H114.492V16.7336H112.957V8.31217H126.138V9.83829H127.673V11.38H129.242L129.223 19.8032Z" fill="white"/>
<path d="M76.6894 13.0154C76.3701 13.0087 76.0626 12.8943 75.8172 12.6911L73.2809 10.591L72.2937 10.5736C71.0863 10.5718 69.8936 10.8373 68.8023 11.3509C67.711 11.8644 66.7484 12.6131 65.9844 13.5426L65.4611 14.1878L65.4873 16.2879L65.871 16.3451C66.0057 15.8862 66.2861 15.4829 66.6702 15.1953C67.0544 14.9078 67.5218 14.7515 68.0026 14.7497C68.4945 14.7511 68.972 14.9143 69.3608 15.2139C69.7495 15.5135 70.0276 15.9326 70.1516 16.4058H75.3968C75.5212 15.9325 75.7996 15.5133 76.1886 15.2138C76.5777 14.9142 77.0555 14.751 77.5476 14.7497C78.0286 14.7511 78.4961 14.9075 78.8801 15.1955C79.2641 15.4835 79.5439 15.8875 79.6774 16.3469L80.7624 16.1925L80.7746 14.2346C80.021 13.5947 78.7058 13.0622 77.7743 13.0414L76.6894 13.0154Z" fill="white"/>
<path d="M77.5388 15.8734C77.2471 15.8738 76.9674 15.9892 76.7611 16.1944C76.5547 16.3995 76.4386 16.6776 76.4382 16.9677C76.4386 17.2577 76.5547 17.5358 76.7611 17.7409C76.9674 17.9461 77.2471 18.0615 77.5388 18.062C77.8296 18.0615 78.1083 17.9467 78.3142 17.7427C78.52 17.5386 78.6364 17.2619 78.6378 16.9729C78.6385 16.8289 78.6106 16.6861 78.5557 16.5529C78.5008 16.4196 78.42 16.2985 78.3179 16.1963C78.2158 16.0942 78.0944 16.0131 77.9607 15.9577C77.827 15.9022 77.6837 15.8736 77.5388 15.8734Z" fill="white"/>
<path d="M67.9974 15.8734C67.7056 15.8738 67.4259 15.9892 67.2196 16.1944C67.0133 16.3995 66.8972 16.6776 66.8967 16.9677C66.8972 17.2577 67.0133 17.5358 67.2196 17.7409C67.4259 17.9461 67.7056 18.0615 67.9974 18.062C68.2892 18.0615 68.5689 17.9461 68.7752 17.7409C68.9815 17.5358 69.0976 17.2577 69.0981 16.9677C69.0976 16.6776 68.9815 16.3995 68.7752 16.1944C68.5689 15.9892 68.2892 15.8738 67.9974 15.8734Z" fill="white"/>
<path d="M76.6981 0H68.1509C66.361 0 64.6444 0.706916 63.3787 1.96524C62.1131 3.22356 61.4021 4.93021 61.4021 6.70974V21.3935C61.4021 23.173 62.1131 24.8797 63.3787 26.138C64.6444 27.3963 66.361 28.1032 68.1509 28.1032H76.6981C78.488 28.1032 80.2046 27.3963 81.4702 26.138C82.7359 24.8797 83.4469 23.173 83.4469 21.3935V6.70974C83.4469 4.93021 82.7359 3.22356 81.4702 1.96524C80.2046 0.706916 78.488 0 76.6981 0ZM81.8805 17.1689L79.7036 17.4776C79.5886 17.9631 79.3125 18.3959 78.9197 18.7061C78.527 19.0164 78.0405 19.186 77.5389 19.1875C77.0466 19.1858 76.5688 19.0223 76.1798 18.7224C75.7907 18.4225 75.5124 18.0032 75.3881 17.5296H70.1429C70.019 18.0023 69.7415 18.4209 69.3534 18.7205C68.9654 19.02 68.4886 19.1836 67.9974 19.1858C67.4954 19.1846 67.0085 19.0152 66.6154 18.7049C66.2223 18.3946 65.9459 17.9616 65.8309 17.4759L64.3622 17.2591L64.3203 13.7906L65.114 12.8264C65.9841 11.7686 67.0802 10.9166 68.3226 10.3323C69.565 9.74799 70.9227 9.44594 72.2971 9.44809H73.2304C73.512 9.4486 73.7846 9.54673 74.0014 9.72558L76.5446 11.8275C76.594 11.8676 76.6552 11.8908 76.719 11.8934L77.7953 11.9176C79.0896 11.9471 80.8199 12.6824 81.7357 13.5929L81.9101 13.7663L81.8805 17.1689Z" fill="white"/>
<path d="M24.4073 88C23.6489 88 22.9474 87.8763 22.3028 87.6291C21.6676 87.3723 21.113 87.0156 20.639 86.5591C20.1745 86.0931 19.8095 85.551 19.5441 84.9329C19.2786 84.3147 19.1459 83.6347 19.1459 82.8929C19.1459 82.1511 19.2786 81.4711 19.5441 80.8529C19.8095 80.2347 20.1792 79.6974 20.6532 79.2409C21.1272 78.7749 21.6818 78.4183 22.317 78.171C22.9616 77.9142 23.6631 77.7858 24.4215 77.7858C25.1894 77.7858 25.8957 77.919 26.5403 78.1853C27.1945 78.442 27.749 78.8272 28.2041 79.3408L27.2798 80.2395C26.9006 79.8401 26.474 79.5452 26 79.355C25.526 79.1553 25.0188 79.0555 24.4784 79.0555C23.9191 79.0555 23.3977 79.1506 22.9142 79.3408C22.4402 79.531 22.0278 79.7973 21.6771 80.1396C21.3263 80.482 21.0514 80.891 20.8523 81.3665C20.6627 81.8325 20.5679 82.3413 20.5679 82.8929C20.5679 83.4445 20.6627 83.9581 20.8523 84.4336C21.0514 84.8996 21.3263 85.3038 21.6771 85.6461C22.0278 85.9885 22.4402 86.2548 22.9142 86.445C23.3977 86.6352 23.9191 86.7303 24.4784 86.7303C25.0188 86.7303 25.526 86.6352 26 86.445C26.474 86.2453 26.9006 85.941 27.2798 85.532L28.2041 86.4307C27.749 86.9443 27.1945 87.3342 26.5403 87.6005C25.8957 87.8668 25.1847 88 24.4073 88Z" fill="white"/>
<path d="M28.4893 87.8858L32.997 77.9H34.4048L38.9268 87.8858H37.4337L33.4094 78.6988H33.9782L29.9539 87.8858H28.4893ZM30.409 85.3894L30.7929 84.2481H36.3956L36.808 85.3894H30.409Z" fill="white"/>
<path d="M40.4117 87.8858V77.9H44.2937C45.1659 77.9 45.9101 78.0379 46.5263 78.3137C47.1425 78.5895 47.6165 78.9889 47.9483 79.512C48.2801 80.035 48.446 80.658 48.446 81.3807C48.446 82.1035 48.2801 82.7265 47.9483 83.2495C47.6165 83.7631 47.1425 84.1578 46.5263 84.4336C45.9101 84.7094 45.1659 84.8473 44.2937 84.8473H41.1938L41.8337 84.1911V87.8858H40.4117ZM47.0667 87.8858L44.5355 84.2624H46.057L48.6166 87.8858H47.0667ZM41.8337 84.3337L41.1938 83.6347H44.2511C45.1612 83.6347 45.8485 83.4397 46.313 83.0498C46.787 82.6504 47.024 82.094 47.024 81.3807C47.024 80.6675 46.787 80.1159 46.313 79.7259C45.8485 79.336 45.1612 79.1411 44.2511 79.1411H41.1938L41.8337 78.4278V84.3337Z" fill="white"/>
<path d="M54.5623 87.8858V77.9H59.0274C60.1745 77.9 61.0561 78.133 61.6723 78.599C62.2885 79.0555 62.5966 79.6831 62.5966 80.482C62.5966 81.0241 62.4734 81.4806 62.2269 81.8515C61.9899 82.2224 61.6676 82.5077 61.2599 82.7074C60.8523 82.9072 60.4115 83.007 59.9375 83.007L60.1934 82.579C60.7622 82.579 61.2647 82.6789 61.7008 82.8786C62.1368 83.0783 62.4829 83.3732 62.7388 83.7631C62.9948 84.1435 63.1228 84.619 63.1228 85.1896C63.1228 86.0456 62.8004 86.7113 62.1558 87.1868C61.5206 87.6528 60.5726 87.8858 59.3118 87.8858H54.5623ZM55.9843 86.7303H59.2549C60.0418 86.7303 60.6437 86.5972 61.0609 86.3309C61.478 86.0646 61.6865 85.6461 61.6865 85.0755C61.6865 84.4954 61.478 84.0722 61.0609 83.8059C60.6437 83.5396 60.0418 83.4065 59.2549 83.4065H55.8563V82.2509H58.8994C59.6199 82.2509 60.1792 82.1178 60.5774 81.8515C60.9755 81.5852 61.1746 81.1858 61.1746 80.6532C61.1746 80.1206 60.9755 79.7212 60.5774 79.4549C60.1792 79.1886 59.6199 79.0555 58.8994 79.0555H55.9843V86.7303Z" fill="white"/>
<path d="M69.4484 88C68.1401 88 67.1115 87.6243 66.3626 86.873C65.6137 86.1217 65.2392 85.0232 65.2392 83.5776V77.9H66.6612V83.5206C66.6612 84.6333 66.903 85.4464 67.3865 85.96C67.8794 86.4735 68.5715 86.7303 69.4626 86.7303C70.3632 86.7303 71.0552 86.4735 71.5387 85.96C72.0317 85.4464 72.2782 84.6333 72.2782 83.5206V77.9H73.6575V83.5776C73.6575 85.0232 73.283 86.1217 72.5341 86.873C71.7947 87.6243 70.7661 88 69.4484 88Z" fill="white"/>
<path d="M78.8372 87.8858V84.0627L79.1642 84.9471L74.884 77.9H76.4055L80.0032 83.8487H79.1784L82.7903 77.9H84.1981L79.9321 84.9471L80.2449 84.0627V87.8858H78.8372Z" fill="white"/>
<path d="M85.4743 87.8858V77.9H86.8963V87.8858H85.4743Z" fill="white"/>
<path d="M89.8764 87.8858V77.9H91.0424L97.6263 86.1026H97.0148V77.9H98.4368V87.8858H97.2708L90.6869 79.6831H91.2984V87.8858H89.8764Z" fill="white"/>
<path d="M105.91 88C105.142 88 104.436 87.8763 103.791 87.6291C103.146 87.3723 102.587 87.0156 102.113 86.5591C101.639 86.0931 101.269 85.551 101.004 84.9329C100.738 84.3147 100.606 83.6347 100.606 82.8929C100.606 82.1511 100.738 81.4711 101.004 80.8529C101.269 80.2347 101.639 79.6974 102.113 79.2409C102.597 78.7749 103.161 78.4183 103.805 78.171C104.45 77.9142 105.161 77.7858 105.938 77.7858C106.725 77.7858 107.446 77.9142 108.1 78.171C108.754 78.4278 109.308 78.8129 109.763 79.3265L108.882 80.211C108.474 79.8115 108.029 79.5215 107.545 79.3408C107.071 79.1506 106.554 79.0555 105.995 79.0555C105.426 79.0555 104.895 79.1506 104.402 79.3408C103.919 79.531 103.497 79.7973 103.137 80.1396C102.786 80.482 102.511 80.891 102.312 81.3665C102.123 81.8325 102.028 82.3413 102.028 82.8929C102.028 83.435 102.123 83.9438 102.312 84.4193C102.511 84.8853 102.786 85.2943 103.137 85.6461C103.497 85.9885 103.919 86.2548 104.402 86.445C104.886 86.6352 105.412 86.7303 105.981 86.7303C106.512 86.7303 107.019 86.6495 107.502 86.4878C107.995 86.3166 108.45 86.0361 108.868 85.6461L109.678 86.7303C109.185 87.1488 108.607 87.4674 107.943 87.6861C107.289 87.8953 106.611 88 105.91 88ZM108.313 86.5449V82.8358H109.678V86.7303L108.313 86.5449Z" fill="white"/>
<path d="M119.12 88C118.362 88 117.637 87.8858 116.945 87.6576C116.253 87.4198 115.708 87.1155 115.309 86.7446L115.836 85.6319C116.215 85.9647 116.698 86.2405 117.286 86.4593C117.874 86.678 118.485 86.7874 119.12 86.7874C119.699 86.7874 120.168 86.7208 120.528 86.5877C120.889 86.4545 121.154 86.2738 121.325 86.0456C121.495 85.8078 121.581 85.5415 121.581 85.2467C121.581 84.9043 121.467 84.6285 121.239 84.4193C121.021 84.2101 120.732 84.0436 120.372 83.92C120.021 83.7869 119.632 83.6727 119.206 83.5776C118.779 83.4825 118.348 83.3732 117.912 83.2495C117.485 83.1164 117.092 82.95 116.731 82.7502C116.381 82.5505 116.096 82.2842 115.878 81.9514C115.66 81.609 115.551 81.1715 115.551 80.6389C115.551 80.1254 115.684 79.6546 115.949 79.2266C116.224 78.7892 116.641 78.442 117.201 78.1853C117.77 77.919 118.49 77.7858 119.362 77.7858C119.94 77.7858 120.514 77.8619 121.083 78.0141C121.652 78.1662 122.145 78.385 122.562 78.6703L122.092 79.8115C121.666 79.5262 121.216 79.3218 120.742 79.1981C120.268 79.065 119.808 78.9984 119.362 78.9984C118.803 78.9984 118.343 79.0697 117.983 79.2124C117.623 79.355 117.357 79.5452 117.187 79.783C117.025 80.0208 116.945 80.2871 116.945 80.5819C116.945 80.9338 117.054 81.2143 117.272 81.4235C117.499 81.6328 117.789 81.7992 118.139 81.9228C118.5 82.0465 118.893 82.1606 119.32 82.2652C119.746 82.3603 120.173 82.4697 120.599 82.5933C121.035 82.7169 121.429 82.8786 121.78 83.0783C122.14 83.2781 122.429 83.5444 122.647 83.8772C122.865 84.2101 122.974 84.638 122.974 85.1611C122.974 85.6652 122.837 86.1359 122.562 86.5734C122.287 87.0014 121.86 87.3485 121.282 87.6148C120.713 87.8716 119.993 88 119.12 88Z" fill="white"/>
<path d="M126.346 82.2081H131.465V83.4207H126.346V82.2081ZM126.474 86.6447H132.275V87.8858H125.052V77.9H132.076V79.1411H126.474V86.6447Z" fill="white"/>
<path d="M134.578 87.8858V77.9H138.46C139.332 77.9 140.076 78.0379 140.693 78.3137C141.309 78.5895 141.783 78.9889 142.115 79.512C142.446 80.035 142.612 80.658 142.612 81.3807C142.612 82.1035 142.446 82.7265 142.115 83.2495C141.783 83.7631 141.309 84.1578 140.693 84.4336C140.076 84.7094 139.332 84.8473 138.46 84.8473H135.36L136 84.1911V87.8858H134.578ZM141.233 87.8858L138.702 84.2624H140.223L142.783 87.8858H141.233ZM136 84.3337L135.36 83.6347H138.417C139.327 83.6347 140.015 83.4397 140.479 83.0498C140.953 82.6504 141.19 82.094 141.19 81.3807C141.19 80.6675 140.953 80.1159 140.479 79.7259C140.015 79.336 139.327 79.1411 138.417 79.1411H135.36L136 78.4278V84.3337Z" fill="white"/>
<path d="M147.782 87.8858L143.402 77.9H144.938L148.962 87.1155H148.081L152.133 77.9H153.555L149.19 87.8858H147.782Z" fill="white"/>
<path d="M154.825 87.8858V77.9H156.247V87.8858H154.825Z" fill="white"/>
<path d="M163.678 88C162.919 88 162.218 87.8763 161.573 87.6291C160.938 87.3723 160.383 87.0156 159.909 86.5591C159.445 86.0931 159.08 85.551 158.815 84.9329C158.549 84.3147 158.416 83.6347 158.416 82.8929C158.416 82.1511 158.549 81.4711 158.815 80.8529C159.08 80.2347 159.45 79.6974 159.924 79.2409C160.398 78.7749 160.952 78.4183 161.587 78.171C162.232 77.9142 162.934 77.7858 163.692 77.7858C164.46 77.7858 165.166 77.919 165.811 78.1853C166.465 78.442 167.02 78.8272 167.475 79.3408L166.55 80.2395C166.171 79.8401 165.744 79.5452 165.27 79.355C164.796 79.1553 164.289 79.0555 163.749 79.0555C163.19 79.0555 162.668 79.1506 162.185 79.3408C161.711 79.531 161.298 79.7973 160.948 80.1396C160.597 80.482 160.322 80.891 160.123 81.3665C159.933 81.8325 159.838 82.3413 159.838 82.8929C159.838 83.4445 159.933 83.9581 160.123 84.4336C160.322 84.8996 160.597 85.3038 160.948 85.6461C161.298 85.9885 161.711 86.2548 162.185 86.445C162.668 86.6352 163.19 86.7303 163.749 86.7303C164.289 86.7303 164.796 86.6352 165.27 86.445C165.744 86.2453 166.171 85.941 166.55 85.532L167.475 86.4307C167.02 86.9443 166.465 87.3342 165.811 87.6005C165.166 87.8668 164.455 88 163.678 88Z" fill="white"/>
<path d="M170.797 82.2081H175.916V83.4207H170.797V82.2081ZM170.925 86.6447H176.727V87.8858H169.503V77.9H176.528V79.1411H170.925V86.6447Z" fill="white"/>
</svg>
