<svg width="95" height="95" viewBox="0 0 95 95" fill="none" xmlns="http://www.w3.org/2000/svg">
<path d="M94.6146 47.5245C94.7592 73.2544 73.5355 94.4984 47.323 94.4984C21.3948 94.4984 -0.337583 73.5639 0.00397204 46.8611C0.330568 21.4109 21.1953 0.538351 47.3729 0.51607C73.5504 0.493788 94.7792 21.76 94.6146 47.5245ZM47.3081 92.8124C72.2839 92.8347 92.8022 72.841 92.9817 47.834C93.1662 22.3344 72.3687 2.17726 47.343 2.18468C22.2025 2.20201 2.11313 22.2551 1.68432 46.611C1.2231 72.539 22.3496 92.904 47.3081 92.8124Z" fill="white"/>
<path d="M91.0944 47.5245C91.1194 71.4497 71.6258 90.9829 47.2707 90.9854C23.0153 90.9854 3.14284 71.1798 3.56168 46.6952C3.95808 23.5772 22.9356 4.02661 47.3156 4.02661C53.0694 4.01747 58.7684 5.13652 64.0857 7.31956C69.4029 9.50261 74.2338 12.7067 78.3012 16.748C82.3687 20.7893 85.5925 25.5883 87.7879 30.8697C89.9832 36.1511 91.1069 41.8109 91.0944 47.5245ZM71.207 23.0647L71.1721 23.03C71.2323 22.9061 71.3006 22.7862 71.3765 22.6711C72.648 21.0123 73.912 19.3462 75.2009 17.7023C75.4228 17.4201 75.4178 17.232 75.2009 16.9794C74.7945 16.5066 74.3882 16.0337 74.0167 15.5336C73.7674 15.2068 73.6577 15.2465 73.4134 15.5584C71.2327 18.3642 69.0371 21.1609 66.8266 23.9485C66.5548 24.2926 66.6047 24.5278 66.8665 24.8299C67.3651 25.4067 67.8513 25.9959 68.315 26.6025C68.3488 26.6629 68.3951 26.7157 68.4508 26.7573C68.5064 26.799 68.5703 26.8286 68.6381 26.8442C68.706 26.8598 68.7765 26.8611 68.8449 26.8481C68.9133 26.835 68.9783 26.8078 69.0355 26.7683C69.5067 26.543 69.9978 26.3549 70.4865 26.1667C72.102 25.5453 73.6652 24.7878 75.3156 24.2505C75.2927 24.4713 75.1941 24.6776 75.0364 24.8348C73.897 26.4886 72.7602 28.1448 71.6083 29.7862C71.5508 29.8482 71.5065 29.9211 71.478 30.0005C71.4496 30.0799 71.4375 30.1642 71.4426 30.2484C71.4478 30.3325 71.47 30.4148 71.5079 30.4902C71.5458 30.5656 71.5986 30.6327 71.6632 30.6874C72.1244 31.2171 72.5557 31.7742 72.982 32.3337C73.2314 32.6704 73.4807 32.7768 73.9045 32.559C74.7247 32.1307 75.5749 31.7544 76.4101 31.3533C78.7561 30.2293 81.0921 29.0881 83.4506 27.9888C83.9143 27.771 83.8969 27.5977 83.6052 27.2659C83.2212 26.8277 82.8572 26.3772 82.4982 25.9142C82.2763 25.6171 82.0669 25.5949 81.7353 25.7607C80.4888 26.3772 79.2298 26.9689 77.9707 27.5605C77.2228 27.9071 76.4923 28.2414 75.6696 28.6201C75.7667 28.2584 75.9506 27.9254 76.2056 27.6497C77.2826 26.1247 78.3597 24.5971 79.4591 23.087C79.5217 23.0232 79.5705 22.9475 79.6026 22.8644C79.6347 22.7813 79.6495 22.6926 79.646 22.6037C79.6425 22.5147 79.6208 22.4274 79.5822 22.3471C79.5437 22.2667 79.4891 22.195 79.4217 22.1363C78.9713 21.623 78.535 21.0973 78.1129 20.5593C78.0881 20.512 78.0537 20.4703 78.0118 20.437C77.9699 20.4037 77.9214 20.3795 77.8695 20.366C77.8176 20.3525 77.7634 20.3499 77.7104 20.3585C77.6574 20.367 77.6068 20.3865 77.5619 20.4157C76.6993 20.8044 75.8167 21.1832 74.9516 21.5372C73.7001 22.0398 72.5009 22.6686 71.207 23.0647ZM47.2906 75.2201C62.3789 75.3637 75.2657 63.1387 75.2807 47.5518C75.2981 31.9277 62.5659 20.0196 47.874 19.7646C32.0154 19.4873 19.4951 32.2099 19.3754 47.2448C19.2532 62.7946 32.0154 75.3291 47.2906 75.2201ZM43.0225 10.2728L43.1322 10.2505C43.1818 10.3304 43.2268 10.413 43.2668 10.4981C44.0247 12.3548 44.7834 14.2116 45.543 16.0684C45.7923 16.6576 45.8571 17.477 46.3507 17.7593C46.8444 18.0415 47.5973 17.8212 48.248 17.8707C48.6718 17.9029 48.8513 17.7469 48.9785 17.3557C49.4422 15.9471 49.9383 14.5508 50.4295 13.1471C50.7619 12.2129 51.0943 11.2804 51.4267 10.3495L51.5588 10.3768V10.9511C51.5588 13.0381 51.5788 15.1251 51.5588 17.2122C51.5588 17.7618 51.7234 17.9152 52.2469 17.8682C52.7108 17.8335 53.1767 17.8335 53.6406 17.8682C54.022 17.8905 54.1168 17.7296 54.1168 17.3731C54.1068 13.8592 54.1068 10.3471 54.1168 6.83652C54.1168 6.39585 53.9522 6.29187 53.5483 6.30425C52.7605 6.329 51.9727 6.32653 51.1849 6.30425C51.0368 6.28265 50.886 6.31766 50.7629 6.40222C50.6398 6.48677 50.5536 6.61456 50.5217 6.75977C49.704 8.93591 48.8613 11.1046 48.0286 13.2733C47.889 13.6323 47.7344 13.9838 47.5425 14.4468C47.4303 14.1695 47.3704 14.0235 47.3131 13.8774C46.4131 11.5379 45.5031 9.20328 44.6255 6.85385C44.5836 6.6713 44.4723 6.51191 44.3148 6.40902C44.1572 6.30612 43.9658 6.26769 43.7804 6.30177C43.0537 6.3389 42.3256 6.3389 41.5989 6.30177C41.1003 6.27454 40.9856 6.44536 40.9906 6.91327C41.008 10.1044 40.9906 13.2956 40.9906 16.4868C40.9906 17.8682 40.9906 17.8385 42.3867 17.8732C42.9452 17.888 43.0524 17.6999 43.0474 17.1899C43.0075 14.8875 43.0225 12.5801 43.0225 10.2728ZM23.125 20.6286C23.494 19.2719 22.8757 18.3312 21.9956 17.5365C21.0508 16.6947 20.233 16.6353 19.1136 17.2072C18.7378 17.404 18.4001 17.6655 18.1164 17.9796C16.2391 19.9973 14.5213 22.1512 12.7512 24.258C11.9609 25.1987 11.946 25.2483 12.8684 26.0182C15.2817 28.0565 17.7075 30.08 20.1458 32.0886C20.7466 32.5837 20.7541 32.5565 21.2702 31.9351C22.2475 30.7616 23.2447 29.6055 24.217 28.4246C25.2142 27.1991 26.3561 26.0727 27.2087 24.7358C28.2309 23.1563 27.6799 21.3268 25.9846 20.4776C25.0297 19.9973 24.1223 20.1706 23.125 20.6286Z" fill="white"/>
<path d="M24.9646 24.0698C24.9631 23.7779 24.8772 23.4926 24.7173 23.2478C24.5573 23.0029 24.3299 22.8088 24.0621 22.6884C23.7969 22.5572 23.4944 22.5206 23.2053 22.5846C22.9161 22.6486 22.658 22.8094 22.474 23.04C21.3521 24.3248 20.2601 25.6369 19.1532 26.9342C18.9961 27.1199 18.9612 27.2709 19.1681 27.4417C19.7291 27.8997 20.2925 28.3553 20.836 28.8331C21.1128 29.0806 21.2698 28.9643 21.4643 28.734C22.4915 27.4962 23.5311 26.2782 24.5657 25.0502C24.8188 24.7853 24.9613 24.435 24.9646 24.0698ZM19.3975 19.8933C19.2739 19.886 19.1503 19.907 19.0362 19.9546C18.9221 20.0023 18.8205 20.0753 18.7393 20.1681C17.6673 21.4208 16.6077 22.681 15.5457 23.9411C15.4061 24.107 15.3462 24.2555 15.5806 24.4362C16.1066 24.8423 16.6052 25.2805 17.1064 25.7162C17.3557 25.9291 17.4928 25.939 17.7271 25.6518C18.6795 24.4833 19.6693 23.3494 20.6466 22.2007C21.023 21.76 21.2324 21.2896 20.9482 20.7153C20.664 20.1409 20.1903 19.9107 19.3975 19.8933Z" fill="white"/>
<path d="M47.5322 47.5073C38.9592 47.5073 30.3854 47.5122 21.8108 47.5221C21.3122 47.5221 21.1676 47.3835 21.1776 46.8784C21.2632 40.9043 23.4816 35.1543 27.4378 30.6528C31.5589 25.8672 36.8093 23.0128 43.0271 21.8814C44.336 21.6338 45.6723 21.6189 46.9961 21.4976C47.3551 21.463 47.5471 21.5422 47.5446 21.9754C47.5297 30.4902 47.523 39.0041 47.5247 47.5172L47.5322 47.5073Z" fill="white"/>
<path d="M47.5248 47.5073C55.9731 47.5073 64.423 47.5015 72.8746 47.49C73.3982 47.49 73.5179 47.6534 73.5029 48.1411C73.3209 53.6718 71.6206 58.69 68.2524 63.1042C64.1164 68.5284 58.649 71.883 51.9052 73.1208C50.6586 73.3511 49.3822 73.3684 48.1207 73.5219C47.622 73.5764 47.5198 73.3734 47.5198 72.9129C47.5348 64.4411 47.5348 55.9692 47.5198 47.4974L47.5248 47.5073Z" fill="white"/>
<path d="M75.3156 24.2519L75.3664 24.2061C75.3664 24.2061 75.3664 24.2316 75.3664 24.2366C75.3529 24.2435 75.3383 24.2478 75.3232 24.2494L75.3156 24.2519Z" fill="white"/>
<path d="M24.9671 24.0699C24.9642 24.4385 24.8208 24.7923 24.5658 25.0601C23.5311 26.298 22.4915 27.5111 21.4643 28.744C21.2699 28.9742 21.1128 29.0856 20.8361 28.843C20.2926 28.3652 19.7291 27.9097 19.1682 27.4516C18.9613 27.2808 18.9962 27.1298 19.1532 26.9441C20.2602 25.6469 21.3521 24.3348 22.474 23.0499C22.658 22.8193 22.9162 22.6585 23.2053 22.5945C23.4945 22.5305 23.797 22.5672 24.0621 22.6983C24.3285 22.8181 24.555 23.0107 24.7153 23.2535C24.8755 23.4964 24.9629 23.7795 24.9671 24.0699Z" fill="white"/>
<path d="M19.3975 19.8933C20.1903 19.9107 20.6665 20.1409 20.9482 20.7153C21.2299 21.2896 21.023 21.76 20.6466 22.2007C19.6693 23.3494 18.6795 24.4833 17.7271 25.6518C17.4928 25.939 17.3507 25.9291 17.1064 25.7162C16.6077 25.2805 16.1091 24.8423 15.5806 24.4362C15.3462 24.2555 15.4061 24.107 15.5457 23.9411C16.6077 22.681 17.6673 21.4208 18.7393 20.1681C18.8205 20.0753 18.9221 20.0023 19.0362 19.9546C19.1503 19.907 19.2739 19.886 19.3975 19.8933Z" fill="white"/>
</svg>
