<svg width="95" height="95" viewBox="0 0 95 95" fill="none" xmlns="http://www.w3.org/2000/svg">
<path d="M48.1588 94.5345H47.01C46.8529 94.5197 46.6958 94.4949 46.5362 94.4924C43.9387 94.4382 41.3504 94.1619 38.799 93.6665C34.7508 92.8943 30.8235 91.5772 27.1219 89.7503C20.9917 86.7523 15.6017 82.4087 11.3454 77.0369C4.96319 69.0011 1.53068 59.8244 1.04791 49.5069C0.871758 45.6739 1.17028 41.8338 1.93653 38.0757C3.07096 32.3974 5.24821 26.984 8.3556 22.1157C15.6706 10.6077 27.7773 2.64383 41.4378 0.885383C43.3663 0.631837 45.3083 0.496831 47.253 0.481112C49.5331 0.463951 51.8114 0.614817 54.0697 0.932507C56.8541 1.32146 59.597 1.96906 62.2636 2.86705C69.7272 5.34005 76.4294 9.7244 81.7172 15.5929C89.5723 24.2752 93.6823 34.5084 94.0472 46.2925C94.0472 46.5406 94.0767 46.7712 94.0938 47.0118V47.9319C94.0938 48.0336 94.0668 48.1353 94.0595 48.2395C93.9539 49.8541 93.8999 51.4637 93.733 53.0808C93.4658 55.5598 92.9811 58.0099 92.2847 60.4023C89.6901 69.4277 84.9034 77.0567 77.8314 83.1555C69.4608 90.3703 59.7352 94.1352 48.7258 94.4924C48.527 94.4949 48.3478 94.5197 48.1588 94.5345ZM46.3349 5.1761C45.3531 4.99753 39.9281 5.73414 36.9947 6.49555C31.5824 7.89342 26.5097 10.3933 22.0873 13.8419C17.3327 17.49 13.4155 22.1341 10.6041 27.4556C6.18564 35.8386 4.72754 44.7474 6.14636 54.1274C6.86883 58.8632 8.40045 63.4361 10.6729 67.6419L10.9478 67.4262L34.0712 49.1745L40.8585 43.8223C40.9276 43.7823 40.986 43.726 41.0288 43.6582C41.0715 43.5904 41.0973 43.513 41.1039 43.4329C41.1211 43.1526 41.1776 42.8749 41.2144 42.5946C41.4157 41.1462 41.6145 39.6961 41.8109 38.2444L42.4074 33.8941C42.607 32.4358 42.8075 30.9783 43.0088 29.5216C43.2101 28.0649 43.4106 26.6065 43.6102 25.1465C43.8082 23.6964 44.0062 22.2464 44.2042 20.7963L44.8007 16.446C45.0004 14.9877 45.2 13.5293 45.3997 12.071C45.5993 10.6127 45.7998 9.15513 46.0011 7.69844C46.1066 6.86262 46.2196 6.0268 46.3349 5.1761ZM48.8314 5.14137C48.932 5.88543 49.0229 6.59228 49.121 7.2917C49.4156 9.41721 49.7175 11.5452 50.0096 13.6707C50.2748 15.5755 50.53 17.4803 50.7951 19.3751C51.1224 21.7313 51.4497 24.0891 51.777 26.4486C52.1665 29.2694 52.5544 32.0894 52.9406 34.9085C53.3235 37.6731 53.7056 40.4377 54.0869 43.2022C54.094 43.3358 54.1294 43.4664 54.1909 43.5849C54.2523 43.7034 54.3382 43.8072 54.4429 43.8892C64.3517 51.6919 74.2581 59.4995 84.1621 67.3121C84.248 67.3815 84.3388 67.446 84.4272 67.5154C90.402 56.8234 92.135 40.3302 83.541 25.8137C79.2661 18.4744 72.8733 12.6305 65.219 9.06502C60.0764 6.64767 54.5008 5.31271 48.8314 5.14137ZM83.0918 69.8741C83.0108 69.8344 82.947 69.8022 82.8832 69.7774L66.7115 63.1479C60.3914 60.5618 54.0714 57.975 47.7513 55.3874C47.669 55.3505 47.5799 55.3315 47.4899 55.3315C47.3998 55.3315 47.3108 55.3505 47.2284 55.3874C43.9686 56.7432 40.7071 58.0957 37.444 59.4449C29.0636 62.9172 20.684 66.3895 12.3052 69.8617C12.2291 69.8915 12.1555 69.9311 12.077 69.9659C15.8843 76.1239 21.197 81.1877 27.5033 84.6693C33.8096 88.151 40.8969 89.9333 48.0827 89.8445C63.0834 89.6659 76.1352 81.3797 83.0918 69.8691V69.8741Z" fill="white"/>
</svg>
