<svg width="96" height="95" viewBox="0 0 96 95" fill="none" xmlns="http://www.w3.org/2000/svg">
<path d="M48.0508 0.270452C54.3042 0.26741 60.4967 1.48979 66.2735 3.86753C72.0503 6.24528 77.2978 9.73165 81.7153 14.1269C86.1329 18.5221 89.6335 23.7397 92.0168 29.4808C94.4 35.2219 95.6189 41.3736 95.6037 47.5833C95.6037 73.7779 74.1489 94.7352 48.0334 94.7438C41.7091 94.7432 35.4484 93.49 29.6177 91.0576C23.787 88.6253 18.5033 85.0626 14.0759 80.5781C9.64846 76.0935 6.16617 70.7772 3.83274 64.9401C1.49932 59.1031 0.361649 52.8625 0.486289 46.5835C0.928924 21.1733 21.8254 0.319291 48.0508 0.270452ZM91.348 47.6034C91.3598 41.9508 90.2492 36.3513 88.0798 31.1253C85.9104 25.8992 82.7247 21.1492 78.705 17.1468C74.6852 13.1445 69.9103 9.96837 64.6533 7.80015C59.3964 5.63193 53.7605 4.51415 48.0681 4.51077C24.1977 4.51077 5.19905 23.552 4.75063 46.5634C4.62479 52.2833 5.6493 57.9707 7.76417 63.2925C9.87905 68.6144 13.0418 73.4638 17.0673 77.557C21.0927 81.6501 25.9001 84.9047 31.2078 87.1302C36.5155 89.3557 42.217 90.5074 47.9784 90.5179C71.8634 90.5466 91.3104 71.3187 91.348 47.6034Z" fill="white"/>
<path d="M59.6837 61.8153C57.7067 57.4505 55.7269 53.0828 53.7442 48.7122H42.3601L36.4207 61.8153H36.36C36.36 61.8153 36.3339 61.8153 36.3281 61.798C36.3224 61.7808 36.2732 61.709 36.2529 61.663C31.1207 50.3632 25.9875 39.0633 20.8533 27.7635C23.3281 24.3974 26.4174 21.5227 29.9606 19.2886C34.0938 28.3974 38.226 37.4938 42.3572 46.5777H53.7847L66.1438 19.2685C69.697 21.5134 72.7942 24.4008 75.2742 27.7807L59.7762 61.8325L59.6837 61.8153Z" fill="white"/>
<path d="M32.946 77.4178C18.637 70.3736 11.3813 54.1219 15.4692 38.9907H15.5097C15.5218 38.9929 15.533 38.9989 15.5415 39.0079C21.3276 51.7442 27.1136 64.4804 32.8997 77.2167C32.9196 77.2826 32.9351 77.3498 32.946 77.4178Z" fill="white"/>
<path d="M63.115 77.4263C68.9676 64.5674 74.7768 51.7919 80.615 38.9675C84.5351 53.01 78.3237 69.8764 63.115 77.4263Z" fill="white"/>
<path d="M57.5259 15.373C54.3667 22.3224 51.2307 29.2172 48.0917 36.135C47.8718 35.8736 38.9584 16.3727 38.5939 15.373C44.7773 13.5932 51.3425 13.5932 57.5259 15.373Z" fill="white"/>
<path d="M57.3433 79.6958C51.2565 81.4067 44.8102 81.4007 38.7266 79.6786L48.0017 59.2613H48.0625C48.0625 59.2613 48.0914 59.2613 48.0943 59.2785L57.271 79.4746C57.2942 79.5321 57.3086 79.5924 57.3433 79.6958Z" fill="white"/>
</svg>
