<svg width="99" height="96" viewBox="0 0 99 96" fill="none" xmlns="http://www.w3.org/2000/svg">
<g clip-path="url(#clip0_1_934)">
<path d="M2.48513 35.5514L3.48894 35.5091C8.44273 19.246 18.7267 7.91547 35.0035 2.4629C50.8962 -2.86032 67.1428 0.838569 78.9802 9.80844C78.6063 10.1965 78.2274 10.5821 77.8685 10.9626C76.8396 12.0124 75.809 13.0654 74.7768 14.1217C74.1544 14.7536 74.0842 15.2063 74.4932 16.1316C77.7188 12.8813 80.9393 9.64095 84.1548 6.41054C87.8052 9.28088 90.9987 12.6796 93.6283 16.4923C92.3735 17.7609 91.1564 19.0271 89.8991 20.2584C89.5352 20.6141 89.5227 20.8778 89.7987 21.2782C91.3319 23.4587 92.6289 25.7933 93.6684 28.2432C94.5016 30.2332 95.1741 32.2878 95.927 34.3152C95.9835 34.4848 96.0263 34.6587 96.055 34.835C96.1604 35.3773 96.3059 35.8474 97.0588 35.733C97.1893 35.7131 97.4728 36.0216 97.513 36.2131C97.8618 37.8822 98.2383 39.5513 98.4792 41.2353C98.8755 44.1723 98.9889 47.14 98.8179 50.0983C98.7138 52.7857 98.3363 55.4559 97.6912 58.0682C97.5005 58.8144 97.3147 59.5432 97.1717 60.287C97.0939 60.69 96.9032 60.8616 96.5117 60.7845C96.0098 60.6949 95.8341 60.9661 95.7187 61.379C94.8328 64.553 93.4802 67.5305 91.8967 70.416C89.8129 74.2519 87.1676 77.7608 84.0469 80.8287C82.2719 82.5935 80.3661 84.224 78.3453 85.7066C76.1147 87.3084 73.7659 88.7419 71.3187 89.995C67.0315 92.1422 62.4376 93.6254 57.697 94.3929C53.9066 95.0284 50.049 95.173 46.221 94.8232C44.0841 94.6345 41.9583 94.3382 39.8518 93.9352C36.7095 93.2927 33.6467 92.3144 30.7172 91.0174C21.521 87.0244 13.8219 80.2699 8.70622 71.707C6.98759 68.7777 5.55887 65.6905 4.44004 62.4884C4.29336 62.1379 4.18566 61.7726 4.11883 61.3989C4.03853 60.7696 3.68469 60.6104 3.11503 60.6925C3.01266 60.6857 2.91152 60.6664 2.81388 60.6352C0.452425 52.342 0.419802 43.994 2.48513 35.5514ZM85.249 60.7944C82.6968 60.7944 80.2576 60.7944 77.8183 60.8094C77.727 60.8254 77.6404 60.8615 77.5649 60.9148C77.4894 60.9682 77.4268 61.0375 77.3817 61.1178C76.2776 63.2954 74.9153 65.3346 73.3238 67.1923C69.9816 71.1218 65.6776 74.135 60.8239 75.9432C59.8201 76.3139 58.8539 76.6124 58.2115 77.6074C56.0733 80.9306 52.8938 82.6669 49.0316 83.2639C45.8069 83.7614 42.6299 83.3783 39.5256 82.5177C37.78 82.0312 36.0731 81.4176 34.4187 80.6819C32.6301 79.9056 30.9014 79.0002 29.2466 77.973C26.0638 75.9516 23.2429 73.4186 20.9 70.4782C18.6541 67.6866 16.8423 64.5777 15.5246 61.2546C15.3564 60.8342 15.1707 60.7074 14.7466 60.7074C11.5344 60.7074 8.32227 60.7074 5.10758 60.7074C4.97767 60.7306 4.85121 60.7699 4.73115 60.8243C5.19291 62.1252 5.54925 63.4262 6.10888 64.6376C7.18044 66.9485 8.28964 69.2519 9.52684 71.4782C11.0075 74.1423 12.9046 76.5278 14.9499 78.7964C16.83 80.8634 18.8926 82.7598 21.1133 84.4629C23.7571 86.5221 26.6299 88.2747 29.6757 89.6866C31.4721 90.4975 33.3098 91.2148 35.1816 91.8358C36.8181 92.4008 38.4885 92.8643 40.1831 93.2238C42.0018 93.62 43.8469 93.886 45.704 94.0198C47.9626 94.1566 50.2362 94.48 52.4647 93.771C53.9177 93.3034 55.4058 92.9377 56.7309 92.1119C57.7547 91.4651 57.82 90.8109 56.8764 90.0547C56.5542 89.783 56.1909 89.563 55.7998 89.403C53.1924 88.4578 50.575 87.5424 47.9576 86.622C45.5961 85.7887 43.2271 84.9703 40.8682 84.1345C40.483 83.9712 40.1076 83.786 39.7439 83.5798C49.1345 85.6842 58.1688 84.7216 66.7463 80.4879C75.3239 76.2542 81.4822 69.6972 85.249 60.7944ZM4.44255 35.4221C4.56301 35.4743 4.61572 35.5191 4.66842 35.5191C8.00607 35.5191 11.3412 35.534 14.6789 35.5191C14.7688 35.4998 14.853 35.4598 14.9244 35.4023C14.9959 35.3448 15.0528 35.2715 15.0904 35.1883C15.9471 32.7331 17.0855 30.3836 18.4833 28.186C20.5215 24.9337 23.0619 22.0185 26.0119 19.5469C28.16 17.7535 30.4361 16.1341 32.9833 14.9625C35.0612 13.9904 37.1897 13.1285 39.36 12.3805C40.6775 11.9352 42.1204 11.7885 43.5007 11.6069C44.1066 11.5698 44.7145 11.632 45.3 11.791C46.6526 12.0795 48.0379 12.3084 49.3353 12.7661C51.9502 13.6914 54.2188 15.1615 55.9153 17.4052C56.091 17.6196 56.3324 17.7715 56.6029 17.838C58.724 18.3259 60.7905 19.0234 62.7712 19.9201C65.395 21.1225 67.8335 22.6878 70.0137 24.5692C71.9012 26.1322 73.5533 27.9549 74.9198 29.982C76.1118 31.8127 77.1985 33.7132 78.3679 35.641H85.8964C81.8335 24.7334 74.6362 16.8928 63.7274 12.6516C52.7357 8.37316 42.0025 9.31592 31.5604 14.6192C31.6916 14.456 31.8406 14.3075 32.0046 14.1765C34.8428 11.9377 37.7062 9.74874 40.5169 7.48513C41.7295 6.50737 42.881 5.45737 43.9649 4.34095C44.6023 3.68674 44.2836 2.99024 43.3627 2.84846C41.1041 2.48528 38.8631 2.68677 36.6271 2.94049C34.4589 3.18924 32.4964 4.14195 30.5315 5.01257C27.5529 6.29188 24.7439 7.92842 22.1673 9.88555C20.2927 11.3457 18.403 12.8258 16.7367 14.4998C14.98 16.2585 13.4116 18.2311 11.8481 20.1663C10.1329 22.3379 8.69098 24.7085 7.55436 27.2258C6.73375 28.9969 6.00348 30.8103 5.2958 32.6286C4.93944 33.5241 4.7186 34.4818 4.44004 35.4146L4.44255 35.4221ZM22.8047 35.5813H77.0353C73.6701 27.186 64.0636 18.6788 51.368 18.0893C37.8543 17.4525 26.9454 25.7955 22.8022 35.5738L22.8047 35.5813ZM76.4782 60.986L76.3904 60.777H23.4095C29.7786 71.3787 38.8029 77.4705 51.3479 76.9457C62.6784 76.4731 70.9723 70.7096 76.4782 60.986ZM27.904 44.7029V42.6632H21.5349C19.9614 42.6632 19.9689 42.6632 20.0141 44.193C20.0141 44.5512 20.1546 44.7128 20.516 44.7054C20.9978 44.7054 21.4797 44.7054 22.1447 44.7054L18.9275 50.4962L15.4744 44.7054H16.5409C18.0466 44.7054 17.876 44.8795 17.9086 43.3398C17.9086 42.8074 17.7355 42.6532 17.2035 42.6557C13.8884 42.6781 10.5733 42.6557 7.25824 42.6681C7.06501 42.6681 6.87178 42.6831 6.63337 42.6955C6.63337 43.2726 6.63337 43.7726 6.63337 44.275C6.63337 44.6258 6.799 44.7203 7.13528 44.7104C7.66352 44.6805 8.19303 44.6805 8.72128 44.7104C8.8318 44.7224 8.93875 44.7563 9.03576 44.8101C9.13277 44.864 9.21785 44.9366 9.28592 45.0238C9.81793 45.867 10.3098 46.7352 10.8092 47.6008C11.9184 49.5212 13.0126 51.4514 14.1418 53.3618C14.2091 53.4718 14.2995 53.5661 14.4069 53.6382C14.5144 53.7103 14.6362 53.7586 14.7642 53.7797C16.5736 53.8145 18.3854 53.8071 20.1948 53.7797C20.2976 53.7718 20.3976 53.7419 20.4877 53.6921C20.5778 53.6423 20.6559 53.5737 20.7168 53.4912C21.427 52.2474 22.107 50.9813 22.7921 49.7226C23.6052 48.2301 24.415 46.7377 25.2213 45.2452C25.4397 44.8447 25.7233 44.6208 26.2252 44.673C26.7271 44.7253 27.2992 44.7029 27.904 44.7029ZM67.971 50.5012C66.8216 48.566 65.7124 46.7003 64.5329 44.7029C65.2858 44.7029 65.868 44.7203 66.4301 44.6905C66.5882 44.6905 66.8618 44.5337 66.8693 44.4417C66.9119 43.8696 66.8919 43.2925 66.8919 42.7005H55.717C55.717 43.2776 55.6894 43.8198 55.7371 44.3546C55.7371 44.4815 56.0031 44.673 56.1587 44.6855C56.6444 44.7315 57.1335 44.7315 57.6192 44.6855C57.788 44.6587 57.961 44.6897 58.1097 44.7733C58.2584 44.857 58.3739 44.9883 58.4373 45.1457C59.0095 46.1531 59.5817 47.1605 60.1639 48.163C61.1953 49.9415 62.2267 51.7226 63.2782 53.4887C63.3349 53.5716 63.4092 53.6413 63.4959 53.6929C63.5826 53.7444 63.6796 53.7766 63.7801 53.7872C65.612 53.8071 67.4423 53.8071 69.2709 53.7872C69.3621 53.7798 69.4506 53.7526 69.5299 53.7074C69.6093 53.6623 69.6777 53.6003 69.7301 53.526C70.3023 52.531 70.8469 51.536 71.3914 50.541C72.3752 48.7351 73.3547 46.925 74.3301 45.1108C74.3904 44.9645 74.4987 44.8426 74.6377 44.7649C74.7766 44.6872 74.9379 44.6584 75.0955 44.683C75.5825 44.7191 76.0715 44.7191 76.5585 44.683C76.7191 44.683 76.9902 44.5213 76.9977 44.4193C77.0404 43.8472 77.0178 43.2701 77.0178 42.6557H70.6311C68.9823 42.6557 68.9898 42.6557 69.0902 44.2775C69.1103 44.591 69.2157 44.7079 69.5269 44.6979C70.0288 44.683 70.5307 44.6979 71.0326 44.6979C71.0326 44.8571 71.0552 44.9268 71.0326 44.9715C70.0288 46.7849 69.03 48.5883 67.971 50.5012ZM83.7483 53.8121C85.7223 53.8908 87.6659 53.3119 89.2692 52.1678C92.1 50.1604 92.3409 46.867 89.6482 44.6382C88.2428 43.4741 86.574 42.897 84.7672 42.7204C82.3028 42.4716 79.9991 42.9268 77.9639 44.3671C75.1632 46.3571 74.8922 49.6853 77.6477 51.8967C79.3843 53.2922 81.4019 53.8544 83.7483 53.8121ZM34.5392 53.9514C35.5104 53.7872 36.4916 53.6703 37.4502 53.4539C38.9931 53.1056 40.377 52.2628 41.3877 51.0559C41.9988 50.3184 42.3483 49.4021 42.3823 48.4483C42.4163 47.4944 42.133 46.556 41.5759 45.7775C40.5068 44.3546 39.0664 43.5387 37.4076 43.091C34.3962 42.2726 31.5303 42.6184 28.8928 44.3671C27.8363 45.0661 27.0408 46.0262 26.7572 47.2277C26.3255 49.056 26.9604 50.6256 28.4059 51.8271C30.1676 53.2872 32.2304 53.9215 34.5392 53.9514ZM42.9335 44.7029C43.5132 44.7029 44.0578 44.7253 44.5998 44.7029C45.1419 44.6805 45.4054 44.8546 45.3954 45.4491C45.3652 47.3819 45.3703 49.3172 45.3954 51.2524C45.3954 51.7101 45.2448 51.8619 44.8056 51.847C44.1833 51.8246 43.5509 51.847 42.9436 51.847V53.7748H58.5427V48.5859H56.5351C56.3594 49.9614 55.8023 51.0311 54.4823 51.5858C53.4459 52.0236 52.3643 51.8146 51.3003 51.7947C51.2024 51.7947 51.0267 51.4813 51.0242 51.3121C51.0016 49.9216 51.0242 48.5311 51.0242 47.1406V44.7029C51.6742 44.7029 52.2614 44.7303 52.8411 44.6855C53.0117 44.673 53.2978 44.4716 53.3129 44.3347C53.3483 43.7891 53.3558 43.2419 53.3355 42.6955H42.9335V44.7029Z" fill="white"/>
<path d="M98.8156 23.5937C93.912 13.7855 87.0535 5.98975 77.309 0.863037H98.8156V23.5937Z" fill="white"/>
<path d="M81.1285 48.2297C81.2852 48.9877 81.4888 49.7354 81.7383 50.4685C82.0168 51.17 82.4409 51.8167 83.3494 51.8888C84.2578 51.961 85.0358 51.7247 85.5176 50.8938C85.6762 50.6386 85.8034 50.3656 85.8966 50.0804C86.3558 48.5233 86.3985 46.9711 85.4674 45.5657C84.6267 44.3045 82.9805 44.2945 82.0294 45.4836C81.4045 46.2721 81.2414 47.2049 81.1285 48.2297Z" fill="#B2B2B2"/>
<path d="M81.1285 48.2298C81.2339 47.2099 81.397 46.2721 82.0294 45.4761C82.9805 44.2871 84.6267 44.2971 85.4674 45.5582C86.406 46.9636 86.3558 48.5158 85.8966 50.073C85.8034 50.3581 85.6762 50.6312 85.5176 50.8864C85.0358 51.7197 84.2629 51.956 83.3494 51.8814C82.4359 51.8068 82.0168 51.1625 81.7383 50.461C81.4891 49.7304 81.2855 48.9852 81.1285 48.2298Z" fill="white"/>
<path d="M34.5067 52.1525C35.9634 52.1525 37.1442 50.423 37.1442 48.2895C37.1442 46.1559 35.9634 44.4264 34.5067 44.4264C33.0501 44.4264 31.8692 46.1559 31.8692 48.2895C31.8692 50.423 33.0501 52.1525 34.5067 52.1525Z" fill="white"/>
</g>
<defs>
<clipPath id="clip0_1_934">
<rect width="97.8937" height="95.0145" fill="white" transform="translate(0.987122 -6.10352e-05)"/>
</clipPath>
</defs>
</svg>
