<svg width="105" height="69" viewBox="0 0 105 69" fill="none" xmlns="http://www.w3.org/2000/svg">
<path d="M52.5618 68.0982C50.5095 68.0054 48.4547 67.9428 46.4074 67.8075C43.7551 67.6215 41.1155 67.2868 38.5013 66.8051C34.0721 66.0277 29.7299 64.8233 25.5363 63.2091C20.7679 61.3547 16.2872 58.9766 12.2407 55.8392C8.95906 53.2957 6.11161 50.3563 3.92302 46.8179C2.29303 44.2325 1.16938 41.3647 0.611103 38.3655C0.273197 36.4974 0.181547 34.5936 0.338472 32.7021C0.709548 28.1914 2.37813 24.182 4.98324 20.5258C6.91745 17.8507 9.22312 15.4606 11.8317 13.4266C15.3016 10.7072 19.1145 8.44945 23.1735 6.71072C26.7663 5.15349 30.4919 3.91735 34.3058 3.01699C36.4616 2.50077 38.6367 2.08312 40.8312 1.76403C43.2125 1.41655 45.6039 1.17682 48.0054 1.04484C50.9361 0.88029 53.8737 0.873597 56.8052 1.02479C62.7053 1.30688 68.5515 2.2775 74.223 3.91662C78.3072 5.09423 82.2571 6.68987 86.0091 8.67786C89.5888 10.55 92.8999 12.8896 95.854 15.6343C98.555 18.1828 100.827 21.0546 102.468 24.405C103.666 26.8027 104.434 29.3889 104.74 32.048C105.172 35.9301 104.572 39.857 103 43.4374C101.486 46.9457 99.2694 49.9729 96.5658 52.6617C93.7322 55.441 90.5306 57.8243 87.0491 59.7459C84.0941 61.4003 80.9993 62.7955 77.8 63.9158C74.0335 65.2434 70.1597 66.2494 66.2209 66.9229C63.9944 67.3055 61.7545 67.5928 59.5011 67.7849C57.1989 67.9804 54.8926 68.0764 52.582 68.0731L52.5618 68.0982ZM13.7477 17.6841C13.725 17.7092 13.6871 17.7443 13.6543 17.7844C12.2464 19.4735 11.048 21.3245 10.0849 23.2974C8.13586 27.2239 7.3865 31.6307 7.92913 35.9748C8.26478 38.6024 9.05561 41.1526 10.2667 43.5126C11.8381 46.5602 13.9356 49.3107 16.4639 51.6393C19.9399 54.9095 23.9359 57.4029 28.2853 59.355C31.8955 60.9618 35.6703 62.1759 39.5438 62.9761C42.2558 63.5415 45.0023 63.93 47.7655 64.1388C48.0483 64.1614 48.331 64.1714 48.6617 64.1889C48.5986 64.1313 48.5758 64.1087 48.5506 64.0887C47.5102 63.2685 46.6034 62.2939 45.8622 61.1994C44.3829 59.0894 43.3379 56.7664 42.5124 54.3457C40.9978 49.9528 40.2405 45.4146 39.8795 40.8012C39.7155 38.6511 39.67 36.496 39.7054 34.341V34.1179C39.6347 34.1004 39.5817 34.0854 39.5287 34.0753C38.0822 33.8247 36.6307 33.5741 35.1944 33.286C31.7423 32.5923 28.3676 31.5615 25.1198 30.2087C22.9216 29.3085 20.8374 28.1554 18.91 26.7731C17.413 25.6705 16.0726 24.4175 15.0755 22.8413C14.2321 21.577 13.7754 20.0975 13.7603 18.5812C13.7502 18.283 13.7477 17.9848 13.7477 17.6841ZM65.4358 34.1129C65.4358 34.2031 65.4358 34.2708 65.4358 34.3384C65.5101 38.1677 65.2568 41.9963 64.6785 45.783C64.3127 48.2083 63.7745 50.605 63.068 52.9549C62.3604 55.3913 61.3603 57.7345 60.0893 59.9339C59.1427 61.5226 58.0345 62.9811 56.5552 64.1238C56.5351 64.1363 56.5275 64.1614 56.5073 64.1914C56.6083 64.1914 56.689 64.1914 56.7723 64.1914C59.1846 64.0321 61.5857 63.7367 63.9641 63.3068C68.3317 62.5308 72.5896 61.2368 76.6464 59.4527C80.708 57.698 84.4724 55.3313 87.8064 52.4362C90.4127 50.1824 92.6157 47.5067 94.3217 44.5225C96.1057 41.4208 97.1385 37.9497 97.3383 34.3836C97.474 31.8597 97.1691 29.3316 96.4371 26.9109C95.4068 23.5711 93.7124 20.4703 91.4541 17.7919C91.4124 17.7463 91.3677 17.7036 91.3203 17.6641C91.338 17.8796 91.3556 18.055 91.3657 18.2304C91.4304 19.76 91.0359 21.2741 90.2323 22.5807C89.3114 24.075 88.112 25.3814 86.6982 26.4298C84.5811 28.0309 82.2552 29.3401 79.7841 30.3215C75.8108 31.9779 71.6659 33.0479 67.4326 33.7997C66.7788 33.8974 66.1149 34.0052 65.4358 34.1129ZM64.7214 25.7356C64.7693 25.7389 64.8174 25.7389 64.8653 25.7356C65.6226 25.6028 66.3799 25.485 67.1372 25.3322C69.364 24.9186 71.5575 24.3449 73.7005 23.6156C75.6815 22.9666 77.57 22.0671 79.3196 20.9393C80.3576 20.2906 81.2573 19.446 81.9677 18.4534C82.5888 17.6065 82.8713 16.5608 82.7603 15.519C82.6455 14.6838 82.3053 13.895 81.7758 13.2361C80.9209 12.1713 79.8676 11.2797 78.6734 10.6099C76.6355 9.43522 74.4578 8.51765 72.1909 7.87847C68.9432 6.92459 65.6178 6.2538 62.2527 5.87374C59.7855 5.58305 57.3125 5.41014 54.8337 5.35501C50.2708 5.22552 45.705 5.477 41.1846 6.10679C38.3954 6.48884 35.6393 7.08026 32.9402 7.87597C30.6683 8.56509 28.4342 9.40959 26.3769 10.65C25.2051 11.3164 24.1719 12.1983 23.3326 13.2487C22.0225 14.9727 22.0022 16.8747 23.2745 18.6188C23.9044 19.4561 24.6725 20.1813 25.5464 20.7639C27.3917 22.0419 29.4389 22.914 31.5543 23.6382C33.9332 24.4354 36.3694 25.0527 38.842 25.485C39.3469 25.5778 39.8694 25.658 40.3895 25.7356C40.4071 25.6705 40.4248 25.6279 40.4324 25.5828C40.5056 25.1518 40.5712 24.7207 40.6469 24.2922C41.0969 21.6506 41.7725 19.0518 42.6664 16.5239C43.4321 14.2865 44.4932 12.1596 45.8218 10.199C46.7533 8.8658 47.8236 7.66296 49.2246 6.79341C50.8831 5.76348 52.6451 5.46277 54.5257 6.12182C55.7635 6.59176 56.8728 7.34368 57.7644 8.31701C59.0359 9.66012 60.0908 11.19 60.892 12.8527C62.6793 16.4036 63.7319 20.1875 64.4463 24.0767C64.5372 24.618 64.623 25.1618 64.7214 25.7356ZM44.4839 34.6742C44.5899 36.0851 44.6707 37.4533 44.7995 38.8165C44.9962 40.8793 45.3703 42.9215 45.9177 44.9209C46.383 46.7239 47.0768 48.461 47.9826 50.0906C48.5332 51.1169 49.2831 52.0248 50.1889 52.762C50.7793 53.2498 51.5024 53.5525 52.2664 53.6315C53.1814 53.6968 54.0877 53.4187 54.8059 52.8522C55.6867 52.1713 56.4229 51.3238 56.9718 50.3588C57.8692 48.8262 58.5625 47.1845 59.0341 45.4747C60.0125 41.9918 60.5318 38.3976 60.579 34.782C60.5743 34.748 60.5667 34.7145 60.5563 34.6818C55.2086 35.1391 49.8311 35.1366 44.4839 34.6742ZM60.0464 26.302C60.0464 26.2017 60.0313 26.1266 60.0161 26.0514C59.7637 24.8936 59.5643 23.7259 59.274 22.5782C58.7963 20.5385 58.0117 18.582 56.9465 16.7745C56.3916 15.7966 55.6387 14.9434 54.7352 14.2686C53.8163 13.6245 52.8167 13.3439 51.706 13.6371C50.8513 13.8891 50.085 14.3745 49.4947 15.0379C48.3865 16.1906 47.6494 17.5714 47.0335 19.0223C46.2719 20.8626 45.7051 22.7766 45.3422 24.7333C45.2412 25.2345 45.1554 25.7607 45.0569 26.297C50.0453 26.7359 55.0628 26.7376 60.0514 26.302H60.0464Z" fill="white"/>
</svg>
