<svg width="106" height="55" viewBox="0 0 106 55" fill="none" xmlns="http://www.w3.org/2000/svg">
<path d="M66.8026 54.8521L53.214 15.4371L52.9318 15.4033L39.4373 54.8599C32.7292 53.9834 26.2119 52.696 19.9167 50.4385C14.7818 48.618 10.0075 46.155 6.27585 42.0666C1.99806 37.3852 -0.361657 31.9755 0.401396 25.5386C0.861318 21.653 2.70362 18.3526 5.31681 15.4787C10.2009 10.1107 16.4412 6.93511 23.212 4.63601C34.8119 0.69842 46.7803 -0.261273 58.9291 0.303099C67.8584 0.719225 76.5995 2.19648 84.9826 5.37724C90.6323 7.52029 95.8639 10.3734 100.095 14.7895C107.451 22.467 107.741 32.6699 100.913 40.8364C96.8334 45.7155 91.5051 48.6388 85.6072 50.6596C79.555 52.7584 73.3016 54.012 66.8026 54.8521ZM53.0337 8.98453C53.295 9.28363 53.4257 9.42667 53.5433 9.58271C60.4996 18.9013 67.4768 28.2044 74.3757 37.5646C75.2197 38.7064 75.9697 39.1017 77.3991 38.826C82.6072 37.8195 87.52 36.1836 91.7403 32.865C96.7263 28.9378 97.667 23.8246 94.3404 18.4046C92.3649 15.1926 89.506 12.8805 86.297 10.9871C78.1961 6.20169 69.2355 4.22509 59.9848 3.50727C48.9545 2.66462 38.0915 3.64511 27.6256 7.49688C22.3313 9.44487 17.3793 11.9988 13.4883 16.2017C8.65386 21.4241 8.15474 27.8377 14.1677 32.7271C18.7225 36.4333 24.0978 38.2122 29.8599 38.969C30.231 39.0185 30.8059 38.6465 31.062 38.3058C35.9225 31.8645 40.7622 25.4085 45.5809 18.9378C48.0399 15.6686 50.4963 12.3812 53.0337 8.98453Z" fill="white"/>
</svg>
