<svg width="73" height="91" viewBox="0 0 73 91" fill="none" xmlns="http://www.w3.org/2000/svg">
<path d="M36.8927 90.1994C35.9131 89.7378 34.9258 89.2815 33.9465 88.8097C27.5549 85.7309 21.5365 81.9445 16.0067 77.5229C13.2429 75.3152 10.9123 72.7044 8.89089 69.8198C7.33153 67.5948 6.00071 65.2453 5.00582 62.7175C4.47982 61.381 4.0536 60.0146 3.86315 58.5891C3.77403 57.9303 3.73441 57.2647 3.68832 56.6013C3.50905 54.0336 3.33346 51.4656 3.16155 48.8971C3.02291 46.8426 2.89074 44.7865 2.75095 42.7331C2.61269 40.7034 2.46567 38.6745 2.32703 36.6452C2.21276 34.9791 2.10725 33.3126 1.99375 31.6465C1.85434 29.6045 1.71265 27.5626 1.56868 25.5209C1.48488 24.3058 1.40248 23.0907 1.32148 21.8756C1.20061 20.1092 1.07962 18.3429 0.958493 16.5767C0.844226 14.9102 0.737957 13.2437 0.624452 11.5776C0.510185 9.899 0.39058 8.22119 0.27517 6.54225C0.250412 6.18021 0.234801 5.8178 0.214233 5.44294C0.297206 5.40674 0.382146 5.37514 0.468665 5.34828C3.67309 4.53596 6.89655 3.80623 10.1539 3.23263C12.0751 2.89322 14.0009 2.56588 15.9297 2.28568C17.6727 2.03301 19.4232 1.8271 21.1757 1.64457C23.0802 1.44772 24.9869 1.26745 26.897 1.14564C28.9211 1.01629 30.9505 0.957083 32.978 0.879018C35.6792 0.776819 38.3816 0.803594 41.0806 0.914091C43.3987 1.00988 45.7172 1.14036 48.0284 1.33986C50.3645 1.54099 52.6951 1.79794 55.02 2.1107C60.8864 2.89748 66.6841 4.12324 72.3634 5.77745C72.4118 5.7914 72.4598 5.80686 72.5516 5.83515C72.5516 5.93395 72.5581 6.04294 72.5516 6.1508C72.4381 7.742 72.3241 9.33294 72.2096 10.9236C72.1232 12.1513 72.0379 13.3788 71.9536 14.6062C71.835 16.2972 71.7159 17.9881 71.5963 19.6789C71.5106 20.9064 71.4284 22.1343 71.3423 23.3619C71.1996 25.4036 71.0557 27.4452 70.9107 29.4867C70.8254 30.7018 70.7413 31.9169 70.6586 33.1319C70.54 34.8229 70.4209 36.5138 70.3013 38.2046C70.2173 39.4069 70.134 40.6094 70.0514 41.8121C69.9323 43.5157 69.8124 45.219 69.6915 46.9221C69.6079 48.1123 69.5254 49.3024 69.4439 50.4923C69.3238 52.2082 69.2032 53.9243 69.0821 55.6404C69.031 56.3668 68.9922 57.0942 68.9251 57.8194C68.7968 59.2148 68.4155 60.5562 67.9478 61.8727C66.6908 65.4082 64.8595 68.6364 62.5894 71.6258C60.9678 73.769 59.0948 75.7138 57.0098 77.4195C55.9536 78.2824 54.9431 79.2011 53.8793 80.0541C51.2108 82.1935 48.3274 84.0214 45.3348 85.6755C42.6015 87.1862 39.8343 88.6366 37.0816 90.1131C37.0375 90.1368 36.9899 90.1553 36.8927 90.1994ZM68.0529 9.68404C67.9146 9.63766 67.7977 9.59504 67.6789 9.55809C62.3342 7.89649 56.8791 6.74288 51.328 6.00334C48.5872 5.63829 45.8368 5.3743 43.0768 5.21139C40.5062 5.05865 37.9329 5.00472 35.357 5.01868C31.4856 5.03929 27.6248 5.24281 23.7745 5.62924C21.3267 5.8711 18.889 6.18461 16.4615 6.56978C12.7686 7.15683 9.11003 7.90818 5.48574 8.82383C5.21912 8.89134 4.95249 8.96714 4.68587 9.03879C4.68587 9.22358 4.67635 9.38612 4.68587 9.54715C4.71977 10.0374 4.76471 10.5231 4.80014 11.0115C4.97789 13.504 5.15563 15.9964 5.33338 18.4887C5.51113 20.9935 5.68888 23.4984 5.86663 26.0032L6.32141 32.3905C6.49916 34.8954 6.6769 37.4002 6.85465 39.905C7.0324 42.3971 7.21015 44.8893 7.3879 47.3818C7.57644 50.062 7.75927 52.743 7.95123 55.4232C7.98932 55.9862 8.03655 56.5508 8.12111 57.1085C8.37097 58.7554 8.86308 60.3363 9.51402 61.8686C11.4866 66.5132 14.4488 70.4571 18.2714 73.7547C22.1527 77.1031 26.3417 80.0417 30.7646 82.6472C32.5853 83.7193 34.4592 84.6935 36.4292 85.4733C36.6642 85.5661 36.8482 85.5488 37.0664 85.4356C40.8774 83.4925 44.5469 81.2887 48.0482 78.8402C50.3602 77.2238 52.6189 75.5377 54.729 73.6679C57.4043 71.3055 59.6879 68.5414 61.4963 65.4769C63.3318 62.363 64.6489 59.0775 64.8291 55.4179C64.9098 53.7756 65.0576 52.137 65.1745 50.4957C65.2614 49.2686 65.3436 48.0407 65.4305 46.8131C65.5483 45.1473 65.667 43.4816 65.7866 41.8163C65.8715 40.6136 65.9527 39.411 66.038 38.2087C66.1538 36.5808 66.2705 34.9528 66.388 33.3246C66.5023 31.7215 66.6093 30.1191 66.7221 28.5145C66.8409 26.8237 66.9612 25.1329 67.0828 23.4422C67.1671 22.2525 67.2505 21.0627 67.333 19.8727C67.4519 18.1945 67.5713 16.5162 67.6914 14.8378C67.7818 13.5729 67.8727 12.3081 67.9641 11.0432C67.9973 10.5955 68.0232 10.1468 68.0529 9.6848V9.68404Z" fill="white"/>
<path d="M15.8086 8.24119C17.9717 7.88934 20.1435 7.58462 22.3165 7.29839C25.1587 6.92127 28.0177 6.7097 30.8812 6.57733C34.1005 6.42648 37.3224 6.39066 40.5432 6.53396C42.405 6.61693 44.2672 6.72026 46.1248 6.86885C48.5133 7.06005 50.8904 7.36137 53.258 7.73396C56.2511 8.20499 59.2193 8.79556 62.1488 9.56413C63.5581 9.93333 64.9506 10.3542 66.3504 10.7528C66.4471 10.7803 66.5408 10.8169 66.657 10.8561C66.641 11.1631 66.6315 11.4618 66.6094 11.7594C66.47 13.6378 66.3248 15.5155 66.1866 17.3939C66.0723 18.9594 65.9653 20.524 65.8503 22.0906C65.7116 23.9815 65.5661 25.872 65.4271 27.7629C65.3128 29.3159 65.2069 30.8692 65.093 32.4222C64.9533 34.3255 64.807 36.2285 64.6664 38.1318C64.5548 39.6471 64.4493 41.1627 64.3381 42.678C64.2218 44.2687 64.1039 45.859 63.9843 47.449C63.897 48.6388 63.8167 49.829 63.7264 51.0184C63.598 52.7087 63.512 54.4038 63.3204 56.0873C62.9799 59.0824 61.9842 61.8735 60.4793 64.4907C59.1081 66.8749 57.3865 68.9901 55.4764 70.9666C53.7243 72.7806 51.7349 74.3196 49.7322 75.8405C46.1244 78.5811 42.3471 81.0659 38.3081 83.1473C37.9147 83.3501 37.5056 83.5244 37.1228 83.745C36.8531 83.9004 36.6109 83.8879 36.3313 83.7895C34.8699 83.274 33.4823 82.6038 32.1309 81.8556C29.3123 80.2955 26.6701 78.4759 24.1002 76.5491C22.128 75.0701 20.1915 73.5461 18.3697 71.886C15.8696 69.6082 13.7134 67.0566 12.0923 64.0845C10.7653 61.651 9.89724 59.0688 9.55748 56.3211C9.4356 55.3376 9.38418 54.3454 9.30876 53.3562C9.18637 51.7539 9.06766 50.1512 8.95263 48.5479C8.86883 47.4082 8.7858 46.2686 8.70352 45.1289C8.58316 43.4884 8.46255 41.848 8.34168 40.2075C8.22741 38.6545 8.12076 37.1011 8.00726 35.5485C7.89299 33.9831 7.77263 32.4184 7.65722 30.8526C7.57114 29.6881 7.49002 28.5231 7.4047 27.3586C7.28738 25.7556 7.16918 24.1527 7.05009 22.5499C6.96324 21.3601 6.87983 20.1703 6.79299 18.9805C6.6772 17.4026 6.56052 15.8248 6.44295 14.2472C6.35585 13.0575 6.27041 11.8676 6.18661 10.6774C6.179 10.5669 6.18661 10.4553 6.18661 10.3203L15.8086 8.24119ZM25.0338 38.6624V34.1313C24.9637 34.1049 24.9081 34.0721 24.8483 34.0634C24.1532 33.9624 23.4596 33.9556 22.7671 34.0932C21.3256 34.382 19.9147 34.8043 18.5529 35.3543C17.7801 35.6647 17.0408 36.0565 16.2844 36.4076C16.0657 36.5091 15.9618 36.6678 15.9606 36.9081C15.9591 37.0463 15.9419 37.1839 15.9096 37.3184C15.7747 37.8882 15.2122 38.2446 14.754 38.0108C14.3982 37.8294 14.0817 37.7634 13.6791 37.8708C13.3104 37.9693 12.9451 37.8279 12.7246 37.4786C12.5094 37.1373 12.5265 36.6829 12.8008 36.3914C13.0247 36.1527 13.1504 35.8898 13.2433 35.5825C13.4014 35.0609 13.7983 34.8509 14.335 34.9598C14.4582 34.9871 14.5788 35.0249 14.6953 35.073C15.0968 35.2306 15.1588 35.1986 15.2491 34.7656C15.3207 34.4213 15.3946 34.0778 15.4601 33.7323C15.6955 32.4901 16.2901 31.4213 17.0938 30.4612C17.6118 29.8423 18.289 29.4599 19.0774 29.2766C19.226 29.2419 19.3821 29.2438 19.5345 29.2287C19.4478 29.3946 19.3299 29.5426 19.1871 29.6647C17.9927 30.7248 17.4175 32.116 17.0248 33.6082C16.9867 33.7591 16.954 33.9235 17.0755 34.0744C17.5542 33.9065 18.0144 33.735 18.4848 33.5868C18.6897 33.5226 18.8112 33.4159 18.8626 33.2134C18.8935 33.0923 18.9434 32.9758 18.9799 32.8559C19.1584 32.2783 19.4256 31.7313 19.7722 31.2343C20.3374 30.417 21.0748 29.7993 21.9985 29.412C22.2483 29.3076 22.5081 29.2121 22.8696 29.2487C21.7768 30.267 20.9171 31.3512 20.7053 32.8408C21.1906 32.751 21.626 32.6817 22.0545 32.584C22.1642 32.5587 22.2685 32.4569 22.3474 32.3664C22.4262 32.2759 22.4772 32.1522 22.5378 32.0413C22.8714 31.4181 23.323 30.8642 23.8679 30.4099C24.2834 30.0588 24.7645 29.8442 25.3152 29.8106C25.4009 29.8054 25.4893 29.8382 25.6181 29.8604L25.2135 30.2406C24.7315 30.69 24.3536 31.2376 24.1059 31.8456C24.0435 32.0002 24.0179 32.1695 23.9589 32.395L25.0742 32.3351V31.2644H35.9162V16.5469C26.571 16.5273 17.3897 17.5534 8.3592 20.0587C9.0354 29.283 9.7106 38.4974 10.3848 47.7016H25.0323C25.0403 47.5727 25.0528 47.4629 25.0528 47.3532C25.0528 45.7833 25.0528 44.2134 25.0528 42.6433C25.0528 42.5932 25.0486 42.5426 25.0528 42.4925C25.0646 42.3593 24.9987 42.2768 24.8807 42.2319C24.7508 42.1825 24.622 42.1187 24.4868 42.0972C23.9372 42.0124 23.3876 41.9155 22.8338 41.871C20.9065 41.7167 19.2218 42.3831 17.6727 43.4436C17.1315 43.8143 16.6386 44.254 16.1153 44.6504C16.0275 44.7123 15.9545 44.7924 15.9013 44.8852C15.8481 44.9779 15.8159 45.0811 15.8071 45.1874C15.7972 45.2869 15.7991 45.3884 15.7862 45.4891C15.7264 45.9416 15.2742 46.2433 14.8198 46.1611C14.5472 46.1144 14.2701 46.0976 13.9937 46.1109C13.7701 46.1215 13.5964 46.0657 13.4483 45.9096C13.2277 45.6769 13.1847 45.4099 13.2719 45.1063C13.3481 44.8423 13.4125 44.5761 13.4624 44.3072C13.5728 43.7347 13.951 43.4941 14.5132 43.6506C14.7448 43.7151 14.9783 43.6506 15.0598 43.462C15.107 43.3538 15.1044 43.2177 15.0979 43.0951C15.051 41.9324 15.3584 40.8603 15.9359 39.856C16.2105 39.3763 16.5773 38.9845 17.0648 38.7118C17.2617 38.6017 17.467 38.5078 17.7405 38.5327C17.3524 39.1402 17.0389 39.7542 16.8408 40.4183C16.6428 41.0824 16.4219 41.7503 16.4657 42.5155C16.7982 42.3103 17.0774 42.1199 17.3737 41.9607C17.5904 41.8446 17.6914 41.6877 17.7656 41.4539C17.9511 40.8693 18.1519 40.2848 18.4071 39.7274C18.6943 39.1003 19.2138 38.6715 19.8331 38.3698C20.0167 38.2804 20.2113 38.2005 20.4216 38.2284C20.1416 38.6866 19.8533 39.1135 19.6118 39.5653C19.3673 40.0231 19.1886 40.5081 19.1422 41.0617C19.4389 40.9783 19.6777 40.8886 19.9245 40.8493C20.118 40.8188 20.2033 40.7219 20.273 40.5582C20.3834 40.2911 20.5093 40.0306 20.6501 39.778C21.0223 39.1267 21.5429 38.624 22.2358 38.3125C22.3828 38.2465 22.5405 38.1544 22.7488 38.237C22.2457 38.9449 21.7772 39.6377 21.6538 40.5269C21.8857 40.5133 22.0754 40.4809 22.2609 40.496C22.6128 40.5243 22.8577 40.3798 23.0703 40.1147C23.5274 39.5441 24.1154 39.1342 24.7652 38.802C24.8528 38.7567 24.9405 38.7096 25.0326 38.6613L25.0338 38.6624ZM56.1677 63.652C56.135 63.6094 56.106 63.5643 56.0808 63.517C55.5998 62.3705 54.7344 61.6246 53.5871 61.175C52.2159 60.638 50.7933 60.5528 49.3593 60.7832C48.2855 60.9556 47.2198 61.1935 46.1644 61.4568C44.7852 61.8007 43.4494 62.2721 42.2176 62.9969C41.9308 63.1659 41.6554 63.3197 41.6463 63.7161C41.644 63.8379 41.5488 63.9835 41.452 64.0706C41.3476 64.1645 41.1808 64.2712 41.0605 64.252C40.7241 64.1974 40.3801 64.2102 40.0488 64.2897C39.9662 64.3097 39.8713 64.2923 39.7841 64.2795C39.2188 64.1965 38.9157 63.6886 39.1366 63.164C39.2543 62.8827 39.3373 62.6032 39.3541 62.2966C39.3735 61.9466 39.5826 61.7309 39.9254 61.6253C40.1539 61.5541 40.3444 61.6099 40.5482 61.6921C40.8247 61.8033 41.4657 61.5921 41.5385 61.3376C41.7019 60.7724 41.8055 60.1919 41.8474 59.6055C40.4057 60.2742 38.8502 60.6694 37.2615 60.7704V82.3142C37.4782 82.2045 37.6561 82.1166 37.8328 82.0249C41.1271 80.3075 44.2412 78.3069 47.2427 76.132C49.7836 74.2909 52.2498 72.3608 54.4434 70.1113C56.1128 68.3988 57.6569 66.5894 58.9074 64.548C60.413 62.0899 61.3938 59.4452 61.7641 56.5908C61.8806 55.6951 61.9492 54.793 62.02 53.8921C62.1419 52.3527 62.2486 50.8118 62.359 49.2712C62.36 49.1676 62.3549 49.0639 62.3438 48.9608H48.0422C48.0311 49.0943 48.0231 49.2052 48.0128 49.3157C47.9523 49.9651 47.9267 50.6202 47.8247 51.2632C47.3805 54.0573 46.1183 56.4211 43.9457 58.2776C43.6056 58.568 43.3934 58.8671 43.3637 59.3106C43.334 59.7541 43.2696 60.2028 43.2132 60.7127C43.5907 60.5784 43.8939 60.4593 44.2036 60.3635C44.41 60.2997 44.5498 60.1957 44.6385 59.9913C44.7701 59.692 44.9181 59.4 45.0819 59.1167C45.6688 58.0906 46.4512 57.2447 47.507 56.682C47.8593 56.4935 48.2516 56.3686 48.6382 56.2578C48.8782 56.1891 49.146 56.1657 49.4149 56.3234C49.3437 56.3732 49.3056 56.4041 49.2625 56.429C48.42 56.926 47.7515 57.6094 47.1741 58.381C46.9951 58.6201 46.8694 58.9002 46.7361 59.1699C46.6797 59.283 46.6671 59.4195 46.629 59.5674C47.235 59.4716 47.7828 59.3735 48.3339 59.3034C48.6421 59.2634 48.842 59.1488 49.0172 58.8667C49.5402 58.0242 50.249 57.3706 51.2077 57.0256C51.5124 56.9162 51.8248 56.8442 52.1752 56.9219C50.93 58.091 50.5754 58.5533 50.5084 59.105C51.1411 59.1114 51.7577 59.2879 52.3721 58.8886C53.0047 58.4753 53.7675 58.3036 54.5184 58.4055C54.7915 58.4398 55.0631 58.4847 55.3251 58.6917C54.6239 58.7898 53.9688 58.892 53.4672 59.4459C53.5673 59.4953 53.6222 59.5214 53.677 59.5497C54.3507 59.8763 54.9582 60.3224 55.4695 60.8658C56.0298 61.4526 56.2838 62.1567 56.3074 62.9498C56.3154 63.1798 56.3223 63.4231 56.1665 63.6508L56.1677 63.652ZM26.2435 32.5568V33.0094C26.2435 38.2582 26.2435 43.507 26.2435 48.7561C26.2435 49.7366 26.2998 50.7126 26.5101 51.675C27.0468 54.1157 28.2546 56.1465 30.3453 57.5773C33.2949 59.5957 36.5271 59.9867 39.9216 58.9508C42.445 58.1807 44.3532 56.6175 45.5763 54.2794C46.324 52.8497 46.677 51.313 46.7094 49.7121C46.7448 47.9675 46.7384 46.2218 46.7403 44.4765C46.7441 40.6339 46.7441 36.7914 46.7403 32.949C46.7403 32.8265 46.73 32.7039 46.7235 32.558L26.2435 32.5568ZM8.31807 18.9216C8.53175 18.8745 8.7039 18.8398 8.87492 18.7979C12.0873 18.0123 15.3297 17.3752 18.6021 16.8867C21.0459 16.5175 23.5007 16.2343 25.9647 16.0216C28.6697 15.788 31.3793 15.6523 34.0932 15.6143C37.5064 15.5611 40.9146 15.6848 44.3178 15.9537C46.9856 16.1654 49.6409 16.478 52.2837 16.8916C56.304 17.5289 60.2721 18.4001 64.1736 19.5571C64.276 19.5873 64.3834 19.6001 64.5202 19.6272C64.7598 16.9976 64.9967 14.4026 65.234 11.8008C65.1094 11.7567 65.0165 11.7198 64.9209 11.6911C62.2021 10.8803 59.4508 10.1978 56.667 9.6437C53.1598 8.94754 49.6274 8.41203 46.0615 8.12277C43.863 7.9444 41.6607 7.79656 39.4569 7.70794C37.6713 7.63629 35.8807 7.64345 34.0932 7.67023C32.3442 7.69587 30.5928 7.74565 28.848 7.86558C26.7493 8.00851 24.6514 8.19405 22.5633 8.43805C20.5256 8.67601 18.495 8.9845 16.4691 9.3092C14.1925 9.67387 11.9365 10.1562 9.6965 10.6947C9.03414 10.8539 8.37406 11.0213 7.66903 11.1959C7.88576 13.7796 8.10058 16.3365 8.31807 18.9216ZM64.3248 23.438H37.3152V31.2644H63.7234C63.9252 28.6468 64.1233 26.0594 64.3248 23.438ZM26.8026 55.8927H11.1366C11.1031 56.4629 11.1934 56.9954 11.2863 57.5253C11.6511 59.647 12.4204 61.6806 13.5534 63.5173C13.6993 63.7542 13.8638 63.827 14.1346 63.8224C15.0869 63.8062 16.0372 63.816 16.9886 63.816H35.7284V60.8217C32.0277 60.4348 28.9714 59.0024 26.8026 55.8927ZM63.1277 39.7278H48.0703C47.9885 40.3904 48.0212 47.3426 48.1084 47.6202C52.8901 47.616 57.6783 47.6292 62.4851 47.6074C62.7022 44.9592 62.9136 42.3597 63.1277 39.7278ZM20.975 72.2764C21.2135 72.4864 21.3871 72.6456 21.5677 72.7968C24.0694 74.8909 26.7127 76.7943 29.4464 78.5799C31.331 79.8097 33.2553 80.9735 35.2949 81.9405C35.4401 82.0095 35.5886 82.0713 35.7901 82.1611V72.2764H20.975ZM25.0265 41.0832V39.4993C24.6323 39.8839 24.3112 40.2158 24.0705 40.6431L25.0265 41.0832Z" fill="white"/>
<path d="M26.469 20.2593C26.0256 20.6798 25.5209 21.0433 25.2311 21.6003C24.9492 22.1415 24.7816 22.7136 24.6422 23.3223C25.1659 23.36 25.6661 23.4071 26.1658 23.426C26.2534 23.429 26.3623 23.3313 26.4324 23.254C26.8514 22.7909 27.321 22.3942 27.8821 22.1109C28.4431 21.8277 29.0411 21.6829 29.7389 21.7772C29.6319 21.8654 29.5603 21.922 29.4913 21.982C29.1207 22.304 28.7448 22.6208 28.3837 22.9531C28.2652 23.062 28.1742 23.2054 28.09 23.3445C27.8665 23.713 27.8889 23.8004 28.2313 24.046C28.8922 24.52 29.4917 25.0589 29.9751 25.7143C30.2535 26.0915 30.4836 26.495 30.567 26.9641C30.575 27.0094 30.5738 27.0561 30.581 27.1617C30.4832 27.0784 30.4264 27.0343 30.3746 26.9856C29.0525 25.7453 27.4703 25.1521 25.66 25.0932C24.3886 25.0517 23.1625 25.2848 21.9524 25.6306C19.7573 26.2578 17.734 27.2628 15.777 28.4104C15.646 28.4858 15.5835 28.5861 15.5447 28.7309C15.4837 28.9741 15.4011 29.2115 15.2979 29.4403C15.0145 30.0437 14.4066 30.319 13.7812 30.0927C13.3803 29.9439 12.9592 29.8549 12.5318 29.8287C11.9335 29.7933 11.5743 29.171 11.7861 28.6076C11.819 28.5125 11.8658 28.4226 11.9251 28.341C12.1681 28.0291 12.3246 27.6859 12.4382 27.3039C12.6286 26.6673 13.1957 26.4222 13.8257 26.6587C13.9903 26.7201 14.1461 26.8054 14.3007 26.877C14.5673 26.8189 14.6679 26.6443 14.7079 26.3958C14.8983 25.2173 15.1649 24.0576 15.6277 22.9482C16.1389 21.7221 16.9437 20.7548 18.1115 20.096C18.5004 19.8765 18.9178 19.7366 19.4309 19.7366C19.3547 19.8316 19.3193 19.9025 19.2618 19.95C17.8673 21.0969 17.12 22.5925 16.8348 24.3409C16.7666 24.7587 16.679 25.1732 16.5895 25.648L17.0945 25.4477C17.5897 25.252 18.0784 25.0476 18.5769 24.8647C18.7632 24.7964 18.8573 24.6984 18.9095 24.5049C19.1187 23.716 19.4145 22.9522 19.7916 22.2271C20.3462 21.1712 21.199 20.4312 22.2594 19.9097C22.5984 19.743 22.9568 19.6227 23.4401 19.6457C22.0545 20.8525 21.1956 22.2837 20.8501 24.084C21.0962 24.0116 21.2828 23.9536 21.4713 23.9023C21.789 23.8163 22.1055 23.7258 22.4266 23.6549C22.6049 23.6172 22.7001 23.521 22.7862 23.3637C23.0871 22.8128 23.3811 22.2543 23.7296 21.7331C24.2362 20.9758 24.9355 20.4509 25.8439 20.2374C26.0344 20.1933 26.2321 20.1974 26.4267 20.1793L26.469 20.2593Z" fill="white"/>
<path d="M50.0338 64.1739C49.322 64.6641 48.6455 65.1189 48.1987 65.9305C48.5968 65.9682 48.9399 66.0184 49.2843 66.0282C49.3985 66.0316 49.517 65.9411 49.6271 65.8803C50.0822 65.6265 50.5492 65.4055 51.0794 65.3554C51.4504 65.3207 51.8008 65.3554 52.1078 65.6446C51.7962 65.7159 51.5132 65.7578 51.2459 65.8483C50.9785 65.9388 50.74 66.0776 50.569 66.357C50.7423 66.4528 50.9053 66.5407 51.0642 66.6323C51.506 66.8831 51.9284 67.1603 52.2602 67.5499C52.5531 67.8942 52.7492 68.2807 52.7755 68.7382C52.7781 68.7885 52.7761 68.839 52.7694 68.889C52.7604 68.9151 52.7476 68.9398 52.7313 68.9622C52.6979 68.9555 52.666 68.9427 52.6372 68.9245C51.9071 68.1804 51.0085 67.749 49.9988 67.5208C47.9378 67.0551 45.9233 67.2316 43.9427 67.9296C43.0701 68.2374 42.2207 68.5949 41.4246 69.0689C41.2544 69.1703 41.1511 69.2726 41.1363 69.5015C41.0982 70.1022 40.7344 70.3111 40.1669 70.0826C40.0048 70.0135 39.8234 70.003 39.6542 70.0528C39.4082 70.1188 39.1656 70.0977 39.0098 69.8643C38.8456 69.6176 38.7957 69.3499 38.9717 69.0878C39.1241 68.8615 39.2711 68.6514 39.3339 68.3656C39.4131 68.0062 39.9353 67.841 40.2423 67.9998C40.373 68.0673 40.4937 68.1529 40.6667 68.0692C40.8396 67.9854 40.9382 67.8806 40.9999 67.6969C41.2666 66.8986 41.5393 66.1032 42.0283 65.3995C42.3563 64.9255 42.7474 64.5242 43.2651 64.2553C43.558 64.1045 43.8638 63.9913 44.2512 63.9883C43.3123 64.8738 42.6305 65.8588 42.4477 67.2074C42.9211 67.0019 43.3173 66.8409 43.7012 66.655C43.7918 66.6108 43.8497 66.4883 43.9084 66.3936C44.1141 66.0621 44.2946 65.7148 44.5197 65.3965C45.0735 64.6155 45.7668 64.0064 46.7411 63.7994C47.0485 63.7341 47.3665 63.7111 47.6807 63.6863C47.7992 63.6768 47.9215 63.7179 48.0963 63.7443C46.4558 64.5766 45.6144 65.3282 45.3192 66.2137C45.8239 66.147 46.3229 66.0904 46.8173 66.0078C46.9109 65.992 46.9921 65.877 47.0694 65.7989C47.4156 65.45 47.747 65.0857 48.1054 64.7501C48.5065 64.373 49.0104 64.204 49.5528 64.1501C49.7109 64.1305 49.8735 64.1629 50.0338 64.1739Z" fill="white"/>
<path d="M42.1634 70.7131C41.6089 71.4462 41.1244 72.1782 41.1838 73.1531C41.4744 73.0822 41.6972 72.989 41.8183 72.6964C42.1067 71.9995 42.5348 71.3983 43.1598 70.9511C43.4946 70.7112 43.8607 70.557 44.312 70.5902L44.034 70.8131C43.623 71.1415 43.2791 71.5224 43.1027 72.0255C43.0559 72.1594 43.0482 72.3068 43.014 72.4954C43.4409 72.432 43.7895 72.42 44.0374 72.0395C44.2659 71.6861 44.5741 71.372 44.8898 71.0868C45.2284 70.781 45.6516 70.672 46.2108 70.7731C45.6242 71.0955 45.2086 71.4704 44.9851 72.0775C45.4113 72.107 45.7682 72.1481 46.1121 71.9041C46.4711 71.6407 46.9129 71.512 47.3588 71.5409C47.0758 71.8147 46.725 71.9259 46.5798 72.2661C47.3268 72.7322 48.1392 73.1094 48.479 74.0763C48.3559 74.0133 48.2866 73.9786 48.2177 73.9428C47.9263 73.7919 47.6361 73.6381 47.3416 73.4902C46.3334 72.9815 45.2818 72.9279 44.197 73.1923C42.9827 73.4884 41.842 73.962 40.7461 74.5499C40.601 74.6276 40.5237 74.7155 40.5035 74.892C40.4692 75.1911 40.2898 75.3973 39.9802 75.4641C39.9086 75.4792 39.8137 75.4943 39.7593 75.4611C39.5448 75.3313 39.3106 75.3159 39.071 75.2865C38.8227 75.2555 38.6627 74.8339 38.8223 74.5771C38.9591 74.3549 39.0815 74.1243 39.1887 73.8866C39.2892 73.6701 39.5113 73.597 39.7726 73.6426C40.0963 73.6992 40.0826 73.6961 40.1493 73.3763C40.2304 72.9845 40.3127 72.5893 40.4395 72.2103C40.6208 71.6687 40.9876 71.2535 41.4634 70.9368C41.6618 70.8059 41.8743 70.698 42.1634 70.7131Z" fill="white"/>
<path d="M44.9432 41.8638C44.7082 41.093 44.8487 40.7324 45.3865 40.7045C45.3808 40.7879 45.4052 40.8897 45.3645 40.9406C45.179 41.174 45.2121 41.4052 45.3317 41.6466C45.348 41.6805 45.3607 41.716 45.3698 41.7526C45.4429 42.0482 45.3736 42.1674 45.0761 42.2519C44.7969 42.3318 44.5128 42.3978 44.2382 42.491C43.9335 42.5943 43.7163 42.7964 43.6352 43.1162C43.6238 43.1615 43.6383 43.2131 43.6409 43.2671C43.8177 43.3802 43.9304 43.261 44.0489 43.1754C44.2222 43.0498 44.3856 42.9088 44.5676 42.7983C44.7238 42.7036 44.8994 42.6633 45.067 42.8492C44.9699 43.1509 44.5048 43.1509 44.4777 43.5657C44.8693 43.5657 45.1291 43.2026 45.5724 43.1849C45.4479 43.4353 45.3439 43.6453 45.2094 43.9161L45.7712 43.8897C45.7617 43.9859 45.7812 44.0922 45.7377 44.1578C45.6562 44.2819 45.5393 44.3841 45.4353 44.492C45.3664 44.564 45.2491 44.6236 45.2312 44.7054C45.155 45.049 44.9386 45.2745 44.6686 45.4729C44.6164 45.5106 44.5966 45.5924 44.5246 45.7199C44.9672 45.715 45.2144 45.305 45.6071 45.3593C45.6894 45.6286 45.5161 45.8322 45.4688 46.0736L45.8211 46.2143C45.823 46.2573 45.8261 46.2935 45.8265 46.3297C45.8291 46.7445 45.6859 47.0462 45.2273 47.1288C45.1714 47.1386 45.1298 47.228 45.0483 47.3174C45.1565 47.3784 45.2357 47.4275 45.3188 47.4682C45.58 47.5987 45.6258 47.8393 45.4098 48.0395C45.1717 48.2598 44.8765 48.3224 44.5608 48.2715C44.1475 48.2047 43.7423 48.1097 43.3705 47.9011C43.2856 47.8536 43.1629 47.871 43.0578 47.8581C43.0517 47.9641 43.0067 48.0871 43.0456 48.173C43.3503 48.8462 43.1683 49.4428 42.7897 50.0209C42.611 50.2943 42.4423 50.5757 42.2911 50.8646C42.2019 51.0256 42.1557 51.2064 42.1566 51.39C42.1575 51.5736 42.2056 51.754 42.2964 51.9141C42.4367 52.181 42.5925 52.4396 42.763 52.6887C43.0845 53.1484 43.0765 53.2114 42.6392 53.5806C42.3975 53.7827 42.1692 53.9998 41.9555 54.2307C41.7148 54.4947 41.5365 54.8043 41.4687 55.1558C41.42 55.4108 41.2684 55.5582 41.0497 55.651C40.8311 55.7437 40.5976 55.8116 40.3729 55.8957C40.0301 56.0232 40.0194 56.0466 40.0949 56.386C40.1581 56.6722 40.1219 56.7759 39.8663 56.9102C39.6328 57.0331 39.3902 57.1436 39.1129 57.1127C39.0402 56.7062 39.2836 55.9836 39.5871 55.7045C39.6776 55.6164 39.7746 55.5351 39.8774 55.4613C40.5733 54.9888 41.0513 54.3273 41.4988 53.639C41.7624 53.2332 41.6611 52.7498 41.2063 52.5748C40.7111 52.3834 40.2519 52.1111 39.8477 51.7693C39.8305 51.7549 39.7997 51.7561 39.7627 51.7466C39.5742 51.8285 39.5521 52.0106 39.5418 52.1822C39.5315 52.3538 39.559 52.5318 39.5749 52.7064C39.6077 53.0681 39.5749 53.1397 39.2455 53.2932C38.9708 53.4218 38.6894 53.5361 38.4109 53.6571C37.976 53.8457 37.5802 54.0878 37.293 54.4759C37.1407 54.6837 36.9312 54.7798 36.671 54.7776C36.557 54.7733 36.443 54.7828 36.3313 54.8058C36.126 54.8564 36.0094 54.9854 36.0517 55.1871C36.1176 55.5005 35.9352 55.628 35.7055 55.7298C35.578 55.7852 35.4432 55.8223 35.3052 55.8399C35.0961 55.8674 35.0031 55.7845 35.0446 55.5876C35.1151 55.2554 35.2119 54.9239 35.4697 54.6788C35.8449 54.3224 36.2246 53.9939 36.7796 53.8992C37.3007 53.8106 37.7372 53.5127 38.1032 53.1295C38.5797 52.6302 38.5702 51.9228 38.1714 51.4876C38.0438 51.3492 37.9379 51.1904 37.8229 51.0407C37.6099 50.7639 37.4949 50.4712 37.7204 50.0801C37.5623 50.0703 37.4454 50.0556 37.3285 50.0568C36.5004 50.0639 35.6842 49.9923 34.887 49.7509C34.5442 49.6472 34.2238 49.5148 33.9435 49.284C33.6814 49.0683 33.6548 49.0721 33.3817 49.2542C33.1532 49.4051 32.901 49.4224 32.6511 49.3851C32.0634 49.2972 31.4791 49.1871 30.8945 49.0834C30.7951 49.0657 30.7006 49.0242 30.6016 49.0035C30.3125 48.942 30.1182 49.063 30.0938 49.3546C30.0668 49.6789 30.0718 50.0058 30.0759 50.3317C30.0786 50.3685 30.0887 50.4044 30.1055 50.4373C30.1224 50.4702 30.1458 50.4994 30.1742 50.5233C30.4427 50.725 30.4644 51.0067 30.4572 51.3024C30.4488 51.428 30.4488 51.5539 30.4572 51.6795C30.482 51.8952 30.5642 51.9567 30.7829 51.9499C31.1375 51.9393 31.2837 52.0706 31.2171 52.4077C31.179 52.6057 31.0982 52.8603 30.9505 52.9561C30.7543 53.0809 30.5486 52.8739 30.3978 52.7298C30.2835 52.6212 30.2184 52.4658 30.1293 52.3297C30.0466 52.206 29.9876 52.0465 29.8726 51.968C29.4677 51.6916 29.4174 51.3035 29.4536 50.8702C29.4951 50.3939 29.5157 49.9176 29.3999 49.4466C29.3702 49.3248 29.3321 49.2052 29.3012 49.0834C29.2765 48.9865 29.2509 48.8892 29.2361 48.7904C29.1877 48.4755 29.3363 48.1742 29.7838 48.1463C30.274 48.1153 30.7592 48.0041 31.2453 47.92C31.3645 47.8996 31.4788 47.8506 31.6414 47.8004C31.518 47.673 31.4357 47.5617 31.3275 47.4852C31.2575 47.4354 31.1299 47.3928 31.0636 47.4229C30.8084 47.5395 30.6633 47.389 30.5597 47.2189C30.41 46.9738 30.298 46.7053 30.1769 46.4436C30.135 46.3531 30.122 46.2501 30.0839 46.1573C29.868 45.6256 29.3222 45.4943 28.8891 45.8718C28.6407 46.0887 28.4873 46.3399 28.5295 46.6951C28.5451 46.826 28.4705 46.9806 28.4016 47.105C28.3429 47.2114 28.2317 47.2891 28.1467 47.3826C27.951 47.5979 27.8999 47.8306 28.0176 48.1108C28.1536 48.4351 28.1079 48.5355 27.8024 48.724C27.7375 48.7634 27.6701 48.7985 27.6005 48.8292C27.1949 49.0152 27.0723 48.9424 27.0494 48.5091C27.0387 48.3028 27.0776 48.1168 27.2113 47.9434C27.3881 47.7106 27.4888 47.43 27.5 47.139C27.5132 46.8613 27.6086 46.5937 27.7742 46.3693C28.1844 45.8111 28.584 45.2451 29.0045 44.6949C29.2848 44.3283 29.4174 44.3256 29.788 44.6194C29.9167 44.7209 30.0318 44.8415 30.167 44.9336C30.3749 45.0746 30.5859 45.2217 30.8126 45.3239C31.1295 45.4661 31.2879 45.3774 31.3675 45.0463C31.4121 44.8634 31.4433 44.6775 31.4609 44.4901C31.4935 44.0862 31.6635 43.7052 31.9431 43.4092C32.2428 43.0853 32.543 42.7613 32.8355 42.431C33.0785 42.1564 33.2975 41.8653 33.3383 41.4882C33.181 41.3809 32.9908 41.3316 32.8006 41.3486C32.6104 41.3656 32.4322 41.4479 32.2969 41.5813C32.2165 41.6605 32.164 41.7733 32.0737 41.8355C31.9749 41.9069 31.859 41.9515 31.7374 41.9649C31.6029 41.9732 31.5317 41.877 31.5778 41.7356C31.6159 41.6224 31.6601 41.5116 31.7302 41.3207C31.5195 41.369 31.3912 41.4018 31.2613 41.4279C31.1314 41.4539 30.992 41.4682 30.9383 41.3147C30.8888 41.1752 30.9105 41.0485 31.0773 40.9753C31.1619 40.9376 31.2613 40.869 31.2936 40.7901C31.5081 40.2693 31.9861 40.011 32.3982 39.6965C32.4763 39.6373 32.637 39.6761 32.7589 39.6833C32.9677 39.6961 33.1829 39.7821 33.4201 39.5811C33.2644 39.4721 33.1261 39.3759 32.9878 39.2794C32.7505 39.1123 32.7593 38.8898 33.0259 38.774C33.1662 38.7172 33.3182 38.694 33.4693 38.7065C33.8738 38.7378 34.252 38.6817 34.6165 38.4358C34.6268 38.5059 34.6519 38.5572 34.6367 38.5908C34.516 38.863 34.6401 39.0331 34.8557 39.1915C35.7954 39.8809 36.1622 40.8569 36.2342 41.9671C36.2589 42.3495 36.238 42.7346 36.238 43.1185L36.3298 43.1287C36.3629 42.9778 36.42 42.824 36.4242 42.6705C36.4391 42.1455 36.4806 41.6145 36.4284 41.0956C36.3427 40.2441 35.8495 39.5871 35.2682 38.9864C34.9974 38.7073 34.9829 38.4961 35.2385 38.2185C35.2968 38.1552 35.4053 38.1197 35.4941 38.1126C35.5211 38.1103 35.5924 38.248 35.5867 38.317C35.5707 38.5089 35.6899 38.5753 35.8346 38.581C36.0355 38.5814 36.2361 38.566 36.4345 38.535C36.7148 38.4972 36.9887 38.3728 37.3315 38.4799C37.2553 38.5553 37.2146 38.6149 37.1582 38.6421C37.0919 38.6737 37.0059 38.6658 36.9381 38.6933C36.8131 38.7431 36.7065 38.8329 36.7404 38.9758C36.7784 39.1357 36.9236 39.1221 37.0527 39.101C37.4275 39.0399 37.8004 38.9686 38.1763 38.9181C38.2993 38.9019 38.4296 38.9366 38.5785 38.9502C38.4852 39.2141 38.2932 39.2141 38.1257 39.2492C37.9771 39.2798 37.8255 39.2941 37.6773 39.3246C37.5433 39.3533 37.4382 39.4159 37.4747 39.6037L37.8011 39.7003C37.8129 39.7432 37.8308 39.7704 37.8248 39.7896C37.7212 40.1072 37.7737 40.2154 38.0914 40.218C38.315 40.218 38.5385 40.1524 38.7629 40.1181C38.9042 40.0966 39.0642 39.9888 39.1735 40.1641C39.2436 40.2773 39.1354 40.37 38.8688 40.4613C38.6898 40.5224 38.5123 40.5895 38.339 40.6653C38.2133 40.72 38.1321 40.8188 38.1668 40.9647C38.2015 41.1107 38.2917 41.2057 38.4555 41.2189C38.646 41.234 38.8341 41.2566 39.023 41.2755C39.0989 41.2817 39.1741 41.2943 39.2478 41.3132C39.362 41.3453 39.4889 41.4003 39.4527 41.535C39.4329 41.6085 39.3224 41.6745 39.2382 41.7096C39.148 41.7473 39.0383 41.736 38.9408 41.7612C38.8013 41.7971 38.6654 41.8465 38.502 41.8989C38.7305 42.1629 39.1495 41.906 39.2878 42.3137C38.8981 42.4962 38.4212 42.2915 38.0411 42.5958L38.3641 42.8111C38.3142 42.9216 38.2696 43.0212 38.2197 43.1313C38.4052 43.3274 38.63 43.3101 38.8539 43.2822C39.0413 43.2576 39.1487 43.3146 39.1476 43.5631L38.0636 43.6246L38.5016 44.1205C38.3519 44.168 38.2456 44.2197 38.1352 44.2314C38.0247 44.2431 37.9089 44.2133 37.7951 44.205C37.6237 44.1921 37.4831 44.2427 37.464 44.4312C37.4381 44.6899 37.2866 44.7861 37.0451 44.8348C36.7404 44.8955 36.6554 45.1666 36.8626 45.3963C36.974 45.5161 37.1067 45.6146 37.2542 45.6867C37.6278 45.8718 38.0083 46.0438 38.3923 46.2064C38.8476 46.4043 39.3465 46.4838 39.8416 46.4375C40.6795 46.3568 41.4543 46.513 42.1357 47.0345C42.2442 47.1228 42.3731 47.1833 42.5108 47.2106C42.6486 47.238 42.7911 47.2314 42.9256 47.1914C43.244 47.1016 43.3701 46.8388 43.209 46.5503C43.1374 46.4224 43.0228 46.3138 42.9134 46.2109C42.8002 46.1102 42.6802 46.0172 42.5543 45.9326C42.2899 45.744 42.1456 45.5038 42.1425 45.1708C42.1379 44.7031 42.0621 44.2483 41.853 43.8188C41.8016 43.7136 41.7982 43.5733 41.8096 43.4526C41.8268 43.2723 41.93 43.2048 42.0953 43.2931C42.2888 43.3964 42.4198 43.3233 42.5276 43.195C42.6643 43.0325 42.7992 42.859 42.8891 42.6693C43.1145 42.1927 43.4897 41.9905 44.0066 41.9713C44.3117 41.9592 44.6095 41.9034 44.9432 41.8638Z" fill="white"/>
<path d="M39.2774 34.6973H38.8295C38.7967 34.5895 38.7704 34.482 38.7312 34.379C38.7112 34.3187 38.6713 34.2667 38.6179 34.2314C38.5645 34.1961 38.5007 34.1796 38.4368 34.1844C38.2985 34.1844 38.1797 34.2376 38.1366 34.373C38.086 34.5141 38.0561 34.6617 38.0479 34.8112C38.0425 35.1506 38.0479 35.49 38.073 35.8264C38.097 36.176 38.2703 36.3819 38.4893 36.3593C38.698 36.3378 38.8116 36.1421 38.8135 35.7959C38.8088 35.7536 38.8001 35.7118 38.7876 35.6711L38.4828 35.6171V35.2302H39.3581C39.3707 35.7416 39.3657 36.2484 39.3581 36.8183L38.8573 36.721C38.8595 36.6995 38.8614 36.678 38.8633 36.6565C38.7978 36.6942 38.7346 36.7353 38.666 36.7651C38.2775 36.9322 37.8513 36.8051 37.654 36.4317C37.5548 36.2441 37.4933 36.0392 37.4731 35.8283C37.4411 35.4784 37.4411 35.1264 37.4731 34.7765C37.5015 34.5537 37.5746 34.3387 37.6879 34.1441C37.9081 33.7542 38.2254 33.6806 38.7483 33.7806C39.0942 33.8469 39.3197 34.2071 39.3177 34.6163C39.3219 34.6344 39.2998 34.657 39.2774 34.6973Z" fill="white"/>
<path d="M43.9905 36.7727C43.8831 36.7825 43.7974 36.7964 43.7117 36.7961C43.626 36.7957 43.5395 36.7799 43.4146 36.767C43.4043 36.5856 43.3959 36.4137 43.3834 36.2425C43.3757 36.1421 43.3651 36.0422 43.3483 35.943C43.2832 35.5493 43.2135 35.5067 42.7434 35.6002V36.764H42.2072V33.8892C42.6524 33.8783 43.1026 33.8225 43.5445 33.9371C43.7795 33.9978 43.9253 34.1807 43.9512 34.4327C43.9817 34.7385 43.9825 35.0383 43.6926 35.2725C44.0606 35.7213 43.8835 36.2583 43.9905 36.7727ZM42.7549 34.3086V35.0538C42.9971 35.0956 43.207 35.1122 43.3578 34.9093C43.4538 34.7807 43.4569 34.5281 43.3616 34.4153C43.194 34.2166 42.9766 34.3014 42.7549 34.3086Z" fill="white"/>
<path d="M31.2661 33.864H31.7944C31.805 33.9734 31.8222 34.0695 31.8229 34.1657C31.8256 34.6801 31.8229 35.1949 31.8229 35.7093C31.8229 35.8096 31.8229 35.9107 31.8321 36.011C31.8492 36.1878 31.9654 36.275 32.1307 36.3013C32.2134 36.3126 32.2974 36.2926 32.3659 36.2451C32.4343 36.1977 32.4821 36.1265 32.4998 36.0457C32.5185 35.9344 32.5253 35.8215 32.52 35.7089C32.52 35.1081 32.52 34.5074 32.52 33.8776H33.0395C33.0482 33.9775 33.0639 34.0741 33.0639 34.1706C33.0639 34.774 33.0791 35.3774 33.0547 35.9778C33.0281 36.6245 32.4091 37.0032 31.8058 36.7633C31.463 36.6272 31.2878 36.3651 31.2775 36.0064C31.2638 35.5301 31.2668 35.0531 31.2638 34.576C31.2649 34.352 31.2661 34.128 31.2661 33.864Z" fill="white"/>
<path d="M40.3952 33.8658C40.5369 33.8586 40.6485 33.8488 40.7604 33.8488C40.8595 33.8488 40.9581 33.8601 41.0853 33.868C41.3344 34.8316 41.5805 35.7846 41.8319 36.7579C41.7283 36.7708 41.6673 36.7828 41.606 36.7851C41.4917 36.7885 41.3813 36.7851 41.2522 36.7851L41.0758 36.2039H40.3944C40.3319 36.3925 40.2657 36.5894 40.1971 36.7938H39.6155L40.3952 33.8658ZM40.9962 35.6254C40.9132 35.2792 40.837 34.9621 40.7612 34.6449L40.6877 34.6509C40.6214 34.9677 40.5548 35.2841 40.4832 35.6254H40.9962Z" fill="white"/>
<path d="M28.9431 34.6431H28.5386C28.5142 34.5637 28.4841 34.4861 28.4487 34.4108C28.3344 34.2068 28.1204 34.1491 27.936 34.2656C27.7334 34.3938 27.6968 34.6299 27.8655 34.8151C27.9371 34.8852 28.0214 34.9413 28.1139 34.9807C28.2156 35.0297 28.3283 35.0561 28.4338 35.0987C28.838 35.2601 29.0467 35.5746 29.0154 35.971C28.9831 36.3858 28.7134 36.7252 28.3226 36.8199C27.7673 36.9541 27.0741 36.6573 27.1704 35.8997H27.6656C27.6876 35.9855 27.7163 36.0694 27.7513 36.1509C27.856 36.3598 28.0693 36.4277 28.2598 36.3236C28.4643 36.2104 28.5355 35.9668 28.3988 35.7764C28.3292 35.6879 28.2416 35.6149 28.1417 35.5622C27.9992 35.4822 27.8427 35.4268 27.6945 35.3555C27.3346 35.1828 27.1761 34.9196 27.2024 34.5455C27.2279 34.183 27.4416 33.9043 27.7936 33.7912C28.4186 33.5936 29.1061 34.0507 28.9431 34.6431Z" fill="white"/>
<path d="M29.1879 33.856H31.0108V34.3282L30.3877 34.3704V36.7813H29.8114V34.3704L29.1882 34.3327L29.1879 33.856Z" fill="white"/>
<path d="M45.9967 33.8665V34.3357L45.3899 34.3734V36.787L44.8064 36.8153C44.7656 35.9909 44.8125 35.1936 44.7786 34.3764L44.1825 34.3361V33.8654L45.9967 33.8665Z" fill="white"/>
<path d="M36.1586 36.784V34.3745L35.5415 34.3391V33.8424C35.8363 33.8424 36.1346 33.839 36.4328 33.8383H37.3686V34.3379L36.7428 34.3696C36.7169 34.7705 36.7329 35.168 36.7303 35.564C36.7276 35.9599 36.7303 36.3638 36.7303 36.7832L36.1586 36.784Z" fill="white"/>
<path d="M33.3873 34.3327V33.8673H35.2312V34.3327L34.6088 34.3666V36.784H34.0257V34.3704L33.3873 34.3327Z" fill="white"/>
<path d="M34.5076 37.6476C34.3394 38.4084 34.188 38.5321 33.6849 38.3146C33.9041 38.0284 34.1838 37.8444 34.5076 37.6476Z" fill="white"/>
<path d="M40.6548 9.01471V10.3143H40.2378L35.2177 10.3079C35.1289 10.3079 35.0398 10.3033 34.951 10.3079C34.7271 10.3237 34.6532 10.3987 34.6486 10.6054C34.644 10.8249 34.7301 10.9267 34.9632 10.932C35.3822 10.941 35.8012 10.9354 36.2182 10.9354C37.2326 10.9354 38.2469 10.9331 39.2608 10.9377C39.438 10.9345 39.6149 10.9519 39.788 10.9893C40.2717 11.1066 40.5951 11.3955 40.6888 11.8963C40.7847 12.4162 40.776 12.9497 40.6632 13.4663C40.6361 13.6161 40.5665 13.7552 40.4627 13.8675C40.3589 13.9798 40.225 14.0606 40.0767 14.1006C39.861 14.1718 39.6362 14.212 39.409 14.2197C37.4695 14.2288 35.53 14.225 33.5901 14.2243C33.5284 14.2243 33.4667 14.216 33.3723 14.2096V12.8896C33.4865 12.8855 33.6206 12.8761 33.7531 12.8761C35.3125 12.8761 36.8719 12.8761 38.4312 12.8761C38.5451 12.8818 38.6592 12.8769 38.7721 12.8614C38.8486 12.8496 38.9175 12.8092 38.9648 12.7486C39.012 12.688 39.034 12.6117 39.0262 12.5355C39.0052 12.3847 38.9218 12.2783 38.7596 12.261C38.6456 12.2499 38.5312 12.2451 38.4168 12.2466C37.1998 12.2466 35.9825 12.2466 34.7656 12.2448C34.601 12.2459 34.4365 12.2354 34.2734 12.2135C33.7059 12.132 33.349 11.8111 33.245 11.2593C33.1537 10.8021 33.1627 10.3307 33.2713 9.87719C33.3856 9.41861 33.6853 9.13841 34.1455 9.03508C34.3187 8.99738 34.4956 8.97879 34.673 8.97964C36.549 8.97964 38.425 8.98316 40.301 8.9902C40.4145 8.9902 40.5253 9.00529 40.6548 9.01471Z" fill="white"/>
<path d="M24.0041 12.8176C23.982 13.157 23.9359 13.4934 23.9428 13.8305C23.9538 14.3525 23.6164 14.7673 23.0146 14.9057C22.6699 14.9853 22.3229 15.0641 21.9724 15.1101C20.6679 15.2821 19.3634 15.4544 18.0554 15.5977C17.3553 15.6731 16.9699 15.3477 16.8396 14.6549C16.6477 13.6052 16.573 12.5379 16.6168 11.472C16.6392 10.8407 16.9443 10.4455 17.5618 10.3312C18.7425 10.1125 19.929 9.91638 21.1147 9.7233C21.4889 9.65856 21.8666 9.61537 22.2459 9.59395C22.5445 9.57999 22.8553 9.58339 23.1437 9.65164C23.4891 9.7331 23.7066 9.99633 23.7531 10.3501C23.8601 11.1692 23.9485 11.9909 24.0441 12.8115L24.0041 12.8176ZM22.5609 12.4733L22.5868 12.4714C22.5548 12.1599 22.535 11.8465 22.4878 11.5373C22.4383 11.2125 22.3335 11.1224 21.9987 11.1662C20.8073 11.3281 19.6175 11.5015 18.4294 11.6866C18.0866 11.7401 17.9724 11.8865 17.9906 12.2357C18.0181 12.7482 18.0729 13.2599 18.1342 13.7702C18.1674 14.0447 18.2523 14.1096 18.5437 14.0941C18.8594 14.0794 19.1763 14.053 19.4894 14.0093C20.3655 13.8871 21.2438 13.7592 22.1176 13.6205C22.4569 13.5669 22.5366 13.4651 22.5575 13.1125C22.5705 12.9002 22.5609 12.686 22.5609 12.4733Z" fill="white"/>
<path d="M26.4245 12.5969C26.4515 13.267 26.4778 13.9036 26.5056 14.5835L25.1813 14.7155C25.0872 12.9344 24.9954 11.1978 24.9025 9.43584C25.2536 9.40341 25.5656 9.36985 25.8783 9.34646C27.5218 9.22315 29.1654 9.0987 30.8093 8.98556C31.0356 8.96705 31.2635 8.9854 31.4838 9.03986C31.8647 9.14131 32.1416 9.40115 32.2213 9.78166C32.3538 10.4167 32.3949 11.0552 31.9241 11.6239C32.2982 11.9667 32.374 12.4159 32.3706 12.8903C32.3675 13.3262 32.3706 13.7626 32.3706 14.2264L31.079 14.2841C31.0702 13.9553 31.0618 13.6577 31.0546 13.3602C31.0508 13.2093 31.0546 13.0585 31.0447 12.9076C31.0108 12.4113 30.8192 12.2552 30.3042 12.2944C29.9995 12.3174 29.6971 12.3374 29.3939 12.36C28.4836 12.4284 27.5733 12.4971 26.6629 12.5659C26.6005 12.5727 26.5388 12.5829 26.4245 12.5969ZM26.3376 11.3015C26.7482 11.2747 27.125 11.2494 27.502 11.226C28.3598 11.1732 29.2183 11.1265 30.0757 11.0635C30.211 11.0516 30.3395 10.999 30.4436 10.9126C30.5781 10.795 30.5747 10.6204 30.4954 10.4601C30.4082 10.2855 30.2494 10.2715 30.0742 10.2832C29.1162 10.3553 28.1579 10.4224 27.2 10.4944C26.9017 10.5167 26.6043 10.5491 26.2782 10.5793C26.2992 10.8342 26.3171 11.0537 26.3376 11.3015Z" fill="white"/>
<path d="M59.5218 13.7702C60.2436 13.9459 60.9311 14.1141 61.619 14.2808C62.3068 14.4475 62.9951 14.6127 63.7173 14.7869C63.6857 15.1323 63.6556 15.4634 63.6213 15.8451C63.4743 15.8179 63.3547 15.801 63.2377 15.7734C62.0796 15.5014 60.9215 15.2287 59.7636 14.9555C59.6574 14.9306 59.548 14.9178 59.4159 14.897C59.3827 15.1885 59.3534 15.4457 59.3203 15.7361L63.5443 16.7988C63.5063 17.2137 63.4682 17.5938 63.4301 18.0083L57.772 16.6883C57.9068 14.868 58.0915 13.0642 58.253 11.2227L63.9633 12.5909C63.9222 13.0125 63.883 13.4172 63.8395 13.8622L59.5991 12.8523C59.5781 13.0314 59.5572 13.1747 59.545 13.3188C59.5317 13.4549 59.5298 13.591 59.5218 13.7702Z" fill="white"/>
<path d="M48.6719 13.5589C48.6433 14.0141 48.6166 14.438 48.5873 14.903C48.441 14.903 48.3058 14.9128 48.1729 14.903C47.2892 14.8276 46.4057 14.7482 45.5223 14.665C44.7905 14.5971 44.0589 14.5275 43.3276 14.4561C43.1132 14.4354 42.8968 14.4222 42.6854 14.3837C42.1289 14.283 41.8132 13.9251 41.7987 13.3715C41.7693 12.3301 41.8179 11.2881 41.9442 10.2538C42.0448 9.44567 42.6298 9.15151 43.2072 9.17527C43.9035 9.20356 44.6017 9.22845 45.2949 9.29444C46.3542 9.39513 47.4104 9.52901 48.4677 9.65158C48.5903 9.66591 48.7111 9.69834 48.8555 9.727C48.8277 10.1829 48.8014 10.6155 48.7728 11.0846C48.3595 11.0398 47.9844 10.9964 47.6084 10.9583C46.4109 10.8379 45.2133 10.7188 44.0155 10.6012C43.9269 10.592 43.8378 10.5888 43.7489 10.5917C43.4019 10.6053 43.2629 10.709 43.2335 11.0601C43.1909 11.5719 43.1756 12.087 43.1711 12.6007C43.1688 12.8646 43.3101 13.0102 43.5874 13.0476C44.1774 13.1271 44.7681 13.1984 45.3616 13.2538C46.3458 13.3459 47.3315 13.422 48.3165 13.5065C48.4174 13.5156 48.5165 13.5355 48.6719 13.5589Z" fill="white"/>
<path d="M56.8559 16.3704L55.4233 16.1132C55.4713 15.4457 55.5189 14.7876 55.57 14.0768C54.139 13.8222 52.7103 13.5967 51.2362 13.3636C51.176 14.0424 51.1189 14.6869 51.0583 15.3729L49.649 15.1689C49.7603 13.3776 49.87 11.6089 49.9816 9.80737L51.4164 10.0137C51.3729 10.6898 51.3307 11.349 51.2888 12.003C51.5386 12.1365 54.8535 12.6995 55.6732 12.7455C55.7254 12.0927 55.7779 11.4373 55.8347 10.7272L57.2981 10.9957C57.1507 12.7878 57.0059 14.5474 56.8559 16.3704Z" fill="white"/>
<path d="M10.4503 15.2277C10.5159 15.9341 10.5779 16.6042 10.6408 17.2925L9.31796 17.6443C9.13589 15.8285 8.99687 14.0375 8.83423 12.2251C9.40328 12.0897 9.94147 11.9611 10.4808 11.8336C11.6265 11.5659 12.7725 11.2991 13.9187 11.0334C14.0174 11.0104 14.1168 10.9915 14.2166 10.9734C14.7205 10.8822 15.1284 11.0466 15.3897 11.4754C15.8087 12.1629 15.8182 12.8805 15.4396 13.5895C15.2724 13.9033 14.9921 14.0858 14.6397 14.1722C13.3371 14.4897 12.0367 14.8163 10.7356 15.1406C10.6495 15.1617 10.5665 15.1919 10.4503 15.2277ZM10.2523 14.0123C10.3267 14.0084 10.4008 14.0004 10.4743 13.9881C11.617 13.7083 12.7589 13.4272 13.9001 13.1449C13.9991 13.1256 14.0957 13.0954 14.188 13.0548C14.3731 12.9612 14.4546 12.7319 14.3819 12.537C14.3164 12.3567 14.1937 12.299 13.953 12.3367C13.8905 12.3465 13.8281 12.3571 13.7667 12.3718L11.4814 12.9235L10.1731 13.2395C10.2001 13.5099 10.2252 13.7524 10.2523 14.0123Z" fill="white"/>
</svg>
