<svg width="96" height="95" viewBox="0 0 96 95" fill="none" xmlns="http://www.w3.org/2000/svg">
<path d="M94.0623 35.0255C90.3984 22.2334 82.6641 12.6067 70.9726 6.13651C66.115 3.44452 60.7894 1.68696 55.2755 0.956073C53.9247 0.777437 52.5775 0.598802 51.2159 0.420166H45.4602C45.2698 0.487173 45.075 0.541465 44.8774 0.582709C42.7189 0.886389 40.5407 1.05252 38.4183 1.5009C27.3691 3.84281 18.2731 9.41626 11.2798 18.2105C2.41595 29.3592 -0.724526 42.0422 1.75944 56.0044C3.8549 67.7801 9.80494 77.4032 19.32 84.6683C31.0005 93.5859 44.2281 96.4584 58.6282 93.4322C68.9293 91.2636 77.5271 86.035 84.3728 78.1C90.7784 70.6723 94.491 62.0692 95.5103 52.2907C96.1476 46.4966 95.656 40.6349 94.0623 35.0255ZM94.5749 49.0055C93.8446 73.2018 73.784 93.4072 48.3633 93.3966C23.0019 93.4841 1.79721 72.891 2.10838 46.8905C2.40876 21.8993 23.0558 1.40622 48.7877 1.59201C73.8595 1.77421 95.3789 22.4227 94.5749 49.0055Z" fill="white"/>
<path d="M48.4317 4.862C25.2288 4.82448 5.5458 23.3044 5.40011 47.2183C5.25262 71.5128 25.1316 90.2267 48.3076 90.1141C71.624 90.2589 91.2296 71.5253 91.3087 47.6523C91.3878 23.6116 71.7139 4.90129 48.4317 4.862ZM48.3399 86.3842C26.8601 86.4646 8.83198 69.044 9.17013 46.8968C9.50109 25.2515 27.3243 8.58654 48.3957 8.6044C69.944 8.62048 87.8551 26.0822 87.535 48.0722C87.2203 69.671 69.4259 86.4825 48.3399 86.3842Z" fill="white"/>
<path d="M77.9765 65.9947C75.3598 63.58 72.1373 61.9085 68.6467 61.1555C66.9235 60.7696 66.2958 60.8231 66.4199 62.8703C66.4451 63.2775 66.1969 63.9867 65.9253 64.0689C65.375 64.2351 64.5978 64.2601 64.1536 63.9743C63.7651 63.7259 63.6427 62.9846 63.5259 62.4362C63.4647 62.1522 63.6643 61.811 63.749 61.4965C65.026 56.7449 66.1772 51.961 66.4847 47.027C66.953 40.0455 65.7015 33.056 62.8388 26.6626C60.5581 21.5411 56.9248 17.4843 52.8166 13.7901C52.276 13.3243 51.6013 13.0398 50.8884 12.9773C46.7514 12.7397 42.6469 13.0702 38.6574 14.3188C38.276 14.4385 37.7203 14.785 37.695 15.0655C37.6627 15.4372 38.0008 15.9176 38.3066 16.2285C40.6682 18.6293 43.1307 20.9355 45.415 23.406C46.6291 24.719 47.5519 26.2981 48.757 27.9667C48.0824 27.9201 47.6994 27.938 47.336 27.8613C45.9311 27.5683 44.879 26.6965 43.8718 25.7462C40.4927 22.5913 36.7215 19.8785 32.6498 17.6736C32.1641 17.4092 31.2899 17.3789 30.8152 17.6361C27.4982 19.4351 24.557 21.8457 22.1491 24.7387C21.5627 25.4407 21.6095 25.7177 22.4225 26.191C23.6815 26.9324 24.9551 27.6451 26.1889 28.4221C29.3206 30.4008 32.2749 32.6438 35.0187 35.1263C34.4575 35.2674 34.0654 35.498 33.7433 35.4229C32.6264 35.1638 31.4572 34.9496 30.4464 34.4458C27.0623 32.7565 23.5114 31.4192 19.8504 30.4551C18.5031 30.0978 18.1219 30.2764 17.4708 31.4858C15.8257 34.5775 14.6827 37.9077 14.0838 41.3536C13.7708 43.0792 14.0838 43.5383 15.7799 43.8546C19.6075 44.5691 23.3074 45.6409 26.7016 47.6059C32.2235 50.8034 35.3855 55.5963 36.4522 61.8039C36.5835 62.5648 36.6932 63.383 35.9233 63.9224C35.1535 64.462 34.3999 64.1958 33.6426 63.8349C31.7889 62.9561 29.9302 62.0908 28.0667 61.2394C27.7197 61.0704 27.3413 60.9738 26.9552 60.9554C23.7175 60.9322 20.4799 60.9106 17.2423 60.9768C16.771 60.9768 16.0749 61.3626 15.9076 61.7503C15.7403 62.1379 15.9401 62.8685 16.2279 63.2722C18.2663 66.1304 20.3415 68.957 22.453 71.7521C22.7407 72.1042 23.1561 72.3299 23.6096 72.3809C27.7159 72.5416 27.7159 72.5255 31.2737 70.4748C31.3941 70.3875 31.5245 70.315 31.6623 70.2586C32.3602 70.0532 33.0616 69.6978 33.7649 69.6959C43.9868 69.6585 54.2088 69.6709 64.4306 69.6709C66.4092 69.6709 66.4092 69.6709 66.4577 71.6628C66.4793 72.6702 66.7725 72.9507 67.7636 72.7989C71.7207 72.188 75.1058 70.423 78.0521 67.7792C78.6186 67.2594 78.5755 66.552 77.9765 65.9947ZM54.7177 60.2407C54.1335 60.2418 53.5547 60.127 53.0156 59.9031C52.4766 59.6791 51.9878 59.3506 51.5782 58.9366C51.1686 58.5227 50.8463 58.0317 50.6302 57.4925C50.4142 56.9532 50.3088 56.3766 50.32 55.7964C50.329 53.3705 52.25 51.5091 54.7466 51.5197C55.9106 51.5293 57.0232 51.9967 57.8406 52.8199C58.658 53.643 59.1132 54.7546 59.1065 55.9106C59.0562 58.2329 57.0074 60.2515 54.7124 60.2407H54.7177Z" fill="white"/>
</svg>
