<svg width="157" height="70" viewBox="0 0 157 70" fill="none" xmlns="http://www.w3.org/2000/svg">
<path d="M4.52391 30.0552C4.52391 33.0322 0 33.0322 0 30.0552C0 27.1196 4.52391 27.1196 4.52391 30.0552ZM0.424551 35.0628V52.4031H4.06456V35.0683L0.424551 35.0628Z" fill="#F4F4F9"/>
<path d="M28.4825 49.2525C25.938 51.7356 22.6516 52.8944 19.1883 52.8944C10.2129 52.8944 6.18455 46.7652 6.14975 40.3216C6.11495 33.8779 10.3549 27.4701 19.1883 27.4701C20.8697 27.4614 22.5359 27.7851 24.0895 28.4223C25.643 29.0594 27.0528 29.9973 28.2362 31.181L25.5914 33.7027C23.8181 31.9866 21.4851 31.181 19.1842 31.181C12.8952 31.181 10.032 35.7692 10.0682 40.2857C10.1029 44.7677 12.7881 49.2166 19.1842 49.2166C21.4809 49.2166 24.0255 48.2703 25.7571 46.5542L28.4825 49.2525Z" fill="#F4F4F9"/>
<path d="M43.6425 35.1389H47.1767V52.4033H43.7135L43.5437 49.603C42.3772 51.8102 39.6921 52.86 37.5359 52.86C32.4483 52.8945 28.5967 49.6374 28.5967 43.7552C28.5967 37.9779 32.5889 34.7554 37.6069 34.7554C40.0805 34.7554 42.4482 35.9114 43.5437 37.8717L43.6425 35.1389ZM32.2283 43.7539C32.2283 47.3268 34.7729 49.4981 37.8825 49.4981C45.4103 49.4981 45.4103 38.0482 37.8825 38.0482C34.7743 38.0455 32.2283 40.2168 32.2283 43.7539Z" fill="#F4F4F9"/>
<path d="M61.489 39.3767C60.1109 38.1158 58.6257 37.7654 56.8955 37.7654C54.6683 37.7309 53.1859 38.4662 53.1859 39.8347C53.2207 41.2707 54.7407 41.8308 56.9665 42.0419C60.1819 42.3178 64.3871 43.0227 64.3523 47.4702C64.3175 50.6927 61.4542 52.9344 56.9317 52.9344C54.1046 52.9344 51.2775 52.304 48.9807 49.7464L50.8891 47.1902C52.5149 48.9835 54.9523 49.7119 57.0026 49.7464C58.7343 49.7464 60.6775 49.1173 60.7123 47.5061C60.7484 45.9652 59.2632 45.3692 56.6839 45.1237C53.3974 44.8091 49.6168 43.758 49.5848 39.9409C49.5848 36.1238 53.5784 34.6877 56.83 34.6877C59.5152 34.6877 61.6003 35.2837 63.5435 36.9998L61.489 39.3767Z" fill="#F4F4F9"/>
<path d="M69.8631 27.8894V37.6963C71.3831 35.5939 73.4335 34.8945 75.5173 34.8945C80.4295 34.8945 82.6915 38.1515 82.6915 43.0888V52.4032H79.0515V43.1219C79.0515 39.8649 77.3547 38.255 74.6695 38.255C71.8425 38.255 69.8631 40.5657 69.8631 43.4033V52.4032H66.2245V27.8894H69.8631Z" fill="#F4F4F9"/>
<path d="M106.757 49.2525C104.213 51.7356 100.926 52.8944 97.4631 52.8944C88.4877 52.8944 84.4593 46.7652 84.4245 40.3216C84.3897 33.8779 88.6296 27.4701 97.4631 27.4701C99.1444 27.4614 100.811 27.7851 102.364 28.4223C103.918 29.0594 105.328 29.9973 106.511 31.181L103.866 33.7027C102.1 31.9866 99.7668 31.181 97.4701 31.181C91.1797 31.181 88.3178 35.7692 88.3526 40.2857C88.3888 44.7677 91.0739 49.2166 97.4701 49.2166C99.7668 49.2166 102.311 48.2703 104.043 46.5542L106.757 49.2525Z" fill="#F4F4F9"/>
<path d="M121.912 35.1388H125.446V52.4033H121.988L121.811 49.6015C120.646 51.8087 117.96 52.8585 115.805 52.8585C110.716 52.893 106.865 49.636 106.865 43.7538C106.865 37.9764 110.857 34.7539 115.876 34.7539C118.35 34.7539 120.716 35.9099 121.811 37.8702L121.912 35.1388ZM110.498 43.7538C110.498 47.3267 113.042 49.498 116.15 49.498C123.678 49.498 123.678 38.0482 116.15 38.0482C113.049 38.0454 110.505 40.2167 110.505 43.7538H110.498Z" fill="#F4F4F9"/>
<path d="M132.024 35.1388L132.272 37.415C133.544 35.2078 135.522 34.7539 137.396 34.7539C139.093 34.7539 140.717 35.3498 141.711 36.2245L140.05 39.3766C139.167 38.6758 138.319 38.3254 136.976 38.3254C134.47 38.3254 132.276 39.8663 132.276 43.0544V52.4033H128.632V35.1388H132.024Z" fill="#F4F4F9"/>
<path d="M153.544 39.3767C152.166 38.1158 150.682 37.7654 148.951 37.7654C146.724 37.7309 145.241 38.4662 145.241 39.8347C145.276 41.2707 146.796 41.8308 149.022 42.0419C152.237 42.3178 156.442 43.0227 156.408 47.4702C156.371 50.6927 153.51 52.9344 148.987 52.9344C146.16 52.9344 143.333 52.304 141.036 49.7464L142.943 47.1902C144.569 48.9835 147.008 49.7119 149.057 49.7464C150.788 49.7464 152.733 49.1173 152.768 47.5061C152.802 45.9652 151.319 45.3692 148.739 45.1237C145.453 44.8091 141.672 43.758 141.64 39.9409C141.64 36.1238 145.634 34.6877 148.878 34.6877C151.565 34.6877 153.649 35.2837 155.593 36.9998L153.544 39.3767Z" fill="#F4F4F9"/>
<path d="M73.5156 8.91577H72.3074V15.2518H73.5156V8.91577Z" fill="#F4F4F9"/>
<path d="M77.5454 8.9156V5.85034H76.5292L74.4176 8.61762V15.2517H80.6049L81.4833 14.6695L82.8418 9.57776L82.2753 8.9156H77.5454Z" fill="#F4F4F9"/>
<path d="M80.5924 0H73.7717C72.3434 0 70.9735 0.562319 69.9636 1.56326C68.9536 2.56419 68.3862 3.92176 68.3862 5.33729V17.0175C68.3862 18.4331 68.9536 19.7906 69.9636 20.7916C70.9735 21.7925 72.3434 22.3548 73.7717 22.3548H80.5924C81.2996 22.3548 81.9999 22.2168 82.6533 21.9486C83.3067 21.6803 83.9004 21.2872 84.4005 20.7916C84.9006 20.296 85.2973 19.7076 85.568 19.06C85.8386 18.4125 85.9779 17.7184 85.9779 17.0175V5.33729C85.9779 3.92176 85.4105 2.56419 84.4005 1.56326C83.3905 0.562319 82.0207 0 80.5924 0ZM82.2627 15.2242L80.8708 16.1457H71.4054V8.02181H73.7494L76.088 4.95655H78.4543V8.02181H82.7012L83.8426 9.35579L82.2627 15.2242Z" fill="#F4F4F9"/>
<path d="M101.432 9.94629H93.4973V14.8587H102.212L102.225 9.94629H101.425H101.432ZM99.4828 14.5166H95.6563L96.0474 13.9082C96.1659 13.7214 96.2697 13.5259 96.3578 13.3233C96.4351 13.1473 96.5025 12.9673 96.5597 12.7839H96.2214V11.9921H96.7532C96.7532 11.9921 96.7532 11.9824 96.7532 11.9783C96.8035 11.6972 96.8379 11.4135 96.8562 11.1285C96.8659 10.963 96.8687 10.8347 96.8687 10.7561C96.8687 10.7023 96.8687 10.6719 96.8687 10.6691L96.8548 10.2553H99.4633V11.5065H98.6657V11.0471H97.6635C97.6538 11.2499 97.6343 11.5162 97.5911 11.8197C97.5828 11.8748 97.5744 11.93 97.5647 11.988H98.4583V12.7798H97.3935C97.3698 12.8626 97.3462 12.9453 97.3197 13.0295C97.2455 13.2646 97.1567 13.495 97.0538 13.7192H99.4814L99.4828 14.5166Z" fill="#F4F4F9"/>
<path d="M100.207 9.05235H100.658H100.981V8.71851H100.658H100.207H99.7557H92.2668V12.4183V12.8639V13.3109V13.6309H92.6023V13.3109V12.8639V12.4183V9.05235H99.7557H100.207Z" fill="#F4F4F9"/>
<path d="M99.7557 7.5061H91.0419V12.4185H91.3649V7.82615H99.7557V7.5061Z" fill="#F4F4F9"/>
<path d="M99.9798 0H93.1591C91.7308 0 90.3609 0.562319 89.3509 1.56326C88.341 2.56419 87.7736 3.92176 87.7736 5.33729V17.0175C87.7736 18.4331 88.341 19.7906 89.3509 20.7916C90.3609 21.7925 91.7308 22.3548 93.1591 22.3548H99.9798C101.408 22.3548 102.778 21.7925 103.788 20.7916C104.798 19.7906 105.365 18.4331 105.365 17.0175V5.33729C105.365 3.92176 104.798 2.56419 103.788 1.56326C102.778 0.562319 101.408 0 99.9798 0ZM103.12 15.7525H92.6037V14.5248H91.3648V13.3108H90.1399V6.61195H100.658V7.82591H101.883V9.05229H103.135L103.12 15.7525Z" fill="#F4F4F9"/>
<path d="M61.198 10.3532C60.9433 10.3479 60.6979 10.2569 60.5021 10.0953L58.4781 8.4247L57.6903 8.4109C56.7268 8.40945 55.7751 8.62066 54.9042 9.02916C54.0333 9.43767 53.2652 10.0332 52.6555 10.7726L52.2379 11.2858L52.2588 12.9564L52.565 13.0019C52.6725 12.6368 52.8962 12.316 53.2028 12.0873C53.5093 11.8585 53.8823 11.7342 54.266 11.7327C54.6585 11.7339 55.0396 11.8637 55.3498 12.1021C55.6601 12.3404 55.882 12.6737 55.9809 13.0502H60.1666C60.2658 12.6736 60.488 12.3402 60.7985 12.1019C61.1089 11.8636 61.4902 11.7338 61.8829 11.7327C62.2667 11.7339 62.6398 11.8583 62.9463 12.0874C63.2527 12.3165 63.4759 12.6378 63.5825 13.0033L64.4483 12.8805L64.458 11.323C63.8567 10.814 62.8072 10.3905 62.0638 10.3739L61.198 10.3532Z" fill="#F4F4F9"/>
<path d="M61.8759 12.6265C61.6431 12.6268 61.4199 12.7187 61.2553 12.8818C61.0906 13.045 60.998 13.2662 60.9976 13.4969C60.998 13.7277 61.0906 13.9489 61.2553 14.112C61.4199 14.2752 61.6431 14.367 61.8759 14.3674C62.1079 14.367 62.3303 14.2757 62.4946 14.1134C62.6589 13.9511 62.7518 13.731 62.7529 13.5011C62.7534 13.3865 62.7311 13.273 62.6873 13.167C62.6435 13.061 62.579 12.9646 62.4976 12.8834C62.4161 12.8021 62.3193 12.7376 62.2126 12.6935C62.1059 12.6494 61.9915 12.6266 61.8759 12.6265Z" fill="#F4F4F9"/>
<path d="M54.2618 12.6265C54.029 12.6268 53.8058 12.7187 53.6412 12.8818C53.4765 13.045 53.3839 13.2662 53.3835 13.4969C53.3839 13.7277 53.4765 13.9489 53.6412 14.112C53.8058 14.2752 54.029 14.367 54.2618 14.3674C54.4947 14.367 54.7179 14.2752 54.8825 14.112C55.0472 13.9489 55.1398 13.7277 55.1402 13.4969C55.1398 13.2662 55.0472 13.045 54.8825 12.8818C54.7179 12.7187 54.4947 12.6268 54.2618 12.6265Z" fill="#F4F4F9"/>
<path d="M61.205 0H54.3843C52.956 0 51.5862 0.562319 50.5762 1.56326C49.5662 2.56419 48.9988 3.92176 48.9988 5.33729V17.0175C48.9988 18.4331 49.5662 19.7906 50.5762 20.7916C51.5862 21.7925 52.956 22.3548 54.3843 22.3548H61.205C62.6333 22.3548 64.0032 21.7925 65.0131 20.7916C66.0231 19.7906 66.5905 18.4331 66.5905 17.0175V5.33729C66.5905 3.92176 66.0231 2.56419 65.0131 1.56326C64.0032 0.562319 62.6333 0 61.205 0ZM65.3405 13.6571L63.6033 13.9026C63.5116 14.2888 63.2913 14.6331 62.9779 14.8799C62.6644 15.1267 62.2762 15.2616 61.8759 15.2628C61.4831 15.2614 61.1018 15.1313 60.7914 14.8928C60.4809 14.6543 60.2588 14.3207 60.1596 13.944H55.9739C55.8751 14.32 55.6536 14.653 55.344 14.8913C55.0343 15.1296 54.6539 15.2597 54.2618 15.2614C53.8613 15.2605 53.4727 15.1257 53.159 14.8789C52.8453 14.6321 52.6248 14.2877 52.533 13.9012L51.361 13.7288L51.3276 10.9698L51.9609 10.2028C52.6553 9.36139 53.5299 8.68369 54.5213 8.21888C55.5128 7.75408 56.5962 7.51382 57.693 7.51553H58.4377C58.6625 7.51593 58.8801 7.59399 59.053 7.73625L61.0825 9.40821C61.1219 9.44016 61.1708 9.45855 61.2217 9.46063L62.0805 9.47994C63.1134 9.50339 64.4942 10.0883 65.225 10.8125L65.3642 10.9505L65.3405 13.6571Z" fill="#F4F4F9"/>
<path d="M19.477 70.0001C18.8718 70.0001 18.312 69.9018 17.7976 69.7051C17.2907 69.5008 16.8482 69.2171 16.4699 68.854C16.0992 68.4833 15.808 68.0521 15.5961 67.5604C15.3843 67.0687 15.2784 66.5278 15.2784 65.9377C15.2784 65.3476 15.3843 64.8067 15.5961 64.315C15.808 63.8232 16.103 63.3958 16.4813 63.0327C16.8595 62.662 17.3021 62.3783 17.8089 62.1816C18.3233 61.9774 18.8832 61.8752 19.4884 61.8752C20.1011 61.8752 20.6647 61.9812 21.1792 62.193C21.7011 62.3972 22.1437 62.7036 22.5068 63.1121L21.7692 63.827C21.4666 63.5093 21.1262 63.2748 20.748 63.1235C20.3697 62.9646 19.965 62.8852 19.5338 62.8852C19.0874 62.8852 18.6713 62.9608 18.2855 63.1121C17.9073 63.2634 17.5782 63.4753 17.2983 63.7476C17.0184 64.0199 16.799 64.3452 16.6401 64.7235C16.4888 65.0942 16.4132 65.4989 16.4132 65.9377C16.4132 66.3765 16.4888 66.785 16.6401 67.1632C16.799 67.5339 17.0184 67.8554 17.2983 68.1278C17.5782 68.4001 17.9073 68.6119 18.2855 68.7632C18.6713 68.9145 19.0874 68.9902 19.5338 68.9902C19.965 68.9902 20.3697 68.9145 20.748 68.7632C21.1262 68.6044 21.4666 68.3623 21.7692 68.037L22.5068 68.7519C22.1437 69.1604 21.7011 69.4706 21.1792 69.6824C20.6647 69.8942 20.0974 70.0001 19.477 70.0001Z" fill="white"/>
<path d="M22.7344 69.9093L26.3316 61.966H27.455L31.0635 69.9093H29.872L26.6607 62.6015H27.1146L23.9032 69.9093H22.7344ZM24.2663 67.9235L24.5727 67.0157H29.0437L29.3727 67.9235H24.2663Z" fill="white"/>
<path d="M32.2485 69.9093V61.966H35.3464C36.0423 61.966 36.6362 62.0757 37.1279 62.2951C37.6197 62.5145 37.9979 62.8322 38.2627 63.2483C38.5275 63.6644 38.6599 64.1599 38.6599 64.7348C38.6599 65.3098 38.5275 65.8053 38.2627 66.2214C37.9979 66.6299 37.6197 66.9438 37.1279 67.1632C36.6362 67.3826 36.0423 67.4923 35.3464 67.4923H32.8726L33.3832 66.9703V69.9093H32.2485ZM37.5591 69.9093L35.5393 67.0271H36.7535L38.796 69.9093H37.5591ZM33.3832 67.0838L32.8726 66.5278H35.3123C36.0386 66.5278 36.587 66.3727 36.9577 66.0625C37.336 65.7448 37.5251 65.3022 37.5251 64.7348C37.5251 64.1675 37.336 63.7287 36.9577 63.4185C36.587 63.1083 36.0386 62.9533 35.3123 62.9533H32.8726L33.3832 62.3859V67.0838Z" fill="white"/>
<path d="M43.5406 69.9093V61.966H47.1038C48.0192 61.966 48.7227 62.1514 49.2144 62.5221C49.7062 62.8852 49.952 63.3845 49.952 64.0199C49.952 64.4511 49.8537 64.8143 49.657 65.1093C49.4679 65.4043 49.2107 65.6313 48.8854 65.7902C48.5601 65.949 48.2083 66.0285 47.83 66.0285L48.0343 65.688C48.4882 65.688 48.8891 65.7675 49.2371 65.9263C49.5851 66.0852 49.8613 66.3197 50.0655 66.6299C50.2698 66.9325 50.3719 67.3107 50.3719 67.7646C50.3719 68.4455 50.1147 68.9751 49.6003 69.3533C49.0934 69.724 48.3369 69.9093 47.3307 69.9093H43.5406ZM44.6754 68.9902H47.2854C47.9133 68.9902 48.3936 68.8843 48.7265 68.6725C49.0594 68.4606 49.2258 68.1278 49.2258 67.6739C49.2258 67.2124 49.0594 66.8757 48.7265 66.6639C48.3936 66.4521 47.9133 66.3462 47.2854 66.3462H44.5733V65.427H47.0017C47.5766 65.427 48.0229 65.3211 48.3407 65.1093C48.6584 64.8975 48.8173 64.5798 48.8173 64.1561C48.8173 63.7325 48.6584 63.4147 48.3407 63.2029C48.0229 62.9911 47.5766 62.8852 47.0017 62.8852H44.6754V68.9902Z" fill="white"/>
<path d="M55.4197 70.0001C54.3757 70.0001 53.5549 69.7013 52.9573 69.1037C52.3596 68.506 52.0608 67.6323 52.0608 66.4824V61.966H53.1956V66.437C53.1956 67.3221 53.3885 67.9689 53.7743 68.3774C54.1677 68.7859 54.7199 68.9902 55.4311 68.9902C56.1497 68.9902 56.702 68.7859 57.0878 68.3774C57.4812 67.9689 57.6779 67.3221 57.6779 66.437V61.966H58.7786V66.4824C58.7786 67.6323 58.4798 68.506 57.8821 69.1037C57.2921 69.7013 56.4713 70.0001 55.4197 70.0001Z" fill="white"/>
<path d="M62.912 69.9093V66.8682L63.173 67.5717L59.7573 61.966H60.9715L63.8425 66.698H63.1843L66.0666 61.966H67.19L63.7857 67.5717L64.0354 66.8682V69.9093H62.912Z" fill="white"/>
<path d="M68.2084 69.9093V61.966H69.3431V69.9093H68.2084Z" fill="white"/>
<path d="M71.7212 69.9093V61.966H72.6517L77.9057 68.4909H77.4177V61.966H78.5525V69.9093H77.622L72.368 63.3845H72.856V69.9093H71.7212Z" fill="white"/>
<path d="M84.5159 70.0001C83.9031 70.0001 83.3395 69.9018 82.8251 69.7051C82.3107 69.5008 81.8644 69.2171 81.4861 68.854C81.1078 68.4833 80.8128 68.0521 80.601 67.5604C80.3892 67.0687 80.2833 66.5278 80.2833 65.9377C80.2833 65.3476 80.3892 64.8067 80.601 64.315C80.8128 63.8232 81.1078 63.3958 81.4861 63.0327C81.8719 62.662 82.322 62.3783 82.8365 62.1816C83.3509 61.9774 83.9183 61.8752 84.5386 61.8752C85.1665 61.8752 85.7414 61.9774 86.2634 62.1816C86.7854 62.3859 87.228 62.6923 87.5911 63.1008L86.8876 63.8043C86.5623 63.4866 86.2067 63.2559 85.8209 63.1121C85.4426 62.9608 85.0303 62.8852 84.584 62.8852C84.1301 62.8852 83.7064 62.9608 83.3131 63.1121C82.9272 63.2634 82.5906 63.4753 82.3031 63.7476C82.0232 64.0199 81.8038 64.3452 81.645 64.7235C81.4937 65.0942 81.418 65.4989 81.418 65.9377C81.418 66.3689 81.4937 66.7736 81.645 67.1519C81.8038 67.5226 82.0232 67.8479 82.3031 68.1278C82.5906 68.4001 82.9272 68.6119 83.3131 68.7632C83.6989 68.9145 84.1187 68.9902 84.5726 68.9902C84.9963 68.9902 85.401 68.9259 85.7868 68.7973C86.1802 68.6611 86.5434 68.4379 86.8762 68.1278L87.523 68.9902C87.1296 69.323 86.6682 69.5765 86.1386 69.7505C85.6166 69.9169 85.0757 70.0001 84.5159 70.0001ZM86.4336 68.8427V65.8923H87.523V68.9902L86.4336 68.8427Z" fill="white"/>
<path d="M95.058 70.0001C94.4528 70.0001 93.8741 69.9093 93.3218 69.7278C92.7696 69.5386 92.3346 69.2966 92.0168 69.0015L92.4367 68.1164C92.7393 68.3812 93.1251 68.6006 93.5942 68.7746C94.0632 68.9486 94.5511 69.0356 95.058 69.0356C95.5195 69.0356 95.8939 68.9826 96.1814 68.8767C96.4689 68.7708 96.6807 68.6271 96.8169 68.4455C96.953 68.2564 97.0211 68.0446 97.0211 67.81C97.0211 67.5377 96.9304 67.3183 96.7488 67.1519C96.5748 66.9854 96.3441 66.8531 96.0566 66.7547C95.7767 66.6488 95.4665 66.558 95.1261 66.4824C94.7857 66.4067 94.4415 66.3197 94.0935 66.2214C93.753 66.1155 93.4391 65.9831 93.1516 65.8242C92.8717 65.6653 92.6447 65.4535 92.4707 65.1887C92.2968 64.9164 92.2098 64.5684 92.2098 64.1448C92.2098 63.7362 92.3157 63.3618 92.5275 63.0214C92.7469 62.6734 93.0797 62.3972 93.5261 62.193C93.98 61.9812 94.5549 61.8752 95.2509 61.8752C95.7124 61.8752 96.1701 61.9358 96.624 62.0568C97.0779 62.1778 97.4713 62.3518 97.8041 62.5788L97.4296 63.4866C97.0892 63.2596 96.7299 63.097 96.3516 62.9987C95.9734 62.8927 95.6065 62.8398 95.2509 62.8398C94.8046 62.8398 94.4377 62.8965 94.1502 63.01C93.8627 63.1235 93.6509 63.2748 93.5147 63.4639C93.3861 63.653 93.3218 63.8649 93.3218 64.0994C93.3218 64.3793 93.4088 64.6024 93.5828 64.7689C93.7644 64.9353 93.9951 65.0677 94.275 65.166C94.5625 65.2644 94.8764 65.3552 95.2169 65.4384C95.5573 65.514 95.8977 65.601 96.2382 65.6994C96.5861 65.7977 96.9001 65.9263 97.18 66.0852C97.4675 66.2441 97.6982 66.4559 97.8722 66.7207C98.0462 66.9854 98.1332 67.3259 98.1332 67.7419C98.1332 68.1429 98.0235 68.5174 97.8041 68.8654C97.5847 69.2058 97.2443 69.4819 96.7828 69.6937C96.3289 69.898 95.754 70.0001 95.058 70.0001Z" fill="white"/>
<path d="M100.824 65.393H104.909V66.3575H100.824V65.393ZM100.926 68.9221H105.556V69.9093H99.791V61.966H105.397V62.9533H100.926V68.9221Z" fill="white"/>
<path d="M107.393 69.9093V61.966H110.491C111.187 61.966 111.781 62.0757 112.272 62.2951C112.764 62.5145 113.142 62.8322 113.407 63.2483C113.672 63.6644 113.804 64.1599 113.804 64.7348C113.804 65.3098 113.672 65.8053 113.407 66.2214C113.142 66.6299 112.764 66.9438 112.272 67.1632C111.781 67.3826 111.187 67.4923 110.491 67.4923H108.017L108.528 66.9703V69.9093H107.393ZM112.704 69.9093L110.684 67.0271H111.898L113.941 69.9093H112.704ZM108.528 67.0838L108.017 66.5278H110.457C111.183 66.5278 111.732 66.3727 112.102 66.0625C112.481 65.7448 112.67 65.3022 112.67 64.7348C112.67 64.1675 112.481 63.7287 112.102 63.4185C111.732 63.1083 111.183 62.9533 110.457 62.9533H108.017L108.528 62.3859V67.0838Z" fill="white"/>
<path d="M117.93 69.9093L114.435 61.966H115.66L118.872 69.2966H118.168L121.402 61.966H122.537L119.053 69.9093H117.93Z" fill="white"/>
<path d="M123.55 69.9093V61.966H124.685V69.9093H123.55Z" fill="white"/>
<path d="M130.615 70.0001C130.009 70.0001 129.45 69.9018 128.935 69.7051C128.428 69.5008 127.986 69.2171 127.608 68.854C127.237 68.4833 126.946 68.0521 126.734 67.5604C126.522 67.0687 126.416 66.5278 126.416 65.9377C126.416 65.3476 126.522 64.8067 126.734 64.315C126.946 63.8232 127.241 63.3958 127.619 63.0327C127.997 62.662 128.44 62.3783 128.947 62.1816C129.461 61.9774 130.021 61.8752 130.626 61.8752C131.239 61.8752 131.802 61.9812 132.317 62.193C132.839 62.3972 133.281 62.7036 133.645 63.1121L132.907 63.827C132.604 63.5093 132.264 63.2748 131.886 63.1235C131.507 62.9646 131.103 62.8852 130.671 62.8852C130.225 62.8852 129.809 62.9608 129.423 63.1121C129.045 63.2634 128.716 63.4753 128.436 63.7476C128.156 64.0199 127.937 64.3452 127.778 64.7235C127.627 65.0942 127.551 65.4989 127.551 65.9377C127.551 66.3765 127.627 66.785 127.778 67.1632C127.937 67.5339 128.156 67.8554 128.436 68.1278C128.716 68.4001 129.045 68.6119 129.423 68.7632C129.809 68.9145 130.225 68.9902 130.671 68.9902C131.103 68.9902 131.507 68.9145 131.886 68.7632C132.264 68.6044 132.604 68.3623 132.907 68.037L133.645 68.7519C133.281 69.1604 132.839 69.4706 132.317 69.6824C131.802 69.8942 131.235 70.0001 130.615 70.0001Z" fill="white"/>
<path d="M136.296 65.393H140.381V66.3575H136.296V65.393ZM136.398 68.9221H141.028V69.9093H135.263V61.966H140.869V62.9533H136.398V68.9221Z" fill="white"/>
</svg>
