<svg width="120" height="51" viewBox="0 0 120 51" fill="none" xmlns="http://www.w3.org/2000/svg">
<path d="M3.44457 32.5464C3.44457 34.8178 0 34.8178 0 32.5464C0 30.3065 3.44457 30.3065 3.44457 32.5464ZM0.323259 36.3672V49.598H3.09481V36.3714L0.323259 36.3672Z" fill="#4BAD4B"/>
<path d="M21.687 47.1937C19.7495 49.0883 17.2472 49.9725 14.6102 49.9725C7.77619 49.9725 4.70894 45.2959 4.68244 40.3794C4.65595 35.4628 7.8843 30.5736 14.6102 30.5736C15.8904 30.5669 17.1591 30.8139 18.342 31.3001C19.5249 31.7863 20.5983 32.5019 21.4994 33.405L19.4856 35.3291C18.1353 34.0197 16.359 33.405 14.607 33.405C9.81856 33.405 7.63841 36.9059 7.66597 40.352C7.69247 43.7718 9.73695 47.1663 14.607 47.1663C16.3558 47.1663 18.2933 46.4443 19.6117 45.1349L21.687 47.1937Z" fill="#4BAD4B"/>
<path d="M33.2299 36.4252H35.9209V49.5981H33.284L33.1547 47.4614C32.2665 49.1455 30.222 49.9465 28.5803 49.9465C24.7065 49.9728 21.7738 47.4877 21.7738 42.9995C21.7738 38.5914 24.8135 36.1326 28.6344 36.1326C30.5177 36.1326 32.3206 37.0146 33.1547 38.5103L33.2299 36.4252ZM24.539 42.9985C24.539 45.7246 26.4765 47.3814 28.8442 47.3814C34.576 47.3814 34.576 38.6451 28.8442 38.6451C26.4775 38.6429 24.539 40.2997 24.539 42.9985Z" fill="#4BAD4B"/>
<path d="M46.8186 39.6585C45.7693 38.6964 44.6385 38.4291 43.3211 38.4291C41.6253 38.4028 40.4965 38.9638 40.4965 40.0079C40.523 41.1037 41.6804 41.531 43.3751 41.6921C45.8234 41.9026 49.0253 42.4404 48.9988 45.8339C48.9723 48.2927 46.7921 50.0031 43.3486 50.0031C41.196 50.0031 39.0434 49.5221 37.2946 47.5707L38.7477 45.6202C39.9856 46.9886 41.8415 47.5443 43.4027 47.5707C44.7211 47.5707 46.2007 47.0907 46.2272 45.8613C46.2548 44.6856 45.1239 44.2309 43.16 44.0435C40.6576 43.8035 37.779 43.0014 37.7546 40.089C37.7546 37.1765 40.7954 36.0808 43.2712 36.0808C45.3157 36.0808 46.9034 36.5355 48.383 37.8449L46.8186 39.6585Z" fill="#4BAD4B"/>
<path d="M53.1947 30.8938V38.3765C54.3521 36.7724 55.9133 36.2387 57.4999 36.2387C61.2402 36.2387 62.9625 38.7239 62.9625 42.491V49.598H60.1909V42.5163C60.1909 40.0312 58.8989 38.8028 56.8545 38.8028C54.7019 38.8028 53.1947 40.5659 53.1947 42.731V49.598H50.4243V30.8938H53.1947Z" fill="#4BAD4B"/>
<path d="M81.2865 47.1937C79.3491 49.0883 76.8467 49.9725 74.2098 49.9725C67.3757 49.9725 64.3085 45.2959 64.282 40.3794C64.2555 35.4628 67.4838 30.5736 74.2098 30.5736C75.49 30.5669 76.7586 30.8139 77.9416 31.3001C79.1245 31.7863 80.1979 32.5019 81.0989 33.405L79.0852 35.3291C77.7402 34.0197 75.9638 33.405 74.2151 33.405C69.4255 33.405 67.2464 36.9059 67.2729 40.352C67.3005 43.7718 69.345 47.1663 74.2151 47.1663C75.9638 47.1663 77.9013 46.4443 79.2198 45.1349L81.2865 47.1937Z" fill="#4BAD4B"/>
<path d="M92.8253 36.4245H95.5163V49.5974H92.8836L92.749 47.4597C91.8619 49.1438 89.8163 49.9448 88.1757 49.9448C84.3008 49.9711 81.3681 47.486 81.3681 42.9978C81.3681 38.5897 84.4078 36.1309 88.2297 36.1309C90.1131 36.1309 91.9149 37.0129 92.749 38.5086L92.8253 36.4245ZM84.1344 42.9978C84.1344 45.724 86.0718 47.3807 88.4385 47.3807C94.1703 47.3807 94.1703 38.6444 88.4385 38.6444C86.0771 38.6423 84.1397 40.299 84.1397 42.9978H84.1344Z" fill="#4BAD4B"/>
<path d="M100.525 36.4245L100.714 38.1613C101.683 36.4772 103.189 36.1309 104.615 36.1309C105.907 36.1309 107.144 36.5856 107.901 37.2529L106.636 39.658C105.963 39.1233 105.318 38.856 104.295 38.856C102.387 38.856 100.717 40.0317 100.717 42.4642V49.5974H97.9424V36.4245H100.525Z" fill="#4BAD4B"/>
<path d="M116.911 39.6585C115.862 38.6964 114.732 38.4291 113.413 38.4291C111.717 38.4028 110.589 38.9638 110.589 40.0079C110.615 41.1037 111.773 41.531 113.467 41.6921C115.916 41.9026 119.117 42.4404 119.091 45.8339C119.063 48.2927 116.884 50.0031 113.441 50.0031C111.288 50.0031 109.136 49.5221 107.387 47.5707L108.839 45.6202C110.077 46.9886 111.934 47.5443 113.494 47.5707C114.812 47.5707 116.293 47.0907 116.319 45.8613C116.346 44.6856 115.216 44.2309 113.252 44.0435C110.75 43.8035 107.871 43.0014 107.847 40.089C107.847 37.1765 110.888 36.0808 113.358 36.0808C115.404 36.0808 116.99 36.5355 118.471 37.8449L116.911 39.6585Z" fill="#4BAD4B"/>
<path d="M54.9268 9.35864H53.6611V16.0097H54.9268V9.35864Z" fill="#4BAD4B"/>
<path d="M59.1481 9.35923V6.1416H58.0837L55.8717 9.04645V16.0103H62.353L63.2731 15.3992L64.6962 10.0543L64.1028 9.35923H59.1481Z" fill="#4BAD4B"/>
<path d="M62.34 0H55.1952C53.699 0 52.2641 0.590273 51.2061 1.64097C50.1481 2.69166 49.5537 4.11671 49.5537 5.60262V17.8635C49.5537 19.3494 50.1481 20.7745 51.2061 21.8252C52.2641 22.8758 53.699 23.4661 55.1952 23.4661H62.34C63.0808 23.4661 63.8144 23.3212 64.4989 23.0396C65.1833 22.7581 65.8053 22.3454 66.3291 21.8252C66.853 21.3049 67.2685 20.6873 67.552 20.0075C67.8355 19.3278 67.9815 18.5992 67.9815 17.8635V5.60262C67.9815 4.11671 67.3871 2.69166 66.3291 1.64097C65.2711 0.590273 63.8362 0 62.34 0ZM64.0897 15.981L62.6316 16.9483H52.7164V8.42058H55.1719L57.6215 5.20295H60.1003V8.42058H64.549L65.7447 9.82087L64.0897 15.981Z" fill="#4BAD4B"/>
<path d="M84.1692 10.4409H75.858V15.5975H84.9873L85.0004 10.4409H84.162H84.1692ZM82.1279 15.2384H78.1195L78.5292 14.5998C78.6533 14.4037 78.762 14.1985 78.8544 13.9858C78.9353 13.8011 79.0059 13.6121 79.0658 13.4196H78.7115V12.5884H79.2685C79.2685 12.5884 79.2685 12.5783 79.2685 12.5739C79.3212 12.2788 79.3572 11.981 79.3764 11.6819C79.3866 11.5082 79.3895 11.3735 79.3895 11.2909C79.3895 11.2345 79.3895 11.2026 79.3895 11.1997L79.375 10.7653H82.1075V12.0787H81.272V11.5965H80.2221C80.2119 11.8094 80.1915 12.0888 80.1463 12.4074C80.1376 12.4653 80.1288 12.5233 80.1186 12.5841H81.0547V13.4153H79.9392C79.9145 13.5022 79.8897 13.589 79.862 13.6774C79.7842 13.9242 79.6912 14.166 79.5835 14.4014H82.1264L82.1279 15.2384Z" fill="#4BAD4B"/>
<path d="M82.8863 9.50229H83.3587H83.697V9.15186H83.3587H82.8863H82.4139H74.5692V13.0356V13.5033V13.9725V14.3085H74.9206V13.9725V13.5033V13.0356V9.50229H82.4139H82.8863Z" fill="#4BAD4B"/>
<path d="M82.4137 7.87915H73.2859V13.0358H73.6242V8.2151H82.4137V7.87915Z" fill="#4BAD4B"/>
<path d="M82.6486 0H75.5038C74.0076 0 72.5726 0.590273 71.5147 1.64097C70.4567 2.69166 69.8623 4.11671 69.8623 5.60262V17.8635C69.8623 19.3494 70.4567 20.7745 71.5147 21.8252C72.5726 22.8758 74.0076 23.4661 75.5038 23.4661H82.6486C84.1448 23.4661 85.5797 22.8758 86.6377 21.8252C87.6957 20.7745 88.29 19.3494 88.29 17.8635V5.60262C88.29 4.11671 87.6957 2.69166 86.6377 1.64097C85.5797 0.590273 84.1448 0 82.6486 0ZM85.9381 16.5356H74.922V15.2468H73.6243V13.9725H72.3411V6.94064H83.3587V8.21495H84.6418V9.50229H85.9541L85.9381 16.5356Z" fill="#4BAD4B"/>
<path d="M42.024 10.8683C41.7571 10.8626 41.5001 10.7671 41.2949 10.5975L39.1748 8.84384L38.3495 8.82935C37.3403 8.82784 36.3433 9.04954 35.4311 9.47836C34.5188 9.90717 33.7142 10.5323 33.0755 11.3085L32.6381 11.8472L32.66 13.6008L32.9808 13.6486C33.0933 13.2654 33.3277 12.9286 33.6488 12.6885C33.9699 12.4484 34.3606 12.3178 34.7626 12.3163C35.1737 12.3175 35.5729 12.4538 35.8979 12.704C36.2229 12.9542 36.4553 13.3041 36.559 13.6992H40.9435C41.0475 13.304 41.2802 12.954 41.6054 12.7039C41.9306 12.4537 42.3301 12.3175 42.7414 12.3163C43.1435 12.3175 43.5343 12.4482 43.8553 12.6886C44.1763 12.9291 44.4101 13.2664 44.5218 13.65L45.4287 13.5211L45.4389 11.8863C44.809 11.3519 43.7096 10.9074 42.931 10.89L42.024 10.8683Z" fill="#4BAD4B"/>
<path d="M42.7339 13.2544C42.49 13.2548 42.2562 13.3512 42.0838 13.5224C41.9113 13.6937 41.8142 13.9259 41.8138 14.1681C41.8142 14.4104 41.9113 14.6425 42.0838 14.8138C42.2562 14.9851 42.49 15.0815 42.7339 15.0819C42.9769 15.0815 43.2099 14.9857 43.382 14.8153C43.5541 14.6449 43.6514 14.4138 43.6525 14.1725C43.6531 14.0522 43.6298 13.9331 43.5839 13.8218C43.538 13.7105 43.4705 13.6094 43.3851 13.5241C43.2998 13.4388 43.1983 13.3711 43.0866 13.3248C42.9748 13.2785 42.855 13.2546 42.7339 13.2544Z" fill="#4BAD4B"/>
<path d="M34.7582 13.2544C34.5143 13.2548 34.2805 13.3512 34.108 13.5224C33.9355 13.6937 33.8385 13.9259 33.8381 14.1681C33.8385 14.4104 33.9355 14.6425 34.108 14.8138C34.2805 14.9851 34.5143 15.0815 34.7582 15.0819C35.0021 15.0815 35.2359 14.9851 35.4083 14.8138C35.5808 14.6425 35.6779 14.4104 35.6782 14.1681C35.6779 13.9259 35.5808 13.6937 35.4083 13.5224C35.2359 13.3512 35.0021 13.2548 34.7582 13.2544Z" fill="#4BAD4B"/>
<path d="M42.0312 0H34.8864C33.3902 0 31.9553 0.590273 30.8973 1.64097C29.8393 2.69166 29.245 4.11671 29.245 5.60262V17.8635C29.245 19.3494 29.8393 20.7745 30.8973 21.8252C31.9553 22.8758 33.3902 23.4661 34.8864 23.4661H42.0312C43.5274 23.4661 44.9624 22.8758 46.0203 21.8252C47.0783 20.7745 47.6727 19.3494 47.6727 17.8635V5.60262C47.6727 4.11671 47.0783 2.69166 46.0203 1.64097C44.9624 0.590273 43.5274 0 42.0312 0ZM46.3633 14.336L44.5436 14.5937C44.4475 14.9991 44.2167 15.3605 43.8883 15.6196C43.56 15.8786 43.1534 16.0203 42.734 16.0215C42.3226 16.0201 41.9231 15.8835 41.5979 15.6331C41.2727 15.3828 41.0401 15.0326 40.9362 14.6372H36.5516C36.4481 15.0318 36.216 15.3814 35.8917 15.6315C35.5673 15.8817 35.1688 16.0183 34.7581 16.0201C34.3385 16.0191 33.9315 15.8777 33.6029 15.6186C33.2743 15.3595 33.0432 14.9979 32.9471 14.5923L31.7194 14.4113L31.6844 11.5151L32.3478 10.71C33.0752 9.82675 33.9914 9.11537 35.03 8.62745C36.0685 8.13954 37.2035 7.88734 38.3524 7.88913H39.1325C39.3679 7.88956 39.5958 7.9715 39.777 8.12083L41.9029 9.8759C41.9442 9.90944 41.9954 9.92875 42.0487 9.93093L42.9484 9.95119C44.0303 9.97581 45.4768 10.5898 46.2423 11.35L46.3881 11.4949L46.3633 14.336Z" fill="#4BAD4B"/>
</svg>
